<?xml version="1.0" encoding="UTF-8" standalone="no"?>
<!DOCTYPE svg PUBLIC "-//W3C//DTD SVG 1.1//EN"
 "http://www.w3.org/Graphics/SVG/1.1/DTD/svg11.dtd">
<!-- Generated by graphviz version 2.40.1 (20161225.0304)
 -->
<!-- Title: G Pages: 1 -->
<svg width="300pt" height="392pt"
 viewBox="0.00 0.00 299.50 392.00" xmlns="http://www.w3.org/2000/svg" xmlns:xlink="http://www.w3.org/1999/xlink">
<g id="graph0" class="graph" transform="scale(1 1) rotate(0) translate(4 388)">
<title>G</title>
<polygon fill="#ffffff" stroke="transparent" points="-4,4 -4,-388 295.5,-388 295.5,4 -4,4"/>
<!-- 0 -->
<g id="node1" class="node">
<title>0</title>
<text text-anchor="middle" x="101" y="-362.3" font-family="Times,serif" font-size="14.00" fill="#000000">0 (None)</text>
</g>
<!-- 2 -->
<g id="node2" class="node">
<title>2</title>
<text text-anchor="middle" x="101" y="-275.3" font-family="Times,serif" font-size="14.00" fill="#000000">2 (hurts)</text>
</g>
<!-- 0&#45;&gt;2 -->
<g id="edge1" class="edge">
<title>0&#45;&gt;2</title>
<path fill="none" stroke="#000000" d="M101,-347.9735C101,-336.1918 101,-320.5607 101,-307.1581"/>
<polygon fill="#000000" stroke="#000000" points="104.5001,-307.0033 101,-297.0034 97.5001,-307.0034 104.5001,-307.0033"/>
<text text-anchor="middle" x="119.5" y="-318.8" font-family="Times,serif" font-size="14.00" fill="#000000">ROOT</text>
</g>
<!-- 1 -->
<g id="node3" class="node">
<title>1</title>
<text text-anchor="middle" x="27" y="-188.3" font-family="Times,serif" font-size="14.00" fill="#000000">1 (It)</text>
</g>
<!-- 2&#45;&gt;1 -->
<g id="edge2" class="edge">
<title>2&#45;&gt;1</title>
<path fill="none" stroke="#000000" d="M83.3717,-260.985C78.0039,-255.3279 72.1612,-248.9929 67,-243 60.2421,-235.153 53.1735,-226.3568 46.8911,-218.308"/>
<polygon fill="#000000" stroke="#000000" points="49.5582,-216.0354 40.6746,-210.262 44.0189,-220.3152 49.5582,-216.0354"/>
<text text-anchor="middle" x="82" y="-231.8" font-family="Times,serif" font-size="14.00" fill="#000000">nsubj</text>
</g>
<!-- 4 -->
<g id="node4" class="node">
<title>4</title>
<text text-anchor="middle" x="101" y="-188.3" font-family="Times,serif" font-size="14.00" fill="#000000">4 (foot)</text>
</g>
<!-- 2&#45;&gt;4 -->
<g id="edge3" class="edge">
<title>2&#45;&gt;4</title>
<path fill="none" stroke="#000000" d="M101,-260.9735C101,-249.1918 101,-233.5607 101,-220.1581"/>
<polygon fill="#000000" stroke="#000000" points="104.5001,-220.0033 101,-210.0034 97.5001,-220.0034 104.5001,-220.0033"/>
<text text-anchor="middle" x="113.5" y="-231.8" font-family="Times,serif" font-size="14.00" fill="#000000">dobj</text>
</g>
<!-- 6 -->
<g id="node5" class="node">
<title>6</title>
<text text-anchor="middle" x="181" y="-188.3" font-family="Times,serif" font-size="14.00" fill="#000000">6 (walk)</text>
</g>
<!-- 2&#45;&gt;6 -->
<g id="edge4" class="edge">
<title>2&#45;&gt;6</title>
<path fill="none" stroke="#000000" d="M117.5761,-260.9735C129.1607,-248.3752 144.7927,-231.3755 157.6386,-217.4055"/>
<polygon fill="#000000" stroke="#000000" points="160.2528,-219.7335 164.4452,-210.0034 155.1001,-214.9953 160.2528,-219.7335"/>
<text text-anchor="middle" x="160" y="-231.8" font-family="Times,serif" font-size="14.00" fill="#000000">advcl</text>
</g>
<!-- 3 -->
<g id="node6" class="node">
<title>3</title>
<text text-anchor="middle" x="98" y="-101.3" font-family="Times,serif" font-size="14.00" fill="#000000">3 (her)</text>
</g>
<!-- 4&#45;&gt;3 -->
<g id="edge5" class="edge">
<title>4&#45;&gt;3</title>
<path fill="none" stroke="#000000" d="M100.3784,-173.9735C99.9721,-162.1918 99.4331,-146.5607 98.971,-133.1581"/>
<polygon fill="#000000" stroke="#000000" points="102.4634,-132.8768 98.6208,-123.0034 95.4676,-133.1181 102.4634,-132.8768"/>
<text text-anchor="middle" x="130" y="-144.8" font-family="Times,serif" font-size="14.00" fill="#000000">nmod:poss</text>
</g>
<!-- 5 -->
<g id="node7" class="node">
<title>5</title>
<text text-anchor="middle" x="181" y="-101.3" font-family="Times,serif" font-size="14.00" fill="#000000">5 (to)</text>
</g>
<!-- 6&#45;&gt;5 -->
<g id="edge6" class="edge">
<title>6&#45;&gt;5</title>
<path fill="none" stroke="#000000" d="M181,-173.9735C181,-162.1918 181,-146.5607 181,-133.1581"/>
<polygon fill="#000000" stroke="#000000" points="184.5001,-133.0033 181,-123.0034 177.5001,-133.0034 184.5001,-133.0033"/>
<text text-anchor="middle" x="195.5" y="-144.8" font-family="Times,serif" font-size="14.00" fill="#000000">mark</text>
</g>
<!-- 8 -->
<g id="node8" class="node">
<title>8</title>
<text text-anchor="middle" x="253" y="-101.3" font-family="Times,serif" font-size="14.00" fill="#000000">8 (it)</text>
</g>
<!-- 6&#45;&gt;8 -->
<g id="edge7" class="edge">
<title>6&#45;&gt;8</title>
<path fill="none" stroke="#000000" d="M198.1097,-173.9679C203.3196,-168.3101 208.9905,-161.979 214,-156 220.588,-148.137 227.4796,-139.3363 233.605,-131.2883"/>
<polygon fill="#000000" stroke="#000000" points="236.4433,-133.3375 239.6662,-123.2448 230.8528,-129.1248 236.4433,-133.3375"/>
<text text-anchor="middle" x="241" y="-144.8" font-family="Times,serif" font-size="14.00" fill="#000000">nmod</text>
</g>
<!-- 7 -->
<g id="node9" class="node">
<title>7</title>
<text text-anchor="middle" x="253" y="-14.3" font-family="Times,serif" font-size="14.00" fill="#000000">7 (without)</text>
</g>
<!-- 8&#45;&gt;7 -->
<g id="edge8" class="edge">
<title>8&#45;&gt;7</title>
<path fill="none" stroke="#000000" d="M253,-86.9735C253,-75.1918 253,-59.5607 253,-46.1581"/>
<polygon fill="#000000" stroke="#000000" points="256.5001,-46.0033 253,-36.0034 249.5001,-46.0034 256.5001,-46.0033"/>
<text text-anchor="middle" x="265" y="-57.8" font-family="Times,serif" font-size="14.00" fill="#000000">case</text>
</g>
</g>
</svg>
