<?xml version="1.0" encoding="UTF-8" standalone="no"?>
<!DOCTYPE svg PUBLIC "-//W3C//DTD SVG 1.1//EN"
 "http://www.w3.org/Graphics/SVG/1.1/DTD/svg11.dtd">
<!-- Generated by graphviz version 2.40.1 (20161225.0304)
 -->
<!-- Title: G Pages: 1 -->
<svg width="448pt" height="566pt"
 viewBox="0.00 0.00 448.00 566.00" xmlns="http://www.w3.org/2000/svg" xmlns:xlink="http://www.w3.org/1999/xlink">
<g id="graph0" class="graph" transform="scale(1 1) rotate(0) translate(4 562)">
<title>G</title>
<polygon fill="#ffffff" stroke="transparent" points="-4,4 -4,-562 444,-562 444,4 -4,4"/>
<!-- 0 -->
<g id="node1" class="node">
<title>0</title>
<text text-anchor="middle" x="188" y="-536.3" font-family="Times,serif" font-size="14.00" fill="#000000">0 (None)</text>
</g>
<!-- 2 -->
<g id="node2" class="node">
<title>2</title>
<text text-anchor="middle" x="188" y="-449.3" font-family="Times,serif" font-size="14.00" fill="#000000">2 (have)</text>
</g>
<!-- 0&#45;&gt;2 -->
<g id="edge1" class="edge">
<title>0&#45;&gt;2</title>
<path fill="none" stroke="#000000" d="M188,-521.9735C188,-510.1918 188,-494.5607 188,-481.1581"/>
<polygon fill="#000000" stroke="#000000" points="191.5001,-481.0033 188,-471.0034 184.5001,-481.0034 191.5001,-481.0033"/>
<text text-anchor="middle" x="206.5" y="-492.8" font-family="Times,serif" font-size="14.00" fill="#000000">ROOT</text>
</g>
<!-- 1 -->
<g id="node3" class="node">
<title>1</title>
<text text-anchor="middle" x="162" y="-362.3" font-family="Times,serif" font-size="14.00" fill="#000000">1 (Giraffes)</text>
</g>
<!-- 2&#45;&gt;1 -->
<g id="edge2" class="edge">
<title>2&#45;&gt;1</title>
<path fill="none" stroke="#000000" d="M182.6128,-434.9735C179.0569,-423.0751 174.3278,-407.2508 170.2963,-393.7606"/>
<polygon fill="#000000" stroke="#000000" points="173.5972,-392.5825 167.3803,-384.0034 166.8903,-394.5869 173.5972,-392.5825"/>
<text text-anchor="middle" x="192" y="-405.8" font-family="Times,serif" font-size="14.00" fill="#000000">nsubj</text>
</g>
<!-- 11 -->
<g id="node4" class="node">
<title>11</title>
<text text-anchor="middle" x="259" y="-362.3" font-family="Times,serif" font-size="14.00" fill="#000000">11 (leaves)</text>
</g>
<!-- 2&#45;&gt;11 -->
<g id="edge3" class="edge">
<title>2&#45;&gt;11</title>
<path fill="none" stroke="#000000" d="M202.7112,-434.9735C212.8974,-422.4919 226.6094,-405.6899 237.9494,-391.7944"/>
<polygon fill="#000000" stroke="#000000" points="240.6965,-393.9638 244.3076,-384.0034 235.2733,-389.5379 240.6965,-393.9638"/>
<text text-anchor="middle" x="246.5" y="-405.8" font-family="Times,serif" font-size="14.00" fill="#000000">ccomp</text>
</g>
<!-- 6 -->
<g id="node8" class="node">
<title>6</title>
<text text-anchor="middle" x="142" y="-275.3" font-family="Times,serif" font-size="14.00" fill="#000000">6 (neck)</text>
</g>
<!-- 11&#45;&gt;6 -->
<g id="edge11" class="edge">
<title>11&#45;&gt;6</title>
<path fill="none" stroke="#000000" d="M234.7575,-347.9735C217.2659,-334.9669 193.4652,-317.269 174.3527,-303.0571"/>
<polygon fill="#000000" stroke="#000000" points="176.3245,-300.1618 166.2114,-297.0034 172.1476,-305.7791 176.3245,-300.1618"/>
<text text-anchor="middle" x="223" y="-318.8" font-family="Times,serif" font-size="14.00" fill="#000000">nsubj</text>
</g>
<!-- 13 -->
<g id="node13" class="node">
<title>13</title>
<text text-anchor="middle" x="259" y="-275.3" font-family="Times,serif" font-size="14.00" fill="#000000">13 (high)</text>
</g>
<!-- 11&#45;&gt;13 -->
<g id="edge12" class="edge">
<title>11&#45;&gt;13</title>
<path fill="none" stroke="#000000" d="M259,-347.9735C259,-336.1918 259,-320.5607 259,-307.1581"/>
<polygon fill="#000000" stroke="#000000" points="262.5001,-307.0033 259,-297.0034 255.5001,-307.0034 262.5001,-307.0033"/>
<text text-anchor="middle" x="281.5" y="-318.8" font-family="Times,serif" font-size="14.00" fill="#000000">advmod</text>
</g>
<!-- 16 -->
<g id="node14" class="node">
<title>16</title>
<text text-anchor="middle" x="342" y="-275.3" font-family="Times,serif" font-size="14.00" fill="#000000">16 (tree)</text>
</g>
<!-- 11&#45;&gt;16 -->
<g id="edge13" class="edge">
<title>11&#45;&gt;16</title>
<path fill="none" stroke="#000000" d="M287.0847,-347.955C294.3176,-342.636 301.8018,-336.4877 308,-330 314.9099,-322.7674 321.3295,-313.97 326.6871,-305.7322"/>
<polygon fill="#000000" stroke="#000000" points="329.7395,-307.4518 332.0569,-297.1135 323.7983,-303.7501 329.7395,-307.4518"/>
<text text-anchor="middle" x="336" y="-318.8" font-family="Times,serif" font-size="14.00" fill="#000000">nmod</text>
</g>
<!-- 3 -->
<g id="node5" class="node">
<title>3</title>
<text text-anchor="middle" x="27" y="-188.3" font-family="Times,serif" font-size="14.00" fill="#000000">3 (a)</text>
</g>
<!-- 4 -->
<g id="node6" class="node">
<title>4</title>
<text text-anchor="middle" x="102" y="-101.3" font-family="Times,serif" font-size="14.00" fill="#000000">4 (very)</text>
</g>
<!-- 5 -->
<g id="node7" class="node">
<title>5</title>
<text text-anchor="middle" x="102" y="-188.3" font-family="Times,serif" font-size="14.00" fill="#000000">5 (long)</text>
</g>
<!-- 5&#45;&gt;4 -->
<g id="edge4" class="edge">
<title>5&#45;&gt;4</title>
<path fill="none" stroke="#000000" d="M102,-173.9735C102,-162.1918 102,-146.5607 102,-133.1581"/>
<polygon fill="#000000" stroke="#000000" points="105.5001,-133.0033 102,-123.0034 98.5001,-133.0034 105.5001,-133.0033"/>
<text text-anchor="middle" x="124.5" y="-144.8" font-family="Times,serif" font-size="14.00" fill="#000000">advmod</text>
</g>
<!-- 6&#45;&gt;3 -->
<g id="edge5" class="edge">
<title>6&#45;&gt;3</title>
<path fill="none" stroke="#000000" d="M118.1719,-260.9735C100.9793,-247.9669 77.5855,-230.269 58.7997,-216.0571"/>
<polygon fill="#000000" stroke="#000000" points="60.8842,-213.2454 50.7975,-210.0034 56.6609,-218.8279 60.8842,-213.2454"/>
<text text-anchor="middle" x="100.5" y="-231.8" font-family="Times,serif" font-size="14.00" fill="#000000">det</text>
</g>
<!-- 6&#45;&gt;5 -->
<g id="edge6" class="edge">
<title>6&#45;&gt;5</title>
<path fill="none" stroke="#000000" d="M132.642,-260.7829C129.7991,-255.1175 126.7118,-248.8288 124,-243 120.4536,-235.3772 116.771,-227.0311 113.4564,-219.3386"/>
<polygon fill="#000000" stroke="#000000" points="116.6361,-217.8722 109.4925,-210.0478 110.1975,-220.6192 116.6361,-217.8722"/>
<text text-anchor="middle" x="139.5" y="-231.8" font-family="Times,serif" font-size="14.00" fill="#000000">amod</text>
</g>
<!-- 8 -->
<g id="node9" class="node">
<title>8</title>
<text text-anchor="middle" x="183" y="-188.3" font-family="Times,serif" font-size="14.00" fill="#000000">8 (reach)</text>
</g>
<!-- 6&#45;&gt;8 -->
<g id="edge7" class="edge">
<title>6&#45;&gt;8</title>
<path fill="none" stroke="#000000" d="M150.4952,-260.9735C156.1575,-248.9585 163.7064,-232.9401 170.1041,-219.3646"/>
<polygon fill="#000000" stroke="#000000" points="173.4187,-220.5413 174.5157,-210.0034 167.0866,-217.5571 173.4187,-220.5413"/>
<text text-anchor="middle" x="173" y="-231.8" font-family="Times,serif" font-size="14.00" fill="#000000">acl</text>
</g>
<!-- 7 -->
<g id="node10" class="node">
<title>7</title>
<text text-anchor="middle" x="180" y="-101.3" font-family="Times,serif" font-size="14.00" fill="#000000">7 (to)</text>
</g>
<!-- 8&#45;&gt;7 -->
<g id="edge8" class="edge">
<title>8&#45;&gt;7</title>
<path fill="none" stroke="#000000" d="M182.3784,-173.9735C181.9721,-162.1918 181.4331,-146.5607 180.971,-133.1581"/>
<polygon fill="#000000" stroke="#000000" points="184.4634,-132.8768 180.6208,-123.0034 177.4676,-133.1181 184.4634,-132.8768"/>
<text text-anchor="middle" x="196.5" y="-144.8" font-family="Times,serif" font-size="14.00" fill="#000000">mark</text>
</g>
<!-- 10 -->
<g id="node11" class="node">
<title>10</title>
<text text-anchor="middle" x="264" y="-101.3" font-family="Times,serif" font-size="14.00" fill="#000000">10 (tender)</text>
</g>
<!-- 8&#45;&gt;10 -->
<g id="edge9" class="edge">
<title>8&#45;&gt;10</title>
<path fill="none" stroke="#000000" d="M199.7833,-173.9735C211.5127,-161.3752 227.3401,-144.3755 240.3466,-130.4055"/>
<polygon fill="#000000" stroke="#000000" points="242.9857,-132.7073 247.2382,-123.0034 237.8624,-127.9374 242.9857,-132.7073"/>
<text text-anchor="middle" x="241.5" y="-144.8" font-family="Times,serif" font-size="14.00" fill="#000000">dobj</text>
</g>
<!-- 9 -->
<g id="node12" class="node">
<title>9</title>
<text text-anchor="middle" x="264" y="-14.3" font-family="Times,serif" font-size="14.00" fill="#000000">9 (the)</text>
</g>
<!-- 10&#45;&gt;9 -->
<g id="edge10" class="edge">
<title>10&#45;&gt;9</title>
<path fill="none" stroke="#000000" d="M264,-86.9735C264,-75.1918 264,-59.5607 264,-46.1581"/>
<polygon fill="#000000" stroke="#000000" points="267.5001,-46.0033 264,-36.0034 260.5001,-46.0034 267.5001,-46.0033"/>
<text text-anchor="middle" x="272.5" y="-57.8" font-family="Times,serif" font-size="14.00" fill="#000000">det</text>
</g>
<!-- 12 -->
<g id="node15" class="node">
<title>12</title>
<text text-anchor="middle" x="262" y="-188.3" font-family="Times,serif" font-size="14.00" fill="#000000">12 (up)</text>
</g>
<!-- 13&#45;&gt;12 -->
<g id="edge14" class="edge">
<title>13&#45;&gt;12</title>
<path fill="none" stroke="#000000" d="M259.6216,-260.9735C260.0279,-249.1918 260.5669,-233.5607 261.029,-220.1581"/>
<polygon fill="#000000" stroke="#000000" points="264.5324,-220.1181 261.3792,-210.0034 257.5366,-219.8768 264.5324,-220.1181"/>
<text text-anchor="middle" x="283.5" y="-231.8" font-family="Times,serif" font-size="14.00" fill="#000000">advmod</text>
</g>
<!-- 14 -->
<g id="node16" class="node">
<title>14</title>
<text text-anchor="middle" x="340" y="-188.3" font-family="Times,serif" font-size="14.00" fill="#000000">14 (on)</text>
</g>
<!-- 16&#45;&gt;14 -->
<g id="edge15" class="edge">
<title>16&#45;&gt;14</title>
<path fill="none" stroke="#000000" d="M341.5856,-260.9735C341.3148,-249.1918 340.9554,-233.5607 340.6473,-220.1581"/>
<polygon fill="#000000" stroke="#000000" points="344.1429,-219.9202 340.4139,-210.0034 337.1447,-220.0812 344.1429,-219.9202"/>
<text text-anchor="middle" x="354" y="-231.8" font-family="Times,serif" font-size="14.00" fill="#000000">case</text>
</g>
<!-- 15 -->
<g id="node17" class="node">
<title>15</title>
<text text-anchor="middle" x="413" y="-188.3" font-family="Times,serif" font-size="14.00" fill="#000000">15 (a)</text>
</g>
<!-- 16&#45;&gt;15 -->
<g id="edge16" class="edge">
<title>16&#45;&gt;15</title>
<path fill="none" stroke="#000000" d="M356.7112,-260.9735C366.8974,-248.4919 380.6094,-231.6899 391.9494,-217.7944"/>
<polygon fill="#000000" stroke="#000000" points="394.6965,-219.9638 398.3076,-210.0034 389.2733,-215.5379 394.6965,-219.9638"/>
<text text-anchor="middle" x="389.5" y="-231.8" font-family="Times,serif" font-size="14.00" fill="#000000">det</text>
</g>
</g>
</svg>
