<?xml version="1.0" encoding="UTF-8" standalone="no"?>
<!DOCTYPE svg PUBLIC "-//W3C//DTD SVG 1.1//EN"
 "http://www.w3.org/Graphics/SVG/1.1/DTD/svg11.dtd">
<!-- Generated by graphviz version 2.40.1 (20161225.0304)
 -->
<!-- Title: G Pages: 1 -->
<svg width="166pt" height="305pt"
 viewBox="0.00 0.00 165.50 305.00" xmlns="http://www.w3.org/2000/svg" xmlns:xlink="http://www.w3.org/1999/xlink">
<g id="graph0" class="graph" transform="scale(1 1) rotate(0) translate(4 301)">
<title>G</title>
<polygon fill="#ffffff" stroke="transparent" points="-4,4 -4,-301 161.5,-301 161.5,4 -4,4"/>
<!-- 0 -->
<g id="node1" class="node">
<title>0</title>
<text text-anchor="middle" x="86.5" y="-275.3" font-family="Times,serif" font-size="14.00" fill="#000000">0 (None)</text>
</g>
<!-- 4 -->
<g id="node2" class="node">
<title>4</title>
<text text-anchor="middle" x="86.5" y="-188.3" font-family="Times,serif" font-size="14.00" fill="#000000">4 (lighted)</text>
</g>
<!-- 0&#45;&gt;4 -->
<g id="edge1" class="edge">
<title>0&#45;&gt;4</title>
<path fill="none" stroke="#000000" d="M86.5,-260.9735C86.5,-249.1918 86.5,-233.5607 86.5,-220.1581"/>
<polygon fill="#000000" stroke="#000000" points="90.0001,-220.0033 86.5,-210.0034 83.0001,-220.0034 90.0001,-220.0033"/>
<text text-anchor="middle" x="105" y="-231.8" font-family="Times,serif" font-size="14.00" fill="#000000">ROOT</text>
</g>
<!-- 2 -->
<g id="node4" class="node">
<title>2</title>
<text text-anchor="middle" x="42.5" y="-101.3" font-family="Times,serif" font-size="14.00" fill="#000000">2 (windows)</text>
</g>
<!-- 4&#45;&gt;2 -->
<g id="edge3" class="edge">
<title>4&#45;&gt;2</title>
<path fill="none" stroke="#000000" d="M67.9802,-173.7809C63.3508,-168.4177 58.777,-162.2908 55.5,-156 51.8432,-148.9802 49.1727,-140.8716 47.2396,-133.2148"/>
<polygon fill="#000000" stroke="#000000" points="50.6032,-132.2136 45.0375,-123.1984 43.7665,-133.7168 50.6032,-132.2136"/>
<text text-anchor="middle" x="82" y="-144.8" font-family="Times,serif" font-size="14.00" fill="#000000">nsubjpass</text>
</g>
<!-- 3 -->
<g id="node5" class="node">
<title>3</title>
<text text-anchor="middle" x="130.5" y="-101.3" font-family="Times,serif" font-size="14.00" fill="#000000">3 (are)</text>
</g>
<!-- 4&#45;&gt;3 -->
<g id="edge4" class="edge">
<title>4&#45;&gt;3</title>
<path fill="none" stroke="#000000" d="M98.2025,-173.9736C101.6878,-168.316 105.4008,-161.9837 108.5,-156 112.3667,-148.5346 116.1514,-140.2387 119.4615,-132.5439"/>
<polygon fill="#000000" stroke="#000000" points="122.7292,-133.8018 123.3708,-123.2264 116.2744,-131.0934 122.7292,-133.8018"/>
<text text-anchor="middle" x="136" y="-144.8" font-family="Times,serif" font-size="14.00" fill="#000000">auxpass</text>
</g>
<!-- 1 -->
<g id="node3" class="node">
<title>1</title>
<text text-anchor="middle" x="42.5" y="-14.3" font-family="Times,serif" font-size="14.00" fill="#000000">1 (Some)</text>
</g>
<!-- 2&#45;&gt;1 -->
<g id="edge2" class="edge">
<title>2&#45;&gt;1</title>
<path fill="none" stroke="#000000" d="M42.5,-86.9735C42.5,-75.1918 42.5,-59.5607 42.5,-46.1581"/>
<polygon fill="#000000" stroke="#000000" points="46.0001,-46.0033 42.5,-36.0034 39.0001,-46.0034 46.0001,-46.0033"/>
<text text-anchor="middle" x="51" y="-57.8" font-family="Times,serif" font-size="14.00" fill="#000000">det</text>
</g>
</g>
</svg>
