<?xml version="1.0" encoding="UTF-8" standalone="no"?>
<!DOCTYPE svg PUBLIC "-//W3C//DTD SVG 1.1//EN"
 "http://www.w3.org/Graphics/SVG/1.1/DTD/svg11.dtd">
<!-- Generated by graphviz version 2.40.1 (20161225.0304)
 -->
<!-- Title: G Pages: 1 -->
<svg width="933pt" height="479pt"
 viewBox="0.00 0.00 933.00 479.00" xmlns="http://www.w3.org/2000/svg" xmlns:xlink="http://www.w3.org/1999/xlink">
<g id="graph0" class="graph" transform="scale(1 1) rotate(0) translate(4 475)">
<title>G</title>
<polygon fill="#ffffff" stroke="transparent" points="-4,4 -4,-475 929,-475 929,4 -4,4"/>
<!-- 0 -->
<g id="node1" class="node">
<title>0</title>
<text text-anchor="middle" x="312.5" y="-449.3" font-family="Times,serif" font-size="14.00" fill="#000000">0 (None)</text>
</g>
<!-- 2 -->
<g id="node2" class="node">
<title>2</title>
<text text-anchor="middle" x="312.5" y="-362.3" font-family="Times,serif" font-size="14.00" fill="#000000">2 (spend)</text>
</g>
<!-- 0&#45;&gt;2 -->
<g id="edge1" class="edge">
<title>0&#45;&gt;2</title>
<path fill="none" stroke="#000000" d="M312.5,-434.9735C312.5,-423.1918 312.5,-407.5607 312.5,-394.1581"/>
<polygon fill="#000000" stroke="#000000" points="316.0001,-394.0033 312.5,-384.0034 309.0001,-394.0034 316.0001,-394.0033"/>
<text text-anchor="middle" x="331" y="-405.8" font-family="Times,serif" font-size="14.00" fill="#000000">ROOT</text>
</g>
<!-- 1 -->
<g id="node3" class="node">
<title>1</title>
<text text-anchor="middle" x="43.5" y="-275.3" font-family="Times,serif" font-size="14.00" fill="#000000">1 (Monkeys)</text>
</g>
<!-- 2&#45;&gt;1 -->
<g id="edge2" class="edge">
<title>2&#45;&gt;1</title>
<path fill="none" stroke="#000000" d="M278.3312,-361.606C243.2665,-356.4536 187.4884,-346.4579 141.5,-330 121.0475,-322.6807 99.5104,-311.8555 81.8516,-302.0591"/>
<polygon fill="#000000" stroke="#000000" points="83.4248,-298.9279 72.997,-297.054 79.9802,-305.0218 83.4248,-298.9279"/>
<text text-anchor="middle" x="156.5" y="-318.8" font-family="Times,serif" font-size="14.00" fill="#000000">nsubj</text>
</g>
<!-- 4 -->
<g id="node4" class="node">
<title>4</title>
<text text-anchor="middle" x="132.5" y="-275.3" font-family="Times,serif" font-size="14.00" fill="#000000">4 (lot)</text>
</g>
<!-- 2&#45;&gt;4 -->
<g id="edge3" class="edge">
<title>2&#45;&gt;4</title>
<path fill="none" stroke="#000000" d="M278.3433,-358.5659C255.0246,-352.6982 223.8803,-343.2741 198.5,-330 184.8704,-322.8716 171.1888,-312.8786 159.8447,-303.6254"/>
<polygon fill="#000000" stroke="#000000" points="161.9422,-300.8164 152.0318,-297.0699 157.4427,-306.1788 161.9422,-300.8164"/>
<text text-anchor="middle" x="211" y="-318.8" font-family="Times,serif" font-size="14.00" fill="#000000">dobj</text>
</g>
<!-- 7 -->
<g id="node5" class="node">
<title>7</title>
<text text-anchor="middle" x="204.5" y="-275.3" font-family="Times,serif" font-size="14.00" fill="#000000">7 (up)</text>
</g>
<!-- 2&#45;&gt;7 -->
<g id="edge4" class="edge">
<title>2&#45;&gt;7</title>
<path fill="none" stroke="#000000" d="M278.3374,-352.6928C265.9391,-346.8699 252.3303,-339.2379 241.5,-330 233.47,-323.1507 226.2372,-314.2198 220.3412,-305.7494"/>
<polygon fill="#000000" stroke="#000000" points="223.129,-303.6191 214.7036,-297.1956 217.2843,-307.4713 223.129,-303.6191"/>
<text text-anchor="middle" x="264" y="-318.8" font-family="Times,serif" font-size="14.00" fill="#000000">advmod</text>
</g>
<!-- 10 -->
<g id="node6" class="node">
<title>10</title>
<text text-anchor="middle" x="276.5" y="-275.3" font-family="Times,serif" font-size="14.00" fill="#000000">10 (,)</text>
</g>
<!-- 2&#45;&gt;10 -->
<g id="edge5" class="edge">
<title>2&#45;&gt;10</title>
<path fill="none" stroke="#000000" d="M303.5495,-347.8209C300.86,-342.1571 297.9698,-335.8596 295.5,-330 292.3359,-322.4931 289.1479,-314.2578 286.311,-306.6363"/>
<polygon fill="#000000" stroke="#000000" points="289.5388,-305.2719 282.8155,-297.0836 282.9651,-307.6774 289.5388,-305.2719"/>
<text text-anchor="middle" x="311" y="-318.8" font-family="Times,serif" font-size="14.00" fill="#000000">punct</text>
</g>
<!-- 16 -->
<g id="node7" class="node">
<title>16</title>
<text text-anchor="middle" x="348.5" y="-275.3" font-family="Times,serif" font-size="14.00" fill="#000000">16 (.)</text>
</g>
<!-- 2&#45;&gt;16 -->
<g id="edge6" class="edge">
<title>2&#45;&gt;16</title>
<path fill="none" stroke="#000000" d="M319.9592,-347.9735C324.931,-335.9585 331.5593,-319.9401 337.1767,-306.3646"/>
<polygon fill="#000000" stroke="#000000" points="340.4608,-307.5818 341.0503,-297.0034 333.9927,-304.9053 340.4608,-307.5818"/>
<text text-anchor="middle" x="349" y="-318.8" font-family="Times,serif" font-size="14.00" fill="#000000">punct</text>
</g>
<!-- 25 -->
<g id="node8" class="node">
<title>25</title>
<text text-anchor="middle" x="420.5" y="-275.3" font-family="Times,serif" font-size="14.00" fill="#000000">25 (.)</text>
</g>
<!-- 2&#45;&gt;25 -->
<g id="edge7" class="edge">
<title>2&#45;&gt;25</title>
<path fill="none" stroke="#000000" d="M343.2172,-347.8473C351.6552,-342.4386 360.6404,-336.2719 368.5,-330 378.1321,-322.3137 387.9663,-313.0888 396.4529,-304.6105"/>
<polygon fill="#000000" stroke="#000000" points="399.0152,-306.9966 403.525,-297.4095 394.0209,-302.0917 399.0152,-306.9966"/>
<text text-anchor="middle" x="401" y="-318.8" font-family="Times,serif" font-size="14.00" fill="#000000">punct</text>
</g>
<!-- 12 -->
<g id="node9" class="node">
<title>12</title>
<text text-anchor="middle" x="497.5" y="-275.3" font-family="Times,serif" font-size="14.00" fill="#000000">12 (like)</text>
</g>
<!-- 2&#45;&gt;12 -->
<g id="edge8" class="edge">
<title>2&#45;&gt;12</title>
<path fill="none" stroke="#000000" d="M346.972,-357.0278C368.6417,-350.7806 396.8692,-341.5135 420.5,-330 435.9899,-322.4529 452.0434,-312.2554 465.4578,-302.9624"/>
<polygon fill="#000000" stroke="#000000" points="467.7141,-305.6536 473.8594,-297.0231 463.6733,-299.9376 467.7141,-305.6536"/>
<text text-anchor="middle" x="472" y="-318.8" font-family="Times,serif" font-size="14.00" fill="#000000">parataxis</text>
</g>
<!-- 20 -->
<g id="node10" class="node">
<title>20</title>
<text text-anchor="middle" x="692.5" y="-275.3" font-family="Times,serif" font-size="14.00" fill="#000000">20 (monkey)</text>
</g>
<!-- 2&#45;&gt;20 -->
<g id="edge9" class="edge">
<title>2&#45;&gt;20</title>
<path fill="none" stroke="#000000" d="M346.613,-360.2128C384.3959,-353.6301 447.0423,-342.2022 500.5,-330 547.5709,-319.2556 600.5754,-305.0115 638.9485,-294.3082"/>
<polygon fill="#000000" stroke="#000000" points="640.1855,-297.5965 648.8706,-291.5286 638.2971,-290.856 640.1855,-297.5965"/>
<text text-anchor="middle" x="584" y="-318.8" font-family="Times,serif" font-size="14.00" fill="#000000">parataxis</text>
</g>
<!-- 3 -->
<g id="node11" class="node">
<title>3</title>
<text text-anchor="middle" x="56.5" y="-188.3" font-family="Times,serif" font-size="14.00" fill="#000000">3 (a)</text>
</g>
<!-- 4&#45;&gt;3 -->
<g id="edge10" class="edge">
<title>4&#45;&gt;3</title>
<path fill="none" stroke="#000000" d="M116.7528,-260.9735C105.8492,-248.4919 91.1716,-231.6899 79.033,-217.7944"/>
<polygon fill="#000000" stroke="#000000" points="81.4419,-215.2319 72.2271,-210.0034 76.1701,-219.8371 81.4419,-215.2319"/>
<text text-anchor="middle" x="108" y="-231.8" font-family="Times,serif" font-size="14.00" fill="#000000">det</text>
</g>
<!-- 6 -->
<g id="node12" class="node">
<title>6</title>
<text text-anchor="middle" x="132.5" y="-188.3" font-family="Times,serif" font-size="14.00" fill="#000000">6 (time)</text>
</g>
<!-- 4&#45;&gt;6 -->
<g id="edge11" class="edge">
<title>4&#45;&gt;6</title>
<path fill="none" stroke="#000000" d="M132.5,-260.9735C132.5,-249.1918 132.5,-233.5607 132.5,-220.1581"/>
<polygon fill="#000000" stroke="#000000" points="136.0001,-220.0033 132.5,-210.0034 129.0001,-220.0034 136.0001,-220.0033"/>
<text text-anchor="middle" x="148.5" y="-231.8" font-family="Times,serif" font-size="14.00" fill="#000000">nmod</text>
</g>
<!-- 9 -->
<g id="node14" class="node">
<title>9</title>
<text text-anchor="middle" x="212.5" y="-188.3" font-family="Times,serif" font-size="14.00" fill="#000000">9 (trees)</text>
</g>
<!-- 7&#45;&gt;9 -->
<g id="edge13" class="edge">
<title>7&#45;&gt;9</title>
<path fill="none" stroke="#000000" d="M206.1576,-260.9735C207.241,-249.1918 208.6783,-233.5607 209.9108,-220.1581"/>
<polygon fill="#000000" stroke="#000000" points="213.414,-220.2819 210.8445,-210.0034 206.4435,-219.6408 213.414,-220.2819"/>
<text text-anchor="middle" x="225.5" y="-231.8" font-family="Times,serif" font-size="14.00" fill="#000000">nmod</text>
</g>
<!-- 11 -->
<g id="node16" class="node">
<title>11</title>
<text text-anchor="middle" x="416.5" y="-188.3" font-family="Times,serif" font-size="14.00" fill="#000000">11 (they)</text>
</g>
<!-- 12&#45;&gt;11 -->
<g id="edge15" class="edge">
<title>12&#45;&gt;11</title>
<path fill="none" stroke="#000000" d="M480.1599,-260.7266C474.8038,-255.059 468.8953,-248.7831 463.5,-243 455.9845,-234.9442 447.8371,-226.1318 440.4696,-218.1328"/>
<polygon fill="#000000" stroke="#000000" points="442.7605,-215.4533 433.4145,-210.463 437.6086,-220.1923 442.7605,-215.4533"/>
<text text-anchor="middle" x="478.5" y="-231.8" font-family="Times,serif" font-size="14.00" fill="#000000">nsubj</text>
</g>
<!-- 14 -->
<g id="node17" class="node">
<title>14</title>
<text text-anchor="middle" x="497.5" y="-188.3" font-family="Times,serif" font-size="14.00" fill="#000000">14 (eat)</text>
</g>
<!-- 12&#45;&gt;14 -->
<g id="edge16" class="edge">
<title>12&#45;&gt;14</title>
<path fill="none" stroke="#000000" d="M497.5,-260.9735C497.5,-249.1918 497.5,-233.5607 497.5,-220.1581"/>
<polygon fill="#000000" stroke="#000000" points="501.0001,-220.0033 497.5,-210.0034 494.0001,-220.0034 501.0001,-220.0033"/>
<text text-anchor="middle" x="516.5" y="-231.8" font-family="Times,serif" font-size="14.00" fill="#000000">xcomp</text>
</g>
<!-- 17 -->
<g id="node20" class="node">
<title>17</title>
<text text-anchor="middle" x="578.5" y="-188.3" font-family="Times,serif" font-size="14.00" fill="#000000">17 (Carl)</text>
</g>
<!-- 20&#45;&gt;17 -->
<g id="edge19" class="edge">
<title>20&#45;&gt;17</title>
<path fill="none" stroke="#000000" d="M664.0419,-260.9228C655.6734,-255.369 646.5957,-249.1066 638.5,-243 627.6487,-234.8148 616.1762,-225.2951 606.2018,-216.7119"/>
<polygon fill="#000000" stroke="#000000" points="608.4074,-213.9918 598.5641,-210.0726 603.815,-219.2747 608.4074,-213.9918"/>
<text text-anchor="middle" x="653.5" y="-231.8" font-family="Times,serif" font-size="14.00" fill="#000000">nsubj</text>
</g>
<!-- 18 -->
<g id="node21" class="node">
<title>18</title>
<text text-anchor="middle" x="656.5" y="-188.3" font-family="Times,serif" font-size="14.00" fill="#000000">18 (is)</text>
</g>
<!-- 20&#45;&gt;18 -->
<g id="edge20" class="edge">
<title>20&#45;&gt;18</title>
<path fill="none" stroke="#000000" d="M685.0408,-260.9735C680.069,-248.9585 673.4407,-232.9401 667.8233,-219.3646"/>
<polygon fill="#000000" stroke="#000000" points="671.0073,-217.9053 663.9497,-210.0034 664.5392,-220.5818 671.0073,-217.9053"/>
<text text-anchor="middle" x="687.5" y="-231.8" font-family="Times,serif" font-size="14.00" fill="#000000">cop</text>
</g>
<!-- 19 -->
<g id="node22" class="node">
<title>19</title>
<text text-anchor="middle" x="728.5" y="-188.3" font-family="Times,serif" font-size="14.00" fill="#000000">19 (a)</text>
</g>
<!-- 20&#45;&gt;19 -->
<g id="edge21" class="edge">
<title>20&#45;&gt;19</title>
<path fill="none" stroke="#000000" d="M699.9592,-260.9735C704.931,-248.9585 711.5593,-232.9401 717.1767,-219.3646"/>
<polygon fill="#000000" stroke="#000000" points="720.4608,-220.5818 721.0503,-210.0034 713.9927,-217.9053 720.4608,-220.5818"/>
<text text-anchor="middle" x="722" y="-231.8" font-family="Times,serif" font-size="14.00" fill="#000000">det</text>
</g>
<!-- 21 -->
<g id="node23" class="node">
<title>21</title>
<text text-anchor="middle" x="804.5" y="-188.3" font-family="Times,serif" font-size="14.00" fill="#000000">21 (and)</text>
</g>
<!-- 20&#45;&gt;21 -->
<g id="edge22" class="edge">
<title>20&#45;&gt;21</title>
<path fill="none" stroke="#000000" d="M715.7065,-260.9735C732.3755,-248.0253 755.0299,-230.4276 773.2835,-216.2485"/>
<polygon fill="#000000" stroke="#000000" points="775.573,-218.902 781.3233,-210.0034 771.2788,-213.3739 775.573,-218.902"/>
<text text-anchor="middle" x="762" y="-231.8" font-family="Times,serif" font-size="14.00" fill="#000000">cc</text>
</g>
<!-- 22 -->
<g id="node24" class="node">
<title>22</title>
<text text-anchor="middle" x="884.5" y="-188.3" font-family="Times,serif" font-size="14.00" fill="#000000">22 (has)</text>
</g>
<!-- 20&#45;&gt;22 -->
<g id="edge23" class="edge">
<title>20&#45;&gt;22</title>
<path fill="none" stroke="#000000" d="M732.8034,-260.9054C745.5101,-255.1894 759.5963,-248.8412 772.5,-243 796.4066,-232.1781 823.1547,-220.0007 844.5145,-210.2597"/>
<polygon fill="#000000" stroke="#000000" points="845.9711,-213.4423 853.6165,-206.1076 843.0658,-207.0737 845.9711,-213.4423"/>
<text text-anchor="middle" x="814.5" y="-231.8" font-family="Times,serif" font-size="14.00" fill="#000000">conj</text>
</g>
<!-- 5 -->
<g id="node13" class="node">
<title>5</title>
<text text-anchor="middle" x="132.5" y="-101.3" font-family="Times,serif" font-size="14.00" fill="#000000">5 (of)</text>
</g>
<!-- 6&#45;&gt;5 -->
<g id="edge12" class="edge">
<title>6&#45;&gt;5</title>
<path fill="none" stroke="#000000" d="M132.5,-173.9735C132.5,-162.1918 132.5,-146.5607 132.5,-133.1581"/>
<polygon fill="#000000" stroke="#000000" points="136.0001,-133.0033 132.5,-123.0034 129.0001,-133.0034 136.0001,-133.0033"/>
<text text-anchor="middle" x="144.5" y="-144.8" font-family="Times,serif" font-size="14.00" fill="#000000">case</text>
</g>
<!-- 8 -->
<g id="node15" class="node">
<title>8</title>
<text text-anchor="middle" x="212.5" y="-101.3" font-family="Times,serif" font-size="14.00" fill="#000000">8 (in)</text>
</g>
<!-- 9&#45;&gt;8 -->
<g id="edge14" class="edge">
<title>9&#45;&gt;8</title>
<path fill="none" stroke="#000000" d="M212.5,-173.9735C212.5,-162.1918 212.5,-146.5607 212.5,-133.1581"/>
<polygon fill="#000000" stroke="#000000" points="216.0001,-133.0033 212.5,-123.0034 209.0001,-133.0034 216.0001,-133.0033"/>
<text text-anchor="middle" x="224.5" y="-144.8" font-family="Times,serif" font-size="14.00" fill="#000000">case</text>
</g>
<!-- 13 -->
<g id="node18" class="node">
<title>13</title>
<text text-anchor="middle" x="456.5" y="-101.3" font-family="Times,serif" font-size="14.00" fill="#000000">13 (to)</text>
</g>
<!-- 14&#45;&gt;13 -->
<g id="edge17" class="edge">
<title>14&#45;&gt;13</title>
<path fill="none" stroke="#000000" d="M489.0048,-173.9735C483.3425,-161.9585 475.7936,-145.9401 469.3959,-132.3646"/>
<polygon fill="#000000" stroke="#000000" points="472.4134,-130.5571 464.9843,-123.0034 466.0813,-133.5413 472.4134,-130.5571"/>
<text text-anchor="middle" x="494" y="-144.8" font-family="Times,serif" font-size="14.00" fill="#000000">mark</text>
</g>
<!-- 15 -->
<g id="node19" class="node">
<title>15</title>
<text text-anchor="middle" x="537.5" y="-101.3" font-family="Times,serif" font-size="14.00" fill="#000000">15 (fruits)</text>
</g>
<!-- 14&#45;&gt;15 -->
<g id="edge18" class="edge">
<title>14&#45;&gt;15</title>
<path fill="none" stroke="#000000" d="M505.788,-173.9735C511.3122,-161.9585 518.677,-145.9401 524.9186,-132.3646"/>
<polygon fill="#000000" stroke="#000000" points="528.2252,-133.5512 529.2226,-123.0034 521.8652,-130.627 528.2252,-133.5512"/>
<text text-anchor="middle" x="533" y="-144.8" font-family="Times,serif" font-size="14.00" fill="#000000">dobj</text>
</g>
<!-- 24 -->
<g id="node25" class="node">
<title>24</title>
<text text-anchor="middle" x="884.5" y="-101.3" font-family="Times,serif" font-size="14.00" fill="#000000">24 (banana)</text>
</g>
<!-- 22&#45;&gt;24 -->
<g id="edge24" class="edge">
<title>22&#45;&gt;24</title>
<path fill="none" stroke="#000000" d="M884.5,-173.9735C884.5,-162.1918 884.5,-146.5607 884.5,-133.1581"/>
<polygon fill="#000000" stroke="#000000" points="888.0001,-133.0033 884.5,-123.0034 881.0001,-133.0034 888.0001,-133.0033"/>
<text text-anchor="middle" x="897" y="-144.8" font-family="Times,serif" font-size="14.00" fill="#000000">dobj</text>
</g>
<!-- 23 -->
<g id="node26" class="node">
<title>23</title>
<text text-anchor="middle" x="884.5" y="-14.3" font-family="Times,serif" font-size="14.00" fill="#000000">23 (a)</text>
</g>
<!-- 24&#45;&gt;23 -->
<g id="edge25" class="edge">
<title>24&#45;&gt;23</title>
<path fill="none" stroke="#000000" d="M884.5,-86.9735C884.5,-75.1918 884.5,-59.5607 884.5,-46.1581"/>
<polygon fill="#000000" stroke="#000000" points="888.0001,-46.0033 884.5,-36.0034 881.0001,-46.0034 888.0001,-46.0033"/>
<text text-anchor="middle" x="893" y="-57.8" font-family="Times,serif" font-size="14.00" fill="#000000">det</text>
</g>
</g>
</svg>
