<?xml version="1.0" encoding="UTF-8" standalone="no"?>
<!DOCTYPE svg PUBLIC "-//W3C//DTD SVG 1.1//EN"
 "http://www.w3.org/Graphics/SVG/1.1/DTD/svg11.dtd">
<!-- Generated by graphviz version 2.40.1 (20161225.0304)
 -->
<!-- Title: G Pages: 1 -->
<svg width="774pt" height="479pt"
 viewBox="0.00 0.00 773.50 479.00" xmlns="http://www.w3.org/2000/svg" xmlns:xlink="http://www.w3.org/1999/xlink">
<g id="graph0" class="graph" transform="scale(1 1) rotate(0) translate(4 475)">
<title>G</title>
<polygon fill="#ffffff" stroke="transparent" points="-4,4 -4,-475 769.5,-475 769.5,4 -4,4"/>
<!-- 0 -->
<g id="node1" class="node">
<title>0</title>
<text text-anchor="middle" x="272.5" y="-449.3" font-family="Times,serif" font-size="14.00" fill="#000000">0 (None)</text>
</g>
<!-- 4 -->
<g id="node2" class="node">
<title>4</title>
<text text-anchor="middle" x="272.5" y="-362.3" font-family="Times,serif" font-size="14.00" fill="#000000">4 (kangaroo)</text>
</g>
<!-- 0&#45;&gt;4 -->
<g id="edge1" class="edge">
<title>0&#45;&gt;4</title>
<path fill="none" stroke="#000000" d="M272.5,-434.9735C272.5,-423.1918 272.5,-407.5607 272.5,-394.1581"/>
<polygon fill="#000000" stroke="#000000" points="276.0001,-394.0033 272.5,-384.0034 269.0001,-394.0034 276.0001,-394.0033"/>
<text text-anchor="middle" x="291" y="-405.8" font-family="Times,serif" font-size="14.00" fill="#000000">ROOT</text>
</g>
<!-- 1 -->
<g id="node3" class="node">
<title>1</title>
<text text-anchor="middle" x="33.5" y="-275.3" font-family="Times,serif" font-size="14.00" fill="#000000">1 (Kolin)</text>
</g>
<!-- 4&#45;&gt;1 -->
<g id="edge2" class="edge">
<title>4&#45;&gt;1</title>
<path fill="none" stroke="#000000" d="M229.3428,-356.4527C203.0062,-350.1038 168.8676,-340.9332 139.5,-330 118.1184,-322.0399 95.2115,-311.3146 76.1825,-301.7536"/>
<polygon fill="#000000" stroke="#000000" points="77.676,-298.5866 67.1762,-297.1708 74.5014,-304.8253 77.676,-298.5866"/>
<text text-anchor="middle" x="154.5" y="-318.8" font-family="Times,serif" font-size="14.00" fill="#000000">nsubj</text>
</g>
<!-- 2 -->
<g id="node4" class="node">
<title>2</title>
<text text-anchor="middle" x="112.5" y="-275.3" font-family="Times,serif" font-size="14.00" fill="#000000">2 (is)</text>
</g>
<!-- 4&#45;&gt;2 -->
<g id="edge3" class="edge">
<title>4&#45;&gt;2</title>
<path fill="none" stroke="#000000" d="M234.3467,-347.829C223.0426,-342.2725 210.6962,-336.0322 199.5,-330 182.4924,-320.8367 163.9829,-310.0976 148.426,-300.8435"/>
<polygon fill="#000000" stroke="#000000" points="150.0199,-297.7186 139.6412,-295.5896 146.427,-303.7262 150.0199,-297.7186"/>
<text text-anchor="middle" x="209.5" y="-318.8" font-family="Times,serif" font-size="14.00" fill="#000000">cop</text>
</g>
<!-- 3 -->
<g id="node5" class="node">
<title>3</title>
<text text-anchor="middle" x="184.5" y="-275.3" font-family="Times,serif" font-size="14.00" fill="#000000">3 (a)</text>
</g>
<!-- 4&#45;&gt;3 -->
<g id="edge4" class="edge">
<title>4&#45;&gt;3</title>
<path fill="none" stroke="#000000" d="M254.2663,-347.9735C241.5232,-335.3752 224.3281,-318.3755 210.1976,-304.4055"/>
<polygon fill="#000000" stroke="#000000" points="212.2824,-301.545 202.7103,-297.0034 207.361,-306.5229 212.2824,-301.545"/>
<text text-anchor="middle" x="243" y="-318.8" font-family="Times,serif" font-size="14.00" fill="#000000">det</text>
</g>
<!-- 6 -->
<g id="node6" class="node">
<title>6</title>
<text text-anchor="middle" x="272.5" y="-275.3" font-family="Times,serif" font-size="14.00" fill="#000000">6 (Australia)</text>
</g>
<!-- 4&#45;&gt;6 -->
<g id="edge5" class="edge">
<title>4&#45;&gt;6</title>
<path fill="none" stroke="#000000" d="M272.5,-347.9735C272.5,-336.1918 272.5,-320.5607 272.5,-307.1581"/>
<polygon fill="#000000" stroke="#000000" points="276.0001,-307.0033 272.5,-297.0034 269.0001,-307.0034 276.0001,-307.0033"/>
<text text-anchor="middle" x="288.5" y="-318.8" font-family="Times,serif" font-size="14.00" fill="#000000">nmod</text>
</g>
<!-- 7 -->
<g id="node7" class="node">
<title>7</title>
<text text-anchor="middle" x="360.5" y="-275.3" font-family="Times,serif" font-size="14.00" fill="#000000">7 (.)</text>
</g>
<!-- 4&#45;&gt;7 -->
<g id="edge6" class="edge">
<title>4&#45;&gt;7</title>
<path fill="none" stroke="#000000" d="M290.7337,-347.9735C303.4768,-335.3752 320.6719,-318.3755 334.8024,-304.4055"/>
<polygon fill="#000000" stroke="#000000" points="337.639,-306.5229 342.2897,-297.0034 332.7176,-301.545 337.639,-306.5229"/>
<text text-anchor="middle" x="338" y="-318.8" font-family="Times,serif" font-size="14.00" fill="#000000">punct</text>
</g>
<!-- 17 -->
<g id="node8" class="node">
<title>17</title>
<text text-anchor="middle" x="432.5" y="-275.3" font-family="Times,serif" font-size="14.00" fill="#000000">17 (.)</text>
</g>
<!-- 4&#45;&gt;17 -->
<g id="edge7" class="edge">
<title>4&#45;&gt;17</title>
<path fill="none" stroke="#000000" d="M315.6436,-349.6558C329.2979,-343.976 344.2718,-337.2077 357.5,-330 372.1315,-322.0276 387.4819,-311.932 400.4567,-302.8306"/>
<polygon fill="#000000" stroke="#000000" points="402.4931,-305.6773 408.6086,-297.0256 398.4327,-299.9753 402.4931,-305.6773"/>
<text text-anchor="middle" x="397" y="-318.8" font-family="Times,serif" font-size="14.00" fill="#000000">punct</text>
</g>
<!-- 9 -->
<g id="node9" class="node">
<title>9</title>
<text text-anchor="middle" x="517.5" y="-275.3" font-family="Times,serif" font-size="14.00" fill="#000000">9 (bounces)</text>
</g>
<!-- 4&#45;&gt;9 -->
<g id="edge8" class="edge">
<title>4&#45;&gt;9</title>
<path fill="none" stroke="#000000" d="M315.7888,-357.8106C344.783,-351.6893 383.5338,-342.2691 416.5,-330 437.0369,-322.3567 458.8541,-311.6905 476.9361,-302.0872"/>
<polygon fill="#000000" stroke="#000000" points="478.8857,-305.0123 486.0247,-297.1838 475.562,-298.8517 478.8857,-305.0123"/>
<text text-anchor="middle" x="476" y="-318.8" font-family="Times,serif" font-size="14.00" fill="#000000">parataxis</text>
</g>
<!-- 5 -->
<g id="node10" class="node">
<title>5</title>
<text text-anchor="middle" x="272.5" y="-188.3" font-family="Times,serif" font-size="14.00" fill="#000000">5 (from)</text>
</g>
<!-- 6&#45;&gt;5 -->
<g id="edge9" class="edge">
<title>6&#45;&gt;5</title>
<path fill="none" stroke="#000000" d="M272.5,-260.9735C272.5,-249.1918 272.5,-233.5607 272.5,-220.1581"/>
<polygon fill="#000000" stroke="#000000" points="276.0001,-220.0033 272.5,-210.0034 269.0001,-220.0034 276.0001,-220.0033"/>
<text text-anchor="middle" x="284.5" y="-231.8" font-family="Times,serif" font-size="14.00" fill="#000000">case</text>
</g>
<!-- 8 -->
<g id="node11" class="node">
<title>8</title>
<text text-anchor="middle" x="395.5" y="-188.3" font-family="Times,serif" font-size="14.00" fill="#000000">8 (He)</text>
</g>
<!-- 9&#45;&gt;8 -->
<g id="edge10" class="edge">
<title>9&#45;&gt;8</title>
<path fill="none" stroke="#000000" d="M486.0769,-260.8852C477.0178,-255.3808 467.2276,-249.1545 458.5,-243 446.953,-234.8573 434.7724,-225.2566 424.2315,-216.5942"/>
<polygon fill="#000000" stroke="#000000" points="426.4561,-213.892 416.5282,-210.1925 421.9822,-219.2757 426.4561,-213.892"/>
<text text-anchor="middle" x="473.5" y="-231.8" font-family="Times,serif" font-size="14.00" fill="#000000">nsubj</text>
</g>
<!-- 10 -->
<g id="node12" class="node">
<title>10</title>
<text text-anchor="middle" x="471.5" y="-188.3" font-family="Times,serif" font-size="14.00" fill="#000000">10 (and)</text>
</g>
<!-- 9&#45;&gt;10 -->
<g id="edge11" class="edge">
<title>9&#45;&gt;10</title>
<path fill="none" stroke="#000000" d="M507.9688,-260.9735C501.5543,-248.8418 492.9818,-232.6287 485.7599,-218.9698"/>
<polygon fill="#000000" stroke="#000000" points="488.7874,-217.2077 481.019,-210.0034 482.5992,-220.4797 488.7874,-217.2077"/>
<text text-anchor="middle" x="504" y="-231.8" font-family="Times,serif" font-size="14.00" fill="#000000">cc</text>
</g>
<!-- 11 -->
<g id="node13" class="node">
<title>11</title>
<text text-anchor="middle" x="564.5" y="-188.3" font-family="Times,serif" font-size="14.00" fill="#000000">11 (bounces)</text>
</g>
<!-- 9&#45;&gt;11 -->
<g id="edge12" class="edge">
<title>9&#45;&gt;11</title>
<path fill="none" stroke="#000000" d="M527.2384,-260.9735C533.7923,-248.8418 542.5512,-232.6287 549.9301,-218.9698"/>
<polygon fill="#000000" stroke="#000000" points="553.1003,-220.4652 554.774,-210.0034 546.9416,-217.138 553.1003,-220.4652"/>
<text text-anchor="middle" x="556.5" y="-231.8" font-family="Times,serif" font-size="14.00" fill="#000000">conj</text>
</g>
<!-- 14 -->
<g id="node14" class="node">
<title>14</title>
<text text-anchor="middle" x="663.5" y="-188.3" font-family="Times,serif" font-size="14.00" fill="#000000">14 (wants)</text>
</g>
<!-- 9&#45;&gt;14 -->
<g id="edge13" class="edge">
<title>9&#45;&gt;14</title>
<path fill="none" stroke="#000000" d="M547.7513,-260.9735C569.97,-247.7336 600.3464,-229.6326 624.4059,-215.2958"/>
<polygon fill="#000000" stroke="#000000" points="626.4886,-218.1291 633.2875,-210.0034 622.9053,-212.1157 626.4886,-218.1291"/>
<text text-anchor="middle" x="618" y="-231.8" font-family="Times,serif" font-size="14.00" fill="#000000">ccomp</text>
</g>
<!-- 12 -->
<g id="node15" class="node">
<title>12</title>
<text text-anchor="middle" x="570.5" y="-101.3" font-family="Times,serif" font-size="14.00" fill="#000000">12 (anywhere)</text>
</g>
<!-- 14&#45;&gt;12 -->
<g id="edge14" class="edge">
<title>14&#45;&gt;12</title>
<path fill="none" stroke="#000000" d="M636.7013,-173.9854C629.2417,-168.5315 621.3203,-162.3067 614.5,-156 606.3019,-148.4192 598.0981,-139.3985 591.0334,-131.0665"/>
<polygon fill="#000000" stroke="#000000" points="593.7219,-128.8255 584.6464,-123.3587 588.3319,-133.2919 593.7219,-128.8255"/>
<text text-anchor="middle" x="637" y="-144.8" font-family="Times,serif" font-size="14.00" fill="#000000">advmod</text>
</g>
<!-- 13 -->
<g id="node16" class="node">
<title>13</title>
<text text-anchor="middle" x="663.5" y="-101.3" font-family="Times,serif" font-size="14.00" fill="#000000">13 (it)</text>
</g>
<!-- 14&#45;&gt;13 -->
<g id="edge15" class="edge">
<title>14&#45;&gt;13</title>
<path fill="none" stroke="#000000" d="M663.5,-173.9735C663.5,-162.1918 663.5,-146.5607 663.5,-133.1581"/>
<polygon fill="#000000" stroke="#000000" points="667.0001,-133.0033 663.5,-123.0034 660.0001,-133.0034 667.0001,-133.0033"/>
<text text-anchor="middle" x="678.5" y="-144.8" font-family="Times,serif" font-size="14.00" fill="#000000">nsubj</text>
</g>
<!-- 16 -->
<g id="node17" class="node">
<title>16</title>
<text text-anchor="middle" x="736.5" y="-101.3" font-family="Times,serif" font-size="14.00" fill="#000000">16 (go)</text>
</g>
<!-- 14&#45;&gt;16 -->
<g id="edge16" class="edge">
<title>14&#45;&gt;16</title>
<path fill="none" stroke="#000000" d="M681.5245,-173.654C686.7965,-168.0926 692.487,-161.8935 697.5,-156 704.1463,-148.1863 711.0543,-139.3994 717.1768,-131.3489"/>
<polygon fill="#000000" stroke="#000000" points="720.0179,-133.3943 723.2289,-123.2977 714.4224,-129.1882 720.0179,-133.3943"/>
<text text-anchor="middle" x="727.5" y="-144.8" font-family="Times,serif" font-size="14.00" fill="#000000">xcomp</text>
</g>
<!-- 15 -->
<g id="node18" class="node">
<title>15</title>
<text text-anchor="middle" x="736.5" y="-14.3" font-family="Times,serif" font-size="14.00" fill="#000000">15 (to)</text>
</g>
<!-- 16&#45;&gt;15 -->
<g id="edge17" class="edge">
<title>16&#45;&gt;15</title>
<path fill="none" stroke="#000000" d="M736.5,-86.9735C736.5,-75.1918 736.5,-59.5607 736.5,-46.1581"/>
<polygon fill="#000000" stroke="#000000" points="740.0001,-46.0033 736.5,-36.0034 733.0001,-46.0034 740.0001,-46.0033"/>
<text text-anchor="middle" x="751" y="-57.8" font-family="Times,serif" font-size="14.00" fill="#000000">mark</text>
</g>
</g>
</svg>
