<?xml version="1.0" encoding="UTF-8" standalone="no"?>
<!DOCTYPE svg PUBLIC "-//W3C//DTD SVG 1.1//EN"
 "http://www.w3.org/Graphics/SVG/1.1/DTD/svg11.dtd">
<!-- Generated by graphviz version 2.40.1 (20161225.0304)
 -->
<!-- Title: G Pages: 1 -->
<svg width="843pt" height="479pt"
 viewBox="0.00 0.00 843.00 479.00" xmlns="http://www.w3.org/2000/svg" xmlns:xlink="http://www.w3.org/1999/xlink">
<g id="graph0" class="graph" transform="scale(1 1) rotate(0) translate(4 475)">
<title>G</title>
<polygon fill="#ffffff" stroke="transparent" points="-4,4 -4,-475 839,-475 839,4 -4,4"/>
<!-- 0 -->
<g id="node1" class="node">
<title>0</title>
<text text-anchor="middle" x="323" y="-449.3" font-family="Times,serif" font-size="14.00" fill="#000000">0 (None)</text>
</g>
<!-- 4 -->
<g id="node2" class="node">
<title>4</title>
<text text-anchor="middle" x="323" y="-362.3" font-family="Times,serif" font-size="14.00" fill="#000000">4 (borrow)</text>
</g>
<!-- 0&#45;&gt;4 -->
<g id="edge1" class="edge">
<title>0&#45;&gt;4</title>
<path fill="none" stroke="#000000" d="M323,-434.9735C323,-423.1918 323,-407.5607 323,-394.1581"/>
<polygon fill="#000000" stroke="#000000" points="326.5001,-394.0033 323,-384.0034 319.5001,-394.0034 326.5001,-394.0033"/>
<text text-anchor="middle" x="341.5" y="-405.8" font-family="Times,serif" font-size="14.00" fill="#000000">ROOT</text>
</g>
<!-- 1 -->
<g id="node3" class="node">
<title>1</title>
<text text-anchor="middle" x="27" y="-275.3" font-family="Times,serif" font-size="14.00" fill="#000000">1 (``)</text>
</g>
<!-- 4&#45;&gt;1 -->
<g id="edge2" class="edge">
<title>4&#45;&gt;1</title>
<path fill="none" stroke="#000000" d="M285.3084,-361.8325C246.2535,-356.8383 183.7942,-346.9459 132,-330 102.3421,-320.2966 94.7226,-313.1853 63.1673,-297.1386"/>
<polygon fill="#000000" stroke="#000000" points="64.6121,-293.948 54.1016,-292.6144 61.4864,-300.2114 64.6121,-293.948"/>
<text text-anchor="middle" x="147.5" y="-318.8" font-family="Times,serif" font-size="14.00" fill="#000000">punct</text>
</g>
<!-- 2 -->
<g id="node4" class="node">
<title>2</title>
<text text-anchor="middle" x="103" y="-275.3" font-family="Times,serif" font-size="14.00" fill="#000000">2 (May)</text>
</g>
<!-- 4&#45;&gt;2 -->
<g id="edge5" class="edge">
<title>4&#45;&gt;2</title>
<path fill="none" stroke="#000000" d="M285.4267,-357.2409C260.4804,-350.9059 227.2499,-341.4621 199,-330 179.8179,-322.2171 159.4496,-311.7408 142.433,-302.3081"/>
<polygon fill="#000000" stroke="#000000" points="143.7845,-299.0525 133.353,-297.1987 140.3517,-305.153 143.7845,-299.0525"/>
<text text-anchor="middle" x="209" y="-318.8" font-family="Times,serif" font-size="14.00" fill="#000000">aux</text>
</g>
<!-- 3 -->
<g id="node5" class="node">
<title>3</title>
<text text-anchor="middle" x="179" y="-275.3" font-family="Times,serif" font-size="14.00" fill="#000000">3 (I)</text>
</g>
<!-- 4&#45;&gt;3 -->
<g id="edge6" class="edge">
<title>4&#45;&gt;3</title>
<path fill="none" stroke="#000000" d="M285.3771,-351.3753C271.6553,-345.45 256.2614,-338.0913 243,-330 230.5326,-322.3931 217.7582,-312.6719 206.9337,-303.761"/>
<polygon fill="#000000" stroke="#000000" points="208.9803,-300.9091 199.0736,-297.1532 204.4758,-306.2673 208.9803,-300.9091"/>
<text text-anchor="middle" x="258" y="-318.8" font-family="Times,serif" font-size="14.00" fill="#000000">nsubj</text>
</g>
<!-- 11 -->
<g id="node6" class="node">
<title>11</title>
<text text-anchor="middle" x="251" y="-275.3" font-family="Times,serif" font-size="14.00" fill="#000000">11 (?)</text>
</g>
<!-- 4&#45;&gt;11 -->
<g id="edge3" class="edge">
<title>4&#45;&gt;11</title>
<path fill="none" stroke="#000000" d="M304.3072,-347.7922C298.8762,-342.2347 293.0509,-336.003 288,-330 281.5868,-322.3779 275.0545,-313.7252 269.2992,-305.7396"/>
<polygon fill="#000000" stroke="#000000" points="272.0389,-303.5522 263.4015,-297.4165 266.3274,-307.5993 272.0389,-303.5522"/>
<text text-anchor="middle" x="303.5" y="-318.8" font-family="Times,serif" font-size="14.00" fill="#000000">punct</text>
</g>
<!-- 12 -->
<g id="node7" class="node">
<title>12</title>
<text text-anchor="middle" x="323" y="-275.3" font-family="Times,serif" font-size="14.00" fill="#000000">12 (&#39;&#39;)</text>
</g>
<!-- 4&#45;&gt;12 -->
<g id="edge4" class="edge">
<title>4&#45;&gt;12</title>
<path fill="none" stroke="#000000" d="M323,-347.9735C323,-336.1918 323,-320.5607 323,-307.1581"/>
<polygon fill="#000000" stroke="#000000" points="326.5001,-307.0033 323,-297.0034 319.5001,-307.0034 326.5001,-307.0033"/>
<text text-anchor="middle" x="338.5" y="-318.8" font-family="Times,serif" font-size="14.00" fill="#000000">punct</text>
</g>
<!-- 6 -->
<g id="node8" class="node">
<title>6</title>
<text text-anchor="middle" x="399" y="-275.3" font-family="Times,serif" font-size="14.00" fill="#000000">6 (shoe)</text>
</g>
<!-- 4&#45;&gt;6 -->
<g id="edge7" class="edge">
<title>4&#45;&gt;6</title>
<path fill="none" stroke="#000000" d="M341.5073,-347.6322C346.9331,-342.0702 352.8021,-335.8762 358,-330 364.9272,-322.1688 372.1725,-313.3771 378.612,-305.3275"/>
<polygon fill="#000000" stroke="#000000" points="381.5209,-307.2919 384.9838,-297.279 376.0325,-302.9469 381.5209,-307.2919"/>
<text text-anchor="middle" x="382.5" y="-318.8" font-family="Times,serif" font-size="14.00" fill="#000000">dobj</text>
</g>
<!-- 8 -->
<g id="node9" class="node">
<title>8</title>
<text text-anchor="middle" x="476" y="-275.3" font-family="Times,serif" font-size="14.00" fill="#000000">8 (you)</text>
</g>
<!-- 4&#45;&gt;8 -->
<g id="edge8" class="edge">
<title>4&#45;&gt;8</title>
<path fill="none" stroke="#000000" d="M360.6481,-349.4617C373.0538,-343.6716 386.793,-336.8873 399,-330 413.5486,-321.7915 429.0081,-311.8178 442.2276,-302.8751"/>
<polygon fill="#000000" stroke="#000000" points="444.2813,-305.7108 450.5591,-297.1762 440.3292,-299.9331 444.2813,-305.7108"/>
<text text-anchor="middle" x="439" y="-318.8" font-family="Times,serif" font-size="14.00" fill="#000000">nmod</text>
</g>
<!-- 13 -->
<g id="node10" class="node">
<title>13</title>
<text text-anchor="middle" x="553" y="-275.3" font-family="Times,serif" font-size="14.00" fill="#000000">13 (But)</text>
</g>
<!-- 4&#45;&gt;13 -->
<g id="edge9" class="edge">
<title>4&#45;&gt;13</title>
<path fill="none" stroke="#000000" d="M360.7114,-358.555C388.4466,-352.4747 426.7651,-342.7981 459,-330 478.0737,-322.4273 498.2001,-311.8864 514.9146,-302.3522"/>
<polygon fill="#000000" stroke="#000000" points="516.9282,-305.2304 523.821,-297.1842 513.415,-299.1758 516.9282,-305.2304"/>
<text text-anchor="middle" x="498.5" y="-318.8" font-family="Times,serif" font-size="14.00" fill="#000000">cc</text>
</g>
<!-- 19 -->
<g id="node11" class="node">
<title>19</title>
<text text-anchor="middle" x="697" y="-275.3" font-family="Times,serif" font-size="14.00" fill="#000000">19 (small)</text>
</g>
<!-- 4&#45;&gt;19 -->
<g id="edge10" class="edge">
<title>4&#45;&gt;19</title>
<path fill="none" stroke="#000000" d="M360.5788,-359.5661C398.2704,-352.916 457.8971,-341.86 509,-330 557.6874,-318.7006 612.8181,-303.4499 650.7251,-292.5762"/>
<polygon fill="#000000" stroke="#000000" points="651.8179,-295.9038 660.4579,-289.7719 649.8798,-289.1774 651.8179,-295.9038"/>
<text text-anchor="middle" x="579" y="-318.8" font-family="Times,serif" font-size="14.00" fill="#000000">conj</text>
</g>
<!-- 5 -->
<g id="node12" class="node">
<title>5</title>
<text text-anchor="middle" x="322" y="-188.3" font-family="Times,serif" font-size="14.00" fill="#000000">5 (a)</text>
</g>
<!-- 6&#45;&gt;5 -->
<g id="edge11" class="edge">
<title>6&#45;&gt;5</title>
<path fill="none" stroke="#000000" d="M378.0699,-260.9951C372.0154,-255.4432 365.5481,-249.1639 360,-243 353.0921,-235.3253 346.1602,-226.4522 340.1438,-218.2803"/>
<polygon fill="#000000" stroke="#000000" points="342.932,-216.1628 334.2448,-210.0979 337.2537,-220.2565 342.932,-216.1628"/>
<text text-anchor="middle" x="368.5" y="-231.8" font-family="Times,serif" font-size="14.00" fill="#000000">det</text>
</g>
<!-- 7 -->
<g id="node13" class="node">
<title>7</title>
<text text-anchor="middle" x="399" y="-188.3" font-family="Times,serif" font-size="14.00" fill="#000000">7 (from)</text>
</g>
<!-- 8&#45;&gt;7 -->
<g id="edge12" class="edge">
<title>8&#45;&gt;7</title>
<path fill="none" stroke="#000000" d="M460.0456,-260.9735C448.9986,-248.4919 434.1278,-231.6899 421.8295,-217.7944"/>
<polygon fill="#000000" stroke="#000000" points="424.1826,-215.172 414.934,-210.0034 418.9407,-219.8114 424.1826,-215.172"/>
<text text-anchor="middle" x="455" y="-231.8" font-family="Times,serif" font-size="14.00" fill="#000000">case</text>
</g>
<!-- 9 -->
<g id="node14" class="node">
<title>9</title>
<text text-anchor="middle" x="476" y="-188.3" font-family="Times,serif" font-size="14.00" fill="#000000">9 (,)</text>
</g>
<!-- 8&#45;&gt;9 -->
<g id="edge13" class="edge">
<title>8&#45;&gt;9</title>
<path fill="none" stroke="#000000" d="M476,-260.9735C476,-249.1918 476,-233.5607 476,-220.1581"/>
<polygon fill="#000000" stroke="#000000" points="479.5001,-220.0033 476,-210.0034 472.5001,-220.0034 479.5001,-220.0033"/>
<text text-anchor="middle" x="491.5" y="-231.8" font-family="Times,serif" font-size="14.00" fill="#000000">punct</text>
</g>
<!-- 10 -->
<g id="node15" class="node">
<title>10</title>
<text text-anchor="middle" x="560" y="-188.3" font-family="Times,serif" font-size="14.00" fill="#000000">10 (Spider)</text>
</g>
<!-- 8&#45;&gt;10 -->
<g id="edge14" class="edge">
<title>8&#45;&gt;10</title>
<path fill="none" stroke="#000000" d="M493.8264,-260.7062C499.339,-255.0377 505.4267,-248.7665 511,-243 518.8078,-234.9215 527.294,-226.1026 534.9762,-218.1046"/>
<polygon fill="#000000" stroke="#000000" points="537.9354,-220.076 542.3355,-210.438 532.8855,-215.2284 537.9354,-220.076"/>
<text text-anchor="middle" x="541" y="-231.8" font-family="Times,serif" font-size="14.00" fill="#000000">appos</text>
</g>
<!-- 16 -->
<g id="node18" class="node">
<title>16</title>
<text text-anchor="middle" x="651" y="-188.3" font-family="Times,serif" font-size="14.00" fill="#000000">16 (shoe)</text>
</g>
<!-- 19&#45;&gt;16 -->
<g id="edge17" class="edge">
<title>19&#45;&gt;16</title>
<path fill="none" stroke="#000000" d="M687.4688,-260.9735C681.0543,-248.8418 672.4818,-232.6287 665.2599,-218.9698"/>
<polygon fill="#000000" stroke="#000000" points="668.2874,-217.2077 660.519,-210.0034 662.0992,-220.4797 668.2874,-217.2077"/>
<text text-anchor="middle" x="692" y="-231.8" font-family="Times,serif" font-size="14.00" fill="#000000">nsubj</text>
</g>
<!-- 17 -->
<g id="node19" class="node">
<title>17</title>
<text text-anchor="middle" x="730" y="-188.3" font-family="Times,serif" font-size="14.00" fill="#000000">17 (is)</text>
</g>
<!-- 19&#45;&gt;17 -->
<g id="edge18" class="edge">
<title>19&#45;&gt;17</title>
<path fill="none" stroke="#000000" d="M703.8376,-260.9735C708.3951,-248.9585 714.471,-232.9401 719.6203,-219.3646"/>
<polygon fill="#000000" stroke="#000000" points="722.897,-220.5947 723.1711,-210.0034 716.352,-218.112 722.897,-220.5947"/>
<text text-anchor="middle" x="726" y="-231.8" font-family="Times,serif" font-size="14.00" fill="#000000">cop</text>
</g>
<!-- 18 -->
<g id="node20" class="node">
<title>18</title>
<text text-anchor="middle" x="805" y="-188.3" font-family="Times,serif" font-size="14.00" fill="#000000">18 (too)</text>
</g>
<!-- 19&#45;&gt;18 -->
<g id="edge19" class="edge">
<title>19&#45;&gt;18</title>
<path fill="none" stroke="#000000" d="M719.3777,-260.9735C735.3066,-248.1419 756.9036,-230.7443 774.4216,-216.6326"/>
<polygon fill="#000000" stroke="#000000" points="777.0591,-219.0023 782.651,-210.0034 772.6678,-213.551 777.0591,-219.0023"/>
<text text-anchor="middle" x="780.5" y="-231.8" font-family="Times,serif" font-size="14.00" fill="#000000">advmod</text>
</g>
<!-- 14 -->
<g id="node16" class="node">
<title>14</title>
<text text-anchor="middle" x="651" y="-101.3" font-family="Times,serif" font-size="14.00" fill="#000000">14 (Spider)</text>
</g>
<!-- 15 -->
<g id="node17" class="node">
<title>15</title>
<text text-anchor="middle" x="651" y="-14.3" font-family="Times,serif" font-size="14.00" fill="#000000">15 (&#39;s)</text>
</g>
<!-- 14&#45;&gt;15 -->
<g id="edge15" class="edge">
<title>14&#45;&gt;15</title>
<path fill="none" stroke="#000000" d="M651,-86.9735C651,-75.1918 651,-59.5607 651,-46.1581"/>
<polygon fill="#000000" stroke="#000000" points="654.5001,-46.0033 651,-36.0034 647.5001,-46.0034 654.5001,-46.0033"/>
<text text-anchor="middle" x="663" y="-57.8" font-family="Times,serif" font-size="14.00" fill="#000000">case</text>
</g>
<!-- 16&#45;&gt;14 -->
<g id="edge16" class="edge">
<title>16&#45;&gt;14</title>
<path fill="none" stroke="#000000" d="M651,-173.9735C651,-162.1918 651,-146.5607 651,-133.1581"/>
<polygon fill="#000000" stroke="#000000" points="654.5001,-133.0033 651,-123.0034 647.5001,-133.0034 654.5001,-133.0033"/>
<text text-anchor="middle" x="681" y="-144.8" font-family="Times,serif" font-size="14.00" fill="#000000">nmod:poss</text>
</g>
</g>
</svg>
