<?xml version="1.0" encoding="UTF-8" standalone="no"?>
<!DOCTYPE svg PUBLIC "-//W3C//DTD SVG 1.1//EN"
 "http://www.w3.org/Graphics/SVG/1.1/DTD/svg11.dtd">
<!-- Generated by graphviz version 2.40.1 (20161225.0304)
 -->
<!-- Title: G Pages: 1 -->
<svg width="295pt" height="479pt"
 viewBox="0.00 0.00 295.00 479.00" xmlns="http://www.w3.org/2000/svg" xmlns:xlink="http://www.w3.org/1999/xlink">
<g id="graph0" class="graph" transform="scale(1 1) rotate(0) translate(4 475)">
<title>G</title>
<polygon fill="#ffffff" stroke="transparent" points="-4,4 -4,-475 291,-475 291,4 -4,4"/>
<!-- 0 -->
<g id="node1" class="node">
<title>0</title>
<text text-anchor="middle" x="100" y="-449.3" font-family="Times,serif" font-size="14.00" fill="#000000">0 (None)</text>
</g>
<!-- 2 -->
<g id="node2" class="node">
<title>2</title>
<text text-anchor="middle" x="100" y="-362.3" font-family="Times,serif" font-size="14.00" fill="#000000">2 (bounces)</text>
</g>
<!-- 0&#45;&gt;2 -->
<g id="edge1" class="edge">
<title>0&#45;&gt;2</title>
<path fill="none" stroke="#000000" d="M100,-434.9735C100,-423.1918 100,-407.5607 100,-394.1581"/>
<polygon fill="#000000" stroke="#000000" points="103.5001,-394.0033 100,-384.0034 96.5001,-394.0034 103.5001,-394.0033"/>
<text text-anchor="middle" x="118.5" y="-405.8" font-family="Times,serif" font-size="14.00" fill="#000000">ROOT</text>
</g>
<!-- 1 -->
<g id="node3" class="node">
<title>1</title>
<text text-anchor="middle" x="27" y="-275.3" font-family="Times,serif" font-size="14.00" fill="#000000">1 (He)</text>
</g>
<!-- 2&#45;&gt;1 -->
<g id="edge2" class="edge">
<title>2&#45;&gt;1</title>
<path fill="none" stroke="#000000" d="M81.9755,-347.654C76.7035,-342.0926 71.013,-335.8935 66,-330 59.3537,-322.1863 52.4457,-313.3994 46.3232,-305.3489"/>
<polygon fill="#000000" stroke="#000000" points="49.0776,-303.1882 40.2711,-297.2977 43.4821,-307.3943 49.0776,-303.1882"/>
<text text-anchor="middle" x="81" y="-318.8" font-family="Times,serif" font-size="14.00" fill="#000000">nsubj</text>
</g>
<!-- 3 -->
<g id="node4" class="node">
<title>3</title>
<text text-anchor="middle" x="100" y="-275.3" font-family="Times,serif" font-size="14.00" fill="#000000">3 (and)</text>
</g>
<!-- 2&#45;&gt;3 -->
<g id="edge3" class="edge">
<title>2&#45;&gt;3</title>
<path fill="none" stroke="#000000" d="M100,-347.9735C100,-336.1918 100,-320.5607 100,-307.1581"/>
<polygon fill="#000000" stroke="#000000" points="103.5001,-307.0033 100,-297.0034 96.5001,-307.0034 103.5001,-307.0033"/>
<text text-anchor="middle" x="106.5" y="-318.8" font-family="Times,serif" font-size="14.00" fill="#000000">cc</text>
</g>
<!-- 4 -->
<g id="node5" class="node">
<title>4</title>
<text text-anchor="middle" x="186" y="-275.3" font-family="Times,serif" font-size="14.00" fill="#000000">4 (bounces)</text>
</g>
<!-- 2&#45;&gt;4 -->
<g id="edge4" class="edge">
<title>2&#45;&gt;4</title>
<path fill="none" stroke="#000000" d="M117.8193,-347.9735C130.2728,-335.3752 147.0771,-318.3755 160.8865,-304.4055"/>
<polygon fill="#000000" stroke="#000000" points="163.6626,-306.5757 168.2036,-297.0034 158.6843,-301.6547 163.6626,-306.5757"/>
<text text-anchor="middle" x="161" y="-318.8" font-family="Times,serif" font-size="14.00" fill="#000000">conj</text>
</g>
<!-- 7 -->
<g id="node6" class="node">
<title>7</title>
<text text-anchor="middle" x="186" y="-188.3" font-family="Times,serif" font-size="14.00" fill="#000000">7 (wants)</text>
</g>
<!-- 4&#45;&gt;7 -->
<g id="edge5" class="edge">
<title>4&#45;&gt;7</title>
<path fill="none" stroke="#000000" d="M186,-260.9735C186,-249.1918 186,-233.5607 186,-220.1581"/>
<polygon fill="#000000" stroke="#000000" points="189.5001,-220.0033 186,-210.0034 182.5001,-220.0034 189.5001,-220.0033"/>
<text text-anchor="middle" x="204.5" y="-231.8" font-family="Times,serif" font-size="14.00" fill="#000000">ccomp</text>
</g>
<!-- 5 -->
<g id="node7" class="node">
<title>5</title>
<text text-anchor="middle" x="96" y="-101.3" font-family="Times,serif" font-size="14.00" fill="#000000">5 (anywhere)</text>
</g>
<!-- 7&#45;&gt;5 -->
<g id="edge6" class="edge">
<title>7&#45;&gt;5</title>
<path fill="none" stroke="#000000" d="M158.804,-173.951C151.4176,-168.5433 143.6336,-162.3512 137,-156 129.2454,-148.5755 121.629,-139.6829 115.1055,-131.4177"/>
<polygon fill="#000000" stroke="#000000" points="117.8468,-129.2409 108.9816,-123.4393 112.294,-133.5031 117.8468,-129.2409"/>
<text text-anchor="middle" x="159.5" y="-144.8" font-family="Times,serif" font-size="14.00" fill="#000000">advmod</text>
</g>
<!-- 6 -->
<g id="node8" class="node">
<title>6</title>
<text text-anchor="middle" x="186" y="-101.3" font-family="Times,serif" font-size="14.00" fill="#000000">6 (it)</text>
</g>
<!-- 7&#45;&gt;6 -->
<g id="edge7" class="edge">
<title>7&#45;&gt;6</title>
<path fill="none" stroke="#000000" d="M186,-173.9735C186,-162.1918 186,-146.5607 186,-133.1581"/>
<polygon fill="#000000" stroke="#000000" points="189.5001,-133.0033 186,-123.0034 182.5001,-133.0034 189.5001,-133.0033"/>
<text text-anchor="middle" x="201" y="-144.8" font-family="Times,serif" font-size="14.00" fill="#000000">nsubj</text>
</g>
<!-- 9 -->
<g id="node9" class="node">
<title>9</title>
<text text-anchor="middle" x="258" y="-101.3" font-family="Times,serif" font-size="14.00" fill="#000000">9 (go)</text>
</g>
<!-- 7&#45;&gt;9 -->
<g id="edge8" class="edge">
<title>7&#45;&gt;9</title>
<path fill="none" stroke="#000000" d="M204.071,-173.6933C209.3444,-168.133 215.0239,-161.9247 220,-156 226.4667,-148.3005 233.141,-139.6255 239.057,-131.6433"/>
<polygon fill="#000000" stroke="#000000" points="242.0566,-133.4708 245.1332,-123.3325 236.4058,-129.3394 242.0566,-133.4708"/>
<text text-anchor="middle" x="249" y="-144.8" font-family="Times,serif" font-size="14.00" fill="#000000">xcomp</text>
</g>
<!-- 8 -->
<g id="node10" class="node">
<title>8</title>
<text text-anchor="middle" x="258" y="-14.3" font-family="Times,serif" font-size="14.00" fill="#000000">8 (to)</text>
</g>
<!-- 9&#45;&gt;8 -->
<g id="edge9" class="edge">
<title>9&#45;&gt;8</title>
<path fill="none" stroke="#000000" d="M258,-86.9735C258,-75.1918 258,-59.5607 258,-46.1581"/>
<polygon fill="#000000" stroke="#000000" points="261.5001,-46.0033 258,-36.0034 254.5001,-46.0034 261.5001,-46.0033"/>
<text text-anchor="middle" x="272.5" y="-57.8" font-family="Times,serif" font-size="14.00" fill="#000000">mark</text>
</g>
</g>
</svg>
