<?xml version="1.0" encoding="UTF-8" standalone="no"?>
<!DOCTYPE svg PUBLIC "-//W3C//DTD SVG 1.1//EN"
 "http://www.w3.org/Graphics/SVG/1.1/DTD/svg11.dtd">
<!-- Generated by graphviz version 2.40.1 (20161225.0304)
 -->
<!-- Title: G Pages: 1 -->
<svg width="306pt" height="218pt"
 viewBox="0.00 0.00 306.00 218.00" xmlns="http://www.w3.org/2000/svg" xmlns:xlink="http://www.w3.org/1999/xlink">
<g id="graph0" class="graph" transform="scale(1 1) rotate(0) translate(4 214)">
<title>G</title>
<polygon fill="#ffffff" stroke="transparent" points="-4,4 -4,-214 302,-214 302,4 -4,4"/>
<!-- 0 -->
<g id="node1" class="node">
<title>0</title>
<text text-anchor="middle" x="153" y="-188.3" font-family="Times,serif" font-size="14.00" fill="#000000">0 (None)</text>
</g>
<!-- 5 -->
<g id="node2" class="node">
<title>5</title>
<text text-anchor="middle" x="153" y="-101.3" font-family="Times,serif" font-size="14.00" fill="#000000">5 (darked)</text>
</g>
<!-- 0&#45;&gt;5 -->
<g id="edge1" class="edge">
<title>0&#45;&gt;5</title>
<path fill="none" stroke="#000000" d="M153,-173.9735C153,-162.1918 153,-146.5607 153,-133.1581"/>
<polygon fill="#000000" stroke="#000000" points="156.5001,-133.0033 153,-123.0034 149.5001,-133.0034 156.5001,-133.0033"/>
<text text-anchor="middle" x="171.5" y="-144.8" font-family="Times,serif" font-size="14.00" fill="#000000">ROOT</text>
</g>
<!-- 1 -->
<g id="node3" class="node">
<title>1</title>
<text text-anchor="middle" x="28" y="-14.3" font-family="Times,serif" font-size="14.00" fill="#000000">1 (But)</text>
</g>
<!-- 5&#45;&gt;1 -->
<g id="edge2" class="edge">
<title>5&#45;&gt;1</title>
<path fill="none" stroke="#000000" d="M127.0999,-86.9735C108.3285,-73.9086 82.756,-56.1102 62.2905,-41.8662"/>
<polygon fill="#000000" stroke="#000000" points="64.074,-38.8433 53.8669,-36.0034 60.0752,-44.5887 64.074,-38.8433"/>
<text text-anchor="middle" x="104.5" y="-57.8" font-family="Times,serif" font-size="14.00" fill="#000000">cc</text>
</g>
<!-- 2 -->
<g id="node4" class="node">
<title>2</title>
<text text-anchor="middle" x="111" y="-14.3" font-family="Times,serif" font-size="14.00" fill="#000000">2 (mostly)</text>
</g>
<!-- 5&#45;&gt;2 -->
<g id="edge3" class="edge">
<title>5&#45;&gt;2</title>
<path fill="none" stroke="#000000" d="M138.966,-86.9436C135.0675,-81.3904 131.0671,-75.1231 128,-69 124.3961,-61.8052 121.2915,-53.6719 118.7586,-46.0482"/>
<polygon fill="#000000" stroke="#000000" points="122.0815,-44.9471 115.7642,-36.4417 115.3986,-47.0302 122.0815,-44.9471"/>
<text text-anchor="middle" x="150.5" y="-57.8" font-family="Times,serif" font-size="14.00" fill="#000000">advmod</text>
</g>
<!-- 3 -->
<g id="node5" class="node">
<title>3</title>
<text text-anchor="middle" x="196" y="-14.3" font-family="Times,serif" font-size="14.00" fill="#000000">3 (they)</text>
</g>
<!-- 5&#45;&gt;3 -->
<g id="edge4" class="edge">
<title>5&#45;&gt;3</title>
<path fill="none" stroke="#000000" d="M163.4732,-86.8437C166.6349,-81.1809 170.0481,-74.8782 173,-69 176.8004,-61.4322 180.6799,-53.1036 184.1439,-45.4103"/>
<polygon fill="#000000" stroke="#000000" points="187.4139,-46.6702 188.2721,-36.1102 181.0159,-43.8301 187.4139,-46.6702"/>
<text text-anchor="middle" x="206.5" y="-57.8" font-family="Times,serif" font-size="14.00" fill="#000000">nsubjpass</text>
</g>
<!-- 4 -->
<g id="node6" class="node">
<title>4</title>
<text text-anchor="middle" x="271" y="-14.3" font-family="Times,serif" font-size="14.00" fill="#000000">4 (&#39;re)</text>
</g>
<!-- 5&#45;&gt;4 -->
<g id="edge5" class="edge">
<title>5&#45;&gt;4</title>
<path fill="none" stroke="#000000" d="M189.8662,-94.4294C205.5526,-88.6751 223.3384,-80.3639 237,-69 244.8103,-62.5032 251.5238,-53.7594 256.8723,-45.3479"/>
<polygon fill="#000000" stroke="#000000" points="260.0439,-46.861 262.1276,-36.4731 254.0207,-43.2943 260.0439,-46.861"/>
<text text-anchor="middle" x="271.5" y="-57.8" font-family="Times,serif" font-size="14.00" fill="#000000">auxpass</text>
</g>
</g>
</svg>
