<?xml version="1.0" encoding="UTF-8" standalone="no"?>
<!DOCTYPE svg PUBLIC "-//W3C//DTD SVG 1.1//EN"
 "http://www.w3.org/Graphics/SVG/1.1/DTD/svg11.dtd">
<!-- Generated by graphviz version 2.40.1 (20161225.0304)
 -->
<!-- Title: G Pages: 1 -->
<svg width="905pt" height="566pt"
 viewBox="0.00 0.00 905.00 566.00" xmlns="http://www.w3.org/2000/svg" xmlns:xlink="http://www.w3.org/1999/xlink">
<g id="graph0" class="graph" transform="scale(1 1) rotate(0) translate(4 562)">
<title>G</title>
<polygon fill="#ffffff" stroke="transparent" points="-4,4 -4,-562 901,-562 901,4 -4,4"/>
<!-- 0 -->
<g id="node1" class="node">
<title>0</title>
<text text-anchor="middle" x="375" y="-536.3" font-family="Times,serif" font-size="14.00" fill="#000000">0 (None)</text>
</g>
<!-- 2 -->
<g id="node2" class="node">
<title>2</title>
<text text-anchor="middle" x="375" y="-449.3" font-family="Times,serif" font-size="14.00" fill="#000000">2 (have)</text>
</g>
<!-- 0&#45;&gt;2 -->
<g id="edge1" class="edge">
<title>0&#45;&gt;2</title>
<path fill="none" stroke="#000000" d="M375,-521.9735C375,-510.1918 375,-494.5607 375,-481.1581"/>
<polygon fill="#000000" stroke="#000000" points="378.5001,-481.0033 375,-471.0034 371.5001,-481.0034 378.5001,-481.0033"/>
<text text-anchor="middle" x="393.5" y="-492.8" font-family="Times,serif" font-size="14.00" fill="#000000">ROOT</text>
</g>
<!-- 1 -->
<g id="node3" class="node">
<title>1</title>
<text text-anchor="middle" x="194" y="-362.3" font-family="Times,serif" font-size="14.00" fill="#000000">1 (Giraffes)</text>
</g>
<!-- 2&#45;&gt;1 -->
<g id="edge2" class="edge">
<title>2&#45;&gt;1</title>
<path fill="none" stroke="#000000" d="M343.6742,-441.1835C326.6992,-434.5317 305.4753,-425.8101 287,-417 269.1894,-408.5069 249.9946,-398.1882 233.6951,-389.0603"/>
<polygon fill="#000000" stroke="#000000" points="235.3936,-386 224.9649,-384.131 231.9518,-392.0955 235.3936,-386"/>
<text text-anchor="middle" x="302" y="-405.8" font-family="Times,serif" font-size="14.00" fill="#000000">nsubj</text>
</g>
<!-- 11 -->
<g id="node4" class="node">
<title>11</title>
<text text-anchor="middle" x="291" y="-362.3" font-family="Times,serif" font-size="14.00" fill="#000000">11 (leaves)</text>
</g>
<!-- 2&#45;&gt;11 -->
<g id="edge3" class="edge">
<title>2&#45;&gt;11</title>
<path fill="none" stroke="#000000" d="M353.1668,-434.8999C346.8066,-429.3454 339.9675,-423.0884 334,-417 326.3392,-409.184 318.4748,-400.1889 311.6011,-391.9502"/>
<polygon fill="#000000" stroke="#000000" points="314.1529,-389.5426 305.1018,-384.0354 308.7431,-393.9849 314.1529,-389.5426"/>
<text text-anchor="middle" x="352.5" y="-405.8" font-family="Times,serif" font-size="14.00" fill="#000000">ccomp</text>
</g>
<!-- 17 -->
<g id="node5" class="node">
<title>17</title>
<text text-anchor="middle" x="375" y="-362.3" font-family="Times,serif" font-size="14.00" fill="#000000">17 (.)</text>
</g>
<!-- 2&#45;&gt;17 -->
<g id="edge4" class="edge">
<title>2&#45;&gt;17</title>
<path fill="none" stroke="#000000" d="M375,-434.9735C375,-423.1918 375,-407.5607 375,-394.1581"/>
<polygon fill="#000000" stroke="#000000" points="378.5001,-394.0033 375,-384.0034 371.5001,-394.0034 378.5001,-394.0033"/>
<text text-anchor="middle" x="390.5" y="-405.8" font-family="Times,serif" font-size="14.00" fill="#000000">punct</text>
</g>
<!-- 26 -->
<g id="node6" class="node">
<title>26</title>
<text text-anchor="middle" x="447" y="-362.3" font-family="Times,serif" font-size="14.00" fill="#000000">26 (.)</text>
</g>
<!-- 2&#45;&gt;26 -->
<g id="edge5" class="edge">
<title>2&#45;&gt;26</title>
<path fill="none" stroke="#000000" d="M393.6928,-434.7922C399.1238,-429.2347 404.9491,-423.003 410,-417 416.4132,-409.3779 422.9455,-400.7252 428.7008,-392.7396"/>
<polygon fill="#000000" stroke="#000000" points="431.6726,-394.5993 434.5985,-384.4165 425.9611,-390.5522 431.6726,-394.5993"/>
<text text-anchor="middle" x="437.5" y="-405.8" font-family="Times,serif" font-size="14.00" fill="#000000">punct</text>
</g>
<!-- 21 -->
<g id="node7" class="node">
<title>21</title>
<text text-anchor="middle" x="591" y="-362.3" font-family="Times,serif" font-size="14.00" fill="#000000">21 (tall)</text>
</g>
<!-- 2&#45;&gt;21 -->
<g id="edge6" class="edge">
<title>2&#45;&gt;21</title>
<path fill="none" stroke="#000000" d="M406.4083,-440.3495C444.8351,-424.872 509.9146,-398.6594 551.6438,-381.8518"/>
<polygon fill="#000000" stroke="#000000" points="552.9784,-385.0876 560.9466,-378.1048 550.3631,-378.5945 552.9784,-385.0876"/>
<text text-anchor="middle" x="520.5" y="-405.8" font-family="Times,serif" font-size="14.00" fill="#000000">parataxis</text>
</g>
<!-- 6 -->
<g id="node11" class="node">
<title>6</title>
<text text-anchor="middle" x="142" y="-275.3" font-family="Times,serif" font-size="14.00" fill="#000000">6 (neck)</text>
</g>
<!-- 11&#45;&gt;6 -->
<g id="edge14" class="edge">
<title>11&#45;&gt;6</title>
<path fill="none" stroke="#000000" d="M260.1271,-347.9735C237.352,-334.6753 206.1779,-316.473 181.5733,-302.1065"/>
<polygon fill="#000000" stroke="#000000" points="183.2339,-299.0232 172.8333,-297.0034 179.7042,-305.0682 183.2339,-299.0232"/>
<text text-anchor="middle" x="241" y="-318.8" font-family="Times,serif" font-size="14.00" fill="#000000">nsubj</text>
</g>
<!-- 13 -->
<g id="node16" class="node">
<title>13</title>
<text text-anchor="middle" x="259" y="-275.3" font-family="Times,serif" font-size="14.00" fill="#000000">13 (high)</text>
</g>
<!-- 11&#45;&gt;13 -->
<g id="edge15" class="edge">
<title>11&#45;&gt;13</title>
<path fill="none" stroke="#000000" d="M279.606,-347.7901C276.4826,-342.2325 273.3215,-336.0014 271,-330 268.2025,-322.7679 265.9374,-314.6969 264.1604,-307.1477"/>
<polygon fill="#000000" stroke="#000000" points="267.5669,-306.3409 262.0356,-297.3046 260.7246,-307.818 267.5669,-306.3409"/>
<text text-anchor="middle" x="293.5" y="-318.8" font-family="Times,serif" font-size="14.00" fill="#000000">advmod</text>
</g>
<!-- 16 -->
<g id="node17" class="node">
<title>16</title>
<text text-anchor="middle" x="342" y="-275.3" font-family="Times,serif" font-size="14.00" fill="#000000">16 (tree)</text>
</g>
<!-- 11&#45;&gt;16 -->
<g id="edge16" class="edge">
<title>11&#45;&gt;16</title>
<path fill="none" stroke="#000000" d="M304.4672,-347.6327C308.3498,-342.0707 312.4836,-335.8766 316,-330 320.4987,-322.4819 324.9822,-314.0938 328.9275,-306.3266"/>
<polygon fill="#000000" stroke="#000000" points="332.1174,-307.7725 333.4379,-297.2602 325.8501,-304.6545 332.1174,-307.7725"/>
<text text-anchor="middle" x="340" y="-318.8" font-family="Times,serif" font-size="14.00" fill="#000000">nmod</text>
</g>
<!-- 18 -->
<g id="node21" class="node">
<title>18</title>
<text text-anchor="middle" x="427" y="-275.3" font-family="Times,serif" font-size="14.00" fill="#000000">18 (They)</text>
</g>
<!-- 21&#45;&gt;18 -->
<g id="edge20" class="edge">
<title>21&#45;&gt;18</title>
<path fill="none" stroke="#000000" d="M560.981,-353.2754C546.0624,-346.7117 527.8758,-338.346 512,-330 495.9794,-321.5779 478.776,-311.4681 464.0656,-302.4788"/>
<polygon fill="#000000" stroke="#000000" points="465.6105,-299.3196 455.2613,-297.0516 461.9373,-305.2785 465.6105,-299.3196"/>
<text text-anchor="middle" x="527" y="-318.8" font-family="Times,serif" font-size="14.00" fill="#000000">nsubj</text>
</g>
<!-- 19 -->
<g id="node22" class="node">
<title>19</title>
<text text-anchor="middle" x="510" y="-275.3" font-family="Times,serif" font-size="14.00" fill="#000000">19 (are)</text>
</g>
<!-- 21&#45;&gt;19 -->
<g id="edge21" class="edge">
<title>21&#45;&gt;19</title>
<path fill="none" stroke="#000000" d="M574.2167,-347.9735C562.4873,-335.3752 546.6599,-318.3755 533.6534,-304.4055"/>
<polygon fill="#000000" stroke="#000000" points="536.1376,-301.9374 526.7618,-297.0034 531.0143,-306.7073 536.1376,-301.9374"/>
<text text-anchor="middle" x="566" y="-318.8" font-family="Times,serif" font-size="14.00" fill="#000000">cop</text>
</g>
<!-- 20 -->
<g id="node23" class="node">
<title>20</title>
<text text-anchor="middle" x="591" y="-275.3" font-family="Times,serif" font-size="14.00" fill="#000000">20 (very)</text>
</g>
<!-- 21&#45;&gt;20 -->
<g id="edge22" class="edge">
<title>21&#45;&gt;20</title>
<path fill="none" stroke="#000000" d="M591,-347.9735C591,-336.1918 591,-320.5607 591,-307.1581"/>
<polygon fill="#000000" stroke="#000000" points="594.5001,-307.0033 591,-297.0034 587.5001,-307.0034 594.5001,-307.0033"/>
<text text-anchor="middle" x="613.5" y="-318.8" font-family="Times,serif" font-size="14.00" fill="#000000">advmod</text>
</g>
<!-- 22 -->
<g id="node24" class="node">
<title>22</title>
<text text-anchor="middle" x="674" y="-275.3" font-family="Times,serif" font-size="14.00" fill="#000000">22 (and)</text>
</g>
<!-- 21&#45;&gt;22 -->
<g id="edge23" class="edge">
<title>21&#45;&gt;22</title>
<path fill="none" stroke="#000000" d="M619.0847,-347.955C626.3176,-342.636 633.8018,-336.4877 640,-330 646.9099,-322.7674 653.3295,-313.97 658.6871,-305.7322"/>
<polygon fill="#000000" stroke="#000000" points="661.7395,-307.4518 664.0569,-297.1135 655.7983,-303.7501 661.7395,-307.4518"/>
<text text-anchor="middle" x="658.5" y="-318.8" font-family="Times,serif" font-size="14.00" fill="#000000">cc</text>
</g>
<!-- 24 -->
<g id="node25" class="node">
<title>24</title>
<text text-anchor="middle" x="758" y="-275.3" font-family="Times,serif" font-size="14.00" fill="#000000">24 (quiet)</text>
</g>
<!-- 21&#45;&gt;24 -->
<g id="edge24" class="edge">
<title>21&#45;&gt;24</title>
<path fill="none" stroke="#000000" d="M621.2999,-352.7627C635.8679,-346.2092 653.493,-338.0019 669,-330 685.6689,-321.3985 703.6874,-311.2416 719.1232,-302.2653"/>
<polygon fill="#000000" stroke="#000000" points="721.0214,-305.2098 727.8834,-297.1373 717.4851,-299.1687 721.0214,-305.2098"/>
<text text-anchor="middle" x="709" y="-318.8" font-family="Times,serif" font-size="14.00" fill="#000000">conj</text>
</g>
<!-- 25 -->
<g id="node26" class="node">
<title>25</title>
<text text-anchor="middle" x="854" y="-275.3" font-family="Times,serif" font-size="14.00" fill="#000000">25 (animals)</text>
</g>
<!-- 21&#45;&gt;25 -->
<g id="edge25" class="edge">
<title>21&#45;&gt;25</title>
<path fill="none" stroke="#000000" d="M621.0931,-358.9578C648.4427,-352.3119 689.7803,-341.6509 725,-330 750.8225,-321.4578 778.9681,-310.5265 802.3613,-300.9767"/>
<polygon fill="#000000" stroke="#000000" points="803.8248,-304.1593 811.7413,-297.118 801.1617,-297.6857 803.8248,-304.1593"/>
<text text-anchor="middle" x="774" y="-318.8" font-family="Times,serif" font-size="14.00" fill="#000000">dep</text>
</g>
<!-- 3 -->
<g id="node8" class="node">
<title>3</title>
<text text-anchor="middle" x="27" y="-188.3" font-family="Times,serif" font-size="14.00" fill="#000000">3 (a)</text>
</g>
<!-- 4 -->
<g id="node9" class="node">
<title>4</title>
<text text-anchor="middle" x="102" y="-101.3" font-family="Times,serif" font-size="14.00" fill="#000000">4 (very)</text>
</g>
<!-- 5 -->
<g id="node10" class="node">
<title>5</title>
<text text-anchor="middle" x="102" y="-188.3" font-family="Times,serif" font-size="14.00" fill="#000000">5 (long)</text>
</g>
<!-- 5&#45;&gt;4 -->
<g id="edge7" class="edge">
<title>5&#45;&gt;4</title>
<path fill="none" stroke="#000000" d="M102,-173.9735C102,-162.1918 102,-146.5607 102,-133.1581"/>
<polygon fill="#000000" stroke="#000000" points="105.5001,-133.0033 102,-123.0034 98.5001,-133.0034 105.5001,-133.0033"/>
<text text-anchor="middle" x="124.5" y="-144.8" font-family="Times,serif" font-size="14.00" fill="#000000">advmod</text>
</g>
<!-- 6&#45;&gt;3 -->
<g id="edge8" class="edge">
<title>6&#45;&gt;3</title>
<path fill="none" stroke="#000000" d="M115.8449,-260.9745C107.8049,-255.317 98.9752,-248.9845 91,-243 79.6805,-234.506 67.4803,-224.9007 56.7986,-216.3349"/>
<polygon fill="#000000" stroke="#000000" points="58.9485,-213.5724 48.9659,-210.0228 54.5561,-219.0229 58.9485,-213.5724"/>
<text text-anchor="middle" x="99.5" y="-231.8" font-family="Times,serif" font-size="14.00" fill="#000000">det</text>
</g>
<!-- 6&#45;&gt;5 -->
<g id="edge9" class="edge">
<title>6&#45;&gt;5</title>
<path fill="none" stroke="#000000" d="M127.5673,-260.6403C123.7493,-255.1809 119.8916,-249.0396 117,-243 113.6024,-235.9035 110.8043,-227.8778 108.5831,-220.3287"/>
<polygon fill="#000000" stroke="#000000" points="111.9032,-219.1986 105.9097,-210.4619 105.1468,-221.0292 111.9032,-219.1986"/>
<text text-anchor="middle" x="132.5" y="-231.8" font-family="Times,serif" font-size="14.00" fill="#000000">amod</text>
</g>
<!-- 8 -->
<g id="node12" class="node">
<title>8</title>
<text text-anchor="middle" x="183" y="-188.3" font-family="Times,serif" font-size="14.00" fill="#000000">8 (reach)</text>
</g>
<!-- 6&#45;&gt;8 -->
<g id="edge10" class="edge">
<title>6&#45;&gt;8</title>
<path fill="none" stroke="#000000" d="M150.4952,-260.9735C156.1575,-248.9585 163.7064,-232.9401 170.1041,-219.3646"/>
<polygon fill="#000000" stroke="#000000" points="173.4187,-220.5413 174.5157,-210.0034 167.0866,-217.5571 173.4187,-220.5413"/>
<text text-anchor="middle" x="173" y="-231.8" font-family="Times,serif" font-size="14.00" fill="#000000">acl</text>
</g>
<!-- 7 -->
<g id="node13" class="node">
<title>7</title>
<text text-anchor="middle" x="180" y="-101.3" font-family="Times,serif" font-size="14.00" fill="#000000">7 (to)</text>
</g>
<!-- 8&#45;&gt;7 -->
<g id="edge11" class="edge">
<title>8&#45;&gt;7</title>
<path fill="none" stroke="#000000" d="M182.3784,-173.9735C181.9721,-162.1918 181.4331,-146.5607 180.971,-133.1581"/>
<polygon fill="#000000" stroke="#000000" points="184.4634,-132.8768 180.6208,-123.0034 177.4676,-133.1181 184.4634,-132.8768"/>
<text text-anchor="middle" x="196.5" y="-144.8" font-family="Times,serif" font-size="14.00" fill="#000000">mark</text>
</g>
<!-- 10 -->
<g id="node14" class="node">
<title>10</title>
<text text-anchor="middle" x="264" y="-101.3" font-family="Times,serif" font-size="14.00" fill="#000000">10 (tender)</text>
</g>
<!-- 8&#45;&gt;10 -->
<g id="edge12" class="edge">
<title>8&#45;&gt;10</title>
<path fill="none" stroke="#000000" d="M199.7833,-173.9735C211.5127,-161.3752 227.3401,-144.3755 240.3466,-130.4055"/>
<polygon fill="#000000" stroke="#000000" points="242.9857,-132.7073 247.2382,-123.0034 237.8624,-127.9374 242.9857,-132.7073"/>
<text text-anchor="middle" x="241.5" y="-144.8" font-family="Times,serif" font-size="14.00" fill="#000000">dobj</text>
</g>
<!-- 9 -->
<g id="node15" class="node">
<title>9</title>
<text text-anchor="middle" x="264" y="-14.3" font-family="Times,serif" font-size="14.00" fill="#000000">9 (the)</text>
</g>
<!-- 10&#45;&gt;9 -->
<g id="edge13" class="edge">
<title>10&#45;&gt;9</title>
<path fill="none" stroke="#000000" d="M264,-86.9735C264,-75.1918 264,-59.5607 264,-46.1581"/>
<polygon fill="#000000" stroke="#000000" points="267.5001,-46.0033 264,-36.0034 260.5001,-46.0034 267.5001,-46.0033"/>
<text text-anchor="middle" x="272.5" y="-57.8" font-family="Times,serif" font-size="14.00" fill="#000000">det</text>
</g>
<!-- 12 -->
<g id="node18" class="node">
<title>12</title>
<text text-anchor="middle" x="262" y="-188.3" font-family="Times,serif" font-size="14.00" fill="#000000">12 (up)</text>
</g>
<!-- 13&#45;&gt;12 -->
<g id="edge17" class="edge">
<title>13&#45;&gt;12</title>
<path fill="none" stroke="#000000" d="M259.6216,-260.9735C260.0279,-249.1918 260.5669,-233.5607 261.029,-220.1581"/>
<polygon fill="#000000" stroke="#000000" points="264.5324,-220.1181 261.3792,-210.0034 257.5366,-219.8768 264.5324,-220.1181"/>
<text text-anchor="middle" x="283.5" y="-231.8" font-family="Times,serif" font-size="14.00" fill="#000000">advmod</text>
</g>
<!-- 14 -->
<g id="node19" class="node">
<title>14</title>
<text text-anchor="middle" x="340" y="-188.3" font-family="Times,serif" font-size="14.00" fill="#000000">14 (on)</text>
</g>
<!-- 16&#45;&gt;14 -->
<g id="edge18" class="edge">
<title>16&#45;&gt;14</title>
<path fill="none" stroke="#000000" d="M341.5856,-260.9735C341.3148,-249.1918 340.9554,-233.5607 340.6473,-220.1581"/>
<polygon fill="#000000" stroke="#000000" points="344.1429,-219.9202 340.4139,-210.0034 337.1447,-220.0812 344.1429,-219.9202"/>
<text text-anchor="middle" x="354" y="-231.8" font-family="Times,serif" font-size="14.00" fill="#000000">case</text>
</g>
<!-- 15 -->
<g id="node20" class="node">
<title>15</title>
<text text-anchor="middle" x="413" y="-188.3" font-family="Times,serif" font-size="14.00" fill="#000000">15 (a)</text>
</g>
<!-- 16&#45;&gt;15 -->
<g id="edge19" class="edge">
<title>16&#45;&gt;15</title>
<path fill="none" stroke="#000000" d="M356.7112,-260.9735C366.8974,-248.4919 380.6094,-231.6899 391.9494,-217.7944"/>
<polygon fill="#000000" stroke="#000000" points="394.6965,-219.9638 398.3076,-210.0034 389.2733,-215.5379 394.6965,-219.9638"/>
<text text-anchor="middle" x="390.5" y="-231.8" font-family="Times,serif" font-size="14.00" fill="#000000">det</text>
</g>
<!-- 23 -->
<g id="node27" class="node">
<title>23</title>
<text text-anchor="middle" x="758" y="-188.3" font-family="Times,serif" font-size="14.00" fill="#000000">23 (very)</text>
</g>
<!-- 24&#45;&gt;23 -->
<g id="edge26" class="edge">
<title>24&#45;&gt;23</title>
<path fill="none" stroke="#000000" d="M758,-260.9735C758,-249.1918 758,-233.5607 758,-220.1581"/>
<polygon fill="#000000" stroke="#000000" points="761.5001,-220.0033 758,-210.0034 754.5001,-220.0034 761.5001,-220.0033"/>
<text text-anchor="middle" x="780.5" y="-231.8" font-family="Times,serif" font-size="14.00" fill="#000000">advmod</text>
</g>
</g>
</svg>
