<?xml version="1.0" encoding="UTF-8" standalone="no"?>
<!DOCTYPE svg PUBLIC "-//W3C//DTD SVG 1.1//EN"
 "http://www.w3.org/Graphics/SVG/1.1/DTD/svg11.dtd">
<!-- Generated by graphviz version 2.40.1 (20161225.0304)
 -->
<!-- Title: G Pages: 1 -->
<svg width="759pt" height="566pt"
 viewBox="0.00 0.00 759.00 566.00" xmlns="http://www.w3.org/2000/svg" xmlns:xlink="http://www.w3.org/1999/xlink">
<g id="graph0" class="graph" transform="scale(1 1) rotate(0) translate(4 562)">
<title>G</title>
<polygon fill="#ffffff" stroke="transparent" points="-4,4 -4,-562 755,-562 755,4 -4,4"/>
<!-- 0 -->
<g id="node1" class="node">
<title>0</title>
<text text-anchor="middle" x="203" y="-536.3" font-family="Times,serif" font-size="14.00" fill="#000000">0 (None)</text>
</g>
<!-- 6 -->
<g id="node2" class="node">
<title>6</title>
<text text-anchor="middle" x="203" y="-449.3" font-family="Times,serif" font-size="14.00" fill="#000000">6 (feature)</text>
</g>
<!-- 0&#45;&gt;6 -->
<g id="edge1" class="edge">
<title>0&#45;&gt;6</title>
<path fill="none" stroke="#000000" d="M203,-521.9735C203,-510.1918 203,-494.5607 203,-481.1581"/>
<polygon fill="#000000" stroke="#000000" points="206.5001,-481.0033 203,-471.0034 199.5001,-481.0034 206.5001,-481.0033"/>
<text text-anchor="middle" x="221.5" y="-492.8" font-family="Times,serif" font-size="14.00" fill="#000000">ROOT</text>
</g>
<!-- 4 -->
<g id="node6" class="node">
<title>4</title>
<text text-anchor="middle" x="119" y="-362.3" font-family="Times,serif" font-size="14.00" fill="#000000">4 (books)</text>
</g>
<!-- 6&#45;&gt;4 -->
<g id="edge5" class="edge">
<title>6&#45;&gt;4</title>
<path fill="none" stroke="#000000" d="M185.5951,-434.9735C173.4312,-422.3752 157.0177,-405.3755 143.5295,-391.4055"/>
<polygon fill="#000000" stroke="#000000" points="145.8464,-388.7663 136.3826,-384.0034 140.8106,-393.6285 145.8464,-388.7663"/>
<text text-anchor="middle" x="182" y="-405.8" font-family="Times,serif" font-size="14.00" fill="#000000">nsubj</text>
</g>
<!-- 5 -->
<g id="node7" class="node">
<title>5</title>
<text text-anchor="middle" x="203" y="-362.3" font-family="Times,serif" font-size="14.00" fill="#000000">5 (often)</text>
</g>
<!-- 6&#45;&gt;5 -->
<g id="edge6" class="edge">
<title>6&#45;&gt;5</title>
<path fill="none" stroke="#000000" d="M203,-434.9735C203,-423.1918 203,-407.5607 203,-394.1581"/>
<polygon fill="#000000" stroke="#000000" points="206.5001,-394.0033 203,-384.0034 199.5001,-394.0034 206.5001,-394.0033"/>
<text text-anchor="middle" x="225.5" y="-405.8" font-family="Times,serif" font-size="14.00" fill="#000000">advmod</text>
</g>
<!-- 7 -->
<g id="node8" class="node">
<title>7</title>
<text text-anchor="middle" x="299" y="-362.3" font-family="Times,serif" font-size="14.00" fill="#000000">7 (characters)</text>
</g>
<!-- 6&#45;&gt;7 -->
<g id="edge7" class="edge">
<title>6&#45;&gt;7</title>
<path fill="none" stroke="#000000" d="M229.6664,-434.84C237.1239,-429.3838 245.0773,-423.1942 252,-417 260.5679,-409.3338 269.283,-400.2913 276.8434,-391.9657"/>
<polygon fill="#000000" stroke="#000000" points="279.6588,-394.067 283.6959,-384.2715 274.4314,-389.4115 279.6588,-394.067"/>
<text text-anchor="middle" x="280.5" y="-405.8" font-family="Times,serif" font-size="14.00" fill="#000000">dobj</text>
</g>
<!-- 1 -->
<g id="node3" class="node">
<title>1</title>
<text text-anchor="middle" x="37" y="-188.3" font-family="Times,serif" font-size="14.00" fill="#000000">1 (Doctor)</text>
</g>
<!-- 2 -->
<g id="node4" class="node">
<title>2</title>
<text text-anchor="middle" x="119" y="-275.3" font-family="Times,serif" font-size="14.00" fill="#000000">2 (Seuss)</text>
</g>
<!-- 2&#45;&gt;1 -->
<g id="edge2" class="edge">
<title>2&#45;&gt;1</title>
<path fill="none" stroke="#000000" d="M85.4147,-264.8406C75.2241,-259.2442 64.7007,-251.9732 57,-243 51.2756,-236.3296 47.0777,-227.8284 44.0502,-219.6876"/>
<polygon fill="#000000" stroke="#000000" points="47.3454,-218.5031 40.9139,-210.0837 40.6912,-220.6762 47.3454,-218.5031"/>
<text text-anchor="middle" x="86" y="-231.8" font-family="Times,serif" font-size="14.00" fill="#000000">compound</text>
</g>
<!-- 3 -->
<g id="node5" class="node">
<title>3</title>
<text text-anchor="middle" x="119" y="-188.3" font-family="Times,serif" font-size="14.00" fill="#000000">3 (&#39;s)</text>
</g>
<!-- 2&#45;&gt;3 -->
<g id="edge3" class="edge">
<title>2&#45;&gt;3</title>
<path fill="none" stroke="#000000" d="M119,-260.9735C119,-249.1918 119,-233.5607 119,-220.1581"/>
<polygon fill="#000000" stroke="#000000" points="122.5001,-220.0033 119,-210.0034 115.5001,-220.0034 122.5001,-220.0033"/>
<text text-anchor="middle" x="131" y="-231.8" font-family="Times,serif" font-size="14.00" fill="#000000">case</text>
</g>
<!-- 4&#45;&gt;2 -->
<g id="edge4" class="edge">
<title>4&#45;&gt;2</title>
<path fill="none" stroke="#000000" d="M119,-347.9735C119,-336.1918 119,-320.5607 119,-307.1581"/>
<polygon fill="#000000" stroke="#000000" points="122.5001,-307.0033 119,-297.0034 115.5001,-307.0034 122.5001,-307.0033"/>
<text text-anchor="middle" x="149" y="-318.8" font-family="Times,serif" font-size="14.00" fill="#000000">nmod:poss</text>
</g>
<!-- 13 -->
<g id="node9" class="node">
<title>13</title>
<text text-anchor="middle" x="299" y="-275.3" font-family="Times,serif" font-size="14.00" fill="#000000">13 (prevent)</text>
</g>
<!-- 7&#45;&gt;13 -->
<g id="edge8" class="edge">
<title>7&#45;&gt;13</title>
<path fill="none" stroke="#000000" d="M299,-347.9735C299,-336.1918 299,-320.5607 299,-307.1581"/>
<polygon fill="#000000" stroke="#000000" points="302.5001,-307.0033 299,-297.0034 295.5001,-307.0034 302.5001,-307.0033"/>
<text text-anchor="middle" x="321" y="-318.8" font-family="Times,serif" font-size="14.00" fill="#000000">acl:relcl</text>
</g>
<!-- 12 -->
<g id="node14" class="node">
<title>12</title>
<text text-anchor="middle" x="205" y="-188.3" font-family="Times,serif" font-size="14.00" fill="#000000">12 (beliefs)</text>
</g>
<!-- 13&#45;&gt;12 -->
<g id="edge13" class="edge">
<title>13&#45;&gt;12</title>
<path fill="none" stroke="#000000" d="M279.5231,-260.9735C265.7851,-248.2586 247.2031,-231.0603 232.0312,-217.0183"/>
<polygon fill="#000000" stroke="#000000" points="234.1684,-214.2272 224.4519,-210.0034 229.4136,-219.3646 234.1684,-214.2272"/>
<text text-anchor="middle" x="273" y="-231.8" font-family="Times,serif" font-size="14.00" fill="#000000">nsubj</text>
</g>
<!-- 14 -->
<g id="node15" class="node">
<title>14</title>
<text text-anchor="middle" x="299" y="-188.3" font-family="Times,serif" font-size="14.00" fill="#000000">14 (them)</text>
</g>
<!-- 13&#45;&gt;14 -->
<g id="edge14" class="edge">
<title>13&#45;&gt;14</title>
<path fill="none" stroke="#000000" d="M299,-260.9735C299,-249.1918 299,-233.5607 299,-220.1581"/>
<polygon fill="#000000" stroke="#000000" points="302.5001,-220.0033 299,-210.0034 295.5001,-220.0034 302.5001,-220.0033"/>
<text text-anchor="middle" x="311.5" y="-231.8" font-family="Times,serif" font-size="14.00" fill="#000000">dobj</text>
</g>
<!-- 17 -->
<g id="node16" class="node">
<title>17</title>
<text text-anchor="middle" x="441" y="-188.3" font-family="Times,serif" font-size="14.00" fill="#000000">17 (happy)</text>
</g>
<!-- 13&#45;&gt;17 -->
<g id="edge15" class="edge">
<title>13&#45;&gt;17</title>
<path fill="none" stroke="#000000" d="M328.4225,-260.9735C350.0325,-247.7336 379.5767,-229.6326 402.977,-215.2958"/>
<polygon fill="#000000" stroke="#000000" points="404.9168,-218.212 411.6152,-210.0034 401.2598,-212.2432 404.9168,-218.212"/>
<text text-anchor="middle" x="394" y="-231.8" font-family="Times,serif" font-size="14.00" fill="#000000">advcl</text>
</g>
<!-- 8 -->
<g id="node10" class="node">
<title>8</title>
<text text-anchor="middle" x="100" y="-101.3" font-family="Times,serif" font-size="14.00" fill="#000000">8 (whose)</text>
</g>
<!-- 9 -->
<g id="node11" class="node">
<title>9</title>
<text text-anchor="middle" x="205" y="-101.3" font-family="Times,serif" font-size="14.00" fill="#000000">9 (unexamined)</text>
</g>
<!-- 10 -->
<g id="node12" class="node">
<title>10</title>
<text text-anchor="middle" x="163" y="-14.3" font-family="Times,serif" font-size="14.00" fill="#000000">10 (and)</text>
</g>
<!-- 9&#45;&gt;10 -->
<g id="edge9" class="edge">
<title>9&#45;&gt;10</title>
<path fill="none" stroke="#000000" d="M196.2976,-86.9735C190.4972,-74.9585 182.7642,-58.9401 176.2105,-45.3646"/>
<polygon fill="#000000" stroke="#000000" points="179.1908,-43.4872 171.6913,-36.0034 172.8869,-46.5305 179.1908,-43.4872"/>
<text text-anchor="middle" x="193.5" y="-57.8" font-family="Times,serif" font-size="14.00" fill="#000000">cc</text>
</g>
<!-- 11 -->
<g id="node13" class="node">
<title>11</title>
<text text-anchor="middle" x="246" y="-14.3" font-family="Times,serif" font-size="14.00" fill="#000000">11 (false)</text>
</g>
<!-- 9&#45;&gt;11 -->
<g id="edge10" class="edge">
<title>9&#45;&gt;11</title>
<path fill="none" stroke="#000000" d="M213.4952,-86.9735C219.1575,-74.9585 226.7064,-58.9401 233.1041,-45.3646"/>
<polygon fill="#000000" stroke="#000000" points="236.4187,-46.5413 237.5157,-36.0034 230.0866,-43.5571 236.4187,-46.5413"/>
<text text-anchor="middle" x="240" y="-57.8" font-family="Times,serif" font-size="14.00" fill="#000000">conj</text>
</g>
<!-- 12&#45;&gt;8 -->
<g id="edge11" class="edge">
<title>12&#45;&gt;8</title>
<path fill="none" stroke="#000000" d="M167.2108,-173.8908C158.1775,-168.7316 148.8777,-162.6762 141,-156 132.6798,-148.9488 124.8342,-140.0142 118.2771,-131.6002"/>
<polygon fill="#000000" stroke="#000000" points="120.9723,-129.36 112.1798,-123.4488 115.367,-133.5529 120.9723,-129.36"/>
<text text-anchor="middle" x="171" y="-144.8" font-family="Times,serif" font-size="14.00" fill="#000000">nmod:poss</text>
</g>
<!-- 12&#45;&gt;9 -->
<g id="edge12" class="edge">
<title>12&#45;&gt;9</title>
<path fill="none" stroke="#000000" d="M205,-173.9735C205,-162.1918 205,-146.5607 205,-133.1581"/>
<polygon fill="#000000" stroke="#000000" points="208.5001,-133.0033 205,-123.0034 201.5001,-133.0034 208.5001,-133.0033"/>
<text text-anchor="middle" x="220.5" y="-144.8" font-family="Times,serif" font-size="14.00" fill="#000000">amod</text>
</g>
<!-- 15 -->
<g id="node17" class="node">
<title>15</title>
<text text-anchor="middle" x="310" y="-101.3" font-family="Times,serif" font-size="14.00" fill="#000000">15 (from)</text>
</g>
<!-- 17&#45;&gt;15 -->
<g id="edge16" class="edge">
<title>17&#45;&gt;15</title>
<path fill="none" stroke="#000000" d="M413.2615,-173.9324C404.5243,-168.2176 394.8467,-161.8633 386,-156 372.6557,-147.1558 358.0435,-137.3738 345.2283,-128.762"/>
<polygon fill="#000000" stroke="#000000" points="346.932,-125.6899 336.6809,-123.0128 343.0251,-131.4982 346.932,-125.6899"/>
<text text-anchor="middle" x="400.5" y="-144.8" font-family="Times,serif" font-size="14.00" fill="#000000">mark</text>
</g>
<!-- 16 -->
<g id="node18" class="node">
<title>16</title>
<text text-anchor="middle" x="400" y="-101.3" font-family="Times,serif" font-size="14.00" fill="#000000">16 (being)</text>
</g>
<!-- 17&#45;&gt;16 -->
<g id="edge17" class="edge">
<title>17&#45;&gt;16</title>
<path fill="none" stroke="#000000" d="M432.5048,-173.9735C426.8425,-161.9585 419.2936,-145.9401 412.8959,-132.3646"/>
<polygon fill="#000000" stroke="#000000" points="415.9134,-130.5571 408.4843,-123.0034 409.5813,-133.5413 415.9134,-130.5571"/>
<text text-anchor="middle" x="433" y="-144.8" font-family="Times,serif" font-size="14.00" fill="#000000">cop</text>
</g>
<!-- 18 -->
<g id="node19" class="node">
<title>18</title>
<text text-anchor="middle" x="482" y="-101.3" font-family="Times,serif" font-size="14.00" fill="#000000">18 (or)</text>
</g>
<!-- 17&#45;&gt;18 -->
<g id="edge18" class="edge">
<title>17&#45;&gt;18</title>
<path fill="none" stroke="#000000" d="M449.4952,-173.9735C455.1575,-161.9585 462.7064,-145.9401 469.1041,-132.3646"/>
<polygon fill="#000000" stroke="#000000" points="472.4187,-133.5413 473.5157,-123.0034 466.0866,-130.5571 472.4187,-133.5413"/>
<text text-anchor="middle" x="470.5" y="-144.8" font-family="Times,serif" font-size="14.00" fill="#000000">cc</text>
</g>
<!-- 19 -->
<g id="node20" class="node">
<title>19</title>
<text text-anchor="middle" x="571" y="-101.3" font-family="Times,serif" font-size="14.00" fill="#000000">19 (satisfied)</text>
</g>
<!-- 17&#45;&gt;19 -->
<g id="edge19" class="edge">
<title>17&#45;&gt;19</title>
<path fill="none" stroke="#000000" d="M467.9361,-173.9735C487.5455,-160.8503 514.2913,-142.9512 535.6226,-128.6756"/>
<polygon fill="#000000" stroke="#000000" points="537.7344,-131.4739 544.0984,-123.0034 533.8411,-125.6564 537.7344,-131.4739"/>
<text text-anchor="middle" x="526" y="-144.8" font-family="Times,serif" font-size="14.00" fill="#000000">conj</text>
</g>
<!-- 22 -->
<g id="node21" class="node">
<title>22</title>
<text text-anchor="middle" x="667" y="-101.3" font-family="Times,serif" font-size="14.00" fill="#000000">22 (lives)</text>
</g>
<!-- 17&#45;&gt;22 -->
<g id="edge20" class="edge">
<title>17&#45;&gt;22</title>
<path fill="none" stroke="#000000" d="M479.0216,-178.8539C498.007,-172.1867 521.2874,-163.8555 542,-156 576.0057,-143.1029 586.1798,-138.5884 623.2816,-123.2856"/>
<polygon fill="#000000" stroke="#000000" points="624.8357,-126.4309 632.7502,-119.3873 622.1707,-119.958 624.8357,-126.4309"/>
<text text-anchor="middle" x="596" y="-144.8" font-family="Times,serif" font-size="14.00" fill="#000000">nmod</text>
</g>
<!-- 20 -->
<g id="node22" class="node">
<title>20</title>
<text text-anchor="middle" x="624" y="-14.3" font-family="Times,serif" font-size="14.00" fill="#000000">20 (with)</text>
</g>
<!-- 22&#45;&gt;20 -->
<g id="edge21" class="edge">
<title>22&#45;&gt;20</title>
<path fill="none" stroke="#000000" d="M658.0904,-86.9735C652.0942,-74.8418 644.0808,-58.6287 637.3299,-44.9698"/>
<polygon fill="#000000" stroke="#000000" points="640.4668,-43.4173 632.8982,-36.0034 634.1915,-46.519 640.4668,-43.4173"/>
<text text-anchor="middle" x="661" y="-57.8" font-family="Times,serif" font-size="14.00" fill="#000000">case</text>
</g>
<!-- 21 -->
<g id="node23" class="node">
<title>21</title>
<text text-anchor="middle" x="710" y="-14.3" font-family="Times,serif" font-size="14.00" fill="#000000">21 (their)</text>
</g>
<!-- 22&#45;&gt;21 -->
<g id="edge22" class="edge">
<title>22&#45;&gt;21</title>
<path fill="none" stroke="#000000" d="M675.9096,-86.9735C681.9058,-74.8418 689.9192,-58.6287 696.6701,-44.9698"/>
<polygon fill="#000000" stroke="#000000" points="699.8085,-46.519 701.1018,-36.0034 693.5332,-43.4173 699.8085,-46.519"/>
<text text-anchor="middle" x="721" y="-57.8" font-family="Times,serif" font-size="14.00" fill="#000000">nmod:poss</text>
</g>
</g>
</svg>
