<?xml version="1.0" encoding="UTF-8" standalone="no"?>
<!DOCTYPE svg PUBLIC "-//W3C//DTD SVG 1.1//EN"
 "http://www.w3.org/Graphics/SVG/1.1/DTD/svg11.dtd">
<!-- Generated by graphviz version 2.40.1 (20161225.0304)
 -->
<!-- Title: G Pages: 1 -->
<svg width="475pt" height="305pt"
 viewBox="0.00 0.00 474.50 305.00" xmlns="http://www.w3.org/2000/svg" xmlns:xlink="http://www.w3.org/1999/xlink">
<g id="graph0" class="graph" transform="scale(1 1) rotate(0) translate(4 301)">
<title>G</title>
<polygon fill="#ffffff" stroke="transparent" points="-4,4 -4,-301 470.5,-301 470.5,4 -4,4"/>
<!-- 0 -->
<g id="node1" class="node">
<title>0</title>
<text text-anchor="middle" x="222" y="-275.3" font-family="Times,serif" font-size="14.00" fill="#000000">0 (None)</text>
</g>
<!-- 4 -->
<g id="node2" class="node">
<title>4</title>
<text text-anchor="middle" x="222" y="-188.3" font-family="Times,serif" font-size="14.00" fill="#000000">4 (tall)</text>
</g>
<!-- 0&#45;&gt;4 -->
<g id="edge1" class="edge">
<title>0&#45;&gt;4</title>
<path fill="none" stroke="#000000" d="M222,-260.9735C222,-249.1918 222,-233.5607 222,-220.1581"/>
<polygon fill="#000000" stroke="#000000" points="225.5001,-220.0033 222,-210.0034 218.5001,-220.0034 225.5001,-220.0033"/>
<text text-anchor="middle" x="240.5" y="-231.8" font-family="Times,serif" font-size="14.00" fill="#000000">ROOT</text>
</g>
<!-- 1 -->
<g id="node3" class="node">
<title>1</title>
<text text-anchor="middle" x="32" y="-101.3" font-family="Times,serif" font-size="14.00" fill="#000000">1 (They)</text>
</g>
<!-- 4&#45;&gt;1 -->
<g id="edge2" class="edge">
<title>4&#45;&gt;1</title>
<path fill="none" stroke="#000000" d="M194.69,-184.8238C172.4362,-178.5241 140.4764,-168.4348 114,-156 97.6635,-148.3275 80.5656,-138.0889 66.2357,-128.7992"/>
<polygon fill="#000000" stroke="#000000" points="67.977,-125.755 57.7026,-123.1692 64.122,-131.5978 67.977,-125.755"/>
<text text-anchor="middle" x="129" y="-144.8" font-family="Times,serif" font-size="14.00" fill="#000000">nsubj</text>
</g>
<!-- 2 -->
<g id="node4" class="node">
<title>2</title>
<text text-anchor="middle" x="109" y="-101.3" font-family="Times,serif" font-size="14.00" fill="#000000">2 (are)</text>
</g>
<!-- 4&#45;&gt;2 -->
<g id="edge3" class="edge">
<title>4&#45;&gt;2</title>
<path fill="none" stroke="#000000" d="M194.958,-176.2675C185.2594,-170.2782 174.4035,-163.1636 165,-156 154.6214,-148.0936 143.8758,-138.6549 134.6067,-130.0594"/>
<polygon fill="#000000" stroke="#000000" points="136.8871,-127.3992 127.2084,-123.0896 132.0871,-132.4943 136.8871,-127.3992"/>
<text text-anchor="middle" x="175" y="-144.8" font-family="Times,serif" font-size="14.00" fill="#000000">cop</text>
</g>
<!-- 3 -->
<g id="node5" class="node">
<title>3</title>
<text text-anchor="middle" x="184" y="-101.3" font-family="Times,serif" font-size="14.00" fill="#000000">3 (very)</text>
</g>
<!-- 4&#45;&gt;3 -->
<g id="edge4" class="edge">
<title>4&#45;&gt;3</title>
<path fill="none" stroke="#000000" d="M204.3959,-173.772C200.0641,-168.4088 195.8546,-162.2841 193,-156 189.7788,-148.9089 187.707,-140.7773 186.3757,-133.1212"/>
<polygon fill="#000000" stroke="#000000" points="189.8284,-132.539 184.9807,-123.1183 182.8955,-133.5059 189.8284,-132.539"/>
<text text-anchor="middle" x="215.5" y="-144.8" font-family="Times,serif" font-size="14.00" fill="#000000">advmod</text>
</g>
<!-- 5 -->
<g id="node6" class="node">
<title>5</title>
<text text-anchor="middle" x="260" y="-101.3" font-family="Times,serif" font-size="14.00" fill="#000000">5 (and)</text>
</g>
<!-- 4&#45;&gt;5 -->
<g id="edge5" class="edge">
<title>4&#45;&gt;5</title>
<path fill="none" stroke="#000000" d="M230.1785,-173.703C232.6997,-168.0344 235.476,-161.7639 238,-156 241.2811,-148.5071 244.8033,-140.3801 248.0466,-132.8619"/>
<polygon fill="#000000" stroke="#000000" points="251.366,-134.0029 252.1059,-123.4339 244.9366,-131.2347 251.366,-134.0029"/>
<text text-anchor="middle" x="251.5" y="-144.8" font-family="Times,serif" font-size="14.00" fill="#000000">cc</text>
</g>
<!-- 7 -->
<g id="node7" class="node">
<title>7</title>
<text text-anchor="middle" x="338" y="-101.3" font-family="Times,serif" font-size="14.00" fill="#000000">7 (quiet)</text>
</g>
<!-- 4&#45;&gt;7 -->
<g id="edge6" class="edge">
<title>4&#45;&gt;7</title>
<path fill="none" stroke="#000000" d="M246.0353,-173.9735C263.3774,-160.9669 286.9746,-143.269 305.9238,-129.0571"/>
<polygon fill="#000000" stroke="#000000" points="308.0955,-131.8034 313.9955,-123.0034 303.8955,-126.2034 308.0955,-131.8034"/>
<text text-anchor="middle" x="299" y="-144.8" font-family="Times,serif" font-size="14.00" fill="#000000">conj</text>
</g>
<!-- 8 -->
<g id="node8" class="node">
<title>8</title>
<text text-anchor="middle" x="427" y="-101.3" font-family="Times,serif" font-size="14.00" fill="#000000">8 (animals)</text>
</g>
<!-- 4&#45;&gt;8 -->
<g id="edge7" class="edge">
<title>4&#45;&gt;8</title>
<path fill="none" stroke="#000000" d="M249.0253,-182.0118C267.6738,-175.0043 292.9781,-165.2671 315,-156 336.4206,-146.986 359.8583,-136.4246 379.7317,-127.2582"/>
<polygon fill="#000000" stroke="#000000" points="381.2802,-130.3982 388.8835,-123.0198 378.3385,-124.0464 381.2802,-130.3982"/>
<text text-anchor="middle" x="360" y="-144.8" font-family="Times,serif" font-size="14.00" fill="#000000">dep</text>
</g>
<!-- 6 -->
<g id="node9" class="node">
<title>6</title>
<text text-anchor="middle" x="338" y="-14.3" font-family="Times,serif" font-size="14.00" fill="#000000">6 (very)</text>
</g>
<!-- 7&#45;&gt;6 -->
<g id="edge8" class="edge">
<title>7&#45;&gt;6</title>
<path fill="none" stroke="#000000" d="M338,-86.9735C338,-75.1918 338,-59.5607 338,-46.1581"/>
<polygon fill="#000000" stroke="#000000" points="341.5001,-46.0033 338,-36.0034 334.5001,-46.0034 341.5001,-46.0033"/>
<text text-anchor="middle" x="360.5" y="-57.8" font-family="Times,serif" font-size="14.00" fill="#000000">advmod</text>
</g>
</g>
</svg>
