<?xml version="1.0" encoding="UTF-8" standalone="no"?>
<!DOCTYPE svg PUBLIC "-//W3C//DTD SVG 1.1//EN"
 "http://www.w3.org/Graphics/SVG/1.1/DTD/svg11.dtd">
<!-- Generated by graphviz version 2.40.1 (20161225.0304)
 -->
<!-- Title: G Pages: 1 -->
<svg width="548pt" height="305pt"
 viewBox="0.00 0.00 547.50 305.00" xmlns="http://www.w3.org/2000/svg" xmlns:xlink="http://www.w3.org/1999/xlink">
<g id="graph0" class="graph" transform="scale(1 1) rotate(0) translate(4 301)">
<title>G</title>
<polygon fill="#ffffff" stroke="transparent" points="-4,4 -4,-301 543.5,-301 543.5,4 -4,4"/>
<!-- 0 -->
<g id="node1" class="node">
<title>0</title>
<text text-anchor="middle" x="238.5" y="-275.3" font-family="Times,serif" font-size="14.00" fill="#000000">0 (None)</text>
</g>
<!-- 4 -->
<g id="node2" class="node">
<title>4</title>
<text text-anchor="middle" x="238.5" y="-188.3" font-family="Times,serif" font-size="14.00" fill="#000000">4 (lighted)</text>
</g>
<!-- 0&#45;&gt;4 -->
<g id="edge1" class="edge">
<title>0&#45;&gt;4</title>
<path fill="none" stroke="#000000" d="M238.5,-260.9735C238.5,-249.1918 238.5,-233.5607 238.5,-220.1581"/>
<polygon fill="#000000" stroke="#000000" points="242.0001,-220.0033 238.5,-210.0034 235.0001,-220.0034 242.0001,-220.0033"/>
<text text-anchor="middle" x="257" y="-231.8" font-family="Times,serif" font-size="14.00" fill="#000000">ROOT</text>
</g>
<!-- 2 -->
<g id="node4" class="node">
<title>2</title>
<text text-anchor="middle" x="42.5" y="-101.3" font-family="Times,serif" font-size="14.00" fill="#000000">2 (windows)</text>
</g>
<!-- 4&#45;&gt;2 -->
<g id="edge3" class="edge">
<title>4&#45;&gt;2</title>
<path fill="none" stroke="#000000" d="M201.3347,-187.2888C172.2829,-182.4749 131.5841,-173.1818 99.5,-156 87.3076,-149.4707 75.601,-139.8121 66.003,-130.6515"/>
<polygon fill="#000000" stroke="#000000" points="68.3486,-128.048 58.7887,-123.4808 63.4139,-133.0128 68.3486,-128.048"/>
<text text-anchor="middle" x="126" y="-144.8" font-family="Times,serif" font-size="14.00" fill="#000000">nsubjpass</text>
</g>
<!-- 3 -->
<g id="node5" class="node">
<title>3</title>
<text text-anchor="middle" x="130.5" y="-101.3" font-family="Times,serif" font-size="14.00" fill="#000000">3 (are)</text>
</g>
<!-- 4&#45;&gt;3 -->
<g id="edge4" class="edge">
<title>4&#45;&gt;3</title>
<path fill="none" stroke="#000000" d="M201.1834,-176.2775C190.3472,-170.7525 178.9088,-163.9155 169.5,-156 161.1839,-149.0037 153.5452,-139.9389 147.2742,-131.396"/>
<polygon fill="#000000" stroke="#000000" points="150.0859,-129.3093 141.4847,-123.123 144.3508,-133.3228 150.0859,-129.3093"/>
<text text-anchor="middle" x="191" y="-144.8" font-family="Times,serif" font-size="14.00" fill="#000000">auxpass</text>
</g>
<!-- 5 -->
<g id="node6" class="node">
<title>5</title>
<text text-anchor="middle" x="202.5" y="-101.3" font-family="Times,serif" font-size="14.00" fill="#000000">5 (.)</text>
</g>
<!-- 4&#45;&gt;5 -->
<g id="edge5" class="edge">
<title>4&#45;&gt;5</title>
<path fill="none" stroke="#000000" d="M229.5495,-173.8209C226.86,-168.1571 223.9698,-161.8596 221.5,-156 218.3359,-148.4931 215.1479,-140.2578 212.311,-132.6363"/>
<polygon fill="#000000" stroke="#000000" points="215.5388,-131.2719 208.8155,-123.0836 208.9651,-133.6774 215.5388,-131.2719"/>
<text text-anchor="middle" x="237" y="-144.8" font-family="Times,serif" font-size="14.00" fill="#000000">punct</text>
</g>
<!-- 11 -->
<g id="node7" class="node">
<title>11</title>
<text text-anchor="middle" x="274.5" y="-101.3" font-family="Times,serif" font-size="14.00" fill="#000000">11 (.)</text>
</g>
<!-- 4&#45;&gt;11 -->
<g id="edge6" class="edge">
<title>4&#45;&gt;11</title>
<path fill="none" stroke="#000000" d="M245.9592,-173.9735C250.931,-161.9585 257.5593,-145.9401 263.1767,-132.3646"/>
<polygon fill="#000000" stroke="#000000" points="266.4608,-133.5818 267.0503,-123.0034 259.9927,-130.9053 266.4608,-133.5818"/>
<text text-anchor="middle" x="275" y="-144.8" font-family="Times,serif" font-size="14.00" fill="#000000">punct</text>
</g>
<!-- 6 -->
<g id="node8" class="node">
<title>6</title>
<text text-anchor="middle" x="347.5" y="-101.3" font-family="Times,serif" font-size="14.00" fill="#000000">6 (But)</text>
</g>
<!-- 4&#45;&gt;6 -->
<g id="edge7" class="edge">
<title>4&#45;&gt;6</title>
<path fill="none" stroke="#000000" d="M268.8876,-173.9845C277.409,-168.5306 286.5199,-162.3061 294.5,-156 304.2638,-148.2844 314.2743,-139.0525 322.9289,-130.5767"/>
<polygon fill="#000000" stroke="#000000" points="325.5359,-132.9199 330.145,-123.3802 320.5928,-127.9634 325.5359,-132.9199"/>
<text text-anchor="middle" x="318" y="-144.8" font-family="Times,serif" font-size="14.00" fill="#000000">cc</text>
</g>
<!-- 10 -->
<g id="node9" class="node">
<title>10</title>
<text text-anchor="middle" x="433.5" y="-101.3" font-family="Times,serif" font-size="14.00" fill="#000000">10 (darked)</text>
</g>
<!-- 4&#45;&gt;10 -->
<g id="edge8" class="edge">
<title>4&#45;&gt;10</title>
<path fill="none" stroke="#000000" d="M275.5309,-177.8778C291.8806,-171.4657 311.2619,-163.6223 328.5,-156 348.4783,-147.1661 370.2476,-136.7297 388.7579,-127.6065"/>
<polygon fill="#000000" stroke="#000000" points="390.4295,-130.6844 397.8364,-123.1089 387.322,-124.4119 390.4295,-130.6844"/>
<text text-anchor="middle" x="373.5" y="-144.8" font-family="Times,serif" font-size="14.00" fill="#000000">conj</text>
</g>
<!-- 1 -->
<g id="node3" class="node">
<title>1</title>
<text text-anchor="middle" x="42.5" y="-14.3" font-family="Times,serif" font-size="14.00" fill="#000000">1 (Some)</text>
</g>
<!-- 2&#45;&gt;1 -->
<g id="edge2" class="edge">
<title>2&#45;&gt;1</title>
<path fill="none" stroke="#000000" d="M42.5,-86.9735C42.5,-75.1918 42.5,-59.5607 42.5,-46.1581"/>
<polygon fill="#000000" stroke="#000000" points="46.0001,-46.0033 42.5,-36.0034 39.0001,-46.0034 46.0001,-46.0033"/>
<text text-anchor="middle" x="51" y="-57.8" font-family="Times,serif" font-size="14.00" fill="#000000">det</text>
</g>
<!-- 7 -->
<g id="node10" class="node">
<title>7</title>
<text text-anchor="middle" x="348.5" y="-14.3" font-family="Times,serif" font-size="14.00" fill="#000000">7 (mostly)</text>
</g>
<!-- 10&#45;&gt;7 -->
<g id="edge9" class="edge">
<title>10&#45;&gt;7</title>
<path fill="none" stroke="#000000" d="M405.5304,-86.8436C398.2972,-81.5249 390.7842,-75.4045 384.5,-69 377.289,-61.6509 370.4724,-52.733 364.7504,-44.4227"/>
<polygon fill="#000000" stroke="#000000" points="367.6571,-42.4728 359.2131,-36.0736 361.8235,-46.3418 367.6571,-42.4728"/>
<text text-anchor="middle" x="407" y="-57.8" font-family="Times,serif" font-size="14.00" fill="#000000">advmod</text>
</g>
<!-- 8 -->
<g id="node11" class="node">
<title>8</title>
<text text-anchor="middle" x="433.5" y="-14.3" font-family="Times,serif" font-size="14.00" fill="#000000">8 (they)</text>
</g>
<!-- 10&#45;&gt;8 -->
<g id="edge10" class="edge">
<title>10&#45;&gt;8</title>
<path fill="none" stroke="#000000" d="M433.5,-86.9735C433.5,-75.1918 433.5,-59.5607 433.5,-46.1581"/>
<polygon fill="#000000" stroke="#000000" points="437.0001,-46.0033 433.5,-36.0034 430.0001,-46.0034 437.0001,-46.0033"/>
<text text-anchor="middle" x="460" y="-57.8" font-family="Times,serif" font-size="14.00" fill="#000000">nsubjpass</text>
</g>
<!-- 9 -->
<g id="node12" class="node">
<title>9</title>
<text text-anchor="middle" x="509.5" y="-14.3" font-family="Times,serif" font-size="14.00" fill="#000000">9 (&#39;re)</text>
</g>
<!-- 10&#45;&gt;9 -->
<g id="edge11" class="edge">
<title>10&#45;&gt;9</title>
<path fill="none" stroke="#000000" d="M467.0715,-86.9733C474.475,-81.8818 481.7996,-75.8365 487.5,-69 493.1195,-62.2605 497.5238,-53.8681 500.8667,-45.8495"/>
<polygon fill="#000000" stroke="#000000" points="504.1801,-46.9821 504.4283,-36.3902 497.6291,-44.5155 504.1801,-46.9821"/>
<text text-anchor="middle" x="518" y="-57.8" font-family="Times,serif" font-size="14.00" fill="#000000">auxpass</text>
</g>
</g>
</svg>
