<?xml version="1.0" encoding="UTF-8" standalone="no"?>
<!DOCTYPE svg PUBLIC "-//W3C//DTD SVG 1.1//EN"
 "http://www.w3.org/Graphics/SVG/1.1/DTD/svg11.dtd">
<!-- Generated by graphviz version 2.40.1 (20161225.0304)
 -->
<!-- Title: G Pages: 1 -->
<svg width="324pt" height="305pt"
 viewBox="0.00 0.00 323.50 305.00" xmlns="http://www.w3.org/2000/svg" xmlns:xlink="http://www.w3.org/1999/xlink">
<g id="graph0" class="graph" transform="scale(1 1) rotate(0) translate(4 301)">
<title>G</title>
<polygon fill="#ffffff" stroke="transparent" points="-4,4 -4,-301 319.5,-301 319.5,4 -4,4"/>
<!-- 0 -->
<g id="node1" class="node">
<title>0</title>
<text text-anchor="middle" x="148.5" y="-275.3" font-family="Times,serif" font-size="14.00" fill="#000000">0 (None)</text>
</g>
<!-- 4 -->
<g id="node2" class="node">
<title>4</title>
<text text-anchor="middle" x="148.5" y="-188.3" font-family="Times,serif" font-size="14.00" fill="#000000">4 (kangaroo)</text>
</g>
<!-- 0&#45;&gt;4 -->
<g id="edge1" class="edge">
<title>0&#45;&gt;4</title>
<path fill="none" stroke="#000000" d="M148.5,-260.9735C148.5,-249.1918 148.5,-233.5607 148.5,-220.1581"/>
<polygon fill="#000000" stroke="#000000" points="152.0001,-220.0033 148.5,-210.0034 145.0001,-220.0034 152.0001,-220.0033"/>
<text text-anchor="middle" x="167" y="-231.8" font-family="Times,serif" font-size="14.00" fill="#000000">ROOT</text>
</g>
<!-- 1 -->
<g id="node3" class="node">
<title>1</title>
<text text-anchor="middle" x="33.5" y="-101.3" font-family="Times,serif" font-size="14.00" fill="#000000">1 (Kolin)</text>
</g>
<!-- 4&#45;&gt;1 -->
<g id="edge2" class="edge">
<title>4&#45;&gt;1</title>
<path fill="none" stroke="#000000" d="M120.0732,-173.8812C111.7055,-168.3262 102.6205,-162.0736 94.5,-156 83.5097,-147.78 71.8554,-138.2525 61.7105,-129.6729"/>
<polygon fill="#000000" stroke="#000000" points="63.8175,-126.8697 53.9396,-123.0385 59.2724,-132.1934 63.8175,-126.8697"/>
<text text-anchor="middle" x="109.5" y="-144.8" font-family="Times,serif" font-size="14.00" fill="#000000">nsubj</text>
</g>
<!-- 2 -->
<g id="node4" class="node">
<title>2</title>
<text text-anchor="middle" x="112.5" y="-101.3" font-family="Times,serif" font-size="14.00" fill="#000000">2 (is)</text>
</g>
<!-- 4&#45;&gt;2 -->
<g id="edge3" class="edge">
<title>4&#45;&gt;2</title>
<path fill="none" stroke="#000000" d="M141.0408,-173.9735C136.069,-161.9585 129.4407,-145.9401 123.8233,-132.3646"/>
<polygon fill="#000000" stroke="#000000" points="127.0073,-130.9053 119.9497,-123.0034 120.5392,-133.5818 127.0073,-130.9053"/>
<text text-anchor="middle" x="143.5" y="-144.8" font-family="Times,serif" font-size="14.00" fill="#000000">cop</text>
</g>
<!-- 3 -->
<g id="node5" class="node">
<title>3</title>
<text text-anchor="middle" x="184.5" y="-101.3" font-family="Times,serif" font-size="14.00" fill="#000000">3 (a)</text>
</g>
<!-- 4&#45;&gt;3 -->
<g id="edge4" class="edge">
<title>4&#45;&gt;3</title>
<path fill="none" stroke="#000000" d="M155.9592,-173.9735C160.931,-161.9585 167.5593,-145.9401 173.1767,-132.3646"/>
<polygon fill="#000000" stroke="#000000" points="176.4608,-133.5818 177.0503,-123.0034 169.9927,-130.9053 176.4608,-133.5818"/>
<text text-anchor="middle" x="177" y="-144.8" font-family="Times,serif" font-size="14.00" fill="#000000">det</text>
</g>
<!-- 6 -->
<g id="node6" class="node">
<title>6</title>
<text text-anchor="middle" x="272.5" y="-101.3" font-family="Times,serif" font-size="14.00" fill="#000000">6 (Australia)</text>
</g>
<!-- 4&#45;&gt;6 -->
<g id="edge5" class="edge">
<title>4&#45;&gt;6</title>
<path fill="none" stroke="#000000" d="M174.1929,-173.9735C192.8142,-160.9086 218.182,-143.1102 238.4839,-128.8662"/>
<polygon fill="#000000" stroke="#000000" points="240.6641,-131.612 246.84,-123.0034 236.6437,-125.8817 240.6641,-131.612"/>
<text text-anchor="middle" x="233.5" y="-144.8" font-family="Times,serif" font-size="14.00" fill="#000000">nmod</text>
</g>
<!-- 5 -->
<g id="node7" class="node">
<title>5</title>
<text text-anchor="middle" x="272.5" y="-14.3" font-family="Times,serif" font-size="14.00" fill="#000000">5 (from)</text>
</g>
<!-- 6&#45;&gt;5 -->
<g id="edge6" class="edge">
<title>6&#45;&gt;5</title>
<path fill="none" stroke="#000000" d="M272.5,-86.9735C272.5,-75.1918 272.5,-59.5607 272.5,-46.1581"/>
<polygon fill="#000000" stroke="#000000" points="276.0001,-46.0033 272.5,-36.0034 269.0001,-46.0034 276.0001,-46.0033"/>
<text text-anchor="middle" x="284.5" y="-57.8" font-family="Times,serif" font-size="14.00" fill="#000000">case</text>
</g>
</g>
</svg>
