<?xml version="1.0" encoding="UTF-8" standalone="no"?>
<!DOCTYPE svg PUBLIC "-//W3C//DTD SVG 1.1//EN"
 "http://www.w3.org/Graphics/SVG/1.1/DTD/svg11.dtd">
<!-- Generated by graphviz version 2.40.1 (20161225.0304)
 -->
<!-- Title: G Pages: 1 -->
<svg width="480pt" height="392pt"
 viewBox="0.00 0.00 480.00 392.00" xmlns="http://www.w3.org/2000/svg" xmlns:xlink="http://www.w3.org/1999/xlink">
<g id="graph0" class="graph" transform="scale(1 1) rotate(0) translate(4 388)">
<title>G</title>
<polygon fill="#ffffff" stroke="transparent" points="-4,4 -4,-388 476,-388 476,4 -4,4"/>
<!-- 0 -->
<g id="node1" class="node">
<title>0</title>
<text text-anchor="middle" x="286.5" y="-362.3" font-family="Times,serif" font-size="14.00" fill="#000000">0 (None)</text>
</g>
<!-- 11 -->
<g id="node2" class="node">
<title>11</title>
<text text-anchor="middle" x="286.5" y="-275.3" font-family="Times,serif" font-size="14.00" fill="#000000">11 (roars)</text>
</g>
<!-- 0&#45;&gt;11 -->
<g id="edge1" class="edge">
<title>0&#45;&gt;11</title>
<path fill="none" stroke="#000000" d="M286.5,-347.9735C286.5,-336.1918 286.5,-320.5607 286.5,-307.1581"/>
<polygon fill="#000000" stroke="#000000" points="290.0001,-307.0033 286.5,-297.0034 283.0001,-307.0034 290.0001,-307.0033"/>
<text text-anchor="middle" x="305" y="-318.8" font-family="Times,serif" font-size="14.00" fill="#000000">ROOT</text>
</g>
<!-- 5 -->
<g id="node7" class="node">
<title>5</title>
<text text-anchor="middle" x="138.5" y="-188.3" font-family="Times,serif" font-size="14.00" fill="#000000">5 (king)</text>
</g>
<!-- 11&#45;&gt;5 -->
<g id="edge9" class="edge">
<title>11&#45;&gt;5</title>
<path fill="none" stroke="#000000" d="M251.4362,-267.5611C234.8002,-261.4174 215.0009,-253.0354 198.5,-243 186.5182,-235.713 174.5051,-226.0773 164.4095,-217.1452"/>
<polygon fill="#000000" stroke="#000000" points="166.5147,-214.3289 156.7614,-210.1909 161.8055,-219.508 166.5147,-214.3289"/>
<text text-anchor="middle" x="217" y="-231.8" font-family="Times,serif" font-size="14.00" fill="#000000">ccomp</text>
</g>
<!-- 9 -->
<g id="node11" class="node">
<title>9</title>
<text text-anchor="middle" x="213.5" y="-188.3" font-family="Times,serif" font-size="14.00" fill="#000000">9 (,)</text>
</g>
<!-- 11&#45;&gt;9 -->
<g id="edge10" class="edge">
<title>11&#45;&gt;9</title>
<path fill="none" stroke="#000000" d="M267.8553,-260.7515C262.4256,-255.1928 256.589,-248.9708 251.5,-243 244.9777,-235.3475 238.2873,-226.6861 232.3737,-218.7018"/>
<polygon fill="#000000" stroke="#000000" points="235.0271,-216.4002 226.3065,-210.3836 229.3717,-220.5253 235.0271,-216.4002"/>
<text text-anchor="middle" x="267" y="-231.8" font-family="Times,serif" font-size="14.00" fill="#000000">punct</text>
</g>
<!-- 10 -->
<g id="node12" class="node">
<title>10</title>
<text text-anchor="middle" x="286.5" y="-188.3" font-family="Times,serif" font-size="14.00" fill="#000000">10 (he)</text>
</g>
<!-- 11&#45;&gt;10 -->
<g id="edge12" class="edge">
<title>11&#45;&gt;10</title>
<path fill="none" stroke="#000000" d="M286.5,-260.9735C286.5,-249.1918 286.5,-233.5607 286.5,-220.1581"/>
<polygon fill="#000000" stroke="#000000" points="290.0001,-220.0033 286.5,-210.0034 283.0001,-220.0034 290.0001,-220.0033"/>
<text text-anchor="middle" x="301.5" y="-231.8" font-family="Times,serif" font-size="14.00" fill="#000000">nsubj</text>
</g>
<!-- 13 -->
<g id="node13" class="node">
<title>13</title>
<text text-anchor="middle" x="359.5" y="-188.3" font-family="Times,serif" font-size="14.00" fill="#000000">13 (!)</text>
</g>
<!-- 11&#45;&gt;13 -->
<g id="edge11" class="edge">
<title>11&#45;&gt;13</title>
<path fill="none" stroke="#000000" d="M304.5245,-260.654C309.7965,-255.0926 315.487,-248.8935 320.5,-243 327.1463,-235.1863 334.0543,-226.3994 340.1768,-218.3489"/>
<polygon fill="#000000" stroke="#000000" points="343.0179,-220.3943 346.2289,-210.2977 337.4224,-216.1882 343.0179,-220.3943"/>
<text text-anchor="middle" x="348" y="-231.8" font-family="Times,serif" font-size="14.00" fill="#000000">punct</text>
</g>
<!-- 12 -->
<g id="node14" class="node">
<title>12</title>
<text text-anchor="middle" x="438.5" y="-188.3" font-family="Times,serif" font-size="14.00" fill="#000000">12 (loud)</text>
</g>
<!-- 11&#45;&gt;12 -->
<g id="edge13" class="edge">
<title>11&#45;&gt;12</title>
<path fill="none" stroke="#000000" d="M321.5568,-265.2742C336.1036,-259.1077 352.9481,-251.3428 367.5,-243 381.3001,-235.0882 395.7016,-225.1059 407.8988,-216.0748"/>
<polygon fill="#000000" stroke="#000000" points="410.0703,-218.8211 415.9563,-210.0116 405.8614,-213.2277 410.0703,-218.8211"/>
<text text-anchor="middle" x="408.5" y="-231.8" font-family="Times,serif" font-size="14.00" fill="#000000">xcomp</text>
</g>
<!-- 1 -->
<g id="node3" class="node">
<title>1</title>
<text text-anchor="middle" x="28.5" y="-14.3" font-family="Times,serif" font-size="14.00" fill="#000000">1 (The)</text>
</g>
<!-- 2 -->
<g id="node4" class="node">
<title>2</title>
<text text-anchor="middle" x="28.5" y="-101.3" font-family="Times,serif" font-size="14.00" fill="#000000">2 (lion)</text>
</g>
<!-- 2&#45;&gt;1 -->
<g id="edge2" class="edge">
<title>2&#45;&gt;1</title>
<path fill="none" stroke="#000000" d="M28.5,-86.9735C28.5,-75.1918 28.5,-59.5607 28.5,-46.1581"/>
<polygon fill="#000000" stroke="#000000" points="32.0001,-46.0033 28.5,-36.0034 25.0001,-46.0034 32.0001,-46.0033"/>
<text text-anchor="middle" x="37" y="-57.8" font-family="Times,serif" font-size="14.00" fill="#000000">det</text>
</g>
<!-- 3 -->
<g id="node5" class="node">
<title>3</title>
<text text-anchor="middle" x="102.5" y="-101.3" font-family="Times,serif" font-size="14.00" fill="#000000">3 (is)</text>
</g>
<!-- 4 -->
<g id="node6" class="node">
<title>4</title>
<text text-anchor="middle" x="174.5" y="-101.3" font-family="Times,serif" font-size="14.00" fill="#000000">4 (the)</text>
</g>
<!-- 5&#45;&gt;2 -->
<g id="edge3" class="edge">
<title>5&#45;&gt;2</title>
<path fill="none" stroke="#000000" d="M109.6293,-173.9111C101.3355,-168.4074 92.4013,-162.1748 84.5,-156 74.3007,-148.0294 63.6652,-138.6478 54.4368,-130.1189"/>
<polygon fill="#000000" stroke="#000000" points="56.7473,-127.4874 47.0565,-123.2048 51.9615,-132.5959 56.7473,-127.4874"/>
<text text-anchor="middle" x="99.5" y="-144.8" font-family="Times,serif" font-size="14.00" fill="#000000">nsubj</text>
</g>
<!-- 5&#45;&gt;3 -->
<g id="edge4" class="edge">
<title>5&#45;&gt;3</title>
<path fill="none" stroke="#000000" d="M131.0408,-173.9735C126.069,-161.9585 119.4407,-145.9401 113.8233,-132.3646"/>
<polygon fill="#000000" stroke="#000000" points="117.0073,-130.9053 109.9497,-123.0034 110.5392,-133.5818 117.0073,-130.9053"/>
<text text-anchor="middle" x="133.5" y="-144.8" font-family="Times,serif" font-size="14.00" fill="#000000">cop</text>
</g>
<!-- 5&#45;&gt;4 -->
<g id="edge5" class="edge">
<title>5&#45;&gt;4</title>
<path fill="none" stroke="#000000" d="M145.9592,-173.9735C150.931,-161.9585 157.5593,-145.9401 163.1767,-132.3646"/>
<polygon fill="#000000" stroke="#000000" points="166.4608,-133.5818 167.0503,-123.0034 159.9927,-130.9053 166.4608,-133.5818"/>
<text text-anchor="middle" x="168" y="-144.8" font-family="Times,serif" font-size="14.00" fill="#000000">det</text>
</g>
<!-- 8 -->
<g id="node8" class="node">
<title>8</title>
<text text-anchor="middle" x="254.5" y="-101.3" font-family="Times,serif" font-size="14.00" fill="#000000">8 (jungle)</text>
</g>
<!-- 5&#45;&gt;8 -->
<g id="edge6" class="edge">
<title>5&#45;&gt;8</title>
<path fill="none" stroke="#000000" d="M162.5353,-173.9735C179.8774,-160.9669 203.4746,-143.269 222.4238,-129.0571"/>
<polygon fill="#000000" stroke="#000000" points="224.5955,-131.8034 230.4955,-123.0034 220.3955,-126.2034 224.5955,-131.8034"/>
<text text-anchor="middle" x="219.5" y="-144.8" font-family="Times,serif" font-size="14.00" fill="#000000">nmod</text>
</g>
<!-- 6 -->
<g id="node9" class="node">
<title>6</title>
<text text-anchor="middle" x="218.5" y="-14.3" font-family="Times,serif" font-size="14.00" fill="#000000">6 (of)</text>
</g>
<!-- 8&#45;&gt;6 -->
<g id="edge7" class="edge">
<title>8&#45;&gt;6</title>
<path fill="none" stroke="#000000" d="M247.0408,-86.9735C242.069,-74.9585 235.4407,-58.9401 229.8233,-45.3646"/>
<polygon fill="#000000" stroke="#000000" points="233.0073,-43.9053 225.9497,-36.0034 226.5392,-46.5818 233.0073,-43.9053"/>
<text text-anchor="middle" x="251.5" y="-57.8" font-family="Times,serif" font-size="14.00" fill="#000000">case</text>
</g>
<!-- 7 -->
<g id="node10" class="node">
<title>7</title>
<text text-anchor="middle" x="290.5" y="-14.3" font-family="Times,serif" font-size="14.00" fill="#000000">7 (the)</text>
</g>
<!-- 8&#45;&gt;7 -->
<g id="edge8" class="edge">
<title>8&#45;&gt;7</title>
<path fill="none" stroke="#000000" d="M261.9592,-86.9735C266.931,-74.9585 273.5593,-58.9401 279.1767,-45.3646"/>
<polygon fill="#000000" stroke="#000000" points="282.4608,-46.5818 283.0503,-36.0034 275.9927,-43.9053 282.4608,-46.5818"/>
<text text-anchor="middle" x="284" y="-57.8" font-family="Times,serif" font-size="14.00" fill="#000000">det</text>
</g>
</g>
</svg>
