<?xml version="1.0" encoding="UTF-8" standalone="no"?>
<!DOCTYPE svg PUBLIC "-//W3C//DTD SVG 1.1//EN"
 "http://www.w3.org/Graphics/SVG/1.1/DTD/svg11.dtd">
<!-- Generated by graphviz version 2.42.3 (0)
 -->
<!-- Title: G Pages: 1 -->
<svg width="481pt" height="392pt"
 viewBox="0.00 0.00 481.00 392.00" xmlns="http://www.w3.org/2000/svg" xmlns:xlink="http://www.w3.org/1999/xlink">
<g id="graph0" class="graph" transform="scale(1 1) rotate(0) translate(4 388)">
<title>G</title>
<polygon fill="white" stroke="transparent" points="-4,4 -4,-388 477,-388 477,4 -4,4"/>
<!-- 0 -->
<g id="node1" class="node">
<title>0</title>
<text text-anchor="middle" x="287.5" y="-362.3" font-family="Times,serif" font-size="14.00">0 (None)</text>
</g>
<!-- 11 -->
<g id="node2" class="node">
<title>11</title>
<text text-anchor="middle" x="287.5" y="-275.3" font-family="Times,serif" font-size="14.00">11 (roars)</text>
</g>
<!-- 0&#45;&gt;11 -->
<g id="edge1" class="edge">
<title>0&#45;&gt;11</title>
<path fill="none" stroke="black" d="M287.5,-347.8C287.5,-336.16 287.5,-320.55 287.5,-307.24"/>
<polygon fill="black" stroke="black" points="291,-307.18 287.5,-297.18 284,-307.18 291,-307.18"/>
<text text-anchor="middle" x="307" y="-318.8" font-family="Times,serif" font-size="14.00">ROOT</text>
</g>
<!-- 5 -->
<g id="node7" class="node">
<title>5</title>
<text text-anchor="middle" x="138.5" y="-188.3" font-family="Times,serif" font-size="14.00">5 (king)</text>
</g>
<!-- 11&#45;&gt;5 -->
<g id="edge9" class="edge">
<title>11&#45;&gt;5</title>
<path fill="none" stroke="black" d="M252.5,-266.89C235.88,-260.92 216.07,-252.77 199.5,-243 187,-235.63 174.39,-225.79 163.91,-216.79"/>
<polygon fill="black" stroke="black" points="166.17,-214.12 156.35,-210.13 161.54,-219.37 166.17,-214.12"/>
<text text-anchor="middle" x="218" y="-231.8" font-family="Times,serif" font-size="14.00">ccomp</text>
</g>
<!-- 9 -->
<g id="node11" class="node">
<title>9</title>
<text text-anchor="middle" x="214.5" y="-188.3" font-family="Times,serif" font-size="14.00">9 (,)</text>
</g>
<!-- 11&#45;&gt;9 -->
<g id="edge10" class="edge">
<title>11&#45;&gt;9</title>
<path fill="none" stroke="black" d="M269.21,-260.64C263.68,-255.15 257.7,-248.96 252.5,-243 245.69,-235.2 238.7,-226.3 232.6,-218.19"/>
<polygon fill="black" stroke="black" points="235.38,-216.07 226.62,-210.11 229.76,-220.23 235.38,-216.07"/>
<text text-anchor="middle" x="268" y="-231.8" font-family="Times,serif" font-size="14.00">punct</text>
</g>
<!-- 10 -->
<g id="node12" class="node">
<title>10</title>
<text text-anchor="middle" x="287.5" y="-188.3" font-family="Times,serif" font-size="14.00">10 (he)</text>
</g>
<!-- 11&#45;&gt;10 -->
<g id="edge12" class="edge">
<title>11&#45;&gt;10</title>
<path fill="none" stroke="black" d="M287.5,-260.8C287.5,-249.16 287.5,-233.55 287.5,-220.24"/>
<polygon fill="black" stroke="black" points="291,-220.18 287.5,-210.18 284,-220.18 291,-220.18"/>
<text text-anchor="middle" x="302" y="-231.8" font-family="Times,serif" font-size="14.00">nsubj</text>
</g>
<!-- 13 -->
<g id="node13" class="node">
<title>13</title>
<text text-anchor="middle" x="360.5" y="-188.3" font-family="Times,serif" font-size="14.00">13 (!)</text>
</g>
<!-- 11&#45;&gt;13 -->
<g id="edge11" class="edge">
<title>11&#45;&gt;13</title>
<path fill="none" stroke="black" d="M304.23,-260.81C309.53,-255.22 315.35,-248.93 320.5,-243 327.32,-235.15 334.49,-226.37 340.85,-218.37"/>
<polygon fill="black" stroke="black" points="343.69,-220.43 347.14,-210.41 338.2,-216.09 343.69,-220.43"/>
<text text-anchor="middle" x="349" y="-231.8" font-family="Times,serif" font-size="14.00">punct</text>
</g>
<!-- 12 -->
<g id="node14" class="node">
<title>12</title>
<text text-anchor="middle" x="439.5" y="-188.3" font-family="Times,serif" font-size="14.00">12 (loud)</text>
</g>
<!-- 11&#45;&gt;12 -->
<g id="edge13" class="edge">
<title>11&#45;&gt;12</title>
<path fill="none" stroke="black" d="M322.54,-264.71C337.09,-258.72 353.93,-251.16 368.5,-243 382.5,-235.16 397.13,-225.19 409.45,-216.23"/>
<polygon fill="black" stroke="black" points="411.61,-218.98 417.57,-210.22 407.45,-213.35 411.61,-218.98"/>
<text text-anchor="middle" x="409" y="-231.8" font-family="Times,serif" font-size="14.00">xcomp</text>
</g>
<!-- 1 -->
<g id="node3" class="node">
<title>1</title>
<text text-anchor="middle" x="28.5" y="-14.3" font-family="Times,serif" font-size="14.00">1 (The)</text>
</g>
<!-- 2 -->
<g id="node4" class="node">
<title>2</title>
<text text-anchor="middle" x="28.5" y="-101.3" font-family="Times,serif" font-size="14.00">2 (lion)</text>
</g>
<!-- 2&#45;&gt;1 -->
<g id="edge2" class="edge">
<title>2&#45;&gt;1</title>
<path fill="none" stroke="black" d="M28.5,-86.8C28.5,-75.16 28.5,-59.55 28.5,-46.24"/>
<polygon fill="black" stroke="black" points="32,-46.18 28.5,-36.18 25,-46.18 32,-46.18"/>
<text text-anchor="middle" x="37" y="-57.8" font-family="Times,serif" font-size="14.00">det</text>
</g>
<!-- 3 -->
<g id="node5" class="node">
<title>3</title>
<text text-anchor="middle" x="102.5" y="-101.3" font-family="Times,serif" font-size="14.00">3 (is)</text>
</g>
<!-- 4 -->
<g id="node6" class="node">
<title>4</title>
<text text-anchor="middle" x="174.5" y="-101.3" font-family="Times,serif" font-size="14.00">4 (the)</text>
</g>
<!-- 5&#45;&gt;2 -->
<g id="edge3" class="edge">
<title>5&#45;&gt;2</title>
<path fill="none" stroke="black" d="M111.04,-173.89C102.68,-168.41 93.56,-162.15 85.5,-156 74.95,-147.95 63.88,-138.49 54.32,-129.98"/>
<polygon fill="black" stroke="black" points="56.47,-127.2 46.7,-123.1 51.78,-132.4 56.47,-127.2"/>
<text text-anchor="middle" x="100" y="-144.8" font-family="Times,serif" font-size="14.00">nsubj</text>
</g>
<!-- 5&#45;&gt;3 -->
<g id="edge4" class="edge">
<title>5&#45;&gt;3</title>
<path fill="none" stroke="black" d="M131.21,-173.8C126.19,-161.93 119.41,-145.93 113.7,-132.45"/>
<polygon fill="black" stroke="black" points="116.9,-131.02 109.77,-123.18 110.45,-133.75 116.9,-131.02"/>
<text text-anchor="middle" x="133.5" y="-144.8" font-family="Times,serif" font-size="14.00">cop</text>
</g>
<!-- 5&#45;&gt;4 -->
<g id="edge5" class="edge">
<title>5&#45;&gt;4</title>
<path fill="none" stroke="black" d="M145.79,-173.8C150.81,-161.93 157.59,-145.93 163.3,-132.45"/>
<polygon fill="black" stroke="black" points="166.55,-133.75 167.23,-123.18 160.1,-131.02 166.55,-133.75"/>
<text text-anchor="middle" x="168" y="-144.8" font-family="Times,serif" font-size="14.00">det</text>
</g>
<!-- 8 -->
<g id="node8" class="node">
<title>8</title>
<text text-anchor="middle" x="255.5" y="-101.3" font-family="Times,serif" font-size="14.00">8 (jungle)</text>
</g>
<!-- 5&#45;&gt;8 -->
<g id="edge6" class="edge">
<title>5&#45;&gt;8</title>
<path fill="none" stroke="black" d="M162.18,-173.8C179.86,-160.95 204.22,-143.26 223.61,-129.17"/>
<polygon fill="black" stroke="black" points="225.83,-131.88 231.86,-123.18 221.71,-126.22 225.83,-131.88"/>
<text text-anchor="middle" x="220" y="-144.8" font-family="Times,serif" font-size="14.00">nmod</text>
</g>
<!-- 6 -->
<g id="node9" class="node">
<title>6</title>
<text text-anchor="middle" x="219.5" y="-14.3" font-family="Times,serif" font-size="14.00">6 (of)</text>
</g>
<!-- 8&#45;&gt;6 -->
<g id="edge7" class="edge">
<title>8&#45;&gt;6</title>
<path fill="none" stroke="black" d="M248.21,-86.8C243.19,-74.93 236.41,-58.93 230.7,-45.45"/>
<polygon fill="black" stroke="black" points="233.9,-44.02 226.77,-36.18 227.45,-46.75 233.9,-44.02"/>
<text text-anchor="middle" x="252.5" y="-57.8" font-family="Times,serif" font-size="14.00">case</text>
</g>
<!-- 7 -->
<g id="node10" class="node">
<title>7</title>
<text text-anchor="middle" x="291.5" y="-14.3" font-family="Times,serif" font-size="14.00">7 (the)</text>
</g>
<!-- 8&#45;&gt;7 -->
<g id="edge8" class="edge">
<title>8&#45;&gt;7</title>
<path fill="none" stroke="black" d="M262.79,-86.8C267.81,-74.93 274.59,-58.93 280.3,-45.45"/>
<polygon fill="black" stroke="black" points="283.55,-46.75 284.23,-36.18 277.1,-44.02 283.55,-46.75"/>
<text text-anchor="middle" x="285" y="-57.8" font-family="Times,serif" font-size="14.00">det</text>
</g>
</g>
</svg>
