<?xml version="1.0" encoding="UTF-8" standalone="no"?>
<!DOCTYPE svg PUBLIC "-//W3C//DTD SVG 1.1//EN"
 "http://www.w3.org/Graphics/SVG/1.1/DTD/svg11.dtd">
<!-- Generated by graphviz version 2.40.1 (20161225.0304)
 -->
<!-- Title: G Pages: 1 -->
<svg width="427pt" height="479pt"
 viewBox="0.00 0.00 426.50 479.00" xmlns="http://www.w3.org/2000/svg" xmlns:xlink="http://www.w3.org/1999/xlink">
<g id="graph0" class="graph" transform="scale(1 1) rotate(0) translate(4 475)">
<title>G</title>
<polygon fill="#ffffff" stroke="transparent" points="-4,4 -4,-475 422.5,-475 422.5,4 -4,4"/>
<!-- 0 -->
<g id="node1" class="node">
<title>0</title>
<text text-anchor="middle" x="105.5" y="-449.3" font-family="Times,serif" font-size="14.00" fill="#000000">0 (None)</text>
</g>
<!-- 3 -->
<g id="node2" class="node">
<title>3</title>
<text text-anchor="middle" x="105.5" y="-362.3" font-family="Times,serif" font-size="14.00" fill="#000000">3 (come)</text>
</g>
<!-- 0&#45;&gt;3 -->
<g id="edge1" class="edge">
<title>0&#45;&gt;3</title>
<path fill="none" stroke="#000000" d="M105.5,-434.9735C105.5,-423.1918 105.5,-407.5607 105.5,-394.1581"/>
<polygon fill="#000000" stroke="#000000" points="109.0001,-394.0033 105.5,-384.0034 102.0001,-394.0034 109.0001,-394.0033"/>
<text text-anchor="middle" x="124" y="-405.8" font-family="Times,serif" font-size="14.00" fill="#000000">ROOT</text>
</g>
<!-- 1 -->
<g id="node3" class="node">
<title>1</title>
<text text-anchor="middle" x="29.5" y="-275.3" font-family="Times,serif" font-size="14.00" fill="#000000">1 (You)</text>
</g>
<!-- 3&#45;&gt;1 -->
<g id="edge2" class="edge">
<title>3&#45;&gt;1</title>
<path fill="none" stroke="#000000" d="M87.9591,-347.9088C82.5949,-342.2486 76.7322,-335.931 71.5,-330 64.4431,-322.0006 56.9706,-313.0826 50.3158,-304.9692"/>
<polygon fill="#000000" stroke="#000000" points="53.0077,-302.7319 43.9792,-297.1877 47.5797,-307.152 53.0077,-302.7319"/>
<text text-anchor="middle" x="86.5" y="-318.8" font-family="Times,serif" font-size="14.00" fill="#000000">nsubj</text>
</g>
<!-- 2 -->
<g id="node4" class="node">
<title>2</title>
<text text-anchor="middle" x="105.5" y="-275.3" font-family="Times,serif" font-size="14.00" fill="#000000">2 (will)</text>
</g>
<!-- 3&#45;&gt;2 -->
<g id="edge3" class="edge">
<title>3&#45;&gt;2</title>
<path fill="none" stroke="#000000" d="M105.5,-347.9735C105.5,-336.1918 105.5,-320.5607 105.5,-307.1581"/>
<polygon fill="#000000" stroke="#000000" points="109.0001,-307.0033 105.5,-297.0034 102.0001,-307.0034 109.0001,-307.0033"/>
<text text-anchor="middle" x="115.5" y="-318.8" font-family="Times,serif" font-size="14.00" fill="#000000">aux</text>
</g>
<!-- 6 -->
<g id="node5" class="node">
<title>6</title>
<text text-anchor="middle" x="184.5" y="-275.3" font-family="Times,serif" font-size="14.00" fill="#000000">6 (place)</text>
</g>
<!-- 3&#45;&gt;6 -->
<g id="edge4" class="edge">
<title>3&#45;&gt;6</title>
<path fill="none" stroke="#000000" d="M121.8689,-347.9735C133.2028,-335.4919 148.4597,-318.6899 161.0775,-304.7944"/>
<polygon fill="#000000" stroke="#000000" points="164.0207,-306.7595 168.1521,-297.0034 158.8385,-302.0538 164.0207,-306.7595"/>
<text text-anchor="middle" x="166.5" y="-318.8" font-family="Times,serif" font-size="14.00" fill="#000000">nmod</text>
</g>
<!-- 4 -->
<g id="node6" class="node">
<title>4</title>
<text text-anchor="middle" x="112.5" y="-188.3" font-family="Times,serif" font-size="14.00" fill="#000000">4 (to)</text>
</g>
<!-- 6&#45;&gt;4 -->
<g id="edge5" class="edge">
<title>6&#45;&gt;4</title>
<path fill="none" stroke="#000000" d="M169.5816,-260.9735C159.2519,-248.4919 145.3468,-231.6899 133.8471,-217.7944"/>
<polygon fill="#000000" stroke="#000000" points="136.4714,-215.4758 127.3993,-210.0034 131.0787,-219.9388 136.4714,-215.4758"/>
<text text-anchor="middle" x="165.5" y="-231.8" font-family="Times,serif" font-size="14.00" fill="#000000">case</text>
</g>
<!-- 5 -->
<g id="node7" class="node">
<title>5</title>
<text text-anchor="middle" x="184.5" y="-188.3" font-family="Times,serif" font-size="14.00" fill="#000000">5 (a)</text>
</g>
<!-- 6&#45;&gt;5 -->
<g id="edge6" class="edge">
<title>6&#45;&gt;5</title>
<path fill="none" stroke="#000000" d="M184.5,-260.9735C184.5,-249.1918 184.5,-233.5607 184.5,-220.1581"/>
<polygon fill="#000000" stroke="#000000" points="188.0001,-220.0033 184.5,-210.0034 181.0001,-220.0034 188.0001,-220.0033"/>
<text text-anchor="middle" x="193" y="-231.8" font-family="Times,serif" font-size="14.00" fill="#000000">det</text>
</g>
<!-- 12 -->
<g id="node8" class="node">
<title>12</title>
<text text-anchor="middle" x="271.5" y="-188.3" font-family="Times,serif" font-size="14.00" fill="#000000">12 (marked)</text>
</g>
<!-- 6&#45;&gt;12 -->
<g id="edge7" class="edge">
<title>6&#45;&gt;12</title>
<path fill="none" stroke="#000000" d="M202.5265,-260.9735C215.1248,-248.3752 232.1245,-231.3755 246.0945,-217.4055"/>
<polygon fill="#000000" stroke="#000000" points="248.9004,-219.5493 253.4966,-210.0034 243.9507,-214.5996 248.9004,-219.5493"/>
<text text-anchor="middle" x="255.5" y="-231.8" font-family="Times,serif" font-size="14.00" fill="#000000">acl:relcl</text>
</g>
<!-- 7 -->
<g id="node9" class="node">
<title>7</title>
<text text-anchor="middle" x="139.5" y="-101.3" font-family="Times,serif" font-size="14.00" fill="#000000">7 (where)</text>
</g>
<!-- 12&#45;&gt;7 -->
<g id="edge9" class="edge">
<title>12&#45;&gt;7</title>
<path fill="none" stroke="#000000" d="M229.3164,-176.6477C207.265,-168.4158 183.9389,-159.3004 179.5,-156 170.5602,-149.3531 162.5527,-140.22 156.0934,-131.5177"/>
<polygon fill="#000000" stroke="#000000" points="158.7774,-129.2489 150.173,-123.0671 153.0444,-133.2654 158.7774,-129.2489"/>
<text text-anchor="middle" x="202" y="-144.8" font-family="Times,serif" font-size="14.00" fill="#000000">advmod</text>
</g>
<!-- 9 -->
<g id="node11" class="node">
<title>9</title>
<text text-anchor="middle" x="227.5" y="-101.3" font-family="Times,serif" font-size="14.00" fill="#000000">9 (streets)</text>
</g>
<!-- 12&#45;&gt;9 -->
<g id="edge10" class="edge">
<title>12&#45;&gt;9</title>
<path fill="none" stroke="#000000" d="M246.2004,-173.7085C240.8225,-168.591 235.7828,-162.6002 232.5,-156 229.0679,-149.0997 227.386,-141.0297 226.6628,-133.3718"/>
<polygon fill="#000000" stroke="#000000" points="230.1569,-133.1598 226.1966,-123.3329 223.1644,-133.4846 230.1569,-133.1598"/>
<text text-anchor="middle" x="259" y="-144.8" font-family="Times,serif" font-size="14.00" fill="#000000">nsubjpass</text>
</g>
<!-- 10 -->
<g id="node12" class="node">
<title>10</title>
<text text-anchor="middle" x="310.5" y="-101.3" font-family="Times,serif" font-size="14.00" fill="#000000">10 (are)</text>
</g>
<!-- 12&#45;&gt;10 -->
<g id="edge11" class="edge">
<title>12&#45;&gt;10</title>
<path fill="none" stroke="#000000" d="M279.5808,-173.9735C284.9669,-161.9585 292.1475,-145.9401 298.2331,-132.3646"/>
<polygon fill="#000000" stroke="#000000" points="301.5327,-133.5602 302.4295,-123.0034 295.1451,-130.6967 301.5327,-133.5602"/>
<text text-anchor="middle" x="315" y="-144.8" font-family="Times,serif" font-size="14.00" fill="#000000">auxpass</text>
</g>
<!-- 11 -->
<g id="node13" class="node">
<title>11</title>
<text text-anchor="middle" x="388.5" y="-101.3" font-family="Times,serif" font-size="14.00" fill="#000000">11 (not)</text>
</g>
<!-- 12&#45;&gt;11 -->
<g id="edge12" class="edge">
<title>12&#45;&gt;11</title>
<path fill="none" stroke="#000000" d="M311.557,-173.9865C321.415,-168.7879 331.6683,-162.6901 340.5,-156 349.9983,-148.805 359.2586,-139.6448 367.0713,-131.0785"/>
<polygon fill="#000000" stroke="#000000" points="369.8099,-133.2648 373.8045,-123.4518 364.5623,-128.632 369.8099,-133.2648"/>
<text text-anchor="middle" x="365.5" y="-144.8" font-family="Times,serif" font-size="14.00" fill="#000000">neg</text>
</g>
<!-- 8 -->
<g id="node10" class="node">
<title>8</title>
<text text-anchor="middle" x="227.5" y="-14.3" font-family="Times,serif" font-size="14.00" fill="#000000">8 (the)</text>
</g>
<!-- 9&#45;&gt;8 -->
<g id="edge8" class="edge">
<title>9&#45;&gt;8</title>
<path fill="none" stroke="#000000" d="M227.5,-86.9735C227.5,-75.1918 227.5,-59.5607 227.5,-46.1581"/>
<polygon fill="#000000" stroke="#000000" points="231.0001,-46.0033 227.5,-36.0034 224.0001,-46.0034 231.0001,-46.0033"/>
<text text-anchor="middle" x="236" y="-57.8" font-family="Times,serif" font-size="14.00" fill="#000000">det</text>
</g>
</g>
</svg>
