<?xml version="1.0" encoding="UTF-8" standalone="no"?>
<!DOCTYPE svg PUBLIC "-//W3C//DTD SVG 1.1//EN"
 "http://www.w3.org/Graphics/SVG/1.1/DTD/svg11.dtd">
<!-- Generated by graphviz version 2.40.1 (20161225.0304)
 -->
<!-- Title: G Pages: 1 -->
<svg width="1573pt" height="479pt"
 viewBox="0.00 0.00 1573.00 479.00" xmlns="http://www.w3.org/2000/svg" xmlns:xlink="http://www.w3.org/1999/xlink">
<g id="graph0" class="graph" transform="scale(1 1) rotate(0) translate(4 475)">
<title>G</title>
<polygon fill="#ffffff" stroke="transparent" points="-4,4 -4,-475 1569,-475 1569,4 -4,4"/>
<!-- 0 -->
<g id="node1" class="node">
<title>0</title>
<text text-anchor="middle" x="543" y="-449.3" font-family="Times,serif" font-size="14.00" fill="#000000">0 (None)</text>
</g>
<!-- 3 -->
<g id="node2" class="node">
<title>3</title>
<text text-anchor="middle" x="543" y="-362.3" font-family="Times,serif" font-size="14.00" fill="#000000">3 (lost)</text>
</g>
<!-- 0&#45;&gt;3 -->
<g id="edge1" class="edge">
<title>0&#45;&gt;3</title>
<path fill="none" stroke="#000000" d="M543,-434.9735C543,-423.1918 543,-407.5607 543,-394.1581"/>
<polygon fill="#000000" stroke="#000000" points="546.5001,-394.0033 543,-384.0034 539.5001,-394.0034 546.5001,-394.0033"/>
<text text-anchor="middle" x="561.5" y="-405.8" font-family="Times,serif" font-size="14.00" fill="#000000">ROOT</text>
</g>
<!-- 1 -->
<g id="node3" class="node">
<title>1</title>
<text text-anchor="middle" x="47" y="-275.3" font-family="Times,serif" font-size="14.00" fill="#000000">1 (Caterpillar)</text>
</g>
<!-- 3&#45;&gt;1 -->
<g id="edge2" class="edge">
<title>3&#45;&gt;1</title>
<path fill="none" stroke="#000000" d="M514.75,-364.16C441.088,-359.2074 244.4718,-344.9549 181,-330 151.8894,-323.1411 120.587,-311.4863 95.5626,-301.0483"/>
<polygon fill="#000000" stroke="#000000" points="96.8697,-297.8009 86.2968,-297.1199 94.1374,-304.2457 96.8697,-297.8009"/>
<text text-anchor="middle" x="196" y="-318.8" font-family="Times,serif" font-size="14.00" fill="#000000">nsubj</text>
</g>
<!-- 2 -->
<g id="node4" class="node">
<title>2</title>
<text text-anchor="middle" x="139" y="-275.3" font-family="Times,serif" font-size="14.00" fill="#000000">2 (has)</text>
</g>
<!-- 3&#45;&gt;2 -->
<g id="edge3" class="edge">
<title>3&#45;&gt;2</title>
<path fill="none" stroke="#000000" d="M514.7535,-364.7399C463.2038,-361.9312 350.7304,-353.4432 259,-330 229.8931,-322.5613 198.7145,-309.1287 175.4348,-297.9161"/>
<polygon fill="#000000" stroke="#000000" points="176.8079,-294.6913 166.2885,-293.4295 173.725,-300.9759 176.8079,-294.6913"/>
<text text-anchor="middle" x="269" y="-318.8" font-family="Times,serif" font-size="14.00" fill="#000000">aux</text>
</g>
<!-- 5 -->
<g id="node5" class="node">
<title>5</title>
<text text-anchor="middle" x="215" y="-275.3" font-family="Times,serif" font-size="14.00" fill="#000000">5 (shoe)</text>
</g>
<!-- 3&#45;&gt;5 -->
<g id="edge4" class="edge">
<title>3&#45;&gt;5</title>
<path fill="none" stroke="#000000" d="M514.6598,-364.2069C471.3721,-360.8618 386.5835,-351.9092 318,-330 296.1115,-323.0077 273.0735,-311.9864 254.3492,-301.9757"/>
<polygon fill="#000000" stroke="#000000" points="255.9828,-298.88 245.5278,-297.1646 252.6312,-305.0255 255.9828,-298.88"/>
<text text-anchor="middle" x="330.5" y="-318.8" font-family="Times,serif" font-size="14.00" fill="#000000">dobj</text>
</g>
<!-- 6 -->
<g id="node6" class="node">
<title>6</title>
<text text-anchor="middle" x="291" y="-275.3" font-family="Times,serif" font-size="14.00" fill="#000000">6 (.)</text>
</g>
<!-- 3&#45;&gt;6 -->
<g id="edge5" class="edge">
<title>3&#45;&gt;6</title>
<path fill="none" stroke="#000000" d="M514.9983,-362.8156C481.1485,-358.3263 422.8912,-348.5318 376,-330 358.2059,-322.9676 339.8355,-312.4242 324.7456,-302.7459"/>
<polygon fill="#000000" stroke="#000000" points="326.5493,-299.7432 316.2691,-297.1805 322.7074,-305.5947 326.5493,-299.7432"/>
<text text-anchor="middle" x="391.5" y="-318.8" font-family="Times,serif" font-size="14.00" fill="#000000">punct</text>
</g>
<!-- 15 -->
<g id="node7" class="node">
<title>15</title>
<text text-anchor="middle" x="363" y="-275.3" font-family="Times,serif" font-size="14.00" fill="#000000">15 (.)</text>
</g>
<!-- 3&#45;&gt;15 -->
<g id="edge6" class="edge">
<title>3&#45;&gt;15</title>
<path fill="none" stroke="#000000" d="M514.5726,-358.9964C492.2477,-352.9183 460.7396,-343.0433 435,-330 420.4564,-322.6302 405.5601,-312.5726 393.1185,-303.3361"/>
<polygon fill="#000000" stroke="#000000" points="395.0116,-300.3788 384.9317,-297.1159 390.7768,-305.9526 395.0116,-300.3788"/>
<text text-anchor="middle" x="450.5" y="-318.8" font-family="Times,serif" font-size="14.00" fill="#000000">punct</text>
</g>
<!-- 20 -->
<g id="node8" class="node">
<title>20</title>
<text text-anchor="middle" x="435" y="-275.3" font-family="Times,serif" font-size="14.00" fill="#000000">20 (.)</text>
</g>
<!-- 3&#45;&gt;20 -->
<g id="edge7" class="edge">
<title>3&#45;&gt;20</title>
<path fill="none" stroke="#000000" d="M514.9025,-349.9721C505.4124,-344.1161 494.9595,-337.1619 486,-330 476.5646,-322.4576 466.9982,-313.3575 458.7394,-304.9448"/>
<polygon fill="#000000" stroke="#000000" points="461.0159,-302.2624 451.5637,-297.4765 455.9683,-307.1123 461.0159,-302.2624"/>
<text text-anchor="middle" x="501.5" y="-318.8" font-family="Times,serif" font-size="14.00" fill="#000000">punct</text>
</g>
<!-- 21 -->
<g id="node9" class="node">
<title>21</title>
<text text-anchor="middle" x="507" y="-275.3" font-family="Times,serif" font-size="14.00" fill="#000000">21 (``)</text>
</g>
<!-- 3&#45;&gt;21 -->
<g id="edge8" class="edge">
<title>3&#45;&gt;21</title>
<path fill="none" stroke="#000000" d="M534.0495,-347.8209C531.36,-342.1571 528.4698,-335.8596 526,-330 522.8359,-322.4931 519.6479,-314.2578 516.811,-306.6363"/>
<polygon fill="#000000" stroke="#000000" points="520.0388,-305.2719 513.3155,-297.0836 513.4651,-307.6774 520.0388,-305.2719"/>
<text text-anchor="middle" x="541.5" y="-318.8" font-family="Times,serif" font-size="14.00" fill="#000000">punct</text>
</g>
<!-- 32 -->
<g id="node10" class="node">
<title>32</title>
<text text-anchor="middle" x="579" y="-275.3" font-family="Times,serif" font-size="14.00" fill="#000000">32 (&#39;&#39;)</text>
</g>
<!-- 3&#45;&gt;32 -->
<g id="edge9" class="edge">
<title>3&#45;&gt;32</title>
<path fill="none" stroke="#000000" d="M550.4592,-347.9735C555.431,-335.9585 562.0593,-319.9401 567.6767,-306.3646"/>
<polygon fill="#000000" stroke="#000000" points="570.9608,-307.5818 571.5503,-297.0034 564.4927,-304.9053 570.9608,-307.5818"/>
<text text-anchor="middle" x="579.5" y="-318.8" font-family="Times,serif" font-size="14.00" fill="#000000">punct</text>
</g>
<!-- 40 -->
<g id="node11" class="node">
<title>40</title>
<text text-anchor="middle" x="651" y="-275.3" font-family="Times,serif" font-size="14.00" fill="#000000">40 (.)</text>
</g>
<!-- 3&#45;&gt;40 -->
<g id="edge10" class="edge">
<title>3&#45;&gt;40</title>
<path fill="none" stroke="#000000" d="M571.118,-349.5008C580.2842,-343.7134 590.3273,-336.9207 599,-330 608.6321,-322.3137 618.4663,-313.0888 626.9529,-304.6105"/>
<polygon fill="#000000" stroke="#000000" points="629.5152,-306.9966 634.025,-297.4095 624.5209,-302.0917 629.5152,-306.9966"/>
<text text-anchor="middle" x="631.5" y="-318.8" font-family="Times,serif" font-size="14.00" fill="#000000">punct</text>
</g>
<!-- 8 -->
<g id="node12" class="node">
<title>8</title>
<text text-anchor="middle" x="728" y="-275.3" font-family="Times,serif" font-size="14.00" fill="#000000">8 (hurts)</text>
</g>
<!-- 3&#45;&gt;8 -->
<g id="edge11" class="edge">
<title>3&#45;&gt;8</title>
<path fill="none" stroke="#000000" d="M571.3161,-358.7725C593.5796,-352.5708 625.0594,-342.6389 651,-330 666.4899,-322.4529 682.5434,-312.2554 695.9578,-302.9624"/>
<polygon fill="#000000" stroke="#000000" points="698.2141,-305.6536 704.3594,-297.0231 694.1733,-299.9376 698.2141,-305.6536"/>
<text text-anchor="middle" x="702.5" y="-318.8" font-family="Times,serif" font-size="14.00" fill="#000000">parataxis</text>
</g>
<!-- 17 -->
<g id="node13" class="node">
<title>17</title>
<text text-anchor="middle" x="812" y="-275.3" font-family="Times,serif" font-size="14.00" fill="#000000">17 (goes)</text>
</g>
<!-- 3&#45;&gt;17 -->
<g id="edge12" class="edge">
<title>3&#45;&gt;17</title>
<path fill="none" stroke="#000000" d="M571.3043,-363.8751C608.9108,-360.3215 676.8975,-351.3312 731,-330 748.1553,-323.2361 765.6576,-312.7534 779.9827,-303.0467"/>
<polygon fill="#000000" stroke="#000000" points="782.2538,-305.7302 788.46,-297.1434 778.2535,-299.9858 782.2538,-305.7302"/>
<text text-anchor="middle" x="784.5" y="-318.8" font-family="Times,serif" font-size="14.00" fill="#000000">parataxis</text>
</g>
<!-- 24 -->
<g id="node14" class="node">
<title>24</title>
<text text-anchor="middle" x="1056" y="-275.3" font-family="Times,serif" font-size="14.00" fill="#000000">24 (borrow)</text>
</g>
<!-- 3&#45;&gt;24 -->
<g id="edge13" class="edge">
<title>3&#45;&gt;24</title>
<path fill="none" stroke="#000000" d="M571.0897,-362.9516C620.2789,-357.4581 725.1393,-345.0559 813,-330 879.6387,-318.5807 955.8361,-302.0103 1004.8656,-290.8871"/>
<polygon fill="#000000" stroke="#000000" points="1005.9299,-294.2343 1014.9024,-288.6 1004.3747,-287.4093 1005.9299,-294.2343"/>
<text text-anchor="middle" x="897" y="-318.8" font-family="Times,serif" font-size="14.00" fill="#000000">dep</text>
</g>
<!-- 33 -->
<g id="node15" class="node">
<title>33</title>
<text text-anchor="middle" x="1146" y="-275.3" font-family="Times,serif" font-size="14.00" fill="#000000">33 (But)</text>
</g>
<!-- 3&#45;&gt;33 -->
<g id="edge14" class="edge">
<title>3&#45;&gt;33</title>
<path fill="none" stroke="#000000" d="M571.1009,-363.8484C667.5169,-356.2713 985.0794,-329.6569 1104.8873,-296.8133"/>
<polygon fill="#000000" stroke="#000000" points="1106.2184,-300.0716 1114.8486,-293.926 1104.2696,-293.3484 1106.2184,-300.0716"/>
<text text-anchor="middle" x="1021.5" y="-318.8" font-family="Times,serif" font-size="14.00" fill="#000000">cc</text>
</g>
<!-- 39 -->
<g id="node16" class="node">
<title>39</title>
<text text-anchor="middle" x="1420" y="-275.3" font-family="Times,serif" font-size="14.00" fill="#000000">39 (small)</text>
</g>
<!-- 3&#45;&gt;39 -->
<g id="edge15" class="edge">
<title>3&#45;&gt;39</title>
<path fill="none" stroke="#000000" d="M571.1638,-364.492C646.1977,-360.3521 857.1309,-347.9148 1032,-330 1155.5228,-317.3455 1300.4292,-296.7662 1373.231,-286.0269"/>
<polygon fill="#000000" stroke="#000000" points="1374.0583,-289.4427 1383.4379,-284.516 1373.0332,-282.5181 1374.0583,-289.4427"/>
<text text-anchor="middle" x="1173" y="-318.8" font-family="Times,serif" font-size="14.00" fill="#000000">conj</text>
</g>
<!-- 4 -->
<g id="node17" class="node">
<title>4</title>
<text text-anchor="middle" x="215" y="-188.3" font-family="Times,serif" font-size="14.00" fill="#000000">4 (a)</text>
</g>
<!-- 5&#45;&gt;4 -->
<g id="edge16" class="edge">
<title>5&#45;&gt;4</title>
<path fill="none" stroke="#000000" d="M215,-260.9735C215,-249.1918 215,-233.5607 215,-220.1581"/>
<polygon fill="#000000" stroke="#000000" points="218.5001,-220.0033 215,-210.0034 211.5001,-220.0034 218.5001,-220.0033"/>
<text text-anchor="middle" x="223.5" y="-231.8" font-family="Times,serif" font-size="14.00" fill="#000000">det</text>
</g>
<!-- 7 -->
<g id="node18" class="node">
<title>7</title>
<text text-anchor="middle" x="514" y="-188.3" font-family="Times,serif" font-size="14.00" fill="#000000">7 (It)</text>
</g>
<!-- 8&#45;&gt;7 -->
<g id="edge17" class="edge">
<title>8&#45;&gt;7</title>
<path fill="none" stroke="#000000" d="M696.4218,-264.5189C693.266,-263.2585 690.0878,-262.0611 687,-261 656.2131,-250.4207 646.513,-254.345 616,-243 593.5137,-234.6394 569.4622,-222.7675 550.365,-212.5812"/>
<polygon fill="#000000" stroke="#000000" points="551.8772,-209.42 541.4166,-207.7389 548.5457,-215.5764 551.8772,-209.42"/>
<text text-anchor="middle" x="631" y="-231.8" font-family="Times,serif" font-size="14.00" fill="#000000">nsubj</text>
</g>
<!-- 10 -->
<g id="node19" class="node">
<title>10</title>
<text text-anchor="middle" x="592" y="-188.3" font-family="Times,serif" font-size="14.00" fill="#000000">10 (foot)</text>
</g>
<!-- 8&#45;&gt;10 -->
<g id="edge18" class="edge">
<title>8&#45;&gt;10</title>
<path fill="none" stroke="#000000" d="M699.2598,-260.9261C690.2052,-255.211 680.1741,-248.8582 671,-243 657.0044,-234.0631 641.6584,-224.1764 628.2448,-215.5055"/>
<polygon fill="#000000" stroke="#000000" points="630.0401,-212.4985 619.7427,-210.0054 626.2379,-218.3758 630.0401,-212.4985"/>
<text text-anchor="middle" x="683.5" y="-231.8" font-family="Times,serif" font-size="14.00" fill="#000000">dobj</text>
</g>
<!-- 12 -->
<g id="node20" class="node">
<title>12</title>
<text text-anchor="middle" x="677" y="-188.3" font-family="Times,serif" font-size="14.00" fill="#000000">12 (walk)</text>
</g>
<!-- 8&#45;&gt;12 -->
<g id="edge19" class="edge">
<title>8&#45;&gt;12</title>
<path fill="none" stroke="#000000" d="M717.4328,-260.9735C710.3211,-248.8418 700.8168,-232.6287 692.8099,-218.9698"/>
<polygon fill="#000000" stroke="#000000" points="695.6304,-216.8603 687.5537,-210.0034 689.5915,-220.4004 695.6304,-216.8603"/>
<text text-anchor="middle" x="721" y="-231.8" font-family="Times,serif" font-size="14.00" fill="#000000">advcl</text>
</g>
<!-- 16 -->
<g id="node25" class="node">
<title>16</title>
<text text-anchor="middle" x="780" y="-188.3" font-family="Times,serif" font-size="14.00" fill="#000000">16 (Caterpillar)</text>
</g>
<!-- 17&#45;&gt;16 -->
<g id="edge24" class="edge">
<title>17&#45;&gt;16</title>
<path fill="none" stroke="#000000" d="M805.3696,-260.9735C800.9931,-249.0751 795.1727,-233.2508 790.2108,-219.7606"/>
<polygon fill="#000000" stroke="#000000" points="793.3589,-218.1804 786.6219,-210.0034 786.7892,-220.5969 793.3589,-218.1804"/>
<text text-anchor="middle" x="813" y="-231.8" font-family="Times,serif" font-size="14.00" fill="#000000">nsubj</text>
</g>
<!-- 19 -->
<g id="node26" class="node">
<title>19</title>
<text text-anchor="middle" x="887" y="-188.3" font-family="Times,serif" font-size="14.00" fill="#000000">19 (spider)</text>
</g>
<!-- 17&#45;&gt;19 -->
<g id="edge25" class="edge">
<title>17&#45;&gt;19</title>
<path fill="none" stroke="#000000" d="M827.54,-260.9735C838.3001,-248.4919 852.7846,-231.6899 864.7635,-217.7944"/>
<polygon fill="#000000" stroke="#000000" points="867.6014,-219.8628 871.4799,-210.0034 862.2995,-215.2922 867.6014,-219.8628"/>
<text text-anchor="middle" x="870" y="-231.8" font-family="Times,serif" font-size="14.00" fill="#000000">nmod</text>
</g>
<!-- 22 -->
<g id="node28" class="node">
<title>22</title>
<text text-anchor="middle" x="977" y="-188.3" font-family="Times,serif" font-size="14.00" fill="#000000">22 (May)</text>
</g>
<!-- 24&#45;&gt;22 -->
<g id="edge27" class="edge">
<title>24&#45;&gt;22</title>
<path fill="none" stroke="#000000" d="M1039.6311,-260.9735C1028.2972,-248.4919 1013.0403,-231.6899 1000.4225,-217.7944"/>
<polygon fill="#000000" stroke="#000000" points="1002.6615,-215.0538 993.3479,-210.0034 997.4793,-219.7595 1002.6615,-215.0538"/>
<text text-anchor="middle" x="1032" y="-231.8" font-family="Times,serif" font-size="14.00" fill="#000000">aux</text>
</g>
<!-- 23 -->
<g id="node29" class="node">
<title>23</title>
<text text-anchor="middle" x="1056" y="-188.3" font-family="Times,serif" font-size="14.00" fill="#000000">23 (I)</text>
</g>
<!-- 24&#45;&gt;23 -->
<g id="edge28" class="edge">
<title>24&#45;&gt;23</title>
<path fill="none" stroke="#000000" d="M1056,-260.9735C1056,-249.1918 1056,-233.5607 1056,-220.1581"/>
<polygon fill="#000000" stroke="#000000" points="1059.5001,-220.0033 1056,-210.0034 1052.5001,-220.0034 1059.5001,-220.0033"/>
<text text-anchor="middle" x="1071" y="-231.8" font-family="Times,serif" font-size="14.00" fill="#000000">nsubj</text>
</g>
<!-- 26 -->
<g id="node30" class="node">
<title>26</title>
<text text-anchor="middle" x="1135" y="-188.3" font-family="Times,serif" font-size="14.00" fill="#000000">26 (shoe)</text>
</g>
<!-- 24&#45;&gt;26 -->
<g id="edge29" class="edge">
<title>24&#45;&gt;26</title>
<path fill="none" stroke="#000000" d="M1073.4175,-260.798C1078.7767,-255.1333 1084.6676,-248.8411 1090,-243 1097.404,-234.8898 1105.3673,-225.9415 1112.5064,-217.8344"/>
<polygon fill="#000000" stroke="#000000" points="1115.3548,-219.8949 1119.3196,-210.0699 1110.0932,-215.278 1115.3548,-219.8949"/>
<text text-anchor="middle" x="1115.5" y="-231.8" font-family="Times,serif" font-size="14.00" fill="#000000">dobj</text>
</g>
<!-- 28 -->
<g id="node31" class="node">
<title>28</title>
<text text-anchor="middle" x="1219" y="-188.3" font-family="Times,serif" font-size="14.00" fill="#000000">28 (you)</text>
</g>
<!-- 24&#45;&gt;28 -->
<g id="edge30" class="edge">
<title>24&#45;&gt;28</title>
<path fill="none" stroke="#000000" d="M1095.7714,-260.9662C1107.5414,-255.4135 1120.3834,-249.141 1132,-243 1148.1507,-234.4621 1165.5891,-224.4115 1180.5822,-215.4997"/>
<polygon fill="#000000" stroke="#000000" points="1182.785,-218.2603 1189.5683,-210.1217 1179.1902,-212.2539 1182.785,-218.2603"/>
<text text-anchor="middle" x="1175" y="-231.8" font-family="Times,serif" font-size="14.00" fill="#000000">nmod</text>
</g>
<!-- 31 -->
<g id="node32" class="node">
<title>31</title>
<text text-anchor="middle" x="1296" y="-188.3" font-family="Times,serif" font-size="14.00" fill="#000000">31 (?)</text>
</g>
<!-- 24&#45;&gt;31 -->
<g id="edge31" class="edge">
<title>24&#45;&gt;31</title>
<path fill="none" stroke="#000000" d="M1097.0469,-263.6859C1100.0608,-262.727 1103.0678,-261.8196 1106,-261 1144.8667,-250.1363 1156.8681,-256.2137 1195,-243 1217.3307,-235.2618 1240.98,-223.5326 1259.7762,-213.2728"/>
<polygon fill="#000000" stroke="#000000" points="1261.5447,-216.2942 1268.5865,-208.3781 1258.1452,-210.1751 1261.5447,-216.2942"/>
<text text-anchor="middle" x="1245.5" y="-231.8" font-family="Times,serif" font-size="14.00" fill="#000000">punct</text>
</g>
<!-- 36 -->
<g id="node39" class="node">
<title>36</title>
<text text-anchor="middle" x="1381" y="-188.3" font-family="Times,serif" font-size="14.00" fill="#000000">36 (shoe)</text>
</g>
<!-- 39&#45;&gt;36 -->
<g id="edge38" class="edge">
<title>39&#45;&gt;36</title>
<path fill="none" stroke="#000000" d="M1411.9192,-260.9735C1406.5331,-248.9585 1399.3525,-232.9401 1393.2669,-219.3646"/>
<polygon fill="#000000" stroke="#000000" points="1396.3549,-217.6967 1389.0705,-210.0034 1389.9673,-220.5602 1396.3549,-217.6967"/>
<text text-anchor="middle" x="1418" y="-231.8" font-family="Times,serif" font-size="14.00" fill="#000000">nsubj</text>
</g>
<!-- 37 -->
<g id="node40" class="node">
<title>37</title>
<text text-anchor="middle" x="1460" y="-188.3" font-family="Times,serif" font-size="14.00" fill="#000000">37 (is)</text>
</g>
<!-- 39&#45;&gt;37 -->
<g id="edge39" class="edge">
<title>39&#45;&gt;37</title>
<path fill="none" stroke="#000000" d="M1428.7104,-260.7149C1431.3901,-255.0468 1434.3352,-248.7736 1437,-243 1440.4917,-235.4351 1444.2258,-227.2136 1447.6478,-219.6249"/>
<polygon fill="#000000" stroke="#000000" points="1450.8652,-221.004 1451.7738,-210.4482 1444.4809,-218.1335 1450.8652,-221.004"/>
<text text-anchor="middle" x="1454" y="-231.8" font-family="Times,serif" font-size="14.00" fill="#000000">cop</text>
</g>
<!-- 38 -->
<g id="node41" class="node">
<title>38</title>
<text text-anchor="middle" x="1535" y="-188.3" font-family="Times,serif" font-size="14.00" fill="#000000">38 (too)</text>
</g>
<!-- 39&#45;&gt;38 -->
<g id="edge40" class="edge">
<title>39&#45;&gt;38</title>
<path fill="none" stroke="#000000" d="M1444.4441,-260.7195C1452.0042,-255.0516 1460.3539,-248.7773 1468,-243 1479.432,-234.3622 1491.9316,-224.8626 1503.0055,-216.4273"/>
<polygon fill="#000000" stroke="#000000" points="1505.323,-219.0617 1511.1546,-210.2162 1501.0797,-213.4944 1505.323,-219.0617"/>
<text text-anchor="middle" x="1509.5" y="-231.8" font-family="Times,serif" font-size="14.00" fill="#000000">advmod</text>
</g>
<!-- 9 -->
<g id="node21" class="node">
<title>9</title>
<text text-anchor="middle" x="592" y="-101.3" font-family="Times,serif" font-size="14.00" fill="#000000">9 (her)</text>
</g>
<!-- 10&#45;&gt;9 -->
<g id="edge20" class="edge">
<title>10&#45;&gt;9</title>
<path fill="none" stroke="#000000" d="M592,-173.9735C592,-162.1918 592,-146.5607 592,-133.1581"/>
<polygon fill="#000000" stroke="#000000" points="595.5001,-133.0033 592,-123.0034 588.5001,-133.0034 595.5001,-133.0033"/>
<text text-anchor="middle" x="622" y="-144.8" font-family="Times,serif" font-size="14.00" fill="#000000">nmod:poss</text>
</g>
<!-- 11 -->
<g id="node22" class="node">
<title>11</title>
<text text-anchor="middle" x="676" y="-101.3" font-family="Times,serif" font-size="14.00" fill="#000000">11 (to)</text>
</g>
<!-- 12&#45;&gt;11 -->
<g id="edge21" class="edge">
<title>12&#45;&gt;11</title>
<path fill="none" stroke="#000000" d="M676.7928,-173.9735C676.6574,-162.1918 676.4777,-146.5607 676.3237,-133.1581"/>
<polygon fill="#000000" stroke="#000000" points="679.8217,-132.9624 676.2069,-123.0034 672.8222,-133.043 679.8217,-132.9624"/>
<text text-anchor="middle" x="691.5" y="-144.8" font-family="Times,serif" font-size="14.00" fill="#000000">mark</text>
</g>
<!-- 14 -->
<g id="node23" class="node">
<title>14</title>
<text text-anchor="middle" x="748" y="-101.3" font-family="Times,serif" font-size="14.00" fill="#000000">14 (it)</text>
</g>
<!-- 12&#45;&gt;14 -->
<g id="edge22" class="edge">
<title>12&#45;&gt;14</title>
<path fill="none" stroke="#000000" d="M694.4963,-173.6364C699.6133,-168.0745 705.136,-161.8795 710,-156 716.4092,-148.2526 723.067,-139.5638 728.9855,-131.5836"/>
<polygon fill="#000000" stroke="#000000" points="731.9824,-133.4152 735.0707,-123.2804 726.3364,-129.2772 731.9824,-133.4152"/>
<text text-anchor="middle" x="737" y="-144.8" font-family="Times,serif" font-size="14.00" fill="#000000">nmod</text>
</g>
<!-- 13 -->
<g id="node24" class="node">
<title>13</title>
<text text-anchor="middle" x="748" y="-14.3" font-family="Times,serif" font-size="14.00" fill="#000000">13 (without)</text>
</g>
<!-- 14&#45;&gt;13 -->
<g id="edge23" class="edge">
<title>14&#45;&gt;13</title>
<path fill="none" stroke="#000000" d="M748,-86.9735C748,-75.1918 748,-59.5607 748,-46.1581"/>
<polygon fill="#000000" stroke="#000000" points="751.5001,-46.0033 748,-36.0034 744.5001,-46.0034 751.5001,-46.0033"/>
<text text-anchor="middle" x="760" y="-57.8" font-family="Times,serif" font-size="14.00" fill="#000000">case</text>
</g>
<!-- 18 -->
<g id="node27" class="node">
<title>18</title>
<text text-anchor="middle" x="887" y="-101.3" font-family="Times,serif" font-size="14.00" fill="#000000">18 (to)</text>
</g>
<!-- 19&#45;&gt;18 -->
<g id="edge26" class="edge">
<title>19&#45;&gt;18</title>
<path fill="none" stroke="#000000" d="M887,-173.9735C887,-162.1918 887,-146.5607 887,-133.1581"/>
<polygon fill="#000000" stroke="#000000" points="890.5001,-133.0033 887,-123.0034 883.5001,-133.0034 890.5001,-133.0033"/>
<text text-anchor="middle" x="899" y="-144.8" font-family="Times,serif" font-size="14.00" fill="#000000">case</text>
</g>
<!-- 25 -->
<g id="node33" class="node">
<title>25</title>
<text text-anchor="middle" x="1059" y="-101.3" font-family="Times,serif" font-size="14.00" fill="#000000">25 (a)</text>
</g>
<!-- 26&#45;&gt;25 -->
<g id="edge32" class="edge">
<title>26&#45;&gt;25</title>
<path fill="none" stroke="#000000" d="M1116.4927,-173.6322C1111.0669,-168.0702 1105.1979,-161.8762 1100,-156 1093.0728,-148.1688 1085.8275,-139.3771 1079.388,-131.3275"/>
<polygon fill="#000000" stroke="#000000" points="1081.9675,-128.9469 1073.0162,-123.279 1076.4791,-133.2919 1081.9675,-128.9469"/>
<text text-anchor="middle" x="1108.5" y="-144.8" font-family="Times,serif" font-size="14.00" fill="#000000">det</text>
</g>
<!-- 27 -->
<g id="node34" class="node">
<title>27</title>
<text text-anchor="middle" x="1139" y="-101.3" font-family="Times,serif" font-size="14.00" fill="#000000">27 (from)</text>
</g>
<!-- 28&#45;&gt;27 -->
<g id="edge33" class="edge">
<title>28&#45;&gt;27</title>
<path fill="none" stroke="#000000" d="M1202.4239,-173.9735C1190.8393,-161.3752 1175.2073,-144.3755 1162.3614,-130.4055"/>
<polygon fill="#000000" stroke="#000000" points="1164.8999,-127.9953 1155.5548,-123.0034 1159.7472,-132.7335 1164.8999,-127.9953"/>
<text text-anchor="middle" x="1196" y="-144.8" font-family="Times,serif" font-size="14.00" fill="#000000">case</text>
</g>
<!-- 29 -->
<g id="node35" class="node">
<title>29</title>
<text text-anchor="middle" x="1219" y="-101.3" font-family="Times,serif" font-size="14.00" fill="#000000">29 (,)</text>
</g>
<!-- 28&#45;&gt;29 -->
<g id="edge34" class="edge">
<title>28&#45;&gt;29</title>
<path fill="none" stroke="#000000" d="M1219,-173.9735C1219,-162.1918 1219,-146.5607 1219,-133.1581"/>
<polygon fill="#000000" stroke="#000000" points="1222.5001,-133.0033 1219,-123.0034 1215.5001,-133.0034 1222.5001,-133.0033"/>
<text text-anchor="middle" x="1234.5" y="-144.8" font-family="Times,serif" font-size="14.00" fill="#000000">punct</text>
</g>
<!-- 30 -->
<g id="node36" class="node">
<title>30</title>
<text text-anchor="middle" x="1303" y="-101.3" font-family="Times,serif" font-size="14.00" fill="#000000">30 (Spider)</text>
</g>
<!-- 28&#45;&gt;30 -->
<g id="edge35" class="edge">
<title>28&#45;&gt;30</title>
<path fill="none" stroke="#000000" d="M1236.8264,-173.7062C1242.339,-168.0377 1248.4267,-161.7665 1254,-156 1261.8078,-147.9215 1270.294,-139.1026 1277.9762,-131.1046"/>
<polygon fill="#000000" stroke="#000000" points="1280.9354,-133.076 1285.3355,-123.438 1275.8855,-128.2284 1280.9354,-133.076"/>
<text text-anchor="middle" x="1284" y="-144.8" font-family="Times,serif" font-size="14.00" fill="#000000">appos</text>
</g>
<!-- 34 -->
<g id="node37" class="node">
<title>34</title>
<text text-anchor="middle" x="1399" y="-101.3" font-family="Times,serif" font-size="14.00" fill="#000000">34 (Spider)</text>
</g>
<!-- 35 -->
<g id="node38" class="node">
<title>35</title>
<text text-anchor="middle" x="1399" y="-14.3" font-family="Times,serif" font-size="14.00" fill="#000000">35 (&#39;s)</text>
</g>
<!-- 34&#45;&gt;35 -->
<g id="edge36" class="edge">
<title>34&#45;&gt;35</title>
<path fill="none" stroke="#000000" d="M1399,-86.9735C1399,-75.1918 1399,-59.5607 1399,-46.1581"/>
<polygon fill="#000000" stroke="#000000" points="1402.5001,-46.0033 1399,-36.0034 1395.5001,-46.0034 1402.5001,-46.0033"/>
<text text-anchor="middle" x="1411" y="-57.8" font-family="Times,serif" font-size="14.00" fill="#000000">case</text>
</g>
<!-- 36&#45;&gt;34 -->
<g id="edge37" class="edge">
<title>36&#45;&gt;34</title>
<path fill="none" stroke="#000000" d="M1384.7296,-173.9735C1387.1672,-162.1918 1390.4012,-146.5607 1393.1742,-133.1581"/>
<polygon fill="#000000" stroke="#000000" points="1396.6764,-133.5051 1395.2752,-123.0034 1389.8216,-132.0868 1396.6764,-133.5051"/>
<text text-anchor="middle" x="1422" y="-144.8" font-family="Times,serif" font-size="14.00" fill="#000000">nmod:poss</text>
</g>
</g>
</svg>
