<?xml version="1.0" encoding="UTF-8" standalone="no"?>
<!DOCTYPE svg PUBLIC "-//W3C//DTD SVG 1.1//EN"
 "http://www.w3.org/Graphics/SVG/1.1/DTD/svg11.dtd">
<!-- Generated by graphviz version 2.42.3 (0)
 -->
<!-- Title: G Pages: 1 -->
<svg width="933pt" height="479pt"
 viewBox="0.00 0.00 932.50 479.00" xmlns="http://www.w3.org/2000/svg" xmlns:xlink="http://www.w3.org/1999/xlink">
<g id="graph0" class="graph" transform="scale(1 1) rotate(0) translate(4 475)">
<title>G</title>
<polygon fill="white" stroke="transparent" points="-4,4 -4,-475 928.5,-475 928.5,4 -4,4"/>
<!-- 0 -->
<g id="node1" class="node">
<title>0</title>
<text text-anchor="middle" x="311" y="-449.3" font-family="Times,serif" font-size="14.00">0 (None)</text>
</g>
<!-- 2 -->
<g id="node2" class="node">
<title>2</title>
<text text-anchor="middle" x="311" y="-362.3" font-family="Times,serif" font-size="14.00">2 (spend)</text>
</g>
<!-- 0&#45;&gt;2 -->
<g id="edge1" class="edge">
<title>0&#45;&gt;2</title>
<path fill="none" stroke="black" d="M311,-434.8C311,-423.16 311,-407.55 311,-394.24"/>
<polygon fill="black" stroke="black" points="314.5,-394.18 311,-384.18 307.5,-394.18 314.5,-394.18"/>
<text text-anchor="middle" x="330.5" y="-405.8" font-family="Times,serif" font-size="14.00">ROOT</text>
</g>
<!-- 1 -->
<g id="node3" class="node">
<title>1</title>
<text text-anchor="middle" x="43" y="-275.3" font-family="Times,serif" font-size="14.00">1 (Monkeys)</text>
</g>
<!-- 2&#45;&gt;1 -->
<g id="edge2" class="edge">
<title>2&#45;&gt;1</title>
<path fill="none" stroke="black" d="M277.38,-360.8C242.56,-355.82 186.92,-346.11 141,-330 120.28,-322.73 98.41,-311.91 80.59,-302.19"/>
<polygon fill="black" stroke="black" points="82.12,-299.03 71.68,-297.23 78.72,-305.15 82.12,-299.03"/>
<text text-anchor="middle" x="155.5" y="-318.8" font-family="Times,serif" font-size="14.00">nsubj</text>
</g>
<!-- 4 -->
<g id="node4" class="node">
<title>4</title>
<text text-anchor="middle" x="131" y="-275.3" font-family="Times,serif" font-size="14.00">4 (lot)</text>
</g>
<!-- 2&#45;&gt;4 -->
<g id="edge3" class="edge">
<title>2&#45;&gt;4</title>
<path fill="none" stroke="black" d="M277.38,-357.97C254.02,-352.3 222.62,-343.11 197,-330 183.1,-322.88 169.11,-312.8 157.61,-303.56"/>
<polygon fill="black" stroke="black" points="159.65,-300.7 149.72,-297.02 155.19,-306.1 159.65,-300.7"/>
<text text-anchor="middle" x="209.5" y="-318.8" font-family="Times,serif" font-size="14.00">dobj</text>
</g>
<!-- 7 -->
<g id="node5" class="node">
<title>7</title>
<text text-anchor="middle" x="203" y="-275.3" font-family="Times,serif" font-size="14.00">7 (up)</text>
</g>
<!-- 2&#45;&gt;7 -->
<g id="edge4" class="edge">
<title>2&#45;&gt;7</title>
<path fill="none" stroke="black" d="M277.23,-352.33C264.74,-346.66 250.97,-339.16 240,-330 231.88,-323.22 224.56,-314.3 218.61,-305.88"/>
<polygon fill="black" stroke="black" points="221.4,-303.76 212.93,-297.4 215.58,-307.65 221.4,-303.76"/>
<text text-anchor="middle" x="262" y="-318.8" font-family="Times,serif" font-size="14.00">advmod</text>
</g>
<!-- 10 -->
<g id="node6" class="node">
<title>10</title>
<text text-anchor="middle" x="275" y="-275.3" font-family="Times,serif" font-size="14.00">10 (,)</text>
</g>
<!-- 2&#45;&gt;10 -->
<g id="edge5" class="edge">
<title>2&#45;&gt;10</title>
<path fill="none" stroke="black" d="M302.22,-347.69C299.48,-342.1 296.52,-335.83 294,-330 290.77,-322.53 287.53,-314.32 284.66,-306.75"/>
<polygon fill="black" stroke="black" points="287.9,-305.43 281.13,-297.28 281.34,-307.87 287.9,-305.43"/>
<text text-anchor="middle" x="309.5" y="-318.8" font-family="Times,serif" font-size="14.00">punct</text>
</g>
<!-- 16 -->
<g id="node7" class="node">
<title>16</title>
<text text-anchor="middle" x="347" y="-275.3" font-family="Times,serif" font-size="14.00">16 (.)</text>
</g>
<!-- 2&#45;&gt;16 -->
<g id="edge6" class="edge">
<title>2&#45;&gt;16</title>
<path fill="none" stroke="black" d="M318.29,-347.8C323.31,-335.93 330.09,-319.93 335.8,-306.45"/>
<polygon fill="black" stroke="black" points="339.05,-307.75 339.73,-297.18 332.6,-305.02 339.05,-307.75"/>
<text text-anchor="middle" x="347.5" y="-318.8" font-family="Times,serif" font-size="14.00">punct</text>
</g>
<!-- 25 -->
<g id="node8" class="node">
<title>25</title>
<text text-anchor="middle" x="419" y="-275.3" font-family="Times,serif" font-size="14.00">25 (.)</text>
</g>
<!-- 2&#45;&gt;25 -->
<g id="edge7" class="edge">
<title>2&#45;&gt;25</title>
<path fill="none" stroke="black" d="M340.84,-347.94C349.53,-342.55 358.86,-336.34 367,-330 376.93,-322.26 387.08,-312.88 395.75,-304.35"/>
<polygon fill="black" stroke="black" points="398.36,-306.69 402.94,-297.14 393.4,-301.75 398.36,-306.69"/>
<text text-anchor="middle" x="399.5" y="-318.8" font-family="Times,serif" font-size="14.00">punct</text>
</g>
<!-- 12 -->
<g id="node9" class="node">
<title>12</title>
<text text-anchor="middle" x="496" y="-275.3" font-family="Times,serif" font-size="14.00">12 (like)</text>
</g>
<!-- 2&#45;&gt;12 -->
<g id="edge8" class="edge">
<title>2&#45;&gt;12</title>
<path fill="none" stroke="black" d="M344.96,-356.47C366.68,-350.42 395.16,-341.36 419,-330 434.7,-322.52 451,-312.33 464.54,-303.11"/>
<polygon fill="black" stroke="black" points="466.8,-305.8 473.01,-297.22 462.8,-300.06 466.8,-305.8"/>
<text text-anchor="middle" x="470.5" y="-318.8" font-family="Times,serif" font-size="14.00">parataxis</text>
</g>
<!-- 20 -->
<g id="node10" class="node">
<title>20</title>
<text text-anchor="middle" x="692" y="-275.3" font-family="Times,serif" font-size="14.00">20 (monkey)</text>
</g>
<!-- 2&#45;&gt;20 -->
<g id="edge9" class="edge">
<title>2&#45;&gt;20</title>
<path fill="none" stroke="black" d="M344.76,-359.44C382.5,-353.06 445.36,-341.93 499,-330 546.61,-319.41 600.28,-305.33 638.92,-294.81"/>
<polygon fill="black" stroke="black" points="640.18,-298.1 648.9,-292.08 638.33,-291.34 640.18,-298.1"/>
<text text-anchor="middle" x="582.5" y="-318.8" font-family="Times,serif" font-size="14.00">parataxis</text>
</g>
<!-- 3 -->
<g id="node11" class="node">
<title>3</title>
<text text-anchor="middle" x="56" y="-188.3" font-family="Times,serif" font-size="14.00">3 (a)</text>
</g>
<!-- 4&#45;&gt;3 -->
<g id="edge10" class="edge">
<title>4&#45;&gt;3</title>
<path fill="none" stroke="black" d="M115.82,-260.8C104.95,-248.47 90.13,-231.68 77.96,-217.89"/>
<polygon fill="black" stroke="black" points="80.4,-215.36 71.15,-210.18 75.15,-219.99 80.4,-215.36"/>
<text text-anchor="middle" x="106.5" y="-231.8" font-family="Times,serif" font-size="14.00">det</text>
</g>
<!-- 6 -->
<g id="node12" class="node">
<title>6</title>
<text text-anchor="middle" x="131" y="-188.3" font-family="Times,serif" font-size="14.00">6 (time)</text>
</g>
<!-- 4&#45;&gt;6 -->
<g id="edge11" class="edge">
<title>4&#45;&gt;6</title>
<path fill="none" stroke="black" d="M131,-260.8C131,-249.16 131,-233.55 131,-220.24"/>
<polygon fill="black" stroke="black" points="134.5,-220.18 131,-210.18 127.5,-220.18 134.5,-220.18"/>
<text text-anchor="middle" x="146.5" y="-231.8" font-family="Times,serif" font-size="14.00">nmod</text>
</g>
<!-- 9 -->
<g id="node14" class="node">
<title>9</title>
<text text-anchor="middle" x="210" y="-188.3" font-family="Times,serif" font-size="14.00">9 (trees)</text>
</g>
<!-- 7&#45;&gt;9 -->
<g id="edge13" class="edge">
<title>7&#45;&gt;9</title>
<path fill="none" stroke="black" d="M204.42,-260.8C205.37,-249.16 206.66,-233.55 207.76,-220.24"/>
<polygon fill="black" stroke="black" points="211.25,-220.43 208.59,-210.18 204.28,-219.85 211.25,-220.43"/>
<text text-anchor="middle" x="222.5" y="-231.8" font-family="Times,serif" font-size="14.00">nmod</text>
</g>
<!-- 11 -->
<g id="node16" class="node">
<title>11</title>
<text text-anchor="middle" x="415" y="-188.3" font-family="Times,serif" font-size="14.00">11 (they)</text>
</g>
<!-- 12&#45;&gt;11 -->
<g id="edge15" class="edge">
<title>12&#45;&gt;11</title>
<path fill="none" stroke="black" d="M479.61,-260.8C467.75,-248.36 451.56,-231.36 438.35,-217.5"/>
<polygon fill="black" stroke="black" points="440.8,-215 431.37,-210.18 435.73,-219.83 440.8,-215"/>
<text text-anchor="middle" x="475.5" y="-231.8" font-family="Times,serif" font-size="14.00">nsubj</text>
</g>
<!-- 14 -->
<g id="node17" class="node">
<title>14</title>
<text text-anchor="middle" x="496" y="-188.3" font-family="Times,serif" font-size="14.00">14 (eat)</text>
</g>
<!-- 12&#45;&gt;14 -->
<g id="edge16" class="edge">
<title>12&#45;&gt;14</title>
<path fill="none" stroke="black" d="M496,-260.8C496,-249.16 496,-233.55 496,-220.24"/>
<polygon fill="black" stroke="black" points="499.5,-220.18 496,-210.18 492.5,-220.18 499.5,-220.18"/>
<text text-anchor="middle" x="514.5" y="-231.8" font-family="Times,serif" font-size="14.00">xcomp</text>
</g>
<!-- 17 -->
<g id="node20" class="node">
<title>17</title>
<text text-anchor="middle" x="577" y="-188.3" font-family="Times,serif" font-size="14.00">17 (Carl)</text>
</g>
<!-- 20&#45;&gt;17 -->
<g id="edge19" class="edge">
<title>20&#45;&gt;17</title>
<path fill="none" stroke="black" d="M664.97,-260.86C656.54,-255.32 647.28,-249.05 639,-243 627.72,-234.76 615.7,-225.24 605.26,-216.73"/>
<polygon fill="black" stroke="black" points="607.23,-213.82 597.28,-210.17 602.78,-219.22 607.23,-213.82"/>
<text text-anchor="middle" x="653.5" y="-231.8" font-family="Times,serif" font-size="14.00">nsubj</text>
</g>
<!-- 18 -->
<g id="node21" class="node">
<title>18</title>
<text text-anchor="middle" x="656" y="-188.3" font-family="Times,serif" font-size="14.00">18 (is)</text>
</g>
<!-- 20&#45;&gt;18 -->
<g id="edge20" class="edge">
<title>20&#45;&gt;18</title>
<path fill="none" stroke="black" d="M684.71,-260.8C679.69,-248.93 672.91,-232.93 667.2,-219.45"/>
<polygon fill="black" stroke="black" points="670.4,-218.02 663.27,-210.18 663.95,-220.75 670.4,-218.02"/>
<text text-anchor="middle" x="687" y="-231.8" font-family="Times,serif" font-size="14.00">cop</text>
</g>
<!-- 19 -->
<g id="node22" class="node">
<title>19</title>
<text text-anchor="middle" x="728" y="-188.3" font-family="Times,serif" font-size="14.00">19 (a)</text>
</g>
<!-- 20&#45;&gt;19 -->
<g id="edge21" class="edge">
<title>20&#45;&gt;19</title>
<path fill="none" stroke="black" d="M699.29,-260.8C704.31,-248.93 711.09,-232.93 716.8,-219.45"/>
<polygon fill="black" stroke="black" points="720.05,-220.75 720.73,-210.18 713.6,-218.02 720.05,-220.75"/>
<text text-anchor="middle" x="721.5" y="-231.8" font-family="Times,serif" font-size="14.00">det</text>
</g>
<!-- 21 -->
<g id="node23" class="node">
<title>21</title>
<text text-anchor="middle" x="804" y="-188.3" font-family="Times,serif" font-size="14.00">21 (and)</text>
</g>
<!-- 20&#45;&gt;21 -->
<g id="edge22" class="edge">
<title>20&#45;&gt;21</title>
<path fill="none" stroke="black" d="M714.66,-260.8C731.52,-248.01 754.7,-230.42 773.22,-216.36"/>
<polygon fill="black" stroke="black" points="775.52,-219.01 781.37,-210.18 771.29,-213.43 775.52,-219.01"/>
<text text-anchor="middle" x="761.5" y="-231.8" font-family="Times,serif" font-size="14.00">cc</text>
</g>
<!-- 22 -->
<g id="node24" class="node">
<title>22</title>
<text text-anchor="middle" x="884" y="-188.3" font-family="Times,serif" font-size="14.00">22 (has)</text>
</g>
<!-- 20&#45;&gt;22 -->
<g id="edge23" class="edge">
<title>20&#45;&gt;22</title>
<path fill="none" stroke="black" d="M731.09,-260.97C744.11,-255.28 758.69,-248.88 772,-243 795.81,-232.47 822.43,-220.6 843.74,-211.06"/>
<polygon fill="black" stroke="black" points="845.43,-214.14 853.13,-206.86 842.57,-207.75 845.43,-214.14"/>
<text text-anchor="middle" x="814" y="-231.8" font-family="Times,serif" font-size="14.00">conj</text>
</g>
<!-- 5 -->
<g id="node13" class="node">
<title>5</title>
<text text-anchor="middle" x="131" y="-101.3" font-family="Times,serif" font-size="14.00">5 (of)</text>
</g>
<!-- 6&#45;&gt;5 -->
<g id="edge12" class="edge">
<title>6&#45;&gt;5</title>
<path fill="none" stroke="black" d="M131,-173.8C131,-162.16 131,-146.55 131,-133.24"/>
<polygon fill="black" stroke="black" points="134.5,-133.18 131,-123.18 127.5,-133.18 134.5,-133.18"/>
<text text-anchor="middle" x="143" y="-144.8" font-family="Times,serif" font-size="14.00">case</text>
</g>
<!-- 8 -->
<g id="node15" class="node">
<title>8</title>
<text text-anchor="middle" x="210" y="-101.3" font-family="Times,serif" font-size="14.00">8 (in)</text>
</g>
<!-- 9&#45;&gt;8 -->
<g id="edge14" class="edge">
<title>9&#45;&gt;8</title>
<path fill="none" stroke="black" d="M210,-173.8C210,-162.16 210,-146.55 210,-133.24"/>
<polygon fill="black" stroke="black" points="213.5,-133.18 210,-123.18 206.5,-133.18 213.5,-133.18"/>
<text text-anchor="middle" x="222" y="-144.8" font-family="Times,serif" font-size="14.00">case</text>
</g>
<!-- 13 -->
<g id="node18" class="node">
<title>13</title>
<text text-anchor="middle" x="455" y="-101.3" font-family="Times,serif" font-size="14.00">13 (to)</text>
</g>
<!-- 14&#45;&gt;13 -->
<g id="edge17" class="edge">
<title>14&#45;&gt;13</title>
<path fill="none" stroke="black" d="M487.7,-173.8C481.98,-161.93 474.26,-145.93 467.76,-132.45"/>
<polygon fill="black" stroke="black" points="470.78,-130.66 463.28,-123.18 464.48,-133.7 470.78,-130.66"/>
<text text-anchor="middle" x="492.5" y="-144.8" font-family="Times,serif" font-size="14.00">mark</text>
</g>
<!-- 15 -->
<g id="node19" class="node">
<title>15</title>
<text text-anchor="middle" x="536" y="-101.3" font-family="Times,serif" font-size="14.00">15 (fruits)</text>
</g>
<!-- 14&#45;&gt;15 -->
<g id="edge18" class="edge">
<title>14&#45;&gt;15</title>
<path fill="none" stroke="black" d="M504.09,-173.8C509.68,-161.93 517.21,-145.93 523.55,-132.45"/>
<polygon fill="black" stroke="black" points="526.83,-133.71 527.92,-123.18 520.49,-130.73 526.83,-133.71"/>
<text text-anchor="middle" x="531.5" y="-144.8" font-family="Times,serif" font-size="14.00">dobj</text>
</g>
<!-- 24 -->
<g id="node25" class="node">
<title>24</title>
<text text-anchor="middle" x="884" y="-101.3" font-family="Times,serif" font-size="14.00">24 (banana)</text>
</g>
<!-- 22&#45;&gt;24 -->
<g id="edge24" class="edge">
<title>22&#45;&gt;24</title>
<path fill="none" stroke="black" d="M884,-173.8C884,-162.16 884,-146.55 884,-133.24"/>
<polygon fill="black" stroke="black" points="887.5,-133.18 884,-123.18 880.5,-133.18 887.5,-133.18"/>
<text text-anchor="middle" x="896.5" y="-144.8" font-family="Times,serif" font-size="14.00">dobj</text>
</g>
<!-- 23 -->
<g id="node26" class="node">
<title>23</title>
<text text-anchor="middle" x="884" y="-14.3" font-family="Times,serif" font-size="14.00">23 (a)</text>
</g>
<!-- 24&#45;&gt;23 -->
<g id="edge25" class="edge">
<title>24&#45;&gt;23</title>
<path fill="none" stroke="black" d="M884,-86.8C884,-75.16 884,-59.55 884,-46.24"/>
<polygon fill="black" stroke="black" points="887.5,-46.18 884,-36.18 880.5,-46.18 887.5,-46.18"/>
<text text-anchor="middle" x="892.5" y="-57.8" font-family="Times,serif" font-size="14.00">det</text>
</g>
</g>
</svg>
