<?xml version="1.0" encoding="UTF-8" standalone="no"?>
<!DOCTYPE svg PUBLIC "-//W3C//DTD SVG 1.1//EN"
 "http://www.w3.org/Graphics/SVG/1.1/DTD/svg11.dtd">
<!-- Generated by graphviz version 2.40.1 (20161225.0304)
 -->
<!-- Title: G Pages: 1 -->
<svg width="462pt" height="392pt"
 viewBox="0.00 0.00 462.00 392.00" xmlns="http://www.w3.org/2000/svg" xmlns:xlink="http://www.w3.org/1999/xlink">
<g id="graph0" class="graph" transform="scale(1 1) rotate(0) translate(4 388)">
<title>G</title>
<polygon fill="#ffffff" stroke="transparent" points="-4,4 -4,-388 458,-388 458,4 -4,4"/>
<!-- 0 -->
<g id="node1" class="node">
<title>0</title>
<text text-anchor="middle" x="204.5" y="-362.3" font-family="Times,serif" font-size="14.00" fill="#000000">0 (None)</text>
</g>
<!-- 2 -->
<g id="node2" class="node">
<title>2</title>
<text text-anchor="middle" x="204.5" y="-275.3" font-family="Times,serif" font-size="14.00" fill="#000000">2 (spend)</text>
</g>
<!-- 0&#45;&gt;2 -->
<g id="edge1" class="edge">
<title>0&#45;&gt;2</title>
<path fill="none" stroke="#000000" d="M204.5,-347.9735C204.5,-336.1918 204.5,-320.5607 204.5,-307.1581"/>
<polygon fill="#000000" stroke="#000000" points="208.0001,-307.0033 204.5,-297.0034 201.0001,-307.0034 208.0001,-307.0033"/>
<text text-anchor="middle" x="223" y="-318.8" font-family="Times,serif" font-size="14.00" fill="#000000">ROOT</text>
</g>
<!-- 1 -->
<g id="node3" class="node">
<title>1</title>
<text text-anchor="middle" x="43.5" y="-188.3" font-family="Times,serif" font-size="14.00" fill="#000000">1 (Monkeys)</text>
</g>
<!-- 2&#45;&gt;1 -->
<g id="edge2" class="edge">
<title>2&#45;&gt;1</title>
<path fill="none" stroke="#000000" d="M170.3294,-263.0575C157.7049,-256.9895 143.3476,-249.8775 130.5,-243 114.3939,-234.3782 96.9638,-224.3121 81.9648,-215.4113"/>
<polygon fill="#000000" stroke="#000000" points="83.3538,-212.1643 72.9734,-210.0433 79.7655,-218.1747 83.3538,-212.1643"/>
<text text-anchor="middle" x="145.5" y="-231.8" font-family="Times,serif" font-size="14.00" fill="#000000">nsubj</text>
</g>
<!-- 4 -->
<g id="node4" class="node">
<title>4</title>
<text text-anchor="middle" x="132.5" y="-188.3" font-family="Times,serif" font-size="14.00" fill="#000000">4 (lot)</text>
</g>
<!-- 2&#45;&gt;4 -->
<g id="edge3" class="edge">
<title>2&#45;&gt;4</title>
<path fill="none" stroke="#000000" d="M189.5816,-260.9735C179.2519,-248.4919 165.3468,-231.6899 153.8471,-217.7944"/>
<polygon fill="#000000" stroke="#000000" points="156.4714,-215.4758 147.3993,-210.0034 151.0787,-219.9388 156.4714,-215.4758"/>
<text text-anchor="middle" x="186" y="-231.8" font-family="Times,serif" font-size="14.00" fill="#000000">dobj</text>
</g>
<!-- 7 -->
<g id="node5" class="node">
<title>7</title>
<text text-anchor="middle" x="204.5" y="-188.3" font-family="Times,serif" font-size="14.00" fill="#000000">7 (up)</text>
</g>
<!-- 2&#45;&gt;7 -->
<g id="edge4" class="edge">
<title>2&#45;&gt;7</title>
<path fill="none" stroke="#000000" d="M204.5,-260.9735C204.5,-249.1918 204.5,-233.5607 204.5,-220.1581"/>
<polygon fill="#000000" stroke="#000000" points="208.0001,-220.0033 204.5,-210.0034 201.0001,-220.0034 208.0001,-220.0033"/>
<text text-anchor="middle" x="227" y="-231.8" font-family="Times,serif" font-size="14.00" fill="#000000">advmod</text>
</g>
<!-- 10 -->
<g id="node6" class="node">
<title>10</title>
<text text-anchor="middle" x="276.5" y="-188.3" font-family="Times,serif" font-size="14.00" fill="#000000">10 (,)</text>
</g>
<!-- 2&#45;&gt;10 -->
<g id="edge5" class="edge">
<title>2&#45;&gt;10</title>
<path fill="none" stroke="#000000" d="M234.3466,-260.849C241.2401,-255.6908 248.1208,-249.6463 253.5,-243 259.0606,-236.1295 263.5742,-227.6993 267.0825,-219.6863"/>
<polygon fill="#000000" stroke="#000000" points="270.3923,-220.8363 270.8661,-210.252 263.8953,-218.2306 270.3923,-220.8363"/>
<text text-anchor="middle" x="279" y="-231.8" font-family="Times,serif" font-size="14.00" fill="#000000">punct</text>
</g>
<!-- 12 -->
<g id="node7" class="node">
<title>12</title>
<text text-anchor="middle" x="353.5" y="-188.3" font-family="Times,serif" font-size="14.00" fill="#000000">12 (like)</text>
</g>
<!-- 2&#45;&gt;12 -->
<g id="edge6" class="edge">
<title>2&#45;&gt;12</title>
<path fill="none" stroke="#000000" d="M238.5832,-269.4347C257.1084,-263.396 279.9544,-254.5424 298.5,-243 309.7284,-236.0117 320.7041,-226.5412 329.8605,-217.658"/>
<polygon fill="#000000" stroke="#000000" points="332.5113,-219.9563 337.0895,-210.4016 327.5522,-215.0159 332.5113,-219.9563"/>
<text text-anchor="middle" x="343" y="-231.8" font-family="Times,serif" font-size="14.00" fill="#000000">parataxis</text>
</g>
<!-- 3 -->
<g id="node8" class="node">
<title>3</title>
<text text-anchor="middle" x="56.5" y="-101.3" font-family="Times,serif" font-size="14.00" fill="#000000">3 (a)</text>
</g>
<!-- 4&#45;&gt;3 -->
<g id="edge7" class="edge">
<title>4&#45;&gt;3</title>
<path fill="none" stroke="#000000" d="M116.7528,-173.9735C105.8492,-161.4919 91.1716,-144.6899 79.033,-130.7944"/>
<polygon fill="#000000" stroke="#000000" points="81.4419,-128.2319 72.2271,-123.0034 76.1701,-132.8371 81.4419,-128.2319"/>
<text text-anchor="middle" x="108" y="-144.8" font-family="Times,serif" font-size="14.00" fill="#000000">det</text>
</g>
<!-- 6 -->
<g id="node9" class="node">
<title>6</title>
<text text-anchor="middle" x="132.5" y="-101.3" font-family="Times,serif" font-size="14.00" fill="#000000">6 (time)</text>
</g>
<!-- 4&#45;&gt;6 -->
<g id="edge8" class="edge">
<title>4&#45;&gt;6</title>
<path fill="none" stroke="#000000" d="M132.5,-173.9735C132.5,-162.1918 132.5,-146.5607 132.5,-133.1581"/>
<polygon fill="#000000" stroke="#000000" points="136.0001,-133.0033 132.5,-123.0034 129.0001,-133.0034 136.0001,-133.0033"/>
<text text-anchor="middle" x="148.5" y="-144.8" font-family="Times,serif" font-size="14.00" fill="#000000">nmod</text>
</g>
<!-- 9 -->
<g id="node11" class="node">
<title>9</title>
<text text-anchor="middle" x="212.5" y="-101.3" font-family="Times,serif" font-size="14.00" fill="#000000">9 (trees)</text>
</g>
<!-- 7&#45;&gt;9 -->
<g id="edge10" class="edge">
<title>7&#45;&gt;9</title>
<path fill="none" stroke="#000000" d="M206.1576,-173.9735C207.241,-162.1918 208.6783,-146.5607 209.9108,-133.1581"/>
<polygon fill="#000000" stroke="#000000" points="213.414,-133.2819 210.8445,-123.0034 206.4435,-132.6408 213.414,-133.2819"/>
<text text-anchor="middle" x="225.5" y="-144.8" font-family="Times,serif" font-size="14.00" fill="#000000">nmod</text>
</g>
<!-- 11 -->
<g id="node13" class="node">
<title>11</title>
<text text-anchor="middle" x="297.5" y="-101.3" font-family="Times,serif" font-size="14.00" fill="#000000">11 (they)</text>
</g>
<!-- 12&#45;&gt;11 -->
<g id="edge12" class="edge">
<title>12&#45;&gt;11</title>
<path fill="none" stroke="#000000" d="M341.8968,-173.9735C334.0128,-161.7252 323.4509,-145.3165 314.6067,-131.5766"/>
<polygon fill="#000000" stroke="#000000" points="317.4439,-129.5176 309.0884,-123.0034 311.5578,-133.3064 317.4439,-129.5176"/>
<text text-anchor="middle" x="344.5" y="-144.8" font-family="Times,serif" font-size="14.00" fill="#000000">nsubj</text>
</g>
<!-- 14 -->
<g id="node14" class="node">
<title>14</title>
<text text-anchor="middle" x="378.5" y="-101.3" font-family="Times,serif" font-size="14.00" fill="#000000">14 (eat)</text>
</g>
<!-- 12&#45;&gt;14 -->
<g id="edge13" class="edge">
<title>12&#45;&gt;14</title>
<path fill="none" stroke="#000000" d="M358.68,-173.9735C362.0991,-162.0751 366.6463,-146.2508 370.5228,-132.7606"/>
<polygon fill="#000000" stroke="#000000" points="373.9286,-133.5811 373.3266,-123.0034 367.2009,-131.6478 373.9286,-133.5811"/>
<text text-anchor="middle" x="385.5" y="-144.8" font-family="Times,serif" font-size="14.00" fill="#000000">xcomp</text>
</g>
<!-- 5 -->
<g id="node10" class="node">
<title>5</title>
<text text-anchor="middle" x="132.5" y="-14.3" font-family="Times,serif" font-size="14.00" fill="#000000">5 (of)</text>
</g>
<!-- 6&#45;&gt;5 -->
<g id="edge9" class="edge">
<title>6&#45;&gt;5</title>
<path fill="none" stroke="#000000" d="M132.5,-86.9735C132.5,-75.1918 132.5,-59.5607 132.5,-46.1581"/>
<polygon fill="#000000" stroke="#000000" points="136.0001,-46.0033 132.5,-36.0034 129.0001,-46.0034 136.0001,-46.0033"/>
<text text-anchor="middle" x="144.5" y="-57.8" font-family="Times,serif" font-size="14.00" fill="#000000">case</text>
</g>
<!-- 8 -->
<g id="node12" class="node">
<title>8</title>
<text text-anchor="middle" x="212.5" y="-14.3" font-family="Times,serif" font-size="14.00" fill="#000000">8 (in)</text>
</g>
<!-- 9&#45;&gt;8 -->
<g id="edge11" class="edge">
<title>9&#45;&gt;8</title>
<path fill="none" stroke="#000000" d="M212.5,-86.9735C212.5,-75.1918 212.5,-59.5607 212.5,-46.1581"/>
<polygon fill="#000000" stroke="#000000" points="216.0001,-46.0033 212.5,-36.0034 209.0001,-46.0034 216.0001,-46.0033"/>
<text text-anchor="middle" x="224.5" y="-57.8" font-family="Times,serif" font-size="14.00" fill="#000000">case</text>
</g>
<!-- 13 -->
<g id="node15" class="node">
<title>13</title>
<text text-anchor="middle" x="337.5" y="-14.3" font-family="Times,serif" font-size="14.00" fill="#000000">13 (to)</text>
</g>
<!-- 14&#45;&gt;13 -->
<g id="edge14" class="edge">
<title>14&#45;&gt;13</title>
<path fill="none" stroke="#000000" d="M370.0048,-86.9735C364.3425,-74.9585 356.7936,-58.9401 350.3959,-45.3646"/>
<polygon fill="#000000" stroke="#000000" points="353.4134,-43.5571 345.9843,-36.0034 347.0813,-46.5413 353.4134,-43.5571"/>
<text text-anchor="middle" x="375" y="-57.8" font-family="Times,serif" font-size="14.00" fill="#000000">mark</text>
</g>
<!-- 15 -->
<g id="node16" class="node">
<title>15</title>
<text text-anchor="middle" x="418.5" y="-14.3" font-family="Times,serif" font-size="14.00" fill="#000000">15 (fruits)</text>
</g>
<!-- 14&#45;&gt;15 -->
<g id="edge15" class="edge">
<title>14&#45;&gt;15</title>
<path fill="none" stroke="#000000" d="M386.788,-86.9735C392.3122,-74.9585 399.677,-58.9401 405.9186,-45.3646"/>
<polygon fill="#000000" stroke="#000000" points="409.2252,-46.5512 410.2226,-36.0034 402.8652,-43.627 409.2252,-46.5512"/>
<text text-anchor="middle" x="413" y="-57.8" font-family="Times,serif" font-size="14.00" fill="#000000">dobj</text>
</g>
</g>
</svg>
