<?xml version="1.0" encoding="UTF-8" standalone="no"?>
<!DOCTYPE svg PUBLIC "-//W3C//DTD SVG 1.1//EN"
 "http://www.w3.org/Graphics/SVG/1.1/DTD/svg11.dtd">
<!-- Generated by graphviz version 2.42.3 (0)
 -->
<!-- Title: G Pages: 1 -->
<svg width="904pt" height="566pt"
 viewBox="0.00 0.00 903.50 566.00" xmlns="http://www.w3.org/2000/svg" xmlns:xlink="http://www.w3.org/1999/xlink">
<g id="graph0" class="graph" transform="scale(1 1) rotate(0) translate(4 562)">
<title>G</title>
<polygon fill="white" stroke="transparent" points="-4,4 -4,-562 899.5,-562 899.5,4 -4,4"/>
<!-- 0 -->
<g id="node1" class="node">
<title>0</title>
<text text-anchor="middle" x="375" y="-536.3" font-family="Times,serif" font-size="14.00">0 (None)</text>
</g>
<!-- 2 -->
<g id="node2" class="node">
<title>2</title>
<text text-anchor="middle" x="375" y="-449.3" font-family="Times,serif" font-size="14.00">2 (have)</text>
</g>
<!-- 0&#45;&gt;2 -->
<g id="edge1" class="edge">
<title>0&#45;&gt;2</title>
<path fill="none" stroke="black" d="M375,-521.8C375,-510.16 375,-494.55 375,-481.24"/>
<polygon fill="black" stroke="black" points="378.5,-481.18 375,-471.18 371.5,-481.18 378.5,-481.18"/>
<text text-anchor="middle" x="394.5" y="-492.8" font-family="Times,serif" font-size="14.00">ROOT</text>
</g>
<!-- 1 -->
<g id="node3" class="node">
<title>1</title>
<text text-anchor="middle" x="196" y="-362.3" font-family="Times,serif" font-size="14.00">1 (Giraffes)</text>
</g>
<!-- 2&#45;&gt;1 -->
<g id="edge2" class="edge">
<title>2&#45;&gt;1</title>
<path fill="none" stroke="black" d="M344.43,-440.7C327.58,-434.22 306.41,-425.67 288,-417 269.96,-408.5 250.49,-398.11 234.13,-389"/>
<polygon fill="black" stroke="black" points="235.82,-385.94 225.38,-384.1 232.39,-392.04 235.82,-385.94"/>
<text text-anchor="middle" x="302.5" y="-405.8" font-family="Times,serif" font-size="14.00">nsubj</text>
</g>
<!-- 11 -->
<g id="node4" class="node">
<title>11</title>
<text text-anchor="middle" x="292" y="-362.3" font-family="Times,serif" font-size="14.00">11 (leaves)</text>
</g>
<!-- 2&#45;&gt;11 -->
<g id="edge3" class="edge">
<title>2&#45;&gt;11</title>
<path fill="none" stroke="black" d="M353.55,-434.84C347.06,-429.35 340.06,-423.11 334,-417 326.34,-409.27 318.51,-400.31 311.73,-392.13"/>
<polygon fill="black" stroke="black" points="314.36,-389.82 305.34,-384.27 308.94,-394.24 314.36,-389.82"/>
<text text-anchor="middle" x="352.5" y="-405.8" font-family="Times,serif" font-size="14.00">ccomp</text>
</g>
<!-- 17 -->
<g id="node5" class="node">
<title>17</title>
<text text-anchor="middle" x="375" y="-362.3" font-family="Times,serif" font-size="14.00">17 (.)</text>
</g>
<!-- 2&#45;&gt;17 -->
<g id="edge4" class="edge">
<title>2&#45;&gt;17</title>
<path fill="none" stroke="black" d="M375,-434.8C375,-423.16 375,-407.55 375,-394.24"/>
<polygon fill="black" stroke="black" points="378.5,-394.18 375,-384.18 371.5,-394.18 378.5,-394.18"/>
<text text-anchor="middle" x="390.5" y="-405.8" font-family="Times,serif" font-size="14.00">punct</text>
</g>
<!-- 26 -->
<g id="node6" class="node">
<title>26</title>
<text text-anchor="middle" x="447" y="-362.3" font-family="Times,serif" font-size="14.00">26 (.)</text>
</g>
<!-- 2&#45;&gt;26 -->
<g id="edge5" class="edge">
<title>2&#45;&gt;26</title>
<path fill="none" stroke="black" d="M393.33,-434.69C398.87,-429.19 404.84,-422.99 410,-417 416.63,-409.31 423.37,-400.53 429.26,-392.49"/>
<polygon fill="black" stroke="black" points="432.27,-394.31 435.27,-384.15 426.58,-390.22 432.27,-394.31"/>
<text text-anchor="middle" x="437.5" y="-405.8" font-family="Times,serif" font-size="14.00">punct</text>
</g>
<!-- 21 -->
<g id="node7" class="node">
<title>21</title>
<text text-anchor="middle" x="591" y="-362.3" font-family="Times,serif" font-size="14.00">21 (tall)</text>
</g>
<!-- 2&#45;&gt;21 -->
<g id="edge6" class="edge">
<title>2&#45;&gt;21</title>
<path fill="none" stroke="black" d="M405.95,-439.82C444.26,-424.75 509.56,-399.05 551.46,-382.56"/>
<polygon fill="black" stroke="black" points="552.78,-385.8 560.81,-378.88 550.22,-379.29 552.78,-385.8"/>
<text text-anchor="middle" x="520.5" y="-405.8" font-family="Times,serif" font-size="14.00">parataxis</text>
</g>
<!-- 6 -->
<g id="node11" class="node">
<title>6</title>
<text text-anchor="middle" x="142" y="-275.3" font-family="Times,serif" font-size="14.00">6 (neck)</text>
</g>
<!-- 11&#45;&gt;6 -->
<g id="edge14" class="edge">
<title>11&#45;&gt;6</title>
<path fill="none" stroke="black" d="M261.65,-347.8C238.39,-334.62 206.13,-316.34 180.97,-302.08"/>
<polygon fill="black" stroke="black" points="182.48,-298.92 172.05,-297.03 179.03,-305.01 182.48,-298.92"/>
<text text-anchor="middle" x="240.5" y="-318.8" font-family="Times,serif" font-size="14.00">nsubj</text>
</g>
<!-- 13 -->
<g id="node16" class="node">
<title>13</title>
<text text-anchor="middle" x="259" y="-275.3" font-family="Times,serif" font-size="14.00">13 (high)</text>
</g>
<!-- 11&#45;&gt;13 -->
<g id="edge15" class="edge">
<title>11&#45;&gt;13</title>
<path fill="none" stroke="black" d="M280.88,-347.65C277.69,-342.16 274.43,-335.96 272,-330 269.02,-322.69 266.56,-314.5 264.6,-306.89"/>
<polygon fill="black" stroke="black" points="267.97,-305.94 262.25,-297.03 261.16,-307.56 267.97,-305.94"/>
<text text-anchor="middle" x="294" y="-318.8" font-family="Times,serif" font-size="14.00">advmod</text>
</g>
<!-- 16 -->
<g id="node17" class="node">
<title>16</title>
<text text-anchor="middle" x="342" y="-275.3" font-family="Times,serif" font-size="14.00">16 (tree)</text>
</g>
<!-- 11&#45;&gt;16 -->
<g id="edge16" class="edge">
<title>11&#45;&gt;16</title>
<path fill="none" stroke="black" d="M304.39,-347.83C308.26,-342.24 312.44,-335.94 316,-330 320.51,-322.48 325.05,-314.11 329.04,-306.39"/>
<polygon fill="black" stroke="black" points="332.19,-307.91 333.6,-297.41 325.95,-304.74 332.19,-307.91"/>
<text text-anchor="middle" x="340.5" y="-318.8" font-family="Times,serif" font-size="14.00">nmod</text>
</g>
<!-- 18 -->
<g id="node21" class="node">
<title>18</title>
<text text-anchor="middle" x="427" y="-275.3" font-family="Times,serif" font-size="14.00">18 (They)</text>
</g>
<!-- 21&#45;&gt;18 -->
<g id="edge20" class="edge">
<title>21&#45;&gt;18</title>
<path fill="none" stroke="black" d="M560.65,-352.26C546.07,-345.92 528.45,-337.93 513,-330 496.59,-321.58 478.9,-311.47 463.85,-302.56"/>
<polygon fill="black" stroke="black" points="465.24,-299.32 454.86,-297.2 461.65,-305.33 465.24,-299.32"/>
<text text-anchor="middle" x="527.5" y="-318.8" font-family="Times,serif" font-size="14.00">nsubj</text>
</g>
<!-- 19 -->
<g id="node22" class="node">
<title>19</title>
<text text-anchor="middle" x="510" y="-275.3" font-family="Times,serif" font-size="14.00">19 (are)</text>
</g>
<!-- 21&#45;&gt;19 -->
<g id="edge21" class="edge">
<title>21&#45;&gt;19</title>
<path fill="none" stroke="black" d="M574.61,-347.8C562.75,-335.36 546.56,-318.36 533.35,-304.5"/>
<polygon fill="black" stroke="black" points="535.8,-302 526.37,-297.18 530.73,-306.83 535.8,-302"/>
<text text-anchor="middle" x="566" y="-318.8" font-family="Times,serif" font-size="14.00">cop</text>
</g>
<!-- 20 -->
<g id="node23" class="node">
<title>20</title>
<text text-anchor="middle" x="591" y="-275.3" font-family="Times,serif" font-size="14.00">20 (very)</text>
</g>
<!-- 21&#45;&gt;20 -->
<g id="edge22" class="edge">
<title>21&#45;&gt;20</title>
<path fill="none" stroke="black" d="M591,-347.8C591,-336.16 591,-320.55 591,-307.24"/>
<polygon fill="black" stroke="black" points="594.5,-307.18 591,-297.18 587.5,-307.18 594.5,-307.18"/>
<text text-anchor="middle" x="613" y="-318.8" font-family="Times,serif" font-size="14.00">advmod</text>
</g>
<!-- 22 -->
<g id="node24" class="node">
<title>22</title>
<text text-anchor="middle" x="673" y="-275.3" font-family="Times,serif" font-size="14.00">22 (and)</text>
</g>
<!-- 21&#45;&gt;22 -->
<g id="edge23" class="edge">
<title>21&#45;&gt;22</title>
<path fill="none" stroke="black" d="M617.73,-347.99C625.04,-342.7 632.69,-336.52 639,-330 645.97,-322.8 652.47,-314.01 657.88,-305.83"/>
<polygon fill="black" stroke="black" points="660.9,-307.61 663.3,-297.29 654.98,-303.86 660.9,-307.61"/>
<text text-anchor="middle" x="657.5" y="-318.8" font-family="Times,serif" font-size="14.00">cc</text>
</g>
<!-- 24 -->
<g id="node25" class="node">
<title>24</title>
<text text-anchor="middle" x="757" y="-275.3" font-family="Times,serif" font-size="14.00">24 (quiet)</text>
</g>
<!-- 21&#45;&gt;24 -->
<g id="edge24" class="edge">
<title>21&#45;&gt;24</title>
<path fill="none" stroke="black" d="M621.27,-351.96C635.57,-345.61 652.81,-337.7 668,-330 685.05,-321.36 703.52,-311.12 719.2,-302.17"/>
<polygon fill="black" stroke="black" points="721.15,-305.09 728.08,-297.07 717.66,-299.02 721.15,-305.09"/>
<text text-anchor="middle" x="708" y="-318.8" font-family="Times,serif" font-size="14.00">conj</text>
</g>
<!-- 25 -->
<g id="node26" class="node">
<title>25</title>
<text text-anchor="middle" x="853" y="-275.3" font-family="Times,serif" font-size="14.00">25 (animals)</text>
</g>
<!-- 21&#45;&gt;25 -->
<g id="edge25" class="edge">
<title>21&#45;&gt;25</title>
<path fill="none" stroke="black" d="M621.12,-358.1C648.26,-351.64 689.14,-341.3 724,-330 750.41,-321.44 779.26,-310.42 802.98,-300.9"/>
<polygon fill="black" stroke="black" points="804.51,-304.06 812.46,-297.06 801.88,-297.57 804.51,-304.06"/>
<text text-anchor="middle" x="773" y="-318.8" font-family="Times,serif" font-size="14.00">dep</text>
</g>
<!-- 3 -->
<g id="node8" class="node">
<title>3</title>
<text text-anchor="middle" x="27" y="-188.3" font-family="Times,serif" font-size="14.00">3 (a)</text>
</g>
<!-- 4 -->
<g id="node9" class="node">
<title>4</title>
<text text-anchor="middle" x="102" y="-101.3" font-family="Times,serif" font-size="14.00">4 (very)</text>
</g>
<!-- 5 -->
<g id="node10" class="node">
<title>5</title>
<text text-anchor="middle" x="102" y="-188.3" font-family="Times,serif" font-size="14.00">5 (long)</text>
</g>
<!-- 5&#45;&gt;4 -->
<g id="edge7" class="edge">
<title>5&#45;&gt;4</title>
<path fill="none" stroke="black" d="M102,-173.8C102,-162.16 102,-146.55 102,-133.24"/>
<polygon fill="black" stroke="black" points="105.5,-133.18 102,-123.18 98.5,-133.18 105.5,-133.18"/>
<text text-anchor="middle" x="124" y="-144.8" font-family="Times,serif" font-size="14.00">advmod</text>
</g>
<!-- 6&#45;&gt;3 -->
<g id="edge8" class="edge">
<title>6&#45;&gt;3</title>
<path fill="none" stroke="black" d="M116.36,-260.86C108.18,-255.27 99.14,-248.97 91,-243 79.49,-234.57 67.08,-224.99 56.28,-216.49"/>
<polygon fill="black" stroke="black" points="58.39,-213.69 48.37,-210.23 54.04,-219.18 58.39,-213.69"/>
<text text-anchor="middle" x="99.5" y="-231.8" font-family="Times,serif" font-size="14.00">det</text>
</g>
<!-- 6&#45;&gt;5 -->
<g id="edge9" class="edge">
<title>6&#45;&gt;5</title>
<path fill="none" stroke="black" d="M128.09,-260.91C124.1,-255.42 120.02,-249.17 117,-243 113.49,-235.84 110.62,-227.69 108.37,-220.09"/>
<polygon fill="black" stroke="black" points="111.67,-218.92 105.67,-210.19 104.92,-220.76 111.67,-218.92"/>
<text text-anchor="middle" x="132.5" y="-231.8" font-family="Times,serif" font-size="14.00">amod</text>
</g>
<!-- 8 -->
<g id="node12" class="node">
<title>8</title>
<text text-anchor="middle" x="183" y="-188.3" font-family="Times,serif" font-size="14.00">8 (reach)</text>
</g>
<!-- 6&#45;&gt;8 -->
<g id="edge10" class="edge">
<title>6&#45;&gt;8</title>
<path fill="none" stroke="black" d="M150.3,-260.8C156.02,-248.93 163.74,-232.93 170.24,-219.45"/>
<polygon fill="black" stroke="black" points="173.52,-220.7 174.72,-210.18 167.22,-217.66 173.52,-220.7"/>
<text text-anchor="middle" x="173" y="-231.8" font-family="Times,serif" font-size="14.00">acl</text>
</g>
<!-- 7 -->
<g id="node13" class="node">
<title>7</title>
<text text-anchor="middle" x="180" y="-101.3" font-family="Times,serif" font-size="14.00">7 (to)</text>
</g>
<!-- 8&#45;&gt;7 -->
<g id="edge11" class="edge">
<title>8&#45;&gt;7</title>
<path fill="none" stroke="black" d="M182.39,-173.8C181.98,-162.16 181.43,-146.55 180.96,-133.24"/>
<polygon fill="black" stroke="black" points="184.46,-133.05 180.61,-123.18 177.46,-133.29 184.46,-133.05"/>
<text text-anchor="middle" x="196.5" y="-144.8" font-family="Times,serif" font-size="14.00">mark</text>
</g>
<!-- 10 -->
<g id="node14" class="node">
<title>10</title>
<text text-anchor="middle" x="264" y="-101.3" font-family="Times,serif" font-size="14.00">10 (tender)</text>
</g>
<!-- 8&#45;&gt;10 -->
<g id="edge12" class="edge">
<title>8&#45;&gt;10</title>
<path fill="none" stroke="black" d="M199.39,-173.8C211.25,-161.36 227.44,-144.36 240.65,-130.5"/>
<polygon fill="black" stroke="black" points="243.27,-132.83 247.63,-123.18 238.2,-128 243.27,-132.83"/>
<text text-anchor="middle" x="241.5" y="-144.8" font-family="Times,serif" font-size="14.00">dobj</text>
</g>
<!-- 9 -->
<g id="node15" class="node">
<title>9</title>
<text text-anchor="middle" x="264" y="-14.3" font-family="Times,serif" font-size="14.00">9 (the)</text>
</g>
<!-- 10&#45;&gt;9 -->
<g id="edge13" class="edge">
<title>10&#45;&gt;9</title>
<path fill="none" stroke="black" d="M264,-86.8C264,-75.16 264,-59.55 264,-46.24"/>
<polygon fill="black" stroke="black" points="267.5,-46.18 264,-36.18 260.5,-46.18 267.5,-46.18"/>
<text text-anchor="middle" x="272.5" y="-57.8" font-family="Times,serif" font-size="14.00">det</text>
</g>
<!-- 12 -->
<g id="node18" class="node">
<title>12</title>
<text text-anchor="middle" x="262" y="-188.3" font-family="Times,serif" font-size="14.00">12 (up)</text>
</g>
<!-- 13&#45;&gt;12 -->
<g id="edge17" class="edge">
<title>13&#45;&gt;12</title>
<path fill="none" stroke="black" d="M259.61,-260.8C260.02,-249.16 260.57,-233.55 261.04,-220.24"/>
<polygon fill="black" stroke="black" points="264.54,-220.29 261.39,-210.18 257.54,-220.05 264.54,-220.29"/>
<text text-anchor="middle" x="283" y="-231.8" font-family="Times,serif" font-size="14.00">advmod</text>
</g>
<!-- 14 -->
<g id="node19" class="node">
<title>14</title>
<text text-anchor="middle" x="340" y="-188.3" font-family="Times,serif" font-size="14.00">14 (on)</text>
</g>
<!-- 16&#45;&gt;14 -->
<g id="edge18" class="edge">
<title>16&#45;&gt;14</title>
<path fill="none" stroke="black" d="M341.6,-260.8C341.32,-249.16 340.95,-233.55 340.64,-220.24"/>
<polygon fill="black" stroke="black" points="344.14,-220.09 340.4,-210.18 337.14,-220.26 344.14,-220.09"/>
<text text-anchor="middle" x="354" y="-231.8" font-family="Times,serif" font-size="14.00">case</text>
</g>
<!-- 15 -->
<g id="node20" class="node">
<title>15</title>
<text text-anchor="middle" x="413" y="-188.3" font-family="Times,serif" font-size="14.00">15 (a)</text>
</g>
<!-- 16&#45;&gt;15 -->
<g id="edge19" class="edge">
<title>16&#45;&gt;15</title>
<path fill="none" stroke="black" d="M356.37,-260.8C366.67,-248.47 380.69,-231.68 392.21,-217.89"/>
<polygon fill="black" stroke="black" points="394.93,-220.09 398.65,-210.18 389.56,-215.61 394.93,-220.09"/>
<text text-anchor="middle" x="390.5" y="-231.8" font-family="Times,serif" font-size="14.00">det</text>
</g>
<!-- 23 -->
<g id="node27" class="node">
<title>23</title>
<text text-anchor="middle" x="757" y="-188.3" font-family="Times,serif" font-size="14.00">23 (very)</text>
</g>
<!-- 24&#45;&gt;23 -->
<g id="edge26" class="edge">
<title>24&#45;&gt;23</title>
<path fill="none" stroke="black" d="M757,-260.8C757,-249.16 757,-233.55 757,-220.24"/>
<polygon fill="black" stroke="black" points="760.5,-220.18 757,-210.18 753.5,-220.18 760.5,-220.18"/>
<text text-anchor="middle" x="779" y="-231.8" font-family="Times,serif" font-size="14.00">advmod</text>
</g>
</g>
</svg>
