<?xml version="1.0" encoding="UTF-8" standalone="no"?>
<!DOCTYPE svg PUBLIC "-//W3C//DTD SVG 1.1//EN"
 "http://www.w3.org/Graphics/SVG/1.1/DTD/svg11.dtd">
<!-- Generated by graphviz version 2.40.1 (20161225.0304)
 -->
<!-- Title: G Pages: 1 -->
<svg width="1141pt" height="1088pt"
 viewBox="0.00 0.00 1141.00 1088.00" xmlns="http://www.w3.org/2000/svg" xmlns:xlink="http://www.w3.org/1999/xlink">
<g id="graph0" class="graph" transform="scale(1 1) rotate(0) translate(4 1084)">
<title>G</title>
<polygon fill="#ffffff" stroke="transparent" points="-4,4 -4,-1084 1137,-1084 1137,4 -4,4"/>
<!-- 0 -->
<g id="node1" class="node">
<title>0</title>
<text text-anchor="middle" x="212" y="-1058.3" font-family="Times,serif" font-size="14.00" fill="#000000">0 (None)</text>
</g>
<!-- 6 -->
<g id="node2" class="node">
<title>6</title>
<text text-anchor="middle" x="212" y="-971.3" font-family="Times,serif" font-size="14.00" fill="#000000">6 (recognizes)</text>
</g>
<!-- 0&#45;&gt;6 -->
<g id="edge1" class="edge">
<title>0&#45;&gt;6</title>
<path fill="none" stroke="#000000" d="M212,-1043.9735C212,-1032.1918 212,-1016.5607 212,-1003.1581"/>
<polygon fill="#000000" stroke="#000000" points="215.5001,-1003.0033 212,-993.0034 208.5001,-1003.0034 215.5001,-1003.0033"/>
<text text-anchor="middle" x="230.5" y="-1014.8" font-family="Times,serif" font-size="14.00" fill="#000000">ROOT</text>
</g>
<!-- 1 -->
<g id="node3" class="node">
<title>1</title>
<text text-anchor="middle" x="43" y="-884.3" font-family="Times,serif" font-size="14.00" fill="#000000">1 (Basically)</text>
</g>
<!-- 6&#45;&gt;1 -->
<g id="edge4" class="edge">
<title>6&#45;&gt;1</title>
<path fill="none" stroke="#000000" d="M164.5872,-959.8917C148.764,-954.1541 131.2805,-947.0387 116,-939 101.548,-931.3972 86.5945,-921.3861 74.0135,-912.2483"/>
<polygon fill="#000000" stroke="#000000" points="75.8365,-909.243 65.7179,-906.102 71.6692,-914.8675 75.8365,-909.243"/>
<text text-anchor="middle" x="138.5" y="-927.8" font-family="Times,serif" font-size="14.00" fill="#000000">advmod</text>
</g>
<!-- 2 -->
<g id="node4" class="node">
<title>2</title>
<text text-anchor="middle" x="131" y="-884.3" font-family="Times,serif" font-size="14.00" fill="#000000">2 (,)</text>
</g>
<!-- 6&#45;&gt;2 -->
<g id="edge5" class="edge">
<title>6&#45;&gt;2</title>
<path fill="none" stroke="#000000" d="M194.061,-956.8134C188.5437,-951.1493 182.4817,-944.8536 177,-939 169.3412,-930.8217 161.1071,-921.7757 153.7519,-913.601"/>
<polygon fill="#000000" stroke="#000000" points="156.2977,-911.1975 147.0168,-906.0872 151.0852,-915.8697 156.2977,-911.1975"/>
<text text-anchor="middle" x="192.5" y="-927.8" font-family="Times,serif" font-size="14.00" fill="#000000">punct</text>
</g>
<!-- 5 -->
<g id="node7" class="node">
<title>5</title>
<text text-anchor="middle" x="212" y="-884.3" font-family="Times,serif" font-size="14.00" fill="#000000">5 (theory)</text>
</g>
<!-- 6&#45;&gt;5 -->
<g id="edge7" class="edge">
<title>6&#45;&gt;5</title>
<path fill="none" stroke="#000000" d="M212,-956.9735C212,-945.1918 212,-929.5607 212,-916.1581"/>
<polygon fill="#000000" stroke="#000000" points="215.5001,-916.0033 212,-906.0034 208.5001,-916.0034 215.5001,-916.0033"/>
<text text-anchor="middle" x="227" y="-927.8" font-family="Times,serif" font-size="14.00" fill="#000000">nsubj</text>
</g>
<!-- 44 -->
<g id="node8" class="node">
<title>44</title>
<text text-anchor="middle" x="293" y="-884.3" font-family="Times,serif" font-size="14.00" fill="#000000">44 (.)</text>
</g>
<!-- 6&#45;&gt;44 -->
<g id="edge6" class="edge">
<title>6&#45;&gt;44</title>
<path fill="none" stroke="#000000" d="M229.3401,-956.7266C234.6962,-951.059 240.6047,-944.7831 246,-939 253.5155,-930.9442 261.6629,-922.1318 269.0304,-914.1328"/>
<polygon fill="#000000" stroke="#000000" points="271.8914,-916.1923 276.0855,-906.463 266.7395,-911.4533 271.8914,-916.1923"/>
<text text-anchor="middle" x="274.5" y="-927.8" font-family="Times,serif" font-size="14.00" fill="#000000">punct</text>
</g>
<!-- 12 -->
<g id="node9" class="node">
<title>12</title>
<text text-anchor="middle" x="467" y="-884.3" font-family="Times,serif" font-size="14.00" fill="#000000">12 (has)</text>
</g>
<!-- 6&#45;&gt;12 -->
<g id="edge8" class="edge">
<title>6&#45;&gt;12</title>
<path fill="none" stroke="#000000" d="M259.0681,-958.9415C307.1994,-942.5202 381.1773,-917.2807 426.6951,-901.7511"/>
<polygon fill="#000000" stroke="#000000" points="427.8995,-905.0384 436.2336,-898.4968 425.6391,-898.4133 427.8995,-905.0384"/>
<text text-anchor="middle" x="373.5" y="-927.8" font-family="Times,serif" font-size="14.00" fill="#000000">ccomp</text>
</g>
<!-- 3 -->
<g id="node5" class="node">
<title>3</title>
<text text-anchor="middle" x="118" y="-797.3" font-family="Times,serif" font-size="14.00" fill="#000000">3 (the)</text>
</g>
<!-- 4 -->
<g id="node6" class="node">
<title>4</title>
<text text-anchor="middle" x="212" y="-797.3" font-family="Times,serif" font-size="14.00" fill="#000000">4 (stakeholder)</text>
</g>
<!-- 5&#45;&gt;3 -->
<g id="edge2" class="edge">
<title>5&#45;&gt;3</title>
<path fill="none" stroke="#000000" d="M192.5231,-869.9735C178.7851,-857.2586 160.2031,-840.0603 145.0312,-826.0183"/>
<polygon fill="#000000" stroke="#000000" points="147.1684,-823.2272 137.4519,-819.0034 142.4136,-828.3646 147.1684,-823.2272"/>
<text text-anchor="middle" x="179.5" y="-840.8" font-family="Times,serif" font-size="14.00" fill="#000000">det</text>
</g>
<!-- 5&#45;&gt;4 -->
<g id="edge3" class="edge">
<title>5&#45;&gt;4</title>
<path fill="none" stroke="#000000" d="M212,-869.9735C212,-858.1918 212,-842.5607 212,-829.1581"/>
<polygon fill="#000000" stroke="#000000" points="215.5001,-829.0033 212,-819.0034 208.5001,-829.0034 215.5001,-829.0033"/>
<text text-anchor="middle" x="241" y="-840.8" font-family="Times,serif" font-size="14.00" fill="#000000">compound</text>
</g>
<!-- 7 -->
<g id="node10" class="node">
<title>7</title>
<text text-anchor="middle" x="307" y="-797.3" font-family="Times,serif" font-size="14.00" fill="#000000">7 (that)</text>
</g>
<!-- 12&#45;&gt;7 -->
<g id="edge12" class="edge">
<title>12&#45;&gt;7</title>
<path fill="none" stroke="#000000" d="M436.2842,-871.567C424.8781,-865.446 411.8372,-858.4257 400,-852 381.5659,-841.9933 361.1243,-830.7946 344.1112,-821.4459"/>
<polygon fill="#000000" stroke="#000000" points="345.4958,-818.213 335.0467,-816.4617 342.123,-824.3469 345.4958,-818.213"/>
<text text-anchor="middle" x="414.5" y="-840.8" font-family="Times,serif" font-size="14.00" fill="#000000">mark</text>
</g>
<!-- 8 -->
<g id="node11" class="node">
<title>8</title>
<text text-anchor="middle" x="407" y="-797.3" font-family="Times,serif" font-size="14.00" fill="#000000">8 (management)</text>
</g>
<!-- 12&#45;&gt;8 -->
<g id="edge13" class="edge">
<title>12&#45;&gt;8</title>
<path fill="none" stroke="#000000" d="M454.2623,-869.6995C450.3245,-864.0307 445.9771,-857.761 442,-852 436.5922,-844.1665 430.7331,-835.6434 425.3836,-827.8473"/>
<polygon fill="#000000" stroke="#000000" points="428.1535,-825.6977 419.6117,-819.4297 422.3804,-829.6564 428.1535,-825.6977"/>
<text text-anchor="middle" x="457" y="-840.8" font-family="Times,serif" font-size="14.00" fill="#000000">nsubj</text>
</g>
<!-- 15 -->
<g id="node15" class="node">
<title>15</title>
<text text-anchor="middle" x="528" y="-797.3" font-family="Times,serif" font-size="14.00" fill="#000000">15 (obligation)</text>
</g>
<!-- 12&#45;&gt;15 -->
<g id="edge14" class="edge">
<title>12&#45;&gt;15</title>
<path fill="none" stroke="#000000" d="M479.6392,-869.9735C488.2272,-857.7252 499.7321,-841.3165 509.3659,-827.5766"/>
<polygon fill="#000000" stroke="#000000" points="512.5017,-829.2006 515.377,-819.0034 506.7702,-825.1819 512.5017,-829.2006"/>
<text text-anchor="middle" x="514.5" y="-840.8" font-family="Times,serif" font-size="14.00" fill="#000000">dobj</text>
</g>
<!-- 33 -->
<g id="node16" class="node">
<title>33</title>
<text text-anchor="middle" x="626" y="-797.3" font-family="Times,serif" font-size="14.00" fill="#000000">33 (and)</text>
</g>
<!-- 12&#45;&gt;33 -->
<g id="edge15" class="edge">
<title>12&#45;&gt;33</title>
<path fill="none" stroke="#000000" d="M497.6568,-871.2255C522.7904,-857.4732 558.5579,-837.9023 585.9528,-822.9126"/>
<polygon fill="#000000" stroke="#000000" points="587.8022,-825.8904 594.8948,-818.0198 584.4421,-819.7496 587.8022,-825.8904"/>
<text text-anchor="middle" x="563.5" y="-840.8" font-family="Times,serif" font-size="14.00" fill="#000000">cc</text>
</g>
<!-- 40 -->
<g id="node17" class="node">
<title>40</title>
<text text-anchor="middle" x="870" y="-797.3" font-family="Times,serif" font-size="14.00" fill="#000000">40 (negotiated)</text>
</g>
<!-- 12&#45;&gt;40 -->
<g id="edge16" class="edge">
<title>12&#45;&gt;40</title>
<path fill="none" stroke="#000000" d="M497.6213,-881.3895C564.2326,-867.0093 723.2944,-832.6709 810.4276,-813.8605"/>
<polygon fill="#000000" stroke="#000000" points="811.3927,-817.2329 820.4289,-811.7014 809.9155,-810.3905 811.3927,-817.2329"/>
<text text-anchor="middle" x="705" y="-840.8" font-family="Times,serif" font-size="14.00" fill="#000000">conj</text>
</g>
<!-- 11 -->
<g id="node12" class="node">
<title>11</title>
<text text-anchor="middle" x="349" y="-710.3" font-family="Times,serif" font-size="14.00" fill="#000000">11 (company)</text>
</g>
<!-- 8&#45;&gt;11 -->
<g id="edge9" class="edge">
<title>8&#45;&gt;11</title>
<path fill="none" stroke="#000000" d="M394.9824,-782.9735C386.8168,-770.7252 375.8777,-754.3165 366.7177,-740.5766"/>
<polygon fill="#000000" stroke="#000000" points="369.4615,-738.3824 361.0022,-732.0034 363.6371,-742.2653 369.4615,-738.3824"/>
<text text-anchor="middle" x="398" y="-753.8" font-family="Times,serif" font-size="14.00" fill="#000000">nmod</text>
</g>
<!-- 9 -->
<g id="node13" class="node">
<title>9</title>
<text text-anchor="middle" x="313" y="-623.3" font-family="Times,serif" font-size="14.00" fill="#000000">9 (of)</text>
</g>
<!-- 11&#45;&gt;9 -->
<g id="edge10" class="edge">
<title>11&#45;&gt;9</title>
<path fill="none" stroke="#000000" d="M341.5408,-695.9735C336.569,-683.9585 329.9407,-667.9401 324.3233,-654.3646"/>
<polygon fill="#000000" stroke="#000000" points="327.5073,-652.9053 320.4497,-645.0034 321.0392,-655.5818 327.5073,-652.9053"/>
<text text-anchor="middle" x="346" y="-666.8" font-family="Times,serif" font-size="14.00" fill="#000000">case</text>
</g>
<!-- 10 -->
<g id="node14" class="node">
<title>10</title>
<text text-anchor="middle" x="385" y="-623.3" font-family="Times,serif" font-size="14.00" fill="#000000">10 (a)</text>
</g>
<!-- 11&#45;&gt;10 -->
<g id="edge11" class="edge">
<title>11&#45;&gt;10</title>
<path fill="none" stroke="#000000" d="M356.4592,-695.9735C361.431,-683.9585 368.0593,-667.9401 373.6767,-654.3646"/>
<polygon fill="#000000" stroke="#000000" points="376.9608,-655.5818 377.5503,-645.0034 370.4927,-652.9053 376.9608,-655.5818"/>
<text text-anchor="middle" x="378.5" y="-666.8" font-family="Times,serif" font-size="14.00" fill="#000000">det</text>
</g>
<!-- 13 -->
<g id="node18" class="node">
<title>13</title>
<text text-anchor="middle" x="443" y="-710.3" font-family="Times,serif" font-size="14.00" fill="#000000">13 (the)</text>
</g>
<!-- 15&#45;&gt;13 -->
<g id="edge17" class="edge">
<title>15&#45;&gt;13</title>
<path fill="none" stroke="#000000" d="M510.3879,-782.9735C498.0792,-770.3752 481.4703,-753.3755 467.8215,-739.4055"/>
<polygon fill="#000000" stroke="#000000" points="470.0814,-736.7103 460.5895,-732.0034 465.0744,-741.6021 470.0814,-736.7103"/>
<text text-anchor="middle" x="499.5" y="-753.8" font-family="Times,serif" font-size="14.00" fill="#000000">det</text>
</g>
<!-- 14 -->
<g id="node19" class="node">
<title>14</title>
<text text-anchor="middle" x="528" y="-710.3" font-family="Times,serif" font-size="14.00" fill="#000000">14 (moral)</text>
</g>
<!-- 15&#45;&gt;14 -->
<g id="edge18" class="edge">
<title>15&#45;&gt;14</title>
<path fill="none" stroke="#000000" d="M528,-782.9735C528,-771.1918 528,-755.5607 528,-742.1581"/>
<polygon fill="#000000" stroke="#000000" points="531.5001,-742.0033 528,-732.0034 524.5001,-742.0034 531.5001,-742.0033"/>
<text text-anchor="middle" x="543.5" y="-753.8" font-family="Times,serif" font-size="14.00" fill="#000000">amod</text>
</g>
<!-- 17 -->
<g id="node20" class="node">
<title>17</title>
<text text-anchor="middle" x="628" y="-710.3" font-family="Times,serif" font-size="14.00" fill="#000000">17 (consider)</text>
</g>
<!-- 15&#45;&gt;17 -->
<g id="edge19" class="edge">
<title>15&#45;&gt;17</title>
<path fill="none" stroke="#000000" d="M548.7201,-782.9735C563.4691,-770.1419 583.4663,-752.7443 599.6867,-738.6326"/>
<polygon fill="#000000" stroke="#000000" points="602.0593,-741.2076 607.3065,-732.0034 597.4647,-735.9265 602.0593,-741.2076"/>
<text text-anchor="middle" x="592" y="-753.8" font-family="Times,serif" font-size="14.00" fill="#000000">acl</text>
</g>
<!-- 34 -->
<g id="node37" class="node">
<title>34</title>
<text text-anchor="middle" x="722" y="-710.3" font-family="Times,serif" font-size="14.00" fill="#000000">34 (that)</text>
</g>
<!-- 40&#45;&gt;34 -->
<g id="edge38" class="edge">
<title>40&#45;&gt;34</title>
<path fill="none" stroke="#000000" d="M826.7192,-782.8644C815.2028,-777.5455 802.9314,-771.42 792,-765 778.6455,-757.157 764.7056,-747.3692 752.8132,-738.4713"/>
<polygon fill="#000000" stroke="#000000" points="754.6316,-735.4571 744.5531,-732.19 750.3945,-741.0291 754.6316,-735.4571"/>
<text text-anchor="middle" x="806.5" y="-753.8" font-family="Times,serif" font-size="14.00" fill="#000000">mark</text>
</g>
<!-- 37 -->
<g id="node40" class="node">
<title>37</title>
<text text-anchor="middle" x="816" y="-710.3" font-family="Times,serif" font-size="14.00" fill="#000000">37 (interests)</text>
</g>
<!-- 40&#45;&gt;37 -->
<g id="edge39" class="edge">
<title>40&#45;&gt;37</title>
<path fill="none" stroke="#000000" d="M847.0646,-782.8529C841.5245,-777.5766 836.0433,-771.4749 832,-765 827.6939,-758.1042 824.4612,-749.9552 822.0715,-742.2185"/>
<polygon fill="#000000" stroke="#000000" points="825.4078,-741.1495 819.3964,-732.4252 818.6552,-742.9941 825.4078,-741.1495"/>
<text text-anchor="middle" x="858.5" y="-753.8" font-family="Times,serif" font-size="14.00" fill="#000000">nsubjpass</text>
</g>
<!-- 38 -->
<g id="node41" class="node">
<title>38</title>
<text text-anchor="middle" x="913" y="-710.3" font-family="Times,serif" font-size="14.00" fill="#000000">38 (must)</text>
</g>
<!-- 40&#45;&gt;38 -->
<g id="edge40" class="edge">
<title>40&#45;&gt;38</title>
<path fill="none" stroke="#000000" d="M878.9096,-782.9735C884.9058,-770.8418 892.9192,-754.6287 899.6701,-740.9698"/>
<polygon fill="#000000" stroke="#000000" points="902.8085,-742.519 904.1018,-732.0034 896.5332,-739.4173 902.8085,-742.519"/>
<text text-anchor="middle" x="905" y="-753.8" font-family="Times,serif" font-size="14.00" fill="#000000">aux</text>
</g>
<!-- 39 -->
<g id="node42" class="node">
<title>39</title>
<text text-anchor="middle" x="994" y="-710.3" font-family="Times,serif" font-size="14.00" fill="#000000">39 (be)</text>
</g>
<!-- 40&#45;&gt;39 -->
<g id="edge41" class="edge">
<title>40&#45;&gt;39</title>
<path fill="none" stroke="#000000" d="M895.6929,-782.9735C914.3142,-769.9086 939.682,-752.1102 959.9839,-737.8662"/>
<polygon fill="#000000" stroke="#000000" points="962.1641,-740.612 968.34,-732.0034 958.1437,-734.8817 962.1641,-740.612"/>
<text text-anchor="middle" x="961.5" y="-753.8" font-family="Times,serif" font-size="14.00" fill="#000000">auxpass</text>
</g>
<!-- 43 -->
<g id="node43" class="node">
<title>43</title>
<text text-anchor="middle" x="1073" y="-710.3" font-family="Times,serif" font-size="14.00" fill="#000000">43 (way)</text>
</g>
<!-- 40&#45;&gt;43 -->
<g id="edge42" class="edge">
<title>40&#45;&gt;43</title>
<path fill="none" stroke="#000000" d="M919.6134,-788.5467C940.7931,-782.5163 965.5275,-774.5089 987,-765 1004.3809,-757.303 1022.6284,-746.8589 1037.8208,-737.4263"/>
<polygon fill="#000000" stroke="#000000" points="1039.7976,-740.3174 1046.3831,-732.0179 1036.0593,-734.3992 1039.7976,-740.3174"/>
<text text-anchor="middle" x="1033" y="-753.8" font-family="Times,serif" font-size="14.00" fill="#000000">nmod</text>
</g>
<!-- 16 -->
<g id="node21" class="node">
<title>16</title>
<text text-anchor="middle" x="570" y="-623.3" font-family="Times,serif" font-size="14.00" fill="#000000">16 (to)</text>
</g>
<!-- 17&#45;&gt;16 -->
<g id="edge20" class="edge">
<title>17&#45;&gt;16</title>
<path fill="none" stroke="#000000" d="M615.9824,-695.9735C607.8168,-683.7252 596.8777,-667.3165 587.7177,-653.5766"/>
<polygon fill="#000000" stroke="#000000" points="590.4615,-651.3824 582.0022,-645.0034 584.6371,-655.2653 590.4615,-651.3824"/>
<text text-anchor="middle" x="617.5" y="-666.8" font-family="Times,serif" font-size="14.00" fill="#000000">mark</text>
</g>
<!-- 19 -->
<g id="node22" class="node">
<title>19</title>
<text text-anchor="middle" x="659" y="-623.3" font-family="Times,serif" font-size="14.00" fill="#000000">19 (interests)</text>
</g>
<!-- 17&#45;&gt;19 -->
<g id="edge21" class="edge">
<title>17&#45;&gt;19</title>
<path fill="none" stroke="#000000" d="M634.4232,-695.9735C638.6629,-684.0751 644.3015,-668.2508 649.1083,-654.7606"/>
<polygon fill="#000000" stroke="#000000" points="652.5254,-655.598 652.585,-645.0034 645.9315,-653.2484 652.5254,-655.598"/>
<text text-anchor="middle" x="658.5" y="-666.8" font-family="Times,serif" font-size="14.00" fill="#000000">dobj</text>
</g>
<!-- 18 -->
<g id="node23" class="node">
<title>18</title>
<text text-anchor="middle" x="630" y="-536.3" font-family="Times,serif" font-size="14.00" fill="#000000">18 (the)</text>
</g>
<!-- 19&#45;&gt;18 -->
<g id="edge22" class="edge">
<title>19&#45;&gt;18</title>
<path fill="none" stroke="#000000" d="M652.9912,-608.9735C649.025,-597.0751 643.7503,-581.2508 639.2535,-567.7606"/>
<polygon fill="#000000" stroke="#000000" points="642.4839,-566.3834 636.0011,-558.0034 635.8431,-568.597 642.4839,-566.3834"/>
<text text-anchor="middle" x="655.5" y="-579.8" font-family="Times,serif" font-size="14.00" fill="#000000">det</text>
</g>
<!-- 21 -->
<g id="node24" class="node">
<title>21</title>
<text text-anchor="middle" x="706" y="-536.3" font-family="Times,serif" font-size="14.00" fill="#000000">21 (all)</text>
</g>
<!-- 19&#45;&gt;21 -->
<g id="edge23" class="edge">
<title>19&#45;&gt;21</title>
<path fill="none" stroke="#000000" d="M668.7384,-608.9735C675.2923,-596.8418 684.0512,-580.6287 691.4301,-566.9698"/>
<polygon fill="#000000" stroke="#000000" points="694.6003,-568.4652 696.274,-558.0034 688.4416,-565.138 694.6003,-568.4652"/>
<text text-anchor="middle" x="702" y="-579.8" font-family="Times,serif" font-size="14.00" fill="#000000">nmod</text>
</g>
<!-- 20 -->
<g id="node25" class="node">
<title>20</title>
<text text-anchor="middle" x="674" y="-449.3" font-family="Times,serif" font-size="14.00" fill="#000000">20 (of)</text>
</g>
<!-- 21&#45;&gt;20 -->
<g id="edge24" class="edge">
<title>21&#45;&gt;20</title>
<path fill="none" stroke="#000000" d="M698.7657,-521.7285C696.5564,-516.0609 694.145,-509.7846 692,-504 689.2619,-496.6159 686.3858,-488.5958 683.756,-481.149"/>
<polygon fill="#000000" stroke="#000000" points="686.9714,-479.7413 680.3587,-471.4634 680.3659,-482.0582 686.9714,-479.7413"/>
<text text-anchor="middle" x="704" y="-492.8" font-family="Times,serif" font-size="14.00" fill="#000000">case</text>
</g>
<!-- 23 -->
<g id="node26" class="node">
<title>23</title>
<text text-anchor="middle" x="755" y="-449.3" font-family="Times,serif" font-size="14.00" fill="#000000">23 (those)</text>
</g>
<!-- 21&#45;&gt;23 -->
<g id="edge25" class="edge">
<title>21&#45;&gt;23</title>
<path fill="none" stroke="#000000" d="M716.1528,-521.9735C722.9856,-509.8418 732.1172,-493.6287 739.8101,-479.9698"/>
<polygon fill="#000000" stroke="#000000" points="743.0023,-481.4341 744.8602,-471.0034 736.9032,-477.9989 743.0023,-481.4341"/>
<text text-anchor="middle" x="750" y="-492.8" font-family="Times,serif" font-size="14.00" fill="#000000">nmod</text>
</g>
<!-- 22 -->
<g id="node27" class="node">
<title>22</title>
<text text-anchor="middle" x="723" y="-362.3" font-family="Times,serif" font-size="14.00" fill="#000000">22 (of)</text>
</g>
<!-- 23&#45;&gt;22 -->
<g id="edge26" class="edge">
<title>23&#45;&gt;22</title>
<path fill="none" stroke="#000000" d="M747.1087,-434.7889C744.7359,-429.1238 742.1843,-422.8336 740,-417 737.1783,-409.464 734.329,-401.2193 731.7907,-393.598"/>
<polygon fill="#000000" stroke="#000000" points="735.1019,-392.4629 728.6615,-384.0503 728.45,-394.643 735.1019,-392.4629"/>
<text text-anchor="middle" x="752" y="-405.8" font-family="Times,serif" font-size="14.00" fill="#000000">case</text>
</g>
<!-- 25 -->
<g id="node28" class="node">
<title>25</title>
<text text-anchor="middle" x="802" y="-362.3" font-family="Times,serif" font-size="14.00" fill="#000000">25 (have)</text>
</g>
<!-- 23&#45;&gt;25 -->
<g id="edge27" class="edge">
<title>23&#45;&gt;25</title>
<path fill="none" stroke="#000000" d="M764.7384,-434.9735C771.2923,-422.8418 780.0512,-406.6287 787.4301,-392.9698"/>
<polygon fill="#000000" stroke="#000000" points="790.6003,-394.4652 792.274,-384.0034 784.4416,-391.138 790.6003,-394.4652"/>
<text text-anchor="middle" x="804" y="-405.8" font-family="Times,serif" font-size="14.00" fill="#000000">acl:relcl</text>
</g>
<!-- 24 -->
<g id="node29" class="node">
<title>24</title>
<text text-anchor="middle" x="767" y="-275.3" font-family="Times,serif" font-size="14.00" fill="#000000">24 (who)</text>
</g>
<!-- 25&#45;&gt;24 -->
<g id="edge28" class="edge">
<title>25&#45;&gt;24</title>
<path fill="none" stroke="#000000" d="M792.9868,-347.8469C790.2948,-342.1842 787.419,-335.8808 785,-330 781.9204,-322.5132 778.8735,-314.2845 776.1865,-306.6628"/>
<polygon fill="#000000" stroke="#000000" points="779.4596,-305.418 772.8891,-297.1066 772.8424,-307.7013 779.4596,-305.418"/>
<text text-anchor="middle" x="800" y="-318.8" font-family="Times,serif" font-size="14.00" fill="#000000">nsubj</text>
</g>
<!-- 27 -->
<g id="node30" class="node">
<title>27</title>
<text text-anchor="middle" x="854" y="-275.3" font-family="Times,serif" font-size="14.00" fill="#000000">27 (stake)</text>
</g>
<!-- 25&#45;&gt;27 -->
<g id="edge29" class="edge">
<title>25&#45;&gt;27</title>
<path fill="none" stroke="#000000" d="M812.7744,-347.9735C820.0256,-335.8418 829.7162,-319.6287 837.8801,-305.9698"/>
<polygon fill="#000000" stroke="#000000" points="841.1132,-307.3827 843.2394,-297.0034 835.1046,-303.7913 841.1132,-307.3827"/>
<text text-anchor="middle" x="844.5" y="-318.8" font-family="Times,serif" font-size="14.00" fill="#000000">dobj</text>
</g>
<!-- 26 -->
<g id="node31" class="node">
<title>26</title>
<text text-anchor="middle" x="821" y="-188.3" font-family="Times,serif" font-size="14.00" fill="#000000">26 (a)</text>
</g>
<!-- 27&#45;&gt;26 -->
<g id="edge30" class="edge">
<title>27&#45;&gt;26</title>
<path fill="none" stroke="#000000" d="M847.1624,-260.9735C842.6049,-248.9585 836.529,-232.9401 831.3797,-219.3646"/>
<polygon fill="#000000" stroke="#000000" points="834.648,-218.112 827.8289,-210.0034 828.103,-220.5947 834.648,-218.112"/>
<text text-anchor="middle" x="848.5" y="-231.8" font-family="Times,serif" font-size="14.00" fill="#000000">det</text>
</g>
<!-- 32 -->
<g id="node32" class="node">
<title>32</title>
<text text-anchor="middle" x="912" y="-188.3" font-family="Times,serif" font-size="14.00" fill="#000000">32 (activities)</text>
</g>
<!-- 27&#45;&gt;32 -->
<g id="edge31" class="edge">
<title>27&#45;&gt;32</title>
<path fill="none" stroke="#000000" d="M866.0176,-260.9735C874.1832,-248.7252 885.1223,-232.3165 894.2823,-218.5766"/>
<polygon fill="#000000" stroke="#000000" points="897.3629,-220.2653 899.9978,-210.0034 891.5385,-216.3824 897.3629,-220.2653"/>
<text text-anchor="middle" x="903" y="-231.8" font-family="Times,serif" font-size="14.00" fill="#000000">nmod</text>
</g>
<!-- 28 -->
<g id="node33" class="node">
<title>28</title>
<text text-anchor="middle" x="878" y="-101.3" font-family="Times,serif" font-size="14.00" fill="#000000">28 (in)</text>
</g>
<!-- 32&#45;&gt;28 -->
<g id="edge34" class="edge">
<title>32&#45;&gt;28</title>
<path fill="none" stroke="#000000" d="M904.9552,-173.9735C900.2596,-161.9585 893.9996,-145.9401 888.6942,-132.3646"/>
<polygon fill="#000000" stroke="#000000" points="891.9357,-131.0434 885.0358,-123.0034 885.4159,-133.5914 891.9357,-131.0434"/>
<text text-anchor="middle" x="910" y="-144.8" font-family="Times,serif" font-size="14.00" fill="#000000">case</text>
</g>
<!-- 30 -->
<g id="node35" class="node">
<title>30</title>
<text text-anchor="middle" x="970" y="-101.3" font-family="Times,serif" font-size="14.00" fill="#000000">30 (company)</text>
</g>
<!-- 32&#45;&gt;30 -->
<g id="edge35" class="edge">
<title>32&#45;&gt;30</title>
<path fill="none" stroke="#000000" d="M924.0176,-173.9735C932.1832,-161.7252 943.1223,-145.3165 952.2823,-131.5766"/>
<polygon fill="#000000" stroke="#000000" points="955.3629,-133.2653 957.9978,-123.0034 949.5385,-129.3824 955.3629,-133.2653"/>
<text text-anchor="middle" x="975" y="-144.8" font-family="Times,serif" font-size="14.00" fill="#000000">nmod:poss</text>
</g>
<!-- 29 -->
<g id="node34" class="node">
<title>29</title>
<text text-anchor="middle" x="933" y="-14.3" font-family="Times,serif" font-size="14.00" fill="#000000">29 (the)</text>
</g>
<!-- 30&#45;&gt;29 -->
<g id="edge32" class="edge">
<title>30&#45;&gt;29</title>
<path fill="none" stroke="#000000" d="M962.3336,-86.9735C957.2237,-74.9585 950.4113,-58.9401 944.6378,-45.3646"/>
<polygon fill="#000000" stroke="#000000" points="947.7911,-43.8359 940.6566,-36.0034 941.3495,-46.5755 947.7911,-43.8359"/>
<text text-anchor="middle" x="962.5" y="-57.8" font-family="Times,serif" font-size="14.00" fill="#000000">det</text>
</g>
<!-- 31 -->
<g id="node36" class="node">
<title>31</title>
<text text-anchor="middle" x="1008" y="-14.3" font-family="Times,serif" font-size="14.00" fill="#000000">31 (&#39;s)</text>
</g>
<!-- 30&#45;&gt;31 -->
<g id="edge33" class="edge">
<title>30&#45;&gt;31</title>
<path fill="none" stroke="#000000" d="M977.8736,-86.9735C983.1216,-74.9585 990.1181,-58.9401 996.0477,-45.3646"/>
<polygon fill="#000000" stroke="#000000" points="999.3411,-46.5683 1000.1365,-36.0034 992.9263,-43.7664 999.3411,-46.5683"/>
<text text-anchor="middle" x="1004" y="-57.8" font-family="Times,serif" font-size="14.00" fill="#000000">case</text>
</g>
<!-- 35 -->
<g id="node38" class="node">
<title>35</title>
<text text-anchor="middle" x="792" y="-623.3" font-family="Times,serif" font-size="14.00" fill="#000000">35 (their)</text>
</g>
<!-- 36 -->
<g id="node39" class="node">
<title>36</title>
<text text-anchor="middle" x="895" y="-623.3" font-family="Times,serif" font-size="14.00" fill="#000000">36 (competing)</text>
</g>
<!-- 37&#45;&gt;35 -->
<g id="edge36" class="edge">
<title>37&#45;&gt;35</title>
<path fill="none" stroke="#000000" d="M811.0272,-695.9735C807.7449,-684.0751 803.3795,-668.2508 799.6581,-654.7606"/>
<polygon fill="#000000" stroke="#000000" points="802.9998,-653.7125 796.9664,-645.0034 796.2518,-655.5741 802.9998,-653.7125"/>
<text text-anchor="middle" x="836" y="-666.8" font-family="Times,serif" font-size="14.00" fill="#000000">nmod:poss</text>
</g>
<!-- 37&#45;&gt;36 -->
<g id="edge37" class="edge">
<title>37&#45;&gt;36</title>
<path fill="none" stroke="#000000" d="M849.0546,-695.9648C856.5608,-690.8394 864.0612,-684.7809 870,-678 875.977,-671.1754 880.8868,-662.6693 884.7245,-654.5717"/>
<polygon fill="#000000" stroke="#000000" points="887.9444,-655.9439 888.7368,-645.3787 881.5288,-653.1437 887.9444,-655.9439"/>
<text text-anchor="middle" x="895.5" y="-666.8" font-family="Times,serif" font-size="14.00" fill="#000000">amod</text>
</g>
<!-- 41 -->
<g id="node44" class="node">
<title>41</title>
<text text-anchor="middle" x="1016" y="-623.3" font-family="Times,serif" font-size="14.00" fill="#000000">41 (in)</text>
</g>
<!-- 43&#45;&gt;41 -->
<g id="edge43" class="edge">
<title>43&#45;&gt;41</title>
<path fill="none" stroke="#000000" d="M1061.1896,-695.9735C1053.1648,-683.7252 1042.4143,-667.3165 1033.4122,-653.5766"/>
<polygon fill="#000000" stroke="#000000" points="1036.2032,-651.4499 1027.7953,-645.0034 1030.348,-655.2861 1036.2032,-651.4499"/>
<text text-anchor="middle" x="1060" y="-666.8" font-family="Times,serif" font-size="14.00" fill="#000000">case</text>
</g>
<!-- 42 -->
<g id="node45" class="node">
<title>42</title>
<text text-anchor="middle" x="1097" y="-623.3" font-family="Times,serif" font-size="14.00" fill="#000000">42 (some)</text>
</g>
<!-- 43&#45;&gt;42 -->
<g id="edge44" class="edge">
<title>43&#45;&gt;42</title>
<path fill="none" stroke="#000000" d="M1077.9728,-695.9735C1081.2551,-684.0751 1085.6205,-668.2508 1089.3419,-654.7606"/>
<polygon fill="#000000" stroke="#000000" points="1092.7482,-655.5741 1092.0336,-645.0034 1086.0002,-653.7125 1092.7482,-655.5741"/>
<text text-anchor="middle" x="1094.5" y="-666.8" font-family="Times,serif" font-size="14.00" fill="#000000">det</text>
</g>
</g>
</svg>
