<?xml version="1.0" encoding="UTF-8" standalone="no"?>
<!DOCTYPE svg PUBLIC "-//W3C//DTD SVG 1.1//EN"
 "http://www.w3.org/Graphics/SVG/1.1/DTD/svg11.dtd">
<!-- Generated by graphviz version 2.40.1 (20161225.0304)
 -->
<!-- Title: G Pages: 1 -->
<svg width="748pt" height="566pt"
 viewBox="0.00 0.00 748.00 566.00" xmlns="http://www.w3.org/2000/svg" xmlns:xlink="http://www.w3.org/1999/xlink">
<g id="graph0" class="graph" transform="scale(1 1) rotate(0) translate(4 562)">
<title>G</title>
<polygon fill="#ffffff" stroke="transparent" points="-4,4 -4,-562 744,-562 744,4 -4,4"/>
<!-- 0 -->
<g id="node1" class="node">
<title>0</title>
<text text-anchor="middle" x="240" y="-536.3" font-family="Times,serif" font-size="14.00" fill="#000000">0 (None)</text>
</g>
<!-- 6 -->
<g id="node2" class="node">
<title>6</title>
<text text-anchor="middle" x="240" y="-449.3" font-family="Times,serif" font-size="14.00" fill="#000000">6 (feature)</text>
</g>
<!-- 0&#45;&gt;6 -->
<g id="edge1" class="edge">
<title>0&#45;&gt;6</title>
<path fill="none" stroke="#000000" d="M240,-521.9735C240,-510.1918 240,-494.5607 240,-481.1581"/>
<polygon fill="#000000" stroke="#000000" points="243.5001,-481.0033 240,-471.0034 236.5001,-481.0034 243.5001,-481.0033"/>
<text text-anchor="middle" x="258.5" y="-492.8" font-family="Times,serif" font-size="14.00" fill="#000000">ROOT</text>
</g>
<!-- 4 -->
<g id="node6" class="node">
<title>4</title>
<text text-anchor="middle" x="108" y="-362.3" font-family="Times,serif" font-size="14.00" fill="#000000">4 (books)</text>
</g>
<!-- 6&#45;&gt;4 -->
<g id="edge5" class="edge">
<title>6&#45;&gt;4</title>
<path fill="none" stroke="#000000" d="M202.9735,-436.9956C191.1259,-431.2884 178.1885,-424.4183 167,-417 155.5137,-409.3843 143.8339,-399.7619 133.9304,-390.9326"/>
<polygon fill="#000000" stroke="#000000" points="136.1551,-388.2245 126.4065,-384.0752 131.4397,-393.3981 136.1551,-388.2245"/>
<text text-anchor="middle" x="182" y="-405.8" font-family="Times,serif" font-size="14.00" fill="#000000">nsubj</text>
</g>
<!-- 5 -->
<g id="node7" class="node">
<title>5</title>
<text text-anchor="middle" x="192" y="-362.3" font-family="Times,serif" font-size="14.00" fill="#000000">5 (often)</text>
</g>
<!-- 6&#45;&gt;5 -->
<g id="edge6" class="edge">
<title>6&#45;&gt;5</title>
<path fill="none" stroke="#000000" d="M220.4131,-434.8584C215.4855,-429.4955 210.585,-423.3494 207,-417 203.0246,-409.9591 200.0134,-401.7644 197.772,-394.0302"/>
<polygon fill="#000000" stroke="#000000" points="201.1396,-393.0725 195.2526,-384.2638 194.3615,-394.8211 201.1396,-393.0725"/>
<text text-anchor="middle" x="229.5" y="-405.8" font-family="Times,serif" font-size="14.00" fill="#000000">advmod</text>
</g>
<!-- 7 -->
<g id="node8" class="node">
<title>7</title>
<text text-anchor="middle" x="288" y="-362.3" font-family="Times,serif" font-size="14.00" fill="#000000">7 (characters)</text>
</g>
<!-- 6&#45;&gt;7 -->
<g id="edge7" class="edge">
<title>6&#45;&gt;7</title>
<path fill="none" stroke="#000000" d="M249.9456,-434.9735C256.639,-422.8418 265.5842,-406.6287 273.1201,-392.9698"/>
<polygon fill="#000000" stroke="#000000" points="276.3008,-394.4499 278.0671,-384.0034 270.1718,-391.0684 276.3008,-394.4499"/>
<text text-anchor="middle" x="279.5" y="-405.8" font-family="Times,serif" font-size="14.00" fill="#000000">dobj</text>
</g>
<!-- 23 -->
<g id="node9" class="node">
<title>23</title>
<text text-anchor="middle" x="379" y="-362.3" font-family="Times,serif" font-size="14.00" fill="#000000">23 (.)</text>
</g>
<!-- 6&#45;&gt;23 -->
<g id="edge8" class="edge">
<title>6&#45;&gt;23</title>
<path fill="none" stroke="#000000" d="M268.8009,-434.9735C290.3774,-421.4688 320.0343,-402.9066 343.1473,-388.4402"/>
<polygon fill="#000000" stroke="#000000" points="345.0351,-391.3877 351.6547,-383.1154 341.3212,-385.4541 345.0351,-391.3877"/>
<text text-anchor="middle" x="333.5" y="-405.8" font-family="Times,serif" font-size="14.00" fill="#000000">punct</text>
</g>
<!-- 1 -->
<g id="node3" class="node">
<title>1</title>
<text text-anchor="middle" x="27" y="-188.3" font-family="Times,serif" font-size="14.00" fill="#000000">1 (Dr.)</text>
</g>
<!-- 2 -->
<g id="node4" class="node">
<title>2</title>
<text text-anchor="middle" x="108" y="-275.3" font-family="Times,serif" font-size="14.00" fill="#000000">2 (Seuss)</text>
</g>
<!-- 2&#45;&gt;1 -->
<g id="edge2" class="edge">
<title>2&#45;&gt;1</title>
<path fill="none" stroke="#000000" d="M74.3233,-264.9184C64.1272,-259.3266 53.6237,-252.0387 46,-243 40.3698,-236.3247 36.3284,-227.8221 33.4625,-219.6816"/>
<polygon fill="#000000" stroke="#000000" points="36.7966,-218.6156 30.522,-210.0787 30.1034,-220.6652 36.7966,-218.6156"/>
<text text-anchor="middle" x="75" y="-231.8" font-family="Times,serif" font-size="14.00" fill="#000000">compound</text>
</g>
<!-- 3 -->
<g id="node5" class="node">
<title>3</title>
<text text-anchor="middle" x="108" y="-188.3" font-family="Times,serif" font-size="14.00" fill="#000000">3 (&#39;s)</text>
</g>
<!-- 2&#45;&gt;3 -->
<g id="edge3" class="edge">
<title>2&#45;&gt;3</title>
<path fill="none" stroke="#000000" d="M108,-260.9735C108,-249.1918 108,-233.5607 108,-220.1581"/>
<polygon fill="#000000" stroke="#000000" points="111.5001,-220.0033 108,-210.0034 104.5001,-220.0034 111.5001,-220.0033"/>
<text text-anchor="middle" x="120" y="-231.8" font-family="Times,serif" font-size="14.00" fill="#000000">case</text>
</g>
<!-- 4&#45;&gt;2 -->
<g id="edge4" class="edge">
<title>4&#45;&gt;2</title>
<path fill="none" stroke="#000000" d="M108,-347.9735C108,-336.1918 108,-320.5607 108,-307.1581"/>
<polygon fill="#000000" stroke="#000000" points="111.5001,-307.0033 108,-297.0034 104.5001,-307.0034 111.5001,-307.0033"/>
<text text-anchor="middle" x="138" y="-318.8" font-family="Times,serif" font-size="14.00" fill="#000000">nmod:poss</text>
</g>
<!-- 13 -->
<g id="node10" class="node">
<title>13</title>
<text text-anchor="middle" x="288" y="-275.3" font-family="Times,serif" font-size="14.00" fill="#000000">13 (prevent)</text>
</g>
<!-- 7&#45;&gt;13 -->
<g id="edge9" class="edge">
<title>7&#45;&gt;13</title>
<path fill="none" stroke="#000000" d="M288,-347.9735C288,-336.1918 288,-320.5607 288,-307.1581"/>
<polygon fill="#000000" stroke="#000000" points="291.5001,-307.0033 288,-297.0034 284.5001,-307.0034 291.5001,-307.0033"/>
<text text-anchor="middle" x="310" y="-318.8" font-family="Times,serif" font-size="14.00" fill="#000000">acl:relcl</text>
</g>
<!-- 12 -->
<g id="node15" class="node">
<title>12</title>
<text text-anchor="middle" x="194" y="-188.3" font-family="Times,serif" font-size="14.00" fill="#000000">12 (beliefs)</text>
</g>
<!-- 13&#45;&gt;12 -->
<g id="edge14" class="edge">
<title>13&#45;&gt;12</title>
<path fill="none" stroke="#000000" d="M268.5231,-260.9735C254.7851,-248.2586 236.2031,-231.0603 221.0312,-217.0183"/>
<polygon fill="#000000" stroke="#000000" points="223.1684,-214.2272 213.4519,-210.0034 218.4136,-219.3646 223.1684,-214.2272"/>
<text text-anchor="middle" x="262" y="-231.8" font-family="Times,serif" font-size="14.00" fill="#000000">nsubj</text>
</g>
<!-- 14 -->
<g id="node16" class="node">
<title>14</title>
<text text-anchor="middle" x="288" y="-188.3" font-family="Times,serif" font-size="14.00" fill="#000000">14 (them)</text>
</g>
<!-- 13&#45;&gt;14 -->
<g id="edge15" class="edge">
<title>13&#45;&gt;14</title>
<path fill="none" stroke="#000000" d="M288,-260.9735C288,-249.1918 288,-233.5607 288,-220.1581"/>
<polygon fill="#000000" stroke="#000000" points="291.5001,-220.0033 288,-210.0034 284.5001,-220.0034 291.5001,-220.0033"/>
<text text-anchor="middle" x="300.5" y="-231.8" font-family="Times,serif" font-size="14.00" fill="#000000">dobj</text>
</g>
<!-- 17 -->
<g id="node17" class="node">
<title>17</title>
<text text-anchor="middle" x="430" y="-188.3" font-family="Times,serif" font-size="14.00" fill="#000000">17 (happy)</text>
</g>
<!-- 13&#45;&gt;17 -->
<g id="edge16" class="edge">
<title>13&#45;&gt;17</title>
<path fill="none" stroke="#000000" d="M317.4225,-260.9735C339.0325,-247.7336 368.5767,-229.6326 391.977,-215.2958"/>
<polygon fill="#000000" stroke="#000000" points="393.9168,-218.212 400.6152,-210.0034 390.2598,-212.2432 393.9168,-218.212"/>
<text text-anchor="middle" x="383" y="-231.8" font-family="Times,serif" font-size="14.00" fill="#000000">advcl</text>
</g>
<!-- 8 -->
<g id="node11" class="node">
<title>8</title>
<text text-anchor="middle" x="89" y="-101.3" font-family="Times,serif" font-size="14.00" fill="#000000">8 (whose)</text>
</g>
<!-- 9 -->
<g id="node12" class="node">
<title>9</title>
<text text-anchor="middle" x="194" y="-101.3" font-family="Times,serif" font-size="14.00" fill="#000000">9 (unexamined)</text>
</g>
<!-- 10 -->
<g id="node13" class="node">
<title>10</title>
<text text-anchor="middle" x="152" y="-14.3" font-family="Times,serif" font-size="14.00" fill="#000000">10 (and)</text>
</g>
<!-- 9&#45;&gt;10 -->
<g id="edge10" class="edge">
<title>9&#45;&gt;10</title>
<path fill="none" stroke="#000000" d="M185.2976,-86.9735C179.4972,-74.9585 171.7642,-58.9401 165.2105,-45.3646"/>
<polygon fill="#000000" stroke="#000000" points="168.1908,-43.4872 160.6913,-36.0034 161.8869,-46.5305 168.1908,-43.4872"/>
<text text-anchor="middle" x="182.5" y="-57.8" font-family="Times,serif" font-size="14.00" fill="#000000">cc</text>
</g>
<!-- 11 -->
<g id="node14" class="node">
<title>11</title>
<text text-anchor="middle" x="235" y="-14.3" font-family="Times,serif" font-size="14.00" fill="#000000">11 (false)</text>
</g>
<!-- 9&#45;&gt;11 -->
<g id="edge11" class="edge">
<title>9&#45;&gt;11</title>
<path fill="none" stroke="#000000" d="M202.4952,-86.9735C208.1575,-74.9585 215.7064,-58.9401 222.1041,-45.3646"/>
<polygon fill="#000000" stroke="#000000" points="225.4187,-46.5413 226.5157,-36.0034 219.0866,-43.5571 225.4187,-46.5413"/>
<text text-anchor="middle" x="229" y="-57.8" font-family="Times,serif" font-size="14.00" fill="#000000">conj</text>
</g>
<!-- 12&#45;&gt;8 -->
<g id="edge12" class="edge">
<title>12&#45;&gt;8</title>
<path fill="none" stroke="#000000" d="M156.2108,-173.8908C147.1775,-168.7316 137.8777,-162.6762 130,-156 121.6798,-148.9488 113.8342,-140.0142 107.2771,-131.6002"/>
<polygon fill="#000000" stroke="#000000" points="109.9723,-129.36 101.1798,-123.4488 104.367,-133.5529 109.9723,-129.36"/>
<text text-anchor="middle" x="160" y="-144.8" font-family="Times,serif" font-size="14.00" fill="#000000">nmod:poss</text>
</g>
<!-- 12&#45;&gt;9 -->
<g id="edge13" class="edge">
<title>12&#45;&gt;9</title>
<path fill="none" stroke="#000000" d="M194,-173.9735C194,-162.1918 194,-146.5607 194,-133.1581"/>
<polygon fill="#000000" stroke="#000000" points="197.5001,-133.0033 194,-123.0034 190.5001,-133.0034 197.5001,-133.0033"/>
<text text-anchor="middle" x="209.5" y="-144.8" font-family="Times,serif" font-size="14.00" fill="#000000">amod</text>
</g>
<!-- 15 -->
<g id="node18" class="node">
<title>15</title>
<text text-anchor="middle" x="299" y="-101.3" font-family="Times,serif" font-size="14.00" fill="#000000">15 (from)</text>
</g>
<!-- 17&#45;&gt;15 -->
<g id="edge17" class="edge">
<title>17&#45;&gt;15</title>
<path fill="none" stroke="#000000" d="M402.2615,-173.9324C393.5243,-168.2176 383.8467,-161.8633 375,-156 361.6557,-147.1558 347.0435,-137.3738 334.2283,-128.762"/>
<polygon fill="#000000" stroke="#000000" points="335.932,-125.6899 325.6809,-123.0128 332.0251,-131.4982 335.932,-125.6899"/>
<text text-anchor="middle" x="389.5" y="-144.8" font-family="Times,serif" font-size="14.00" fill="#000000">mark</text>
</g>
<!-- 16 -->
<g id="node19" class="node">
<title>16</title>
<text text-anchor="middle" x="389" y="-101.3" font-family="Times,serif" font-size="14.00" fill="#000000">16 (being)</text>
</g>
<!-- 17&#45;&gt;16 -->
<g id="edge18" class="edge">
<title>17&#45;&gt;16</title>
<path fill="none" stroke="#000000" d="M421.5048,-173.9735C415.8425,-161.9585 408.2936,-145.9401 401.8959,-132.3646"/>
<polygon fill="#000000" stroke="#000000" points="404.9134,-130.5571 397.4843,-123.0034 398.5813,-133.5413 404.9134,-130.5571"/>
<text text-anchor="middle" x="422" y="-144.8" font-family="Times,serif" font-size="14.00" fill="#000000">cop</text>
</g>
<!-- 18 -->
<g id="node20" class="node">
<title>18</title>
<text text-anchor="middle" x="471" y="-101.3" font-family="Times,serif" font-size="14.00" fill="#000000">18 (or)</text>
</g>
<!-- 17&#45;&gt;18 -->
<g id="edge19" class="edge">
<title>17&#45;&gt;18</title>
<path fill="none" stroke="#000000" d="M438.4952,-173.9735C444.1575,-161.9585 451.7064,-145.9401 458.1041,-132.3646"/>
<polygon fill="#000000" stroke="#000000" points="461.4187,-133.5413 462.5157,-123.0034 455.0866,-130.5571 461.4187,-133.5413"/>
<text text-anchor="middle" x="459.5" y="-144.8" font-family="Times,serif" font-size="14.00" fill="#000000">cc</text>
</g>
<!-- 19 -->
<g id="node21" class="node">
<title>19</title>
<text text-anchor="middle" x="560" y="-101.3" font-family="Times,serif" font-size="14.00" fill="#000000">19 (satisfied)</text>
</g>
<!-- 17&#45;&gt;19 -->
<g id="edge20" class="edge">
<title>17&#45;&gt;19</title>
<path fill="none" stroke="#000000" d="M456.9361,-173.9735C476.5455,-160.8503 503.2913,-142.9512 524.6226,-128.6756"/>
<polygon fill="#000000" stroke="#000000" points="526.7344,-131.4739 533.0984,-123.0034 522.8411,-125.6564 526.7344,-131.4739"/>
<text text-anchor="middle" x="515" y="-144.8" font-family="Times,serif" font-size="14.00" fill="#000000">conj</text>
</g>
<!-- 22 -->
<g id="node22" class="node">
<title>22</title>
<text text-anchor="middle" x="656" y="-101.3" font-family="Times,serif" font-size="14.00" fill="#000000">22 (lives)</text>
</g>
<!-- 17&#45;&gt;22 -->
<g id="edge21" class="edge">
<title>17&#45;&gt;22</title>
<path fill="none" stroke="#000000" d="M468.0216,-178.8539C487.007,-172.1867 510.2874,-163.8555 531,-156 565.0057,-143.1029 575.1798,-138.5884 612.2816,-123.2856"/>
<polygon fill="#000000" stroke="#000000" points="613.8357,-126.4309 621.7502,-119.3873 611.1707,-119.958 613.8357,-126.4309"/>
<text text-anchor="middle" x="584" y="-144.8" font-family="Times,serif" font-size="14.00" fill="#000000">nmod</text>
</g>
<!-- 20 -->
<g id="node23" class="node">
<title>20</title>
<text text-anchor="middle" x="613" y="-14.3" font-family="Times,serif" font-size="14.00" fill="#000000">20 (with)</text>
</g>
<!-- 22&#45;&gt;20 -->
<g id="edge22" class="edge">
<title>22&#45;&gt;20</title>
<path fill="none" stroke="#000000" d="M647.0904,-86.9735C641.0942,-74.8418 633.0808,-58.6287 626.3299,-44.9698"/>
<polygon fill="#000000" stroke="#000000" points="629.4668,-43.4173 621.8982,-36.0034 623.1915,-46.519 629.4668,-43.4173"/>
<text text-anchor="middle" x="649" y="-57.8" font-family="Times,serif" font-size="14.00" fill="#000000">case</text>
</g>
<!-- 21 -->
<g id="node24" class="node">
<title>21</title>
<text text-anchor="middle" x="699" y="-14.3" font-family="Times,serif" font-size="14.00" fill="#000000">21 (their)</text>
</g>
<!-- 22&#45;&gt;21 -->
<g id="edge23" class="edge">
<title>22&#45;&gt;21</title>
<path fill="none" stroke="#000000" d="M664.9096,-86.9735C670.9058,-74.8418 678.9192,-58.6287 685.6701,-44.9698"/>
<polygon fill="#000000" stroke="#000000" points="688.8085,-46.519 690.1018,-36.0034 682.5332,-43.4173 688.8085,-46.519"/>
<text text-anchor="middle" x="710" y="-57.8" font-family="Times,serif" font-size="14.00" fill="#000000">nmod:poss</text>
</g>
</g>
</svg>
