<?xml version="1.0" encoding="UTF-8" standalone="no"?>
<!DOCTYPE svg PUBLIC "-//W3C//DTD SVG 1.1//EN"
 "http://www.w3.org/Graphics/SVG/1.1/DTD/svg11.dtd">
<!-- Generated by graphviz version 2.40.1 (20161225.0304)
 -->
<!-- Title: G Pages: 1 -->
<svg width="368pt" height="392pt"
 viewBox="0.00 0.00 367.50 392.00" xmlns="http://www.w3.org/2000/svg" xmlns:xlink="http://www.w3.org/1999/xlink">
<g id="graph0" class="graph" transform="scale(1 1) rotate(0) translate(4 388)">
<title>G</title>
<polygon fill="#ffffff" stroke="transparent" points="-4,4 -4,-388 363.5,-388 363.5,4 -4,4"/>
<!-- 0 -->
<g id="node1" class="node">
<title>0</title>
<text text-anchor="middle" x="176.5" y="-362.3" font-family="Times,serif" font-size="14.00" fill="#000000">0 (None)</text>
</g>
<!-- 4 -->
<g id="node2" class="node">
<title>4</title>
<text text-anchor="middle" x="176.5" y="-275.3" font-family="Times,serif" font-size="14.00" fill="#000000">4 (monkey)</text>
</g>
<!-- 0&#45;&gt;4 -->
<g id="edge1" class="edge">
<title>0&#45;&gt;4</title>
<path fill="none" stroke="#000000" d="M176.5,-347.9735C176.5,-336.1918 176.5,-320.5607 176.5,-307.1581"/>
<polygon fill="#000000" stroke="#000000" points="180.0001,-307.0033 176.5,-297.0034 173.0001,-307.0034 180.0001,-307.0033"/>
<text text-anchor="middle" x="195" y="-318.8" font-family="Times,serif" font-size="14.00" fill="#000000">ROOT</text>
</g>
<!-- 1 -->
<g id="node3" class="node">
<title>1</title>
<text text-anchor="middle" x="29.5" y="-188.3" font-family="Times,serif" font-size="14.00" fill="#000000">1 (Carl)</text>
</g>
<!-- 4&#45;&gt;1 -->
<g id="edge2" class="edge">
<title>4&#45;&gt;1</title>
<path fill="none" stroke="#000000" d="M136.3412,-260.8807C125.1952,-255.4723 113.2162,-249.2974 102.5,-243 88.7461,-234.9175 74.2196,-225.0647 61.7779,-216.1819"/>
<polygon fill="#000000" stroke="#000000" points="63.6873,-213.2434 53.5327,-210.221 59.5861,-218.9162 63.6873,-213.2434"/>
<text text-anchor="middle" x="117.5" y="-231.8" font-family="Times,serif" font-size="14.00" fill="#000000">nsubj</text>
</g>
<!-- 2 -->
<g id="node4" class="node">
<title>2</title>
<text text-anchor="middle" x="104.5" y="-188.3" font-family="Times,serif" font-size="14.00" fill="#000000">2 (is)</text>
</g>
<!-- 4&#45;&gt;2 -->
<g id="edge3" class="edge">
<title>4&#45;&gt;2</title>
<path fill="none" stroke="#000000" d="M161.5816,-260.9735C151.2519,-248.4919 137.3468,-231.6899 125.8471,-217.7944"/>
<polygon fill="#000000" stroke="#000000" points="128.4714,-215.4758 119.3993,-210.0034 123.0787,-219.9388 128.4714,-215.4758"/>
<text text-anchor="middle" x="155.5" y="-231.8" font-family="Times,serif" font-size="14.00" fill="#000000">cop</text>
</g>
<!-- 3 -->
<g id="node5" class="node">
<title>3</title>
<text text-anchor="middle" x="176.5" y="-188.3" font-family="Times,serif" font-size="14.00" fill="#000000">3 (a)</text>
</g>
<!-- 4&#45;&gt;3 -->
<g id="edge4" class="edge">
<title>4&#45;&gt;3</title>
<path fill="none" stroke="#000000" d="M176.5,-260.9735C176.5,-249.1918 176.5,-233.5607 176.5,-220.1581"/>
<polygon fill="#000000" stroke="#000000" points="180.0001,-220.0033 176.5,-210.0034 173.0001,-220.0034 180.0001,-220.0033"/>
<text text-anchor="middle" x="185" y="-231.8" font-family="Times,serif" font-size="14.00" fill="#000000">det</text>
</g>
<!-- 5 -->
<g id="node6" class="node">
<title>5</title>
<text text-anchor="middle" x="249.5" y="-188.3" font-family="Times,serif" font-size="14.00" fill="#000000">5 (and)</text>
</g>
<!-- 4&#45;&gt;5 -->
<g id="edge5" class="edge">
<title>4&#45;&gt;5</title>
<path fill="none" stroke="#000000" d="M191.6256,-260.9735C202.0988,-248.4919 216.197,-231.6899 227.8565,-217.7944"/>
<polygon fill="#000000" stroke="#000000" points="230.6471,-219.9136 234.3937,-210.0034 225.2847,-215.4142 230.6471,-219.9136"/>
<text text-anchor="middle" x="223" y="-231.8" font-family="Times,serif" font-size="14.00" fill="#000000">cc</text>
</g>
<!-- 6 -->
<g id="node7" class="node">
<title>6</title>
<text text-anchor="middle" x="322.5" y="-188.3" font-family="Times,serif" font-size="14.00" fill="#000000">6 (has)</text>
</g>
<!-- 4&#45;&gt;6 -->
<g id="edge6" class="edge">
<title>4&#45;&gt;6</title>
<path fill="none" stroke="#000000" d="M206.7513,-260.9735C229.9605,-247.1434 262.0711,-228.009 286.5848,-213.4015"/>
<polygon fill="#000000" stroke="#000000" points="288.443,-216.3686 295.2419,-208.2429 284.8597,-210.3552 288.443,-216.3686"/>
<text text-anchor="middle" x="269.5" y="-231.8" font-family="Times,serif" font-size="14.00" fill="#000000">conj</text>
</g>
<!-- 8 -->
<g id="node8" class="node">
<title>8</title>
<text text-anchor="middle" x="322.5" y="-101.3" font-family="Times,serif" font-size="14.00" fill="#000000">8 (banana)</text>
</g>
<!-- 6&#45;&gt;8 -->
<g id="edge7" class="edge">
<title>6&#45;&gt;8</title>
<path fill="none" stroke="#000000" d="M322.5,-173.9735C322.5,-162.1918 322.5,-146.5607 322.5,-133.1581"/>
<polygon fill="#000000" stroke="#000000" points="326.0001,-133.0033 322.5,-123.0034 319.0001,-133.0034 326.0001,-133.0033"/>
<text text-anchor="middle" x="335" y="-144.8" font-family="Times,serif" font-size="14.00" fill="#000000">dobj</text>
</g>
<!-- 7 -->
<g id="node9" class="node">
<title>7</title>
<text text-anchor="middle" x="322.5" y="-14.3" font-family="Times,serif" font-size="14.00" fill="#000000">7 (a)</text>
</g>
<!-- 8&#45;&gt;7 -->
<g id="edge8" class="edge">
<title>8&#45;&gt;7</title>
<path fill="none" stroke="#000000" d="M322.5,-86.9735C322.5,-75.1918 322.5,-59.5607 322.5,-46.1581"/>
<polygon fill="#000000" stroke="#000000" points="326.0001,-46.0033 322.5,-36.0034 319.0001,-46.0034 326.0001,-46.0033"/>
<text text-anchor="middle" x="331" y="-57.8" font-family="Times,serif" font-size="14.00" fill="#000000">det</text>
</g>
</g>
</svg>
