<?xml version="1.0" encoding="UTF-8" standalone="no"?>
<!DOCTYPE svg PUBLIC "-//W3C//DTD SVG 1.1//EN"
 "http://www.w3.org/Graphics/SVG/1.1/DTD/svg11.dtd">
<!-- Generated by graphviz version 2.40.1 (20161225.0304)
 -->
<!-- Title: G Pages: 1 -->
<svg width="254pt" height="305pt"
 viewBox="0.00 0.00 253.50 305.00" xmlns="http://www.w3.org/2000/svg" xmlns:xlink="http://www.w3.org/1999/xlink">
<g id="graph0" class="graph" transform="scale(1 1) rotate(0) translate(4 301)">
<title>G</title>
<polygon fill="#ffffff" stroke="transparent" points="-4,4 -4,-301 249.5,-301 249.5,4 -4,4"/>
<!-- 0 -->
<g id="node1" class="node">
<title>0</title>
<text text-anchor="middle" x="139" y="-275.3" font-family="Times,serif" font-size="14.00" fill="#000000">0 (None)</text>
</g>
<!-- 3 -->
<g id="node2" class="node">
<title>3</title>
<text text-anchor="middle" x="139" y="-188.3" font-family="Times,serif" font-size="14.00" fill="#000000">3 (lost)</text>
</g>
<!-- 0&#45;&gt;3 -->
<g id="edge1" class="edge">
<title>0&#45;&gt;3</title>
<path fill="none" stroke="#000000" d="M139,-260.9735C139,-249.1918 139,-233.5607 139,-220.1581"/>
<polygon fill="#000000" stroke="#000000" points="142.5001,-220.0033 139,-210.0034 135.5001,-220.0034 142.5001,-220.0033"/>
<text text-anchor="middle" x="157.5" y="-231.8" font-family="Times,serif" font-size="14.00" fill="#000000">ROOT</text>
</g>
<!-- 1 -->
<g id="node3" class="node">
<title>1</title>
<text text-anchor="middle" x="47" y="-101.3" font-family="Times,serif" font-size="14.00" fill="#000000">1 (Caterpillar)</text>
</g>
<!-- 3&#45;&gt;1 -->
<g id="edge2" class="edge">
<title>3&#45;&gt;1</title>
<path fill="none" stroke="#000000" d="M119.9375,-173.9735C106.4918,-161.2586 88.3051,-144.0603 73.4561,-130.0183"/>
<polygon fill="#000000" stroke="#000000" points="75.7086,-127.3312 66.038,-123.0034 70.899,-132.4173 75.7086,-127.3312"/>
<text text-anchor="middle" x="114" y="-144.8" font-family="Times,serif" font-size="14.00" fill="#000000">nsubj</text>
</g>
<!-- 2 -->
<g id="node4" class="node">
<title>2</title>
<text text-anchor="middle" x="139" y="-101.3" font-family="Times,serif" font-size="14.00" fill="#000000">2 (has)</text>
</g>
<!-- 3&#45;&gt;2 -->
<g id="edge3" class="edge">
<title>3&#45;&gt;2</title>
<path fill="none" stroke="#000000" d="M139,-173.9735C139,-162.1918 139,-146.5607 139,-133.1581"/>
<polygon fill="#000000" stroke="#000000" points="142.5001,-133.0033 139,-123.0034 135.5001,-133.0034 142.5001,-133.0033"/>
<text text-anchor="middle" x="149" y="-144.8" font-family="Times,serif" font-size="14.00" fill="#000000">aux</text>
</g>
<!-- 5 -->
<g id="node5" class="node">
<title>5</title>
<text text-anchor="middle" x="215" y="-101.3" font-family="Times,serif" font-size="14.00" fill="#000000">5 (shoe)</text>
</g>
<!-- 3&#45;&gt;5 -->
<g id="edge4" class="edge">
<title>3&#45;&gt;5</title>
<path fill="none" stroke="#000000" d="M154.7472,-173.9735C165.6508,-161.4919 180.3284,-144.6899 192.467,-130.7944"/>
<polygon fill="#000000" stroke="#000000" points="195.3299,-132.8371 199.2729,-123.0034 190.0581,-128.2319 195.3299,-132.8371"/>
<text text-anchor="middle" x="193.5" y="-144.8" font-family="Times,serif" font-size="14.00" fill="#000000">dobj</text>
</g>
<!-- 4 -->
<g id="node6" class="node">
<title>4</title>
<text text-anchor="middle" x="215" y="-14.3" font-family="Times,serif" font-size="14.00" fill="#000000">4 (a)</text>
</g>
<!-- 5&#45;&gt;4 -->
<g id="edge5" class="edge">
<title>5&#45;&gt;4</title>
<path fill="none" stroke="#000000" d="M215,-86.9735C215,-75.1918 215,-59.5607 215,-46.1581"/>
<polygon fill="#000000" stroke="#000000" points="218.5001,-46.0033 215,-36.0034 211.5001,-46.0034 218.5001,-46.0033"/>
<text text-anchor="middle" x="223.5" y="-57.8" font-family="Times,serif" font-size="14.00" fill="#000000">det</text>
</g>
</g>
</svg>
