<?xml version="1.0" encoding="UTF-8" standalone="no"?>
<!DOCTYPE svg PUBLIC "-//W3C//DTD SVG 1.1//EN"
 "http://www.w3.org/Graphics/SVG/1.1/DTD/svg11.dtd">
<!-- Generated by graphviz version 2.40.1 (20161225.0304)
 -->
<!-- Title: G Pages: 1 -->
<svg width="206pt" height="305pt"
 viewBox="0.00 0.00 205.50 305.00" xmlns="http://www.w3.org/2000/svg" xmlns:xlink="http://www.w3.org/1999/xlink">
<g id="graph0" class="graph" transform="scale(1 1) rotate(0) translate(4 301)">
<title>G</title>
<polygon fill="#ffffff" stroke="transparent" points="-4,4 -4,-301 201.5,-301 201.5,4 -4,4"/>
<!-- 0 -->
<g id="node1" class="node">
<title>0</title>
<text text-anchor="middle" x="58" y="-275.3" font-family="Times,serif" font-size="14.00" fill="#000000">0 (None)</text>
</g>
<!-- 2 -->
<g id="node2" class="node">
<title>2</title>
<text text-anchor="middle" x="58" y="-188.3" font-family="Times,serif" font-size="14.00" fill="#000000">2 (make)</text>
</g>
<!-- 0&#45;&gt;2 -->
<g id="edge1" class="edge">
<title>0&#45;&gt;2</title>
<path fill="none" stroke="#000000" d="M58,-260.9735C58,-249.1918 58,-233.5607 58,-220.1581"/>
<polygon fill="#000000" stroke="#000000" points="61.5001,-220.0033 58,-210.0034 54.5001,-220.0034 61.5001,-220.0033"/>
<text text-anchor="middle" x="76.5" y="-231.8" font-family="Times,serif" font-size="14.00" fill="#000000">ROOT</text>
</g>
<!-- 1 -->
<g id="node3" class="node">
<title>1</title>
<text text-anchor="middle" x="32" y="-101.3" font-family="Times,serif" font-size="14.00" fill="#000000">1 (They)</text>
</g>
<!-- 2&#45;&gt;1 -->
<g id="edge2" class="edge">
<title>2&#45;&gt;1</title>
<path fill="none" stroke="#000000" d="M52.6128,-173.9735C49.0569,-162.0751 44.3278,-146.2508 40.2963,-132.7606"/>
<polygon fill="#000000" stroke="#000000" points="43.5972,-131.5825 37.3803,-123.0034 36.8903,-133.5869 43.5972,-131.5825"/>
<text text-anchor="middle" x="62" y="-144.8" font-family="Times,serif" font-size="14.00" fill="#000000">nsubj</text>
</g>
<!-- 5 -->
<g id="node4" class="node">
<title>5</title>
<text text-anchor="middle" x="116" y="-101.3" font-family="Times,serif" font-size="14.00" fill="#000000">5 (sound)</text>
</g>
<!-- 2&#45;&gt;5 -->
<g id="edge3" class="edge">
<title>2&#45;&gt;5</title>
<path fill="none" stroke="#000000" d="M70.0176,-173.9735C78.1832,-161.7252 89.1223,-145.3165 98.2823,-131.5766"/>
<polygon fill="#000000" stroke="#000000" points="101.3629,-133.2653 103.9978,-123.0034 95.5385,-129.3824 101.3629,-133.2653"/>
<text text-anchor="middle" x="103.5" y="-144.8" font-family="Times,serif" font-size="14.00" fill="#000000">dobj</text>
</g>
<!-- 3 -->
<g id="node5" class="node">
<title>3</title>
<text text-anchor="middle" x="73" y="-14.3" font-family="Times,serif" font-size="14.00" fill="#000000">3 (a)</text>
</g>
<!-- 5&#45;&gt;3 -->
<g id="edge4" class="edge">
<title>5&#45;&gt;3</title>
<path fill="none" stroke="#000000" d="M107.0904,-86.9735C101.0942,-74.8418 93.0808,-58.6287 86.3299,-44.9698"/>
<polygon fill="#000000" stroke="#000000" points="89.4668,-43.4173 81.8982,-36.0034 83.1915,-46.519 89.4668,-43.4173"/>
<text text-anchor="middle" x="106.5" y="-57.8" font-family="Times,serif" font-size="14.00" fill="#000000">det</text>
</g>
<!-- 4 -->
<g id="node6" class="node">
<title>4</title>
<text text-anchor="middle" x="158" y="-14.3" font-family="Times,serif" font-size="14.00" fill="#000000">4 (trumpet)</text>
</g>
<!-- 5&#45;&gt;4 -->
<g id="edge5" class="edge">
<title>5&#45;&gt;4</title>
<path fill="none" stroke="#000000" d="M124.7024,-86.9735C130.5028,-74.9585 138.2358,-58.9401 144.7895,-45.3646"/>
<polygon fill="#000000" stroke="#000000" points="148.1131,-46.5305 149.3087,-36.0034 141.8092,-43.4872 148.1131,-46.5305"/>
<text text-anchor="middle" x="168" y="-57.8" font-family="Times,serif" font-size="14.00" fill="#000000">compound</text>
</g>
</g>
</svg>
