<?xml version="1.0" encoding="UTF-8" standalone="no"?>
<!DOCTYPE svg PUBLIC "-//W3C//DTD SVG 1.1//EN"
 "http://www.w3.org/Graphics/SVG/1.1/DTD/svg11.dtd">
<!-- Generated by graphviz version 2.40.1 (20161225.0304)
 -->
<!-- Title: G Pages: 1 -->
<svg width="867pt" height="566pt"
 viewBox="0.00 0.00 866.50 566.00" xmlns="http://www.w3.org/2000/svg" xmlns:xlink="http://www.w3.org/1999/xlink">
<g id="graph0" class="graph" transform="scale(1 1) rotate(0) translate(4 562)">
<title>G</title>
<polygon fill="#ffffff" stroke="transparent" points="-4,4 -4,-562 862.5,-562 862.5,4 -4,4"/>
<!-- 0 -->
<g id="node1" class="node">
<title>0</title>
<text text-anchor="middle" x="396.5" y="-536.3" font-family="Times,serif" font-size="14.00" fill="#000000">0 (None)</text>
</g>
<!-- 5 -->
<g id="node2" class="node">
<title>5</title>
<text text-anchor="middle" x="396.5" y="-449.3" font-family="Times,serif" font-size="14.00" fill="#000000">5 (animals)</text>
</g>
<!-- 0&#45;&gt;5 -->
<g id="edge1" class="edge">
<title>0&#45;&gt;5</title>
<path fill="none" stroke="#000000" d="M396.5,-521.9735C396.5,-510.1918 396.5,-494.5607 396.5,-481.1581"/>
<polygon fill="#000000" stroke="#000000" points="400.0001,-481.0033 396.5,-471.0034 393.0001,-481.0034 400.0001,-481.0033"/>
<text text-anchor="middle" x="415" y="-492.8" font-family="Times,serif" font-size="14.00" fill="#000000">ROOT</text>
</g>
<!-- 1 -->
<g id="node3" class="node">
<title>1</title>
<text text-anchor="middle" x="44.5" y="-362.3" font-family="Times,serif" font-size="14.00" fill="#000000">1 (Elephants)</text>
</g>
<!-- 5&#45;&gt;1 -->
<g id="edge3" class="edge">
<title>5&#45;&gt;1</title>
<path fill="none" stroke="#000000" d="M356.8447,-449.0785C312.197,-444.0805 237.7547,-433.9863 175.5,-417 147.8548,-409.4569 118.0115,-398.1048 93.8018,-388.0244"/>
<polygon fill="#000000" stroke="#000000" points="95.0509,-384.7527 84.4769,-384.0892 92.3292,-391.202 95.0509,-384.7527"/>
<text text-anchor="middle" x="190.5" y="-405.8" font-family="Times,serif" font-size="14.00" fill="#000000">nsubj</text>
</g>
<!-- 2 -->
<g id="node4" class="node">
<title>2</title>
<text text-anchor="middle" x="134.5" y="-362.3" font-family="Times,serif" font-size="14.00" fill="#000000">2 (are)</text>
</g>
<!-- 5&#45;&gt;2 -->
<g id="edge4" class="edge">
<title>5&#45;&gt;2</title>
<path fill="none" stroke="#000000" d="M356.844,-445.5873C326.0646,-439.3467 282.5409,-429.4509 245.5,-417 213.6775,-406.3032 204.8024,-400.4402 170.7785,-384.097"/>
<polygon fill="#000000" stroke="#000000" points="172.0907,-380.8454 161.5572,-379.7069 169.0817,-387.1657 172.0907,-380.8454"/>
<text text-anchor="middle" x="255.5" y="-405.8" font-family="Times,serif" font-size="14.00" fill="#000000">cop</text>
</g>
<!-- 4 -->
<g id="node6" class="node">
<title>4</title>
<text text-anchor="middle" x="206.5" y="-362.3" font-family="Times,serif" font-size="14.00" fill="#000000">4 (big)</text>
</g>
<!-- 5&#45;&gt;4 -->
<g id="edge5" class="edge">
<title>5&#45;&gt;4</title>
<path fill="none" stroke="#000000" d="M356.9408,-440.4915C338.3064,-434.1626 315.9507,-425.9335 296.5,-417 278.1856,-408.5884 258.6337,-397.7514 242.4484,-388.2318"/>
<polygon fill="#000000" stroke="#000000" points="244.2152,-385.2103 233.8322,-383.1024 240.6344,-391.2252 244.2152,-385.2103"/>
<text text-anchor="middle" x="312" y="-405.8" font-family="Times,serif" font-size="14.00" fill="#000000">amod</text>
</g>
<!-- 6 -->
<g id="node7" class="node">
<title>6</title>
<text text-anchor="middle" x="279.5" y="-362.3" font-family="Times,serif" font-size="14.00" fill="#000000">6 (and)</text>
</g>
<!-- 5&#45;&gt;6 -->
<g id="edge6" class="edge">
<title>5&#45;&gt;6</title>
<path fill="none" stroke="#000000" d="M372.2575,-434.9735C354.7659,-421.9669 330.9652,-404.269 311.8527,-390.0571"/>
<polygon fill="#000000" stroke="#000000" points="313.8245,-387.1618 303.7114,-384.0034 309.6476,-392.7791 313.8245,-387.1618"/>
<text text-anchor="middle" x="352" y="-405.8" font-family="Times,serif" font-size="14.00" fill="#000000">cc</text>
</g>
<!-- 11 -->
<g id="node8" class="node">
<title>11</title>
<text text-anchor="middle" x="356.5" y="-362.3" font-family="Times,serif" font-size="14.00" fill="#000000">11 (and)</text>
</g>
<!-- 5&#45;&gt;11 -->
<g id="edge7" class="edge">
<title>5&#45;&gt;11</title>
<path fill="none" stroke="#000000" d="M388.212,-434.9735C382.6878,-422.9585 375.323,-406.9401 369.0814,-393.3646"/>
<polygon fill="#000000" stroke="#000000" points="372.1348,-391.627 364.7774,-384.0034 365.7748,-394.5512 372.1348,-391.627"/>
<text text-anchor="middle" x="386" y="-405.8" font-family="Times,serif" font-size="14.00" fill="#000000">cc</text>
</g>
<!-- 7 -->
<g id="node9" class="node">
<title>7</title>
<text text-anchor="middle" x="436.5" y="-362.3" font-family="Times,serif" font-size="14.00" fill="#000000">7 (have)</text>
</g>
<!-- 5&#45;&gt;7 -->
<g id="edge8" class="edge">
<title>5&#45;&gt;7</title>
<path fill="none" stroke="#000000" d="M404.788,-434.9735C410.3122,-422.9585 417.677,-406.9401 423.9186,-393.3646"/>
<polygon fill="#000000" stroke="#000000" points="427.2252,-394.5512 428.2226,-384.0034 420.8652,-391.627 427.2252,-394.5512"/>
<text text-anchor="middle" x="431.5" y="-405.8" font-family="Times,serif" font-size="14.00" fill="#000000">conj</text>
</g>
<!-- 13 -->
<g id="node10" class="node">
<title>13</title>
<text text-anchor="middle" x="519.5" y="-362.3" font-family="Times,serif" font-size="14.00" fill="#000000">13 (have)</text>
</g>
<!-- 5&#45;&gt;13 -->
<g id="edge9" class="edge">
<title>5&#45;&gt;13</title>
<path fill="none" stroke="#000000" d="M422.1892,-434.8787C430.2895,-429.1615 439.2704,-422.8192 447.5,-417 459.8792,-408.2466 473.4488,-398.6382 485.4377,-390.1446"/>
<polygon fill="#000000" stroke="#000000" points="487.7127,-392.8222 493.8486,-384.185 483.6657,-387.1106 487.7127,-392.8222"/>
<text text-anchor="middle" x="479.5" y="-405.8" font-family="Times,serif" font-size="14.00" fill="#000000">conj</text>
</g>
<!-- 21 -->
<g id="node11" class="node">
<title>21</title>
<text text-anchor="middle" x="598.5" y="-362.3" font-family="Times,serif" font-size="14.00" fill="#000000">21 (.)</text>
</g>
<!-- 5&#45;&gt;21 -->
<g id="edge10" class="edge">
<title>5&#45;&gt;21</title>
<path fill="none" stroke="#000000" d="M436.3877,-439.6097C454.5935,-433.2144 476.323,-425.1807 495.5,-417 523.408,-405.0948 531.433,-399.7105 562.0973,-384.229"/>
<polygon fill="#000000" stroke="#000000" points="564.0067,-387.1872 571.3819,-379.5808 560.873,-380.9278 564.0067,-387.1872"/>
<text text-anchor="middle" x="543" y="-405.8" font-family="Times,serif" font-size="14.00" fill="#000000">punct</text>
</g>
<!-- 27 -->
<g id="node12" class="node">
<title>27</title>
<text text-anchor="middle" x="670.5" y="-362.3" font-family="Times,serif" font-size="14.00" fill="#000000">27 (.)</text>
</g>
<!-- 5&#45;&gt;27 -->
<g id="edge11" class="edge">
<title>5&#45;&gt;27</title>
<path fill="none" stroke="#000000" d="M436.0492,-446.9041C470.0918,-441.0729 520.2549,-431.0775 562.5,-417 593.1561,-406.7843 601.4494,-400.3302 634.0625,-384.2215"/>
<polygon fill="#000000" stroke="#000000" points="635.9644,-387.1883 643.4215,-379.6621 632.8987,-380.8953 635.9644,-387.1883"/>
<text text-anchor="middle" x="615" y="-405.8" font-family="Times,serif" font-size="14.00" fill="#000000">punct</text>
</g>
<!-- 23 -->
<g id="node13" class="node">
<title>23</title>
<text text-anchor="middle" x="752.5" y="-362.3" font-family="Times,serif" font-size="14.00" fill="#000000">23 (make)</text>
</g>
<!-- 5&#45;&gt;23 -->
<g id="edge12" class="edge">
<title>5&#45;&gt;23</title>
<path fill="none" stroke="#000000" d="M436.3321,-450.1295C484.1473,-445.9663 566.4067,-436.5097 634.5,-417 659.543,-409.8248 686.2811,-398.5899 707.962,-388.4891"/>
<polygon fill="#000000" stroke="#000000" points="709.6948,-391.5411 717.233,-384.0962 706.6975,-385.2153 709.6948,-391.5411"/>
<text text-anchor="middle" x="699" y="-405.8" font-family="Times,serif" font-size="14.00" fill="#000000">parataxis</text>
</g>
<!-- 3 -->
<g id="node5" class="node">
<title>3</title>
<text text-anchor="middle" x="206.5" y="-275.3" font-family="Times,serif" font-size="14.00" fill="#000000">3 (very)</text>
</g>
<!-- 4&#45;&gt;3 -->
<g id="edge2" class="edge">
<title>4&#45;&gt;3</title>
<path fill="none" stroke="#000000" d="M206.5,-347.9735C206.5,-336.1918 206.5,-320.5607 206.5,-307.1581"/>
<polygon fill="#000000" stroke="#000000" points="210.0001,-307.0033 206.5,-297.0034 203.0001,-307.0034 210.0001,-307.0033"/>
<text text-anchor="middle" x="229" y="-318.8" font-family="Times,serif" font-size="14.00" fill="#000000">advmod</text>
</g>
<!-- 10 -->
<g id="node14" class="node">
<title>10</title>
<text text-anchor="middle" x="424.5" y="-275.3" font-family="Times,serif" font-size="14.00" fill="#000000">10 (memory)</text>
</g>
<!-- 7&#45;&gt;10 -->
<g id="edge13" class="edge">
<title>7&#45;&gt;10</title>
<path fill="none" stroke="#000000" d="M434.0136,-347.9735C432.3885,-336.1918 430.2325,-320.5607 428.3839,-307.1581"/>
<polygon fill="#000000" stroke="#000000" points="431.8169,-306.4313 426.9832,-297.0034 424.8825,-307.3878 431.8169,-306.4313"/>
<text text-anchor="middle" x="444" y="-318.8" font-family="Times,serif" font-size="14.00" fill="#000000">dobj</text>
</g>
<!-- 12 -->
<g id="node17" class="node">
<title>12</title>
<text text-anchor="middle" x="519.5" y="-275.3" font-family="Times,serif" font-size="14.00" fill="#000000">12 (also)</text>
</g>
<!-- 13&#45;&gt;12 -->
<g id="edge16" class="edge">
<title>13&#45;&gt;12</title>
<path fill="none" stroke="#000000" d="M519.5,-347.9735C519.5,-336.1918 519.5,-320.5607 519.5,-307.1581"/>
<polygon fill="#000000" stroke="#000000" points="523.0001,-307.0033 519.5,-297.0034 516.0001,-307.0034 523.0001,-307.0033"/>
<text text-anchor="middle" x="542" y="-318.8" font-family="Times,serif" font-size="14.00" fill="#000000">advmod</text>
</g>
<!-- 18 -->
<g id="node18" class="node">
<title>18</title>
<text text-anchor="middle" x="607.5" y="-275.3" font-family="Times,serif" font-size="14.00" fill="#000000">18 (called)</text>
</g>
<!-- 13&#45;&gt;18 -->
<g id="edge17" class="edge">
<title>13&#45;&gt;18</title>
<path fill="none" stroke="#000000" d="M547.0523,-347.8689C554.3631,-342.506 562.0194,-336.3573 568.5,-330 576.0591,-322.5847 583.3787,-313.6497 589.5955,-305.3441"/>
<polygon fill="#000000" stroke="#000000" points="592.6038,-307.1575 595.6387,-297.0067 586.936,-303.0494 592.6038,-307.1575"/>
<text text-anchor="middle" x="601" y="-318.8" font-family="Times,serif" font-size="14.00" fill="#000000">ccomp</text>
</g>
<!-- 22 -->
<g id="node25" class="node">
<title>22</title>
<text text-anchor="middle" x="707.5" y="-275.3" font-family="Times,serif" font-size="14.00" fill="#000000">22 (They)</text>
</g>
<!-- 23&#45;&gt;22 -->
<g id="edge24" class="edge">
<title>23&#45;&gt;22</title>
<path fill="none" stroke="#000000" d="M722.6938,-347.6411C716.9883,-342.6604 711.7785,-336.7467 708.5,-330 705.1471,-323.1001 703.9488,-315.0303 703.8308,-307.3723"/>
<polygon fill="#000000" stroke="#000000" points="707.3298,-307.4673 704.2388,-297.3334 700.3355,-307.183 707.3298,-307.4673"/>
<text text-anchor="middle" x="723.5" y="-318.8" font-family="Times,serif" font-size="14.00" fill="#000000">nsubj</text>
</g>
<!-- 26 -->
<g id="node26" class="node">
<title>26</title>
<text text-anchor="middle" x="798.5" y="-275.3" font-family="Times,serif" font-size="14.00" fill="#000000">26 (sound)</text>
</g>
<!-- 23&#45;&gt;26 -->
<g id="edge25" class="edge">
<title>23&#45;&gt;26</title>
<path fill="none" stroke="#000000" d="M762.0312,-347.9735C768.4457,-335.8418 777.0182,-319.6287 784.2401,-305.9698"/>
<polygon fill="#000000" stroke="#000000" points="787.4008,-307.4797 788.981,-297.0034 781.2126,-304.2077 787.4008,-307.4797"/>
<text text-anchor="middle" x="790" y="-318.8" font-family="Times,serif" font-size="14.00" fill="#000000">dobj</text>
</g>
<!-- 8 -->
<g id="node15" class="node">
<title>8</title>
<text text-anchor="middle" x="368.5" y="-188.3" font-family="Times,serif" font-size="14.00" fill="#000000">8 (a)</text>
</g>
<!-- 10&#45;&gt;8 -->
<g id="edge14" class="edge">
<title>10&#45;&gt;8</title>
<path fill="none" stroke="#000000" d="M412.8968,-260.9735C405.0128,-248.7252 394.4509,-232.3165 385.6067,-218.5766"/>
<polygon fill="#000000" stroke="#000000" points="388.4439,-216.5176 380.0884,-210.0034 382.5578,-220.3064 388.4439,-216.5176"/>
<text text-anchor="middle" x="409" y="-231.8" font-family="Times,serif" font-size="14.00" fill="#000000">det</text>
</g>
<!-- 9 -->
<g id="node16" class="node">
<title>9</title>
<text text-anchor="middle" x="443.5" y="-188.3" font-family="Times,serif" font-size="14.00" fill="#000000">9 (long)</text>
</g>
<!-- 10&#45;&gt;9 -->
<g id="edge15" class="edge">
<title>10&#45;&gt;9</title>
<path fill="none" stroke="#000000" d="M428.4368,-260.9735C431.0098,-249.1918 434.4235,-233.5607 437.3505,-220.1581"/>
<polygon fill="#000000" stroke="#000000" points="440.8539,-220.5199 439.5682,-210.0034 434.0151,-219.0263 440.8539,-220.5199"/>
<text text-anchor="middle" x="451" y="-231.8" font-family="Times,serif" font-size="14.00" fill="#000000">amod</text>
</g>
<!-- 17 -->
<g id="node22" class="node">
<title>17</title>
<text text-anchor="middle" x="538.5" y="-188.3" font-family="Times,serif" font-size="14.00" fill="#000000">17 (nose)</text>
</g>
<!-- 18&#45;&gt;17 -->
<g id="edge21" class="edge">
<title>18&#45;&gt;17</title>
<path fill="none" stroke="#000000" d="M593.2032,-260.9735C583.3964,-248.6085 570.227,-232.0036 559.2672,-218.1847"/>
<polygon fill="#000000" stroke="#000000" points="561.7348,-215.6635 552.7785,-210.0034 556.2503,-220.0133 561.7348,-215.6635"/>
<text text-anchor="middle" x="592.5" y="-231.8" font-family="Times,serif" font-size="14.00" fill="#000000">nsubj</text>
</g>
<!-- 20 -->
<g id="node23" class="node">
<title>20</title>
<text text-anchor="middle" x="626.5" y="-188.3" font-family="Times,serif" font-size="14.00" fill="#000000">20 (trunk)</text>
</g>
<!-- 18&#45;&gt;20 -->
<g id="edge22" class="edge">
<title>18&#45;&gt;20</title>
<path fill="none" stroke="#000000" d="M611.4368,-260.9735C614.0098,-249.1918 617.4235,-233.5607 620.3505,-220.1581"/>
<polygon fill="#000000" stroke="#000000" points="623.8539,-220.5199 622.5682,-210.0034 617.0151,-219.0263 623.8539,-220.5199"/>
<text text-anchor="middle" x="631" y="-231.8" font-family="Times,serif" font-size="14.00" fill="#000000">dobj</text>
</g>
<!-- 14 -->
<g id="node19" class="node">
<title>14</title>
<text text-anchor="middle" x="464.5" y="-101.3" font-family="Times,serif" font-size="14.00" fill="#000000">14 (a)</text>
</g>
<!-- 15 -->
<g id="node20" class="node">
<title>15</title>
<text text-anchor="middle" x="543.5" y="-14.3" font-family="Times,serif" font-size="14.00" fill="#000000">15 (very)</text>
</g>
<!-- 16 -->
<g id="node21" class="node">
<title>16</title>
<text text-anchor="middle" x="543.5" y="-101.3" font-family="Times,serif" font-size="14.00" fill="#000000">16 (long)</text>
</g>
<!-- 16&#45;&gt;15 -->
<g id="edge18" class="edge">
<title>16&#45;&gt;15</title>
<path fill="none" stroke="#000000" d="M543.5,-86.9735C543.5,-75.1918 543.5,-59.5607 543.5,-46.1581"/>
<polygon fill="#000000" stroke="#000000" points="547.0001,-46.0033 543.5,-36.0034 540.0001,-46.0034 547.0001,-46.0033"/>
<text text-anchor="middle" x="566" y="-57.8" font-family="Times,serif" font-size="14.00" fill="#000000">advmod</text>
</g>
<!-- 17&#45;&gt;14 -->
<g id="edge19" class="edge">
<title>17&#45;&gt;14</title>
<path fill="none" stroke="#000000" d="M523.1672,-173.9735C512.5506,-161.4919 498.2592,-144.6899 486.44,-130.7944"/>
<polygon fill="#000000" stroke="#000000" points="488.9583,-128.3529 479.8132,-123.0034 483.6262,-132.8883 488.9583,-128.3529"/>
<text text-anchor="middle" x="515" y="-144.8" font-family="Times,serif" font-size="14.00" fill="#000000">det</text>
</g>
<!-- 17&#45;&gt;16 -->
<g id="edge20" class="edge">
<title>17&#45;&gt;16</title>
<path fill="none" stroke="#000000" d="M539.536,-173.9735C540.2131,-162.1918 541.1115,-146.5607 541.8817,-133.1581"/>
<polygon fill="#000000" stroke="#000000" points="545.3857,-133.1877 542.4653,-123.0034 538.3972,-132.786 545.3857,-133.1877"/>
<text text-anchor="middle" x="557" y="-144.8" font-family="Times,serif" font-size="14.00" fill="#000000">amod</text>
</g>
<!-- 19 -->
<g id="node24" class="node">
<title>19</title>
<text text-anchor="middle" x="626.5" y="-101.3" font-family="Times,serif" font-size="14.00" fill="#000000">19 (a)</text>
</g>
<!-- 20&#45;&gt;19 -->
<g id="edge23" class="edge">
<title>20&#45;&gt;19</title>
<path fill="none" stroke="#000000" d="M626.5,-173.9735C626.5,-162.1918 626.5,-146.5607 626.5,-133.1581"/>
<polygon fill="#000000" stroke="#000000" points="630.0001,-133.0033 626.5,-123.0034 623.0001,-133.0034 630.0001,-133.0033"/>
<text text-anchor="middle" x="635" y="-144.8" font-family="Times,serif" font-size="14.00" fill="#000000">det</text>
</g>
<!-- 24 -->
<g id="node27" class="node">
<title>24</title>
<text text-anchor="middle" x="714.5" y="-188.3" font-family="Times,serif" font-size="14.00" fill="#000000">24 (a)</text>
</g>
<!-- 26&#45;&gt;24 -->
<g id="edge26" class="edge">
<title>26&#45;&gt;24</title>
<path fill="none" stroke="#000000" d="M781.0951,-260.9735C768.9312,-248.3752 752.5177,-231.3755 739.0295,-217.4055"/>
<polygon fill="#000000" stroke="#000000" points="741.3464,-214.7663 731.8826,-210.0034 736.3106,-219.6285 741.3464,-214.7663"/>
<text text-anchor="middle" x="770" y="-231.8" font-family="Times,serif" font-size="14.00" fill="#000000">det</text>
</g>
<!-- 25 -->
<g id="node28" class="node">
<title>25</title>
<text text-anchor="middle" x="802.5" y="-188.3" font-family="Times,serif" font-size="14.00" fill="#000000">25 (trumpet)</text>
</g>
<!-- 26&#45;&gt;25 -->
<g id="edge27" class="edge">
<title>26&#45;&gt;25</title>
<path fill="none" stroke="#000000" d="M799.3288,-260.9735C799.8705,-249.1918 800.5892,-233.5607 801.2054,-220.1581"/>
<polygon fill="#000000" stroke="#000000" points="804.7092,-220.1536 801.6723,-210.0034 797.7166,-219.832 804.7092,-220.1536"/>
<text text-anchor="middle" x="829.5" y="-231.8" font-family="Times,serif" font-size="14.00" fill="#000000">compound</text>
</g>
</g>
</svg>
