<?xml version="1.0" encoding="UTF-8" standalone="no"?>
<!DOCTYPE svg PUBLIC "-//W3C//DTD SVG 1.1//EN"
 "http://www.w3.org/Graphics/SVG/1.1/DTD/svg11.dtd">
<!-- Generated by graphviz version 2.40.1 (20161225.0304)
 -->
<!-- Title: G Pages: 1 -->
<svg width="355pt" height="392pt"
 viewBox="0.00 0.00 355.00 392.00" xmlns="http://www.w3.org/2000/svg" xmlns:xlink="http://www.w3.org/1999/xlink">
<g id="graph0" class="graph" transform="scale(1 1) rotate(0) translate(4 388)">
<title>G</title>
<polygon fill="#ffffff" stroke="transparent" points="-4,4 -4,-388 351,-388 351,4 -4,4"/>
<!-- 0 -->
<g id="node1" class="node">
<title>0</title>
<text text-anchor="middle" x="107" y="-362.3" font-family="Times,serif" font-size="14.00" fill="#000000">0 (None)</text>
</g>
<!-- 2 -->
<g id="node2" class="node">
<title>2</title>
<text text-anchor="middle" x="107" y="-275.3" font-family="Times,serif" font-size="14.00" fill="#000000">2 (place)</text>
</g>
<!-- 0&#45;&gt;2 -->
<g id="edge1" class="edge">
<title>0&#45;&gt;2</title>
<path fill="none" stroke="#000000" d="M107,-347.9735C107,-336.1918 107,-320.5607 107,-307.1581"/>
<polygon fill="#000000" stroke="#000000" points="110.5001,-307.0033 107,-297.0034 103.5001,-307.0034 110.5001,-307.0033"/>
<text text-anchor="middle" x="125.5" y="-318.8" font-family="Times,serif" font-size="14.00" fill="#000000">ROOT</text>
</g>
<!-- 1 -->
<g id="node3" class="node">
<title>1</title>
<text text-anchor="middle" x="27" y="-188.3" font-family="Times,serif" font-size="14.00" fill="#000000">1 (A)</text>
</g>
<!-- 2&#45;&gt;1 -->
<g id="edge2" class="edge">
<title>2&#45;&gt;1</title>
<path fill="none" stroke="#000000" d="M90.4239,-260.9735C78.8393,-248.3752 63.2073,-231.3755 50.3614,-217.4055"/>
<polygon fill="#000000" stroke="#000000" points="52.8999,-214.9953 43.5548,-210.0034 47.7472,-219.7335 52.8999,-214.9953"/>
<text text-anchor="middle" x="80.5" y="-231.8" font-family="Times,serif" font-size="14.00" fill="#000000">det</text>
</g>
<!-- 5 -->
<g id="node4" class="node">
<title>5</title>
<text text-anchor="middle" x="107" y="-188.3" font-family="Times,serif" font-size="14.00" fill="#000000">5 (sprain)</text>
</g>
<!-- 2&#45;&gt;5 -->
<g id="edge3" class="edge">
<title>2&#45;&gt;5</title>
<path fill="none" stroke="#000000" d="M107,-260.9735C107,-249.1918 107,-233.5607 107,-220.1581"/>
<polygon fill="#000000" stroke="#000000" points="110.5001,-220.0033 107,-210.0034 103.5001,-220.0034 110.5001,-220.0033"/>
<text text-anchor="middle" x="129" y="-231.8" font-family="Times,serif" font-size="14.00" fill="#000000">acl:relcl</text>
</g>
<!-- 11 -->
<g id="node5" class="node">
<title>11</title>
<text text-anchor="middle" x="187" y="-188.3" font-family="Times,serif" font-size="14.00" fill="#000000">11 (!)</text>
</g>
<!-- 2&#45;&gt;11 -->
<g id="edge4" class="edge">
<title>2&#45;&gt;11</title>
<path fill="none" stroke="#000000" d="M134.6139,-260.9924C141.699,-255.6733 149.0048,-249.5156 155,-243 161.5822,-235.8464 167.6052,-227.1597 172.6066,-218.9979"/>
<polygon fill="#000000" stroke="#000000" points="175.7732,-220.5159 177.7946,-210.1157 169.7287,-216.9854 175.7732,-220.5159"/>
<text text-anchor="middle" x="182.5" y="-231.8" font-family="Times,serif" font-size="14.00" fill="#000000">punct</text>
</g>
<!-- 3 -->
<g id="node6" class="node">
<title>3</title>
<text text-anchor="middle" x="28" y="-101.3" font-family="Times,serif" font-size="14.00" fill="#000000">3 (you)</text>
</g>
<!-- 5&#45;&gt;3 -->
<g id="edge5" class="edge">
<title>5&#45;&gt;3</title>
<path fill="none" stroke="#000000" d="M89.5825,-173.798C84.2233,-168.1333 78.3324,-161.8411 73,-156 65.596,-147.8898 57.6327,-138.9415 50.4936,-130.8344"/>
<polygon fill="#000000" stroke="#000000" points="52.9068,-128.278 43.6804,-123.0699 47.6452,-132.8949 52.9068,-128.278"/>
<text text-anchor="middle" x="88" y="-144.8" font-family="Times,serif" font-size="14.00" fill="#000000">nsubj</text>
</g>
<!-- 4 -->
<g id="node7" class="node">
<title>4</title>
<text text-anchor="middle" x="107" y="-101.3" font-family="Times,serif" font-size="14.00" fill="#000000">4 (could)</text>
</g>
<!-- 5&#45;&gt;4 -->
<g id="edge6" class="edge">
<title>5&#45;&gt;4</title>
<path fill="none" stroke="#000000" d="M107,-173.9735C107,-162.1918 107,-146.5607 107,-133.1581"/>
<polygon fill="#000000" stroke="#000000" points="110.5001,-133.0033 107,-123.0034 103.5001,-133.0034 110.5001,-133.0033"/>
<text text-anchor="middle" x="117" y="-144.8" font-family="Times,serif" font-size="14.00" fill="#000000">aux</text>
</g>
<!-- 8 -->
<g id="node8" class="node">
<title>8</title>
<text text-anchor="middle" x="193" y="-101.3" font-family="Times,serif" font-size="14.00" fill="#000000">8 (elbow)</text>
</g>
<!-- 5&#45;&gt;8 -->
<g id="edge7" class="edge">
<title>5&#45;&gt;8</title>
<path fill="none" stroke="#000000" d="M124.8193,-173.9735C137.2728,-161.3752 154.0771,-144.3755 167.8865,-130.4055"/>
<polygon fill="#000000" stroke="#000000" points="170.6626,-132.5757 175.2036,-123.0034 165.6843,-127.6547 170.6626,-132.5757"/>
<text text-anchor="middle" x="168.5" y="-144.8" font-family="Times,serif" font-size="14.00" fill="#000000">dobj</text>
</g>
<!-- 6 -->
<g id="node9" class="node">
<title>6</title>
<text text-anchor="middle" x="72" y="-14.3" font-family="Times,serif" font-size="14.00" fill="#000000">6 (both)</text>
</g>
<!-- 8&#45;&gt;6 -->
<g id="edge8" class="edge">
<title>8&#45;&gt;6</title>
<path fill="none" stroke="#000000" d="M158.0532,-90.3467C155.0054,-89.1774 151.9569,-88.0456 149,-87 122.7519,-77.7184 108.9823,-88.386 89,-69 82.7137,-62.9013 78.7518,-54.4206 76.2549,-46.1237"/>
<polygon fill="#000000" stroke="#000000" points="79.6248,-45.1679 73.878,-36.2671 72.8198,-46.809 79.6248,-45.1679"/>
<text text-anchor="middle" x="117.5" y="-57.8" font-family="Times,serif" font-size="14.00" fill="#000000">cc:preconj</text>
</g>
<!-- 7 -->
<g id="node10" class="node">
<title>7</title>
<text text-anchor="middle" x="152" y="-14.3" font-family="Times,serif" font-size="14.00" fill="#000000">7 (your)</text>
</g>
<!-- 8&#45;&gt;7 -->
<g id="edge9" class="edge">
<title>8&#45;&gt;7</title>
<path fill="none" stroke="#000000" d="M166.6838,-86.9884C161.1792,-81.8623 156.1076,-75.7976 153,-69 149.8104,-62.0231 148.6649,-53.9284 148.5454,-46.2711"/>
<polygon fill="#000000" stroke="#000000" points="152.044,-46.3713 148.9226,-36.2467 145.0489,-46.108 152.044,-46.3713"/>
<text text-anchor="middle" x="183" y="-57.8" font-family="Times,serif" font-size="14.00" fill="#000000">nmod:poss</text>
</g>
<!-- 9 -->
<g id="node11" class="node">
<title>9</title>
<text text-anchor="middle" x="235" y="-14.3" font-family="Times,serif" font-size="14.00" fill="#000000">9 (and)</text>
</g>
<!-- 8&#45;&gt;9 -->
<g id="edge10" class="edge">
<title>8&#45;&gt;9</title>
<path fill="none" stroke="#000000" d="M203.5327,-86.8733C206.6968,-81.2117 210.0965,-74.9022 213,-69 216.7111,-61.4561 220.4463,-53.1351 223.7586,-45.4414"/>
<polygon fill="#000000" stroke="#000000" points="227.0218,-46.7107 227.6944,-36.1373 220.5749,-43.9836 227.0218,-46.7107"/>
<text text-anchor="middle" x="226.5" y="-57.8" font-family="Times,serif" font-size="14.00" fill="#000000">cc</text>
</g>
<!-- 10 -->
<g id="node12" class="node">
<title>10</title>
<text text-anchor="middle" x="314" y="-14.3" font-family="Times,serif" font-size="14.00" fill="#000000">10 (chin)</text>
</g>
<!-- 8&#45;&gt;10 -->
<g id="edge11" class="edge">
<title>8&#45;&gt;10</title>
<path fill="none" stroke="#000000" d="M218.0713,-86.9735C236.242,-73.9086 260.9962,-56.1102 280.8068,-41.8662"/>
<polygon fill="#000000" stroke="#000000" points="282.8849,-44.6829 288.9608,-36.0034 278.7984,-38.9994 282.8849,-44.6829"/>
<text text-anchor="middle" x="273" y="-57.8" font-family="Times,serif" font-size="14.00" fill="#000000">conj</text>
</g>
</g>
</svg>
