<?xml version="1.0" encoding="UTF-8" standalone="no"?>
<!DOCTYPE svg PUBLIC "-//W3C//DTD SVG 1.1//EN"
 "http://www.w3.org/Graphics/SVG/1.1/DTD/svg11.dtd">
<!-- Generated by graphviz version 2.40.1 (20161225.0304)
 -->
<!-- Title: G Pages: 1 -->
<svg width="700pt" height="566pt"
 viewBox="0.00 0.00 700.00 566.00" xmlns="http://www.w3.org/2000/svg" xmlns:xlink="http://www.w3.org/1999/xlink">
<g id="graph0" class="graph" transform="scale(1 1) rotate(0) translate(4 562)">
<title>G</title>
<polygon fill="#ffffff" stroke="transparent" points="-4,4 -4,-562 696,-562 696,4 -4,4"/>
<!-- 0 -->
<g id="node1" class="node">
<title>0</title>
<text text-anchor="middle" x="279.5" y="-536.3" font-family="Times,serif" font-size="14.00" fill="#000000">0 (None)</text>
</g>
<!-- 5 -->
<g id="node2" class="node">
<title>5</title>
<text text-anchor="middle" x="279.5" y="-449.3" font-family="Times,serif" font-size="14.00" fill="#000000">5 (animals)</text>
</g>
<!-- 0&#45;&gt;5 -->
<g id="edge1" class="edge">
<title>0&#45;&gt;5</title>
<path fill="none" stroke="#000000" d="M279.5,-521.9735C279.5,-510.1918 279.5,-494.5607 279.5,-481.1581"/>
<polygon fill="#000000" stroke="#000000" points="283.0001,-481.0033 279.5,-471.0034 276.0001,-481.0034 283.0001,-481.0033"/>
<text text-anchor="middle" x="298" y="-492.8" font-family="Times,serif" font-size="14.00" fill="#000000">ROOT</text>
</g>
<!-- 1 -->
<g id="node3" class="node">
<title>1</title>
<text text-anchor="middle" x="44.5" y="-362.3" font-family="Times,serif" font-size="14.00" fill="#000000">1 (Elephants)</text>
</g>
<!-- 5&#45;&gt;1 -->
<g id="edge3" class="edge">
<title>5&#45;&gt;1</title>
<path fill="none" stroke="#000000" d="M239.7691,-443.5374C214.4536,-437.069 181.1474,-427.7404 152.5,-417 130.809,-408.8676 107.4818,-398.1205 88.0774,-388.5895"/>
<polygon fill="#000000" stroke="#000000" points="89.404,-385.3404 78.8911,-384.0251 86.2892,-391.6093 89.404,-385.3404"/>
<text text-anchor="middle" x="167.5" y="-405.8" font-family="Times,serif" font-size="14.00" fill="#000000">nsubj</text>
</g>
<!-- 2 -->
<g id="node4" class="node">
<title>2</title>
<text text-anchor="middle" x="134.5" y="-362.3" font-family="Times,serif" font-size="14.00" fill="#000000">2 (are)</text>
</g>
<!-- 5&#45;&gt;2 -->
<g id="edge4" class="edge">
<title>5&#45;&gt;2</title>
<path fill="none" stroke="#000000" d="M241.4077,-434.8666C230.6107,-429.4108 218.9541,-423.2148 208.5,-417 194.6606,-408.7728 179.9551,-398.892 167.3302,-390.0273"/>
<polygon fill="#000000" stroke="#000000" points="169.139,-387.0192 158.9584,-384.0854 165.0874,-392.7275 169.139,-387.0192"/>
<text text-anchor="middle" x="218.5" y="-405.8" font-family="Times,serif" font-size="14.00" fill="#000000">cop</text>
</g>
<!-- 4 -->
<g id="node6" class="node">
<title>4</title>
<text text-anchor="middle" x="206.5" y="-362.3" font-family="Times,serif" font-size="14.00" fill="#000000">4 (big)</text>
</g>
<!-- 5&#45;&gt;4 -->
<g id="edge5" class="edge">
<title>5&#45;&gt;4</title>
<path fill="none" stroke="#000000" d="M260.8553,-434.7515C255.4256,-429.1928 249.589,-422.9708 244.5,-417 237.9777,-409.3475 231.2873,-400.6861 225.3737,-392.7018"/>
<polygon fill="#000000" stroke="#000000" points="228.0271,-390.4002 219.3065,-384.3836 222.3717,-394.5253 228.0271,-390.4002"/>
<text text-anchor="middle" x="260" y="-405.8" font-family="Times,serif" font-size="14.00" fill="#000000">amod</text>
</g>
<!-- 6 -->
<g id="node7" class="node">
<title>6</title>
<text text-anchor="middle" x="279.5" y="-362.3" font-family="Times,serif" font-size="14.00" fill="#000000">6 (and)</text>
</g>
<!-- 5&#45;&gt;6 -->
<g id="edge6" class="edge">
<title>5&#45;&gt;6</title>
<path fill="none" stroke="#000000" d="M279.5,-434.9735C279.5,-423.1918 279.5,-407.5607 279.5,-394.1581"/>
<polygon fill="#000000" stroke="#000000" points="283.0001,-394.0033 279.5,-384.0034 276.0001,-394.0034 283.0001,-394.0033"/>
<text text-anchor="middle" x="286" y="-405.8" font-family="Times,serif" font-size="14.00" fill="#000000">cc</text>
</g>
<!-- 11 -->
<g id="node8" class="node">
<title>11</title>
<text text-anchor="middle" x="356.5" y="-362.3" font-family="Times,serif" font-size="14.00" fill="#000000">11 (and)</text>
</g>
<!-- 5&#45;&gt;11 -->
<g id="edge7" class="edge">
<title>5&#45;&gt;11</title>
<path fill="none" stroke="#000000" d="M295.4544,-434.9735C306.5014,-422.4919 321.3722,-405.6899 333.6705,-391.7944"/>
<polygon fill="#000000" stroke="#000000" points="336.5593,-393.8114 340.566,-384.0034 331.3174,-389.172 336.5593,-393.8114"/>
<text text-anchor="middle" x="330" y="-405.8" font-family="Times,serif" font-size="14.00" fill="#000000">cc</text>
</g>
<!-- 7 -->
<g id="node9" class="node">
<title>7</title>
<text text-anchor="middle" x="436.5" y="-362.3" font-family="Times,serif" font-size="14.00" fill="#000000">7 (have)</text>
</g>
<!-- 5&#45;&gt;7 -->
<g id="edge8" class="edge">
<title>5&#45;&gt;7</title>
<path fill="none" stroke="#000000" d="M312.0305,-434.9735C336.5354,-421.3944 370.2681,-402.7018 396.4357,-388.2013"/>
<polygon fill="#000000" stroke="#000000" points="398.2981,-391.1707 405.3484,-383.2623 394.9051,-385.048 398.2981,-391.1707"/>
<text text-anchor="middle" x="379.5" y="-405.8" font-family="Times,serif" font-size="14.00" fill="#000000">conj</text>
</g>
<!-- 13 -->
<g id="node10" class="node">
<title>13</title>
<text text-anchor="middle" x="525.5" y="-362.3" font-family="Times,serif" font-size="14.00" fill="#000000">13 (have)</text>
</g>
<!-- 5&#45;&gt;13 -->
<g id="edge9" class="edge">
<title>5&#45;&gt;13</title>
<path fill="none" stroke="#000000" d="M319.1966,-441.4621C341.7102,-434.7236 370.3295,-425.8299 395.5,-417 424.4817,-406.8332 456.6148,-394.2395 481.683,-384.1106"/>
<polygon fill="#000000" stroke="#000000" points="483.3198,-387.2236 491.2686,-380.2187 480.6865,-380.7378 483.3198,-387.2236"/>
<text text-anchor="middle" x="447.5" y="-405.8" font-family="Times,serif" font-size="14.00" fill="#000000">conj</text>
</g>
<!-- 3 -->
<g id="node5" class="node">
<title>3</title>
<text text-anchor="middle" x="206.5" y="-275.3" font-family="Times,serif" font-size="14.00" fill="#000000">3 (very)</text>
</g>
<!-- 4&#45;&gt;3 -->
<g id="edge2" class="edge">
<title>4&#45;&gt;3</title>
<path fill="none" stroke="#000000" d="M206.5,-347.9735C206.5,-336.1918 206.5,-320.5607 206.5,-307.1581"/>
<polygon fill="#000000" stroke="#000000" points="210.0001,-307.0033 206.5,-297.0034 203.0001,-307.0034 210.0001,-307.0033"/>
<text text-anchor="middle" x="229" y="-318.8" font-family="Times,serif" font-size="14.00" fill="#000000">advmod</text>
</g>
<!-- 10 -->
<g id="node11" class="node">
<title>10</title>
<text text-anchor="middle" x="430.5" y="-275.3" font-family="Times,serif" font-size="14.00" fill="#000000">10 (memory)</text>
</g>
<!-- 7&#45;&gt;10 -->
<g id="edge10" class="edge">
<title>7&#45;&gt;10</title>
<path fill="none" stroke="#000000" d="M435.2568,-347.9735C434.4443,-336.1918 433.3663,-320.5607 432.4419,-307.1581"/>
<polygon fill="#000000" stroke="#000000" points="435.9214,-306.7388 431.7416,-297.0034 428.938,-307.2205 435.9214,-306.7388"/>
<text text-anchor="middle" x="447" y="-318.8" font-family="Times,serif" font-size="14.00" fill="#000000">dobj</text>
</g>
<!-- 12 -->
<g id="node14" class="node">
<title>12</title>
<text text-anchor="middle" x="525.5" y="-275.3" font-family="Times,serif" font-size="14.00" fill="#000000">12 (also)</text>
</g>
<!-- 13&#45;&gt;12 -->
<g id="edge13" class="edge">
<title>13&#45;&gt;12</title>
<path fill="none" stroke="#000000" d="M525.5,-347.9735C525.5,-336.1918 525.5,-320.5607 525.5,-307.1581"/>
<polygon fill="#000000" stroke="#000000" points="529.0001,-307.0033 525.5,-297.0034 522.0001,-307.0034 529.0001,-307.0033"/>
<text text-anchor="middle" x="548" y="-318.8" font-family="Times,serif" font-size="14.00" fill="#000000">advmod</text>
</g>
<!-- 18 -->
<g id="node15" class="node">
<title>18</title>
<text text-anchor="middle" x="613.5" y="-275.3" font-family="Times,serif" font-size="14.00" fill="#000000">18 (called)</text>
</g>
<!-- 13&#45;&gt;18 -->
<g id="edge14" class="edge">
<title>13&#45;&gt;18</title>
<path fill="none" stroke="#000000" d="M553.0523,-347.8689C560.3631,-342.506 568.0194,-336.3573 574.5,-330 582.0591,-322.5847 589.3787,-313.6497 595.5955,-305.3441"/>
<polygon fill="#000000" stroke="#000000" points="598.6038,-307.1575 601.6387,-297.0067 592.936,-303.0494 598.6038,-307.1575"/>
<text text-anchor="middle" x="607" y="-318.8" font-family="Times,serif" font-size="14.00" fill="#000000">ccomp</text>
</g>
<!-- 8 -->
<g id="node12" class="node">
<title>8</title>
<text text-anchor="middle" x="396.5" y="-188.3" font-family="Times,serif" font-size="14.00" fill="#000000">8 (a)</text>
</g>
<!-- 10&#45;&gt;8 -->
<g id="edge11" class="edge">
<title>10&#45;&gt;8</title>
<path fill="none" stroke="#000000" d="M423.4552,-260.9735C418.7596,-248.9585 412.4996,-232.9401 407.1942,-219.3646"/>
<polygon fill="#000000" stroke="#000000" points="410.4357,-218.0434 403.5358,-210.0034 403.9159,-220.5914 410.4357,-218.0434"/>
<text text-anchor="middle" x="425" y="-231.8" font-family="Times,serif" font-size="14.00" fill="#000000">det</text>
</g>
<!-- 9 -->
<g id="node13" class="node">
<title>9</title>
<text text-anchor="middle" x="471.5" y="-188.3" font-family="Times,serif" font-size="14.00" fill="#000000">9 (long)</text>
</g>
<!-- 10&#45;&gt;9 -->
<g id="edge12" class="edge">
<title>10&#45;&gt;9</title>
<path fill="none" stroke="#000000" d="M438.9952,-260.9735C444.6575,-248.9585 452.2064,-232.9401 458.6041,-219.3646"/>
<polygon fill="#000000" stroke="#000000" points="461.9187,-220.5413 463.0157,-210.0034 455.5866,-217.5571 461.9187,-220.5413"/>
<text text-anchor="middle" x="469" y="-231.8" font-family="Times,serif" font-size="14.00" fill="#000000">amod</text>
</g>
<!-- 17 -->
<g id="node19" class="node">
<title>17</title>
<text text-anchor="middle" x="568.5" y="-188.3" font-family="Times,serif" font-size="14.00" fill="#000000">17 (nose)</text>
</g>
<!-- 18&#45;&gt;17 -->
<g id="edge18" class="edge">
<title>18&#45;&gt;17</title>
<path fill="none" stroke="#000000" d="M604.176,-260.9735C597.9009,-248.8418 589.5148,-232.6287 582.4499,-218.9698"/>
<polygon fill="#000000" stroke="#000000" points="585.5151,-217.2776 577.8121,-210.0034 579.2976,-220.4935 585.5151,-217.2776"/>
<text text-anchor="middle" x="609.5" y="-231.8" font-family="Times,serif" font-size="14.00" fill="#000000">nsubj</text>
</g>
<!-- 20 -->
<g id="node20" class="node">
<title>20</title>
<text text-anchor="middle" x="656.5" y="-188.3" font-family="Times,serif" font-size="14.00" fill="#000000">20 (trunk)</text>
</g>
<!-- 18&#45;&gt;20 -->
<g id="edge19" class="edge">
<title>18&#45;&gt;20</title>
<path fill="none" stroke="#000000" d="M622.4096,-260.9735C628.4058,-248.8418 636.4192,-232.6287 643.1701,-218.9698"/>
<polygon fill="#000000" stroke="#000000" points="646.3085,-220.519 647.6018,-210.0034 640.0332,-217.4173 646.3085,-220.519"/>
<text text-anchor="middle" x="651" y="-231.8" font-family="Times,serif" font-size="14.00" fill="#000000">dobj</text>
</g>
<!-- 14 -->
<g id="node16" class="node">
<title>14</title>
<text text-anchor="middle" x="496.5" y="-101.3" font-family="Times,serif" font-size="14.00" fill="#000000">14 (a)</text>
</g>
<!-- 15 -->
<g id="node17" class="node">
<title>15</title>
<text text-anchor="middle" x="575.5" y="-14.3" font-family="Times,serif" font-size="14.00" fill="#000000">15 (very)</text>
</g>
<!-- 16 -->
<g id="node18" class="node">
<title>16</title>
<text text-anchor="middle" x="575.5" y="-101.3" font-family="Times,serif" font-size="14.00" fill="#000000">16 (long)</text>
</g>
<!-- 16&#45;&gt;15 -->
<g id="edge15" class="edge">
<title>16&#45;&gt;15</title>
<path fill="none" stroke="#000000" d="M575.5,-86.9735C575.5,-75.1918 575.5,-59.5607 575.5,-46.1581"/>
<polygon fill="#000000" stroke="#000000" points="579.0001,-46.0033 575.5,-36.0034 572.0001,-46.0034 579.0001,-46.0033"/>
<text text-anchor="middle" x="598" y="-57.8" font-family="Times,serif" font-size="14.00" fill="#000000">advmod</text>
</g>
<!-- 17&#45;&gt;14 -->
<g id="edge16" class="edge">
<title>17&#45;&gt;14</title>
<path fill="none" stroke="#000000" d="M553.5816,-173.9735C543.2519,-161.4919 529.3468,-144.6899 517.8471,-130.7944"/>
<polygon fill="#000000" stroke="#000000" points="520.4714,-128.4758 511.3993,-123.0034 515.0787,-132.9388 520.4714,-128.4758"/>
<text text-anchor="middle" x="546" y="-144.8" font-family="Times,serif" font-size="14.00" fill="#000000">det</text>
</g>
<!-- 17&#45;&gt;16 -->
<g id="edge17" class="edge">
<title>17&#45;&gt;16</title>
<path fill="none" stroke="#000000" d="M569.9504,-173.9735C570.8984,-162.1918 572.156,-146.5607 573.2344,-133.1581"/>
<polygon fill="#000000" stroke="#000000" points="576.7381,-133.2519 574.0515,-123.0034 569.7606,-132.6904 576.7381,-133.2519"/>
<text text-anchor="middle" x="588" y="-144.8" font-family="Times,serif" font-size="14.00" fill="#000000">amod</text>
</g>
<!-- 19 -->
<g id="node21" class="node">
<title>19</title>
<text text-anchor="middle" x="656.5" y="-101.3" font-family="Times,serif" font-size="14.00" fill="#000000">19 (a)</text>
</g>
<!-- 20&#45;&gt;19 -->
<g id="edge20" class="edge">
<title>20&#45;&gt;19</title>
<path fill="none" stroke="#000000" d="M656.5,-173.9735C656.5,-162.1918 656.5,-146.5607 656.5,-133.1581"/>
<polygon fill="#000000" stroke="#000000" points="660.0001,-133.0033 656.5,-123.0034 653.0001,-133.0034 660.0001,-133.0033"/>
<text text-anchor="middle" x="665" y="-144.8" font-family="Times,serif" font-size="14.00" fill="#000000">det</text>
</g>
</g>
</svg>
