<?xml version="1.0" encoding="UTF-8" standalone="no"?>
<!DOCTYPE svg PUBLIC "-//W3C//DTD SVG 1.1//EN"
 "http://www.w3.org/Graphics/SVG/1.1/DTD/svg11.dtd">
<!-- Generated by graphviz version 2.40.1 (20161225.0304)
 -->
<!-- Title: G Pages: 1 -->
<svg width="1089pt" height="479pt"
 viewBox="0.00 0.00 1089.00 479.00" xmlns="http://www.w3.org/2000/svg" xmlns:xlink="http://www.w3.org/1999/xlink">
<g id="graph0" class="graph" transform="scale(1 1) rotate(0) translate(4 475)">
<title>G</title>
<polygon fill="#ffffff" stroke="transparent" points="-4,4 -4,-475 1085,-475 1085,4 -4,4"/>
<!-- 0 -->
<g id="node1" class="node">
<title>0</title>
<text text-anchor="middle" x="358.5" y="-449.3" font-family="Times,serif" font-size="14.00" fill="#000000">0 (None)</text>
</g>
<!-- 13 -->
<g id="node2" class="node">
<title>13</title>
<text text-anchor="middle" x="358.5" y="-362.3" font-family="Times,serif" font-size="14.00" fill="#000000">13 (were)</text>
</g>
<!-- 0&#45;&gt;13 -->
<g id="edge1" class="edge">
<title>0&#45;&gt;13</title>
<path fill="none" stroke="#000000" d="M358.5,-434.9735C358.5,-423.1918 358.5,-407.5607 358.5,-394.1581"/>
<polygon fill="#000000" stroke="#000000" points="362.0001,-394.0033 358.5,-384.0034 355.0001,-394.0034 362.0001,-394.0033"/>
<text text-anchor="middle" x="377" y="-405.8" font-family="Times,serif" font-size="14.00" fill="#000000">ROOT</text>
</g>
<!-- 8 -->
<g id="node10" class="node">
<title>8</title>
<text text-anchor="middle" x="236.5" y="-275.3" font-family="Times,serif" font-size="14.00" fill="#000000">8 (questions)</text>
</g>
<!-- 13&#45;&gt;8 -->
<g id="edge13" class="edge">
<title>13&#45;&gt;8</title>
<path fill="none" stroke="#000000" d="M333.2215,-347.9735C314.9006,-334.9086 289.9419,-317.1102 269.9675,-302.8662"/>
<polygon fill="#000000" stroke="#000000" points="271.9201,-299.9598 261.7461,-297.0034 267.8558,-305.6591 271.9201,-299.9598"/>
<text text-anchor="middle" x="321.5" y="-318.8" font-family="Times,serif" font-size="14.00" fill="#000000">nmod</text>
</g>
<!-- 14 -->
<g id="node15" class="node">
<title>14</title>
<text text-anchor="middle" x="358.5" y="-275.3" font-family="Times,serif" font-size="14.00" fill="#000000">14 (fundamental)</text>
</g>
<!-- 13&#45;&gt;14 -->
<g id="edge14" class="edge">
<title>13&#45;&gt;14</title>
<path fill="none" stroke="#000000" d="M358.5,-347.9735C358.5,-336.1918 358.5,-320.5607 358.5,-307.1581"/>
<polygon fill="#000000" stroke="#000000" points="362.0001,-307.0033 358.5,-297.0034 355.0001,-307.0034 362.0001,-307.0033"/>
<text text-anchor="middle" x="373.5" y="-318.8" font-family="Times,serif" font-size="14.00" fill="#000000">nsubj</text>
</g>
<!-- 26 -->
<g id="node16" class="node">
<title>26</title>
<text text-anchor="middle" x="459.5" y="-275.3" font-family="Times,serif" font-size="14.00" fill="#000000">26 (.)</text>
</g>
<!-- 13&#45;&gt;26 -->
<g id="edge15" class="edge">
<title>13&#45;&gt;26</title>
<path fill="none" stroke="#000000" d="M379.4273,-347.9735C394.3238,-335.1419 414.5209,-317.7443 430.9035,-303.6326"/>
<polygon fill="#000000" stroke="#000000" points="433.3071,-306.1817 438.5995,-297.0034 428.7386,-300.878 433.3071,-306.1817"/>
<text text-anchor="middle" x="431" y="-318.8" font-family="Times,serif" font-size="14.00" fill="#000000">punct</text>
</g>
<!-- 1 -->
<g id="node3" class="node">
<title>1</title>
<text text-anchor="middle" x="111.5" y="-188.3" font-family="Times,serif" font-size="14.00" fill="#000000">1 (For)</text>
</g>
<!-- 2 -->
<g id="node4" class="node">
<title>2</title>
<text text-anchor="middle" x="37.5" y="-101.3" font-family="Times,serif" font-size="14.00" fill="#000000">2 (ancient)</text>
</g>
<!-- 3 -->
<g id="node5" class="node">
<title>3</title>
<text text-anchor="middle" x="127.5" y="-101.3" font-family="Times,serif" font-size="14.00" fill="#000000">3 (Greek)</text>
</g>
<!-- 4 -->
<g id="node6" class="node">
<title>4</title>
<text text-anchor="middle" x="85.5" y="-14.3" font-family="Times,serif" font-size="14.00" fill="#000000">4 (and)</text>
</g>
<!-- 3&#45;&gt;4 -->
<g id="edge2" class="edge">
<title>3&#45;&gt;4</title>
<path fill="none" stroke="#000000" d="M118.7976,-86.9735C112.9972,-74.9585 105.2642,-58.9401 98.7105,-45.3646"/>
<polygon fill="#000000" stroke="#000000" points="101.6908,-43.4872 94.1913,-36.0034 95.3869,-46.5305 101.6908,-43.4872"/>
<text text-anchor="middle" x="116" y="-57.8" font-family="Times,serif" font-size="14.00" fill="#000000">cc</text>
</g>
<!-- 5 -->
<g id="node7" class="node">
<title>5</title>
<text text-anchor="middle" x="169.5" y="-14.3" font-family="Times,serif" font-size="14.00" fill="#000000">5 (Roman)</text>
</g>
<!-- 3&#45;&gt;5 -->
<g id="edge3" class="edge">
<title>3&#45;&gt;5</title>
<path fill="none" stroke="#000000" d="M136.2024,-86.9735C142.0028,-74.9585 149.7358,-58.9401 156.2895,-45.3646"/>
<polygon fill="#000000" stroke="#000000" points="159.6131,-46.5305 160.8087,-36.0034 153.3092,-43.4872 159.6131,-46.5305"/>
<text text-anchor="middle" x="163.5" y="-57.8" font-family="Times,serif" font-size="14.00" fill="#000000">conj</text>
</g>
<!-- 6 -->
<g id="node8" class="node">
<title>6</title>
<text text-anchor="middle" x="207.5" y="-188.3" font-family="Times,serif" font-size="14.00" fill="#000000">6 (philosopher)</text>
</g>
<!-- 6&#45;&gt;2 -->
<g id="edge4" class="edge">
<title>6&#45;&gt;2</title>
<path fill="none" stroke="#000000" d="M163.6713,-173.8344C151.2042,-168.3781 137.7017,-162.1898 125.5,-156 108.7817,-147.5189 90.7955,-137.3011 75.4682,-128.2457"/>
<polygon fill="#000000" stroke="#000000" points="77.1631,-125.1814 66.7807,-123.0702 73.5805,-131.1952 77.1631,-125.1814"/>
<text text-anchor="middle" x="141" y="-144.8" font-family="Times,serif" font-size="14.00" fill="#000000">amod</text>
</g>
<!-- 6&#45;&gt;3 -->
<g id="edge5" class="edge">
<title>6&#45;&gt;3</title>
<path fill="none" stroke="#000000" d="M189.5215,-173.8501C184.0027,-168.1875 177.9497,-161.8834 172.5,-156 165.0375,-147.9436 157.0582,-139.01 149.9224,-130.8999"/>
<polygon fill="#000000" stroke="#000000" points="152.3384,-128.3461 143.1182,-123.1271 147.0714,-132.9568 152.3384,-128.3461"/>
<text text-anchor="middle" x="188" y="-144.8" font-family="Times,serif" font-size="14.00" fill="#000000">amod</text>
</g>
<!-- 7 -->
<g id="node9" class="node">
<title>7</title>
<text text-anchor="middle" x="207.5" y="-101.3" font-family="Times,serif" font-size="14.00" fill="#000000">7 (&#39;s)</text>
</g>
<!-- 6&#45;&gt;7 -->
<g id="edge6" class="edge">
<title>6&#45;&gt;7</title>
<path fill="none" stroke="#000000" d="M207.5,-173.9735C207.5,-162.1918 207.5,-146.5607 207.5,-133.1581"/>
<polygon fill="#000000" stroke="#000000" points="211.0001,-133.0033 207.5,-123.0034 204.0001,-133.0034 211.0001,-133.0033"/>
<text text-anchor="middle" x="219.5" y="-144.8" font-family="Times,serif" font-size="14.00" fill="#000000">case</text>
</g>
<!-- 8&#45;&gt;1 -->
<g id="edge7" class="edge">
<title>8&#45;&gt;1</title>
<path fill="none" stroke="#000000" d="M210.5999,-260.9735C191.8285,-247.9086 166.256,-230.1102 145.7905,-215.8662"/>
<polygon fill="#000000" stroke="#000000" points="147.574,-212.8433 137.3669,-210.0034 143.5752,-218.5887 147.574,-212.8433"/>
<text text-anchor="middle" x="193.5" y="-231.8" font-family="Times,serif" font-size="14.00" fill="#000000">case</text>
</g>
<!-- 8&#45;&gt;6 -->
<g id="edge8" class="edge">
<title>8&#45;&gt;6</title>
<path fill="none" stroke="#000000" d="M230.4912,-260.9735C226.525,-249.0751 221.2503,-233.2508 216.7535,-219.7606"/>
<polygon fill="#000000" stroke="#000000" points="219.9839,-218.3834 213.5011,-210.0034 213.3431,-220.597 219.9839,-218.3834"/>
<text text-anchor="middle" x="254.5" y="-231.8" font-family="Times,serif" font-size="14.00" fill="#000000">nmod:poss</text>
</g>
<!-- 12 -->
<g id="node11" class="node">
<title>12</title>
<text text-anchor="middle" x="357.5" y="-188.3" font-family="Times,serif" font-size="14.00" fill="#000000">12 (life)</text>
</g>
<!-- 8&#45;&gt;12 -->
<g id="edge9" class="edge">
<title>8&#45;&gt;12</title>
<path fill="none" stroke="#000000" d="M263.0645,-260.8433C271.258,-255.1805 280.2845,-248.8779 288.5,-243 300.5883,-234.3513 313.7358,-224.6967 325.2804,-216.1341"/>
<polygon fill="#000000" stroke="#000000" points="327.4291,-218.898 333.3653,-210.1223 323.2522,-213.2808 327.4291,-218.898"/>
<text text-anchor="middle" x="324.5" y="-231.8" font-family="Times,serif" font-size="14.00" fill="#000000">nmod</text>
</g>
<!-- 9 -->
<g id="node12" class="node">
<title>9</title>
<text text-anchor="middle" x="285.5" y="-101.3" font-family="Times,serif" font-size="14.00" fill="#000000">9 (about)</text>
</g>
<!-- 12&#45;&gt;9 -->
<g id="edge10" class="edge">
<title>12&#45;&gt;9</title>
<path fill="none" stroke="#000000" d="M342.5816,-173.9735C332.2519,-161.4919 318.3468,-144.6899 306.8471,-130.7944"/>
<polygon fill="#000000" stroke="#000000" points="309.4714,-128.4758 300.3993,-123.0034 304.0787,-132.9388 309.4714,-128.4758"/>
<text text-anchor="middle" x="338.5" y="-144.8" font-family="Times,serif" font-size="14.00" fill="#000000">case</text>
</g>
<!-- 10 -->
<g id="node13" class="node">
<title>10</title>
<text text-anchor="middle" x="366.5" y="-101.3" font-family="Times,serif" font-size="14.00" fill="#000000">10 (the)</text>
</g>
<!-- 12&#45;&gt;10 -->
<g id="edge11" class="edge">
<title>12&#45;&gt;10</title>
<path fill="none" stroke="#000000" d="M359.3648,-173.9735C360.5836,-162.1918 362.2006,-146.5607 363.5871,-133.1581"/>
<polygon fill="#000000" stroke="#000000" points="367.0899,-133.3105 364.6376,-123.0034 360.1271,-132.5901 367.0899,-133.3105"/>
<text text-anchor="middle" x="372" y="-144.8" font-family="Times,serif" font-size="14.00" fill="#000000">det</text>
</g>
<!-- 11 -->
<g id="node14" class="node">
<title>11</title>
<text text-anchor="middle" x="449.5" y="-101.3" font-family="Times,serif" font-size="14.00" fill="#000000">11 (good)</text>
</g>
<!-- 12&#45;&gt;11 -->
<g id="edge12" class="edge">
<title>12&#45;&gt;11</title>
<path fill="none" stroke="#000000" d="M376.5625,-173.9735C390.0082,-161.2586 408.1949,-144.0603 423.0439,-130.0183"/>
<polygon fill="#000000" stroke="#000000" points="425.601,-132.4173 430.462,-123.0034 420.7914,-127.3312 425.601,-132.4173"/>
<text text-anchor="middle" x="425" y="-144.8" font-family="Times,serif" font-size="14.00" fill="#000000">amod</text>
</g>
<!-- 19 -->
<g id="node17" class="node">
<title>19</title>
<text text-anchor="middle" x="667.5" y="-188.3" font-family="Times,serif" font-size="14.00" fill="#000000">19 (inquiry)</text>
</g>
<!-- 14&#45;&gt;19 -->
<g id="edge16" class="edge">
<title>14&#45;&gt;19</title>
<path fill="none" stroke="#000000" d="M414.0999,-263.3457C471.6338,-247.1468 560.7342,-222.0603 616.5088,-206.3568"/>
<polygon fill="#000000" stroke="#000000" points="617.5035,-209.7129 626.1806,-203.6336 615.6063,-202.9748 617.5035,-209.7129"/>
<text text-anchor="middle" x="548.5" y="-231.8" font-family="Times,serif" font-size="14.00" fill="#000000">nmod</text>
</g>
<!-- 16 -->
<g id="node19" class="node">
<title>16</title>
<text text-anchor="middle" x="536.5" y="-101.3" font-family="Times,serif" font-size="14.00" fill="#000000">16 (only)</text>
</g>
<!-- 19&#45;&gt;16 -->
<g id="edge18" class="edge">
<title>19&#45;&gt;16</title>
<path fill="none" stroke="#000000" d="M626.2351,-180.4958C610.0718,-174.7578 591.9743,-166.7114 577.5,-156 568.3651,-149.24 560.1091,-139.976 553.4398,-131.1971"/>
<polygon fill="#000000" stroke="#000000" points="556.2394,-129.0952 547.5549,-123.0263 550.5593,-133.1863 556.2394,-129.0952"/>
<text text-anchor="middle" x="606" y="-144.8" font-family="Times,serif" font-size="14.00" fill="#000000">cc:preconj</text>
</g>
<!-- 17 -->
<g id="node20" class="node">
<title>17</title>
<text text-anchor="middle" x="615.5" y="-101.3" font-family="Times,serif" font-size="14.00" fill="#000000">17 (to)</text>
</g>
<!-- 19&#45;&gt;17 -->
<g id="edge19" class="edge">
<title>19&#45;&gt;17</title>
<path fill="none" stroke="#000000" d="M656.7256,-173.9735C649.4744,-161.8418 639.7838,-145.6287 631.6199,-131.9698"/>
<polygon fill="#000000" stroke="#000000" points="634.3954,-129.7913 626.2606,-123.0034 628.3868,-133.3827 634.3954,-129.7913"/>
<text text-anchor="middle" x="657.5" y="-144.8" font-family="Times,serif" font-size="14.00" fill="#000000">case</text>
</g>
<!-- 18 -->
<g id="node21" class="node">
<title>18</title>
<text text-anchor="middle" x="718.5" y="-101.3" font-family="Times,serif" font-size="14.00" fill="#000000">18 (philosophical)</text>
</g>
<!-- 19&#45;&gt;18 -->
<g id="edge20" class="edge">
<title>19&#45;&gt;18</title>
<path fill="none" stroke="#000000" d="M678.0672,-173.9735C685.1789,-161.8418 694.6832,-145.6287 702.6901,-131.9698"/>
<polygon fill="#000000" stroke="#000000" points="705.9085,-133.4004 707.9463,-123.0034 699.8696,-129.8603 705.9085,-133.4004"/>
<text text-anchor="middle" x="712" y="-144.8" font-family="Times,serif" font-size="14.00" fill="#000000">amod</text>
</g>
<!-- 20 -->
<g id="node22" class="node">
<title>20</title>
<text text-anchor="middle" x="824.5" y="-101.3" font-family="Times,serif" font-size="14.00" fill="#000000">20 (but)</text>
</g>
<!-- 19&#45;&gt;20 -->
<g id="edge21" class="edge">
<title>19&#45;&gt;20</title>
<path fill="none" stroke="#000000" d="M700.0305,-173.9735C724.8568,-160.2163 759.1545,-141.2106 785.4613,-126.6329"/>
<polygon fill="#000000" stroke="#000000" points="787.3541,-129.5856 794.4044,-121.6772 783.9611,-123.4628 787.3541,-129.5856"/>
<text text-anchor="middle" x="761" y="-144.8" font-family="Times,serif" font-size="14.00" fill="#000000">cc</text>
</g>
<!-- 25 -->
<g id="node23" class="node">
<title>25</title>
<text text-anchor="middle" x="919.5" y="-101.3" font-family="Times,serif" font-size="14.00" fill="#000000">25 (ingeneral)</text>
</g>
<!-- 19&#45;&gt;25 -->
<g id="edge22" class="edge">
<title>19&#45;&gt;25</title>
<path fill="none" stroke="#000000" d="M708.549,-177.8283C750.6054,-163.3088 816.2972,-140.6295 863.1949,-124.4387"/>
<polygon fill="#000000" stroke="#000000" points="864.5914,-127.6593 872.9018,-121.0875 862.307,-121.0425 864.5914,-127.6593"/>
<text text-anchor="middle" x="820.5" y="-144.8" font-family="Times,serif" font-size="14.00" fill="#000000">conj</text>
</g>
<!-- 15 -->
<g id="node18" class="node">
<title>15</title>
<text text-anchor="middle" x="536.5" y="-14.3" font-family="Times,serif" font-size="14.00" fill="#000000">15 (not)</text>
</g>
<!-- 16&#45;&gt;15 -->
<g id="edge17" class="edge">
<title>16&#45;&gt;15</title>
<path fill="none" stroke="#000000" d="M536.5,-86.9735C536.5,-75.1918 536.5,-59.5607 536.5,-46.1581"/>
<polygon fill="#000000" stroke="#000000" points="540.0001,-46.0033 536.5,-36.0034 533.0001,-46.0034 540.0001,-46.0033"/>
<text text-anchor="middle" x="546.5" y="-57.8" font-family="Times,serif" font-size="14.00" fill="#000000">neg</text>
</g>
<!-- 21 -->
<g id="node24" class="node">
<title>21</title>
<text text-anchor="middle" x="798.5" y="-14.3" font-family="Times,serif" font-size="14.00" fill="#000000">21 (also)</text>
</g>
<!-- 25&#45;&gt;21 -->
<g id="edge23" class="edge">
<title>25&#45;&gt;21</title>
<path fill="none" stroke="#000000" d="M875.2798,-86.8287C865.0703,-81.7424 854.5564,-75.7356 845.5,-69 835.8838,-61.848 826.6405,-52.5482 818.9337,-43.8516"/>
<polygon fill="#000000" stroke="#000000" points="821.4787,-41.4423 812.3214,-36.1136 816.157,-45.9898 821.4787,-41.4423"/>
<text text-anchor="middle" x="868" y="-57.8" font-family="Times,serif" font-size="14.00" fill="#000000">advmod</text>
</g>
<!-- 22 -->
<g id="node25" class="node">
<title>22</title>
<text text-anchor="middle" x="876.5" y="-14.3" font-family="Times,serif" font-size="14.00" fill="#000000">22 (to)</text>
</g>
<!-- 25&#45;&gt;22 -->
<g id="edge24" class="edge">
<title>25&#45;&gt;22</title>
<path fill="none" stroke="#000000" d="M910.5904,-86.9735C904.5942,-74.8418 896.5808,-58.6287 889.8299,-44.9698"/>
<polygon fill="#000000" stroke="#000000" points="892.9668,-43.4173 885.3982,-36.0034 886.6915,-46.519 892.9668,-43.4173"/>
<text text-anchor="middle" x="912.5" y="-57.8" font-family="Times,serif" font-size="14.00" fill="#000000">case</text>
</g>
<!-- 23 -->
<g id="node26" class="node">
<title>23</title>
<text text-anchor="middle" x="961.5" y="-14.3" font-family="Times,serif" font-size="14.00" fill="#000000">23 (human)</text>
</g>
<!-- 25&#45;&gt;23 -->
<g id="edge25" class="edge">
<title>25&#45;&gt;23</title>
<path fill="none" stroke="#000000" d="M928.2024,-86.9735C934.0028,-74.9585 941.7358,-58.9401 948.2895,-45.3646"/>
<polygon fill="#000000" stroke="#000000" points="951.6131,-46.5305 952.8087,-36.0034 945.3092,-43.4872 951.6131,-46.5305"/>
<text text-anchor="middle" x="958" y="-57.8" font-family="Times,serif" font-size="14.00" fill="#000000">amod</text>
</g>
<!-- 24 -->
<g id="node27" class="node">
<title>24</title>
<text text-anchor="middle" x="1050.5" y="-14.3" font-family="Times,serif" font-size="14.00" fill="#000000">24 (life)</text>
</g>
<!-- 25&#45;&gt;24 -->
<g id="edge26" class="edge">
<title>25&#45;&gt;24</title>
<path fill="none" stroke="#000000" d="M949.2025,-86.993C958.3443,-81.3362 968.3957,-74.9994 977.5,-69 990.6111,-60.3603 1004.8088,-50.5488 1017.1674,-41.855"/>
<polygon fill="#000000" stroke="#000000" points="1019.2459,-44.6719 1025.3935,-36.043 1015.2067,-38.9549 1019.2459,-44.6719"/>
<text text-anchor="middle" x="1026.5" y="-57.8" font-family="Times,serif" font-size="14.00" fill="#000000">compound</text>
</g>
</g>
</svg>
