<?xml version="1.0" encoding="UTF-8" standalone="no"?>
<!DOCTYPE svg PUBLIC "-//W3C//DTD SVG 1.1//EN"
 "http://www.w3.org/Graphics/SVG/1.1/DTD/svg11.dtd">
<!-- Generated by graphviz version 2.40.1 (20161225.0304)
 -->
<!-- Title: G Pages: 1 -->
<svg width="1135pt" height="1088pt"
 viewBox="0.00 0.00 1135.00 1088.00" xmlns="http://www.w3.org/2000/svg" xmlns:xlink="http://www.w3.org/1999/xlink">
<g id="graph0" class="graph" transform="scale(1 1) rotate(0) translate(4 1084)">
<title>G</title>
<polygon fill="#ffffff" stroke="transparent" points="-4,4 -4,-1084 1131,-1084 1131,4 -4,4"/>
<!-- 0 -->
<g id="node1" class="node">
<title>0</title>
<text text-anchor="middle" x="158" y="-1058.3" font-family="Times,serif" font-size="14.00" fill="#000000">0 (None)</text>
</g>
<!-- 6 -->
<g id="node2" class="node">
<title>6</title>
<text text-anchor="middle" x="158" y="-971.3" font-family="Times,serif" font-size="14.00" fill="#000000">6 (recognizes)</text>
</g>
<!-- 0&#45;&gt;6 -->
<g id="edge1" class="edge">
<title>0&#45;&gt;6</title>
<path fill="none" stroke="#000000" d="M158,-1043.9735C158,-1032.1918 158,-1016.5607 158,-1003.1581"/>
<polygon fill="#000000" stroke="#000000" points="161.5001,-1003.0033 158,-993.0034 154.5001,-1003.0034 161.5001,-1003.0033"/>
<text text-anchor="middle" x="176.5" y="-1014.8" font-family="Times,serif" font-size="14.00" fill="#000000">ROOT</text>
</g>
<!-- 1 -->
<g id="node3" class="node">
<title>1</title>
<text text-anchor="middle" x="43" y="-884.3" font-family="Times,serif" font-size="14.00" fill="#000000">1 (Basically)</text>
</g>
<!-- 6&#45;&gt;1 -->
<g id="edge4" class="edge">
<title>6&#45;&gt;1</title>
<path fill="none" stroke="#000000" d="M120.1087,-956.909C110.5728,-951.6728 100.6086,-945.5765 92,-939 82.438,-931.6951 73.0162,-922.5092 65.0285,-913.9529"/>
<polygon fill="#000000" stroke="#000000" points="67.4418,-911.4038 58.1331,-906.3442 62.2548,-916.1044 67.4418,-911.4038"/>
<text text-anchor="middle" x="114.5" y="-927.8" font-family="Times,serif" font-size="14.00" fill="#000000">advmod</text>
</g>
<!-- 2 -->
<g id="node4" class="node">
<title>2</title>
<text text-anchor="middle" x="131" y="-884.3" font-family="Times,serif" font-size="14.00" fill="#000000">2 (,)</text>
</g>
<!-- 6&#45;&gt;2 -->
<g id="edge5" class="edge">
<title>6&#45;&gt;2</title>
<path fill="none" stroke="#000000" d="M151.1063,-956.7809C149.0477,-951.1155 146.8488,-944.8272 145,-939 142.6329,-931.5391 140.2898,-923.3917 138.2172,-915.8423"/>
<polygon fill="#000000" stroke="#000000" points="141.558,-914.7876 135.5818,-906.0391 134.798,-916.6049 141.558,-914.7876"/>
<text text-anchor="middle" x="160.5" y="-927.8" font-family="Times,serif" font-size="14.00" fill="#000000">punct</text>
</g>
<!-- 5 -->
<g id="node7" class="node">
<title>5</title>
<text text-anchor="middle" x="212" y="-884.3" font-family="Times,serif" font-size="14.00" fill="#000000">5 (theory)</text>
</g>
<!-- 6&#45;&gt;5 -->
<g id="edge6" class="edge">
<title>6&#45;&gt;5</title>
<path fill="none" stroke="#000000" d="M169.1888,-956.9735C176.7913,-944.7252 186.976,-928.3165 195.5042,-914.5766"/>
<polygon fill="#000000" stroke="#000000" points="198.5256,-916.3456 200.8255,-906.0034 192.5781,-912.654 198.5256,-916.3456"/>
<text text-anchor="middle" x="204" y="-927.8" font-family="Times,serif" font-size="14.00" fill="#000000">nsubj</text>
</g>
<!-- 12 -->
<g id="node8" class="node">
<title>12</title>
<text text-anchor="middle" x="467" y="-884.3" font-family="Times,serif" font-size="14.00" fill="#000000">12 (has)</text>
</g>
<!-- 6&#45;&gt;12 -->
<g id="edge7" class="edge">
<title>6&#45;&gt;12</title>
<path fill="none" stroke="#000000" d="M205.2668,-961.6919C265.7124,-944.6732 369.3685,-915.4885 426.4114,-899.4278"/>
<polygon fill="#000000" stroke="#000000" points="427.4855,-902.7616 436.1627,-896.6823 425.5884,-896.0236 427.4855,-902.7616"/>
<text text-anchor="middle" x="350.5" y="-927.8" font-family="Times,serif" font-size="14.00" fill="#000000">ccomp</text>
</g>
<!-- 3 -->
<g id="node5" class="node">
<title>3</title>
<text text-anchor="middle" x="118" y="-797.3" font-family="Times,serif" font-size="14.00" fill="#000000">3 (the)</text>
</g>
<!-- 4 -->
<g id="node6" class="node">
<title>4</title>
<text text-anchor="middle" x="212" y="-797.3" font-family="Times,serif" font-size="14.00" fill="#000000">4 (stakeholder)</text>
</g>
<!-- 5&#45;&gt;3 -->
<g id="edge2" class="edge">
<title>5&#45;&gt;3</title>
<path fill="none" stroke="#000000" d="M192.5231,-869.9735C178.7851,-857.2586 160.2031,-840.0603 145.0312,-826.0183"/>
<polygon fill="#000000" stroke="#000000" points="147.1684,-823.2272 137.4519,-819.0034 142.4136,-828.3646 147.1684,-823.2272"/>
<text text-anchor="middle" x="179.5" y="-840.8" font-family="Times,serif" font-size="14.00" fill="#000000">det</text>
</g>
<!-- 5&#45;&gt;4 -->
<g id="edge3" class="edge">
<title>5&#45;&gt;4</title>
<path fill="none" stroke="#000000" d="M212,-869.9735C212,-858.1918 212,-842.5607 212,-829.1581"/>
<polygon fill="#000000" stroke="#000000" points="215.5001,-829.0033 212,-819.0034 208.5001,-829.0034 215.5001,-829.0033"/>
<text text-anchor="middle" x="241" y="-840.8" font-family="Times,serif" font-size="14.00" fill="#000000">compound</text>
</g>
<!-- 7 -->
<g id="node9" class="node">
<title>7</title>
<text text-anchor="middle" x="307" y="-797.3" font-family="Times,serif" font-size="14.00" fill="#000000">7 (that)</text>
</g>
<!-- 12&#45;&gt;7 -->
<g id="edge11" class="edge">
<title>12&#45;&gt;7</title>
<path fill="none" stroke="#000000" d="M436.1504,-871.2255C409.8797,-856.9408 372.0638,-836.3784 344.1367,-821.1931"/>
<polygon fill="#000000" stroke="#000000" points="345.5331,-817.9684 335.0759,-816.2663 342.1892,-824.1181 345.5331,-817.9684"/>
<text text-anchor="middle" x="411.5" y="-840.8" font-family="Times,serif" font-size="14.00" fill="#000000">mark</text>
</g>
<!-- 8 -->
<g id="node10" class="node">
<title>8</title>
<text text-anchor="middle" x="407" y="-797.3" font-family="Times,serif" font-size="14.00" fill="#000000">8 (management)</text>
</g>
<!-- 12&#45;&gt;8 -->
<g id="edge12" class="edge">
<title>12&#45;&gt;8</title>
<path fill="none" stroke="#000000" d="M454.568,-869.9735C446.1208,-857.7252 434.8045,-841.3165 425.3287,-827.5766"/>
<polygon fill="#000000" stroke="#000000" points="427.9747,-825.2484 419.4161,-819.0034 422.2122,-829.2226 427.9747,-825.2484"/>
<text text-anchor="middle" x="456" y="-840.8" font-family="Times,serif" font-size="14.00" fill="#000000">nsubj</text>
</g>
<!-- 15 -->
<g id="node14" class="node">
<title>15</title>
<text text-anchor="middle" x="528" y="-797.3" font-family="Times,serif" font-size="14.00" fill="#000000">15 (obligation)</text>
</g>
<!-- 12&#45;&gt;15 -->
<g id="edge13" class="edge">
<title>12&#45;&gt;15</title>
<path fill="none" stroke="#000000" d="M479.6392,-869.9735C488.2272,-857.7252 499.7321,-841.3165 509.3659,-827.5766"/>
<polygon fill="#000000" stroke="#000000" points="512.5017,-829.2006 515.377,-819.0034 506.7702,-825.1819 512.5017,-829.2006"/>
<text text-anchor="middle" x="514.5" y="-840.8" font-family="Times,serif" font-size="14.00" fill="#000000">dobj</text>
</g>
<!-- 33 -->
<g id="node15" class="node">
<title>33</title>
<text text-anchor="middle" x="626" y="-797.3" font-family="Times,serif" font-size="14.00" fill="#000000">33 (and)</text>
</g>
<!-- 12&#45;&gt;33 -->
<g id="edge14" class="edge">
<title>12&#45;&gt;33</title>
<path fill="none" stroke="#000000" d="M497.6568,-871.2255C522.7904,-857.4732 558.5579,-837.9023 585.9528,-822.9126"/>
<polygon fill="#000000" stroke="#000000" points="587.8022,-825.8904 594.8948,-818.0198 584.4421,-819.7496 587.8022,-825.8904"/>
<text text-anchor="middle" x="563.5" y="-840.8" font-family="Times,serif" font-size="14.00" fill="#000000">cc</text>
</g>
<!-- 40 -->
<g id="node16" class="node">
<title>40</title>
<text text-anchor="middle" x="870" y="-797.3" font-family="Times,serif" font-size="14.00" fill="#000000">40 (negotiated)</text>
</g>
<!-- 12&#45;&gt;40 -->
<g id="edge15" class="edge">
<title>12&#45;&gt;40</title>
<path fill="none" stroke="#000000" d="M497.6213,-881.3895C564.2326,-867.0093 723.2944,-832.6709 810.4276,-813.8605"/>
<polygon fill="#000000" stroke="#000000" points="811.3927,-817.2329 820.4289,-811.7014 809.9155,-810.3905 811.3927,-817.2329"/>
<text text-anchor="middle" x="705" y="-840.8" font-family="Times,serif" font-size="14.00" fill="#000000">conj</text>
</g>
<!-- 11 -->
<g id="node11" class="node">
<title>11</title>
<text text-anchor="middle" x="349" y="-710.3" font-family="Times,serif" font-size="14.00" fill="#000000">11 (company)</text>
</g>
<!-- 8&#45;&gt;11 -->
<g id="edge8" class="edge">
<title>8&#45;&gt;11</title>
<path fill="none" stroke="#000000" d="M394.9824,-782.9735C386.8168,-770.7252 375.8777,-754.3165 366.7177,-740.5766"/>
<polygon fill="#000000" stroke="#000000" points="369.4615,-738.3824 361.0022,-732.0034 363.6371,-742.2653 369.4615,-738.3824"/>
<text text-anchor="middle" x="398" y="-753.8" font-family="Times,serif" font-size="14.00" fill="#000000">nmod</text>
</g>
<!-- 9 -->
<g id="node12" class="node">
<title>9</title>
<text text-anchor="middle" x="313" y="-623.3" font-family="Times,serif" font-size="14.00" fill="#000000">9 (of)</text>
</g>
<!-- 11&#45;&gt;9 -->
<g id="edge9" class="edge">
<title>11&#45;&gt;9</title>
<path fill="none" stroke="#000000" d="M341.5408,-695.9735C336.569,-683.9585 329.9407,-667.9401 324.3233,-654.3646"/>
<polygon fill="#000000" stroke="#000000" points="327.5073,-652.9053 320.4497,-645.0034 321.0392,-655.5818 327.5073,-652.9053"/>
<text text-anchor="middle" x="346" y="-666.8" font-family="Times,serif" font-size="14.00" fill="#000000">case</text>
</g>
<!-- 10 -->
<g id="node13" class="node">
<title>10</title>
<text text-anchor="middle" x="385" y="-623.3" font-family="Times,serif" font-size="14.00" fill="#000000">10 (a)</text>
</g>
<!-- 11&#45;&gt;10 -->
<g id="edge10" class="edge">
<title>11&#45;&gt;10</title>
<path fill="none" stroke="#000000" d="M356.4592,-695.9735C361.431,-683.9585 368.0593,-667.9401 373.6767,-654.3646"/>
<polygon fill="#000000" stroke="#000000" points="376.9608,-655.5818 377.5503,-645.0034 370.4927,-652.9053 376.9608,-655.5818"/>
<text text-anchor="middle" x="378.5" y="-666.8" font-family="Times,serif" font-size="14.00" fill="#000000">det</text>
</g>
<!-- 13 -->
<g id="node17" class="node">
<title>13</title>
<text text-anchor="middle" x="443" y="-710.3" font-family="Times,serif" font-size="14.00" fill="#000000">13 (the)</text>
</g>
<!-- 15&#45;&gt;13 -->
<g id="edge16" class="edge">
<title>15&#45;&gt;13</title>
<path fill="none" stroke="#000000" d="M510.3879,-782.9735C498.0792,-770.3752 481.4703,-753.3755 467.8215,-739.4055"/>
<polygon fill="#000000" stroke="#000000" points="470.0814,-736.7103 460.5895,-732.0034 465.0744,-741.6021 470.0814,-736.7103"/>
<text text-anchor="middle" x="499.5" y="-753.8" font-family="Times,serif" font-size="14.00" fill="#000000">det</text>
</g>
<!-- 14 -->
<g id="node18" class="node">
<title>14</title>
<text text-anchor="middle" x="528" y="-710.3" font-family="Times,serif" font-size="14.00" fill="#000000">14 (moral)</text>
</g>
<!-- 15&#45;&gt;14 -->
<g id="edge17" class="edge">
<title>15&#45;&gt;14</title>
<path fill="none" stroke="#000000" d="M528,-782.9735C528,-771.1918 528,-755.5607 528,-742.1581"/>
<polygon fill="#000000" stroke="#000000" points="531.5001,-742.0033 528,-732.0034 524.5001,-742.0034 531.5001,-742.0033"/>
<text text-anchor="middle" x="543.5" y="-753.8" font-family="Times,serif" font-size="14.00" fill="#000000">amod</text>
</g>
<!-- 17 -->
<g id="node19" class="node">
<title>17</title>
<text text-anchor="middle" x="628" y="-710.3" font-family="Times,serif" font-size="14.00" fill="#000000">17 (consider)</text>
</g>
<!-- 15&#45;&gt;17 -->
<g id="edge18" class="edge">
<title>15&#45;&gt;17</title>
<path fill="none" stroke="#000000" d="M548.7201,-782.9735C563.4691,-770.1419 583.4663,-752.7443 599.6867,-738.6326"/>
<polygon fill="#000000" stroke="#000000" points="602.0593,-741.2076 607.3065,-732.0034 597.4647,-735.9265 602.0593,-741.2076"/>
<text text-anchor="middle" x="592" y="-753.8" font-family="Times,serif" font-size="14.00" fill="#000000">acl</text>
</g>
<!-- 34 -->
<g id="node36" class="node">
<title>34</title>
<text text-anchor="middle" x="722" y="-710.3" font-family="Times,serif" font-size="14.00" fill="#000000">34 (that)</text>
</g>
<!-- 40&#45;&gt;34 -->
<g id="edge37" class="edge">
<title>40&#45;&gt;34</title>
<path fill="none" stroke="#000000" d="M826.7192,-782.8644C815.2028,-777.5455 802.9314,-771.42 792,-765 778.6455,-757.157 764.7056,-747.3692 752.8132,-738.4713"/>
<polygon fill="#000000" stroke="#000000" points="754.6316,-735.4571 744.5531,-732.19 750.3945,-741.0291 754.6316,-735.4571"/>
<text text-anchor="middle" x="806.5" y="-753.8" font-family="Times,serif" font-size="14.00" fill="#000000">mark</text>
</g>
<!-- 37 -->
<g id="node39" class="node">
<title>37</title>
<text text-anchor="middle" x="816" y="-710.3" font-family="Times,serif" font-size="14.00" fill="#000000">37 (interests)</text>
</g>
<!-- 40&#45;&gt;37 -->
<g id="edge38" class="edge">
<title>40&#45;&gt;37</title>
<path fill="none" stroke="#000000" d="M847.0646,-782.8529C841.5245,-777.5766 836.0433,-771.4749 832,-765 827.6939,-758.1042 824.4612,-749.9552 822.0715,-742.2185"/>
<polygon fill="#000000" stroke="#000000" points="825.4078,-741.1495 819.3964,-732.4252 818.6552,-742.9941 825.4078,-741.1495"/>
<text text-anchor="middle" x="858.5" y="-753.8" font-family="Times,serif" font-size="14.00" fill="#000000">nsubjpass</text>
</g>
<!-- 38 -->
<g id="node40" class="node">
<title>38</title>
<text text-anchor="middle" x="913" y="-710.3" font-family="Times,serif" font-size="14.00" fill="#000000">38 (must)</text>
</g>
<!-- 40&#45;&gt;38 -->
<g id="edge39" class="edge">
<title>40&#45;&gt;38</title>
<path fill="none" stroke="#000000" d="M878.9096,-782.9735C884.9058,-770.8418 892.9192,-754.6287 899.6701,-740.9698"/>
<polygon fill="#000000" stroke="#000000" points="902.8085,-742.519 904.1018,-732.0034 896.5332,-739.4173 902.8085,-742.519"/>
<text text-anchor="middle" x="905" y="-753.8" font-family="Times,serif" font-size="14.00" fill="#000000">aux</text>
</g>
<!-- 39 -->
<g id="node41" class="node">
<title>39</title>
<text text-anchor="middle" x="994" y="-710.3" font-family="Times,serif" font-size="14.00" fill="#000000">39 (be)</text>
</g>
<!-- 40&#45;&gt;39 -->
<g id="edge40" class="edge">
<title>40&#45;&gt;39</title>
<path fill="none" stroke="#000000" d="M895.6929,-782.9735C914.3142,-769.9086 939.682,-752.1102 959.9839,-737.8662"/>
<polygon fill="#000000" stroke="#000000" points="962.1641,-740.612 968.34,-732.0034 958.1437,-734.8817 962.1641,-740.612"/>
<text text-anchor="middle" x="961.5" y="-753.8" font-family="Times,serif" font-size="14.00" fill="#000000">auxpass</text>
</g>
<!-- 43 -->
<g id="node42" class="node">
<title>43</title>
<text text-anchor="middle" x="1073" y="-710.3" font-family="Times,serif" font-size="14.00" fill="#000000">43 (way)</text>
</g>
<!-- 40&#45;&gt;43 -->
<g id="edge41" class="edge">
<title>40&#45;&gt;43</title>
<path fill="none" stroke="#000000" d="M919.6134,-788.5467C940.7931,-782.5163 965.5275,-774.5089 987,-765 1004.3809,-757.303 1022.6284,-746.8589 1037.8208,-737.4263"/>
<polygon fill="#000000" stroke="#000000" points="1039.7976,-740.3174 1046.3831,-732.0179 1036.0593,-734.3992 1039.7976,-740.3174"/>
<text text-anchor="middle" x="1033" y="-753.8" font-family="Times,serif" font-size="14.00" fill="#000000">nmod</text>
</g>
<!-- 16 -->
<g id="node20" class="node">
<title>16</title>
<text text-anchor="middle" x="588" y="-623.3" font-family="Times,serif" font-size="14.00" fill="#000000">16 (to)</text>
</g>
<!-- 17&#45;&gt;16 -->
<g id="edge19" class="edge">
<title>17&#45;&gt;16</title>
<path fill="none" stroke="#000000" d="M617.345,-695.9322C614.1759,-690.273 610.8042,-683.9501 608,-678 604.5042,-670.5825 601.0946,-662.3764 598.1096,-654.7543"/>
<polygon fill="#000000" stroke="#000000" points="601.2937,-653.2813 594.4585,-645.1862 594.7537,-655.7769 601.2937,-653.2813"/>
<text text-anchor="middle" x="622.5" y="-666.8" font-family="Times,serif" font-size="14.00" fill="#000000">mark</text>
</g>
<!-- 19 -->
<g id="node21" class="node">
<title>19</title>
<text text-anchor="middle" x="677" y="-623.3" font-family="Times,serif" font-size="14.00" fill="#000000">19 (interests)</text>
</g>
<!-- 17&#45;&gt;19 -->
<g id="edge20" class="edge">
<title>17&#45;&gt;19</title>
<path fill="none" stroke="#000000" d="M638.1528,-695.9735C644.9856,-683.8418 654.1172,-667.6287 661.8101,-653.9698"/>
<polygon fill="#000000" stroke="#000000" points="665.0023,-655.4341 666.8602,-645.0034 658.9032,-651.9989 665.0023,-655.4341"/>
<text text-anchor="middle" x="668.5" y="-666.8" font-family="Times,serif" font-size="14.00" fill="#000000">dobj</text>
</g>
<!-- 18 -->
<g id="node22" class="node">
<title>18</title>
<text text-anchor="middle" x="648" y="-536.3" font-family="Times,serif" font-size="14.00" fill="#000000">18 (the)</text>
</g>
<!-- 19&#45;&gt;18 -->
<g id="edge21" class="edge">
<title>19&#45;&gt;18</title>
<path fill="none" stroke="#000000" d="M670.9912,-608.9735C667.025,-597.0751 661.7503,-581.2508 657.2535,-567.7606"/>
<polygon fill="#000000" stroke="#000000" points="660.4839,-566.3834 654.0011,-558.0034 653.8431,-568.597 660.4839,-566.3834"/>
<text text-anchor="middle" x="673.5" y="-579.8" font-family="Times,serif" font-size="14.00" fill="#000000">det</text>
</g>
<!-- 21 -->
<g id="node23" class="node">
<title>21</title>
<text text-anchor="middle" x="724" y="-536.3" font-family="Times,serif" font-size="14.00" fill="#000000">21 (all)</text>
</g>
<!-- 19&#45;&gt;21 -->
<g id="edge22" class="edge">
<title>19&#45;&gt;21</title>
<path fill="none" stroke="#000000" d="M686.7384,-608.9735C693.2923,-596.8418 702.0512,-580.6287 709.4301,-566.9698"/>
<polygon fill="#000000" stroke="#000000" points="712.6003,-568.4652 714.274,-558.0034 706.4416,-565.138 712.6003,-568.4652"/>
<text text-anchor="middle" x="720" y="-579.8" font-family="Times,serif" font-size="14.00" fill="#000000">nmod</text>
</g>
<!-- 20 -->
<g id="node24" class="node">
<title>20</title>
<text text-anchor="middle" x="692" y="-449.3" font-family="Times,serif" font-size="14.00" fill="#000000">20 (of)</text>
</g>
<!-- 21&#45;&gt;20 -->
<g id="edge23" class="edge">
<title>21&#45;&gt;20</title>
<path fill="none" stroke="#000000" d="M716.7657,-521.7285C714.5564,-516.0609 712.145,-509.7846 710,-504 707.2619,-496.6159 704.3858,-488.5958 701.756,-481.149"/>
<polygon fill="#000000" stroke="#000000" points="704.9714,-479.7413 698.3587,-471.4634 698.3659,-482.0582 704.9714,-479.7413"/>
<text text-anchor="middle" x="722" y="-492.8" font-family="Times,serif" font-size="14.00" fill="#000000">case</text>
</g>
<!-- 23 -->
<g id="node25" class="node">
<title>23</title>
<text text-anchor="middle" x="773" y="-449.3" font-family="Times,serif" font-size="14.00" fill="#000000">23 (those)</text>
</g>
<!-- 21&#45;&gt;23 -->
<g id="edge24" class="edge">
<title>21&#45;&gt;23</title>
<path fill="none" stroke="#000000" d="M734.1528,-521.9735C740.9856,-509.8418 750.1172,-493.6287 757.8101,-479.9698"/>
<polygon fill="#000000" stroke="#000000" points="761.0023,-481.4341 762.8602,-471.0034 754.9032,-477.9989 761.0023,-481.4341"/>
<text text-anchor="middle" x="768" y="-492.8" font-family="Times,serif" font-size="14.00" fill="#000000">nmod</text>
</g>
<!-- 22 -->
<g id="node26" class="node">
<title>22</title>
<text text-anchor="middle" x="741" y="-362.3" font-family="Times,serif" font-size="14.00" fill="#000000">22 (of)</text>
</g>
<!-- 23&#45;&gt;22 -->
<g id="edge25" class="edge">
<title>23&#45;&gt;22</title>
<path fill="none" stroke="#000000" d="M765.1087,-434.7889C762.7359,-429.1238 760.1843,-422.8336 758,-417 755.1783,-409.464 752.329,-401.2193 749.7907,-393.598"/>
<polygon fill="#000000" stroke="#000000" points="753.1019,-392.4629 746.6615,-384.0503 746.45,-394.643 753.1019,-392.4629"/>
<text text-anchor="middle" x="770" y="-405.8" font-family="Times,serif" font-size="14.00" fill="#000000">case</text>
</g>
<!-- 25 -->
<g id="node27" class="node">
<title>25</title>
<text text-anchor="middle" x="820" y="-362.3" font-family="Times,serif" font-size="14.00" fill="#000000">25 (have)</text>
</g>
<!-- 23&#45;&gt;25 -->
<g id="edge26" class="edge">
<title>23&#45;&gt;25</title>
<path fill="none" stroke="#000000" d="M782.7384,-434.9735C789.2923,-422.8418 798.0512,-406.6287 805.4301,-392.9698"/>
<polygon fill="#000000" stroke="#000000" points="808.6003,-394.4652 810.274,-384.0034 802.4416,-391.138 808.6003,-394.4652"/>
<text text-anchor="middle" x="822" y="-405.8" font-family="Times,serif" font-size="14.00" fill="#000000">acl:relcl</text>
</g>
<!-- 24 -->
<g id="node28" class="node">
<title>24</title>
<text text-anchor="middle" x="785" y="-275.3" font-family="Times,serif" font-size="14.00" fill="#000000">24 (who)</text>
</g>
<!-- 25&#45;&gt;24 -->
<g id="edge27" class="edge">
<title>25&#45;&gt;24</title>
<path fill="none" stroke="#000000" d="M810.9868,-347.8469C808.2948,-342.1842 805.419,-335.8808 803,-330 799.9204,-322.5132 796.8735,-314.2845 794.1865,-306.6628"/>
<polygon fill="#000000" stroke="#000000" points="797.4596,-305.418 790.8891,-297.1066 790.8424,-307.7013 797.4596,-305.418"/>
<text text-anchor="middle" x="818" y="-318.8" font-family="Times,serif" font-size="14.00" fill="#000000">nsubj</text>
</g>
<!-- 27 -->
<g id="node29" class="node">
<title>27</title>
<text text-anchor="middle" x="872" y="-275.3" font-family="Times,serif" font-size="14.00" fill="#000000">27 (stake)</text>
</g>
<!-- 25&#45;&gt;27 -->
<g id="edge28" class="edge">
<title>25&#45;&gt;27</title>
<path fill="none" stroke="#000000" d="M830.7744,-347.9735C838.0256,-335.8418 847.7162,-319.6287 855.8801,-305.9698"/>
<polygon fill="#000000" stroke="#000000" points="859.1132,-307.3827 861.2394,-297.0034 853.1046,-303.7913 859.1132,-307.3827"/>
<text text-anchor="middle" x="862.5" y="-318.8" font-family="Times,serif" font-size="14.00" fill="#000000">dobj</text>
</g>
<!-- 26 -->
<g id="node30" class="node">
<title>26</title>
<text text-anchor="middle" x="839" y="-188.3" font-family="Times,serif" font-size="14.00" fill="#000000">26 (a)</text>
</g>
<!-- 27&#45;&gt;26 -->
<g id="edge29" class="edge">
<title>27&#45;&gt;26</title>
<path fill="none" stroke="#000000" d="M865.1624,-260.9735C860.6049,-248.9585 854.529,-232.9401 849.3797,-219.3646"/>
<polygon fill="#000000" stroke="#000000" points="852.648,-218.112 845.8289,-210.0034 846.103,-220.5947 852.648,-218.112"/>
<text text-anchor="middle" x="866.5" y="-231.8" font-family="Times,serif" font-size="14.00" fill="#000000">det</text>
</g>
<!-- 32 -->
<g id="node31" class="node">
<title>32</title>
<text text-anchor="middle" x="930" y="-188.3" font-family="Times,serif" font-size="14.00" fill="#000000">32 (activities)</text>
</g>
<!-- 27&#45;&gt;32 -->
<g id="edge30" class="edge">
<title>27&#45;&gt;32</title>
<path fill="none" stroke="#000000" d="M884.0176,-260.9735C892.1832,-248.7252 903.1223,-232.3165 912.2823,-218.5766"/>
<polygon fill="#000000" stroke="#000000" points="915.3629,-220.2653 917.9978,-210.0034 909.5385,-216.3824 915.3629,-220.2653"/>
<text text-anchor="middle" x="921" y="-231.8" font-family="Times,serif" font-size="14.00" fill="#000000">nmod</text>
</g>
<!-- 28 -->
<g id="node32" class="node">
<title>28</title>
<text text-anchor="middle" x="896" y="-101.3" font-family="Times,serif" font-size="14.00" fill="#000000">28 (in)</text>
</g>
<!-- 32&#45;&gt;28 -->
<g id="edge33" class="edge">
<title>32&#45;&gt;28</title>
<path fill="none" stroke="#000000" d="M922.9552,-173.9735C918.2596,-161.9585 911.9996,-145.9401 906.6942,-132.3646"/>
<polygon fill="#000000" stroke="#000000" points="909.9357,-131.0434 903.0358,-123.0034 903.4159,-133.5914 909.9357,-131.0434"/>
<text text-anchor="middle" x="928" y="-144.8" font-family="Times,serif" font-size="14.00" fill="#000000">case</text>
</g>
<!-- 30 -->
<g id="node34" class="node">
<title>30</title>
<text text-anchor="middle" x="988" y="-101.3" font-family="Times,serif" font-size="14.00" fill="#000000">30 (company)</text>
</g>
<!-- 32&#45;&gt;30 -->
<g id="edge34" class="edge">
<title>32&#45;&gt;30</title>
<path fill="none" stroke="#000000" d="M942.0176,-173.9735C950.1832,-161.7252 961.1223,-145.3165 970.2823,-131.5766"/>
<polygon fill="#000000" stroke="#000000" points="973.3629,-133.2653 975.9978,-123.0034 967.5385,-129.3824 973.3629,-133.2653"/>
<text text-anchor="middle" x="993" y="-144.8" font-family="Times,serif" font-size="14.00" fill="#000000">nmod:poss</text>
</g>
<!-- 29 -->
<g id="node33" class="node">
<title>29</title>
<text text-anchor="middle" x="951" y="-14.3" font-family="Times,serif" font-size="14.00" fill="#000000">29 (the)</text>
</g>
<!-- 30&#45;&gt;29 -->
<g id="edge31" class="edge">
<title>30&#45;&gt;29</title>
<path fill="none" stroke="#000000" d="M980.3336,-86.9735C975.2237,-74.9585 968.4113,-58.9401 962.6378,-45.3646"/>
<polygon fill="#000000" stroke="#000000" points="965.7911,-43.8359 958.6566,-36.0034 959.3495,-46.5755 965.7911,-43.8359"/>
<text text-anchor="middle" x="980.5" y="-57.8" font-family="Times,serif" font-size="14.00" fill="#000000">det</text>
</g>
<!-- 31 -->
<g id="node35" class="node">
<title>31</title>
<text text-anchor="middle" x="1026" y="-14.3" font-family="Times,serif" font-size="14.00" fill="#000000">31 (&#39;s)</text>
</g>
<!-- 30&#45;&gt;31 -->
<g id="edge32" class="edge">
<title>30&#45;&gt;31</title>
<path fill="none" stroke="#000000" d="M995.8736,-86.9735C1001.1216,-74.9585 1008.1181,-58.9401 1014.0477,-45.3646"/>
<polygon fill="#000000" stroke="#000000" points="1017.3411,-46.5683 1018.1365,-36.0034 1010.9263,-43.7664 1017.3411,-46.5683"/>
<text text-anchor="middle" x="1022" y="-57.8" font-family="Times,serif" font-size="14.00" fill="#000000">case</text>
</g>
<!-- 35 -->
<g id="node37" class="node">
<title>35</title>
<text text-anchor="middle" x="798" y="-623.3" font-family="Times,serif" font-size="14.00" fill="#000000">35 (their)</text>
</g>
<!-- 36 -->
<g id="node38" class="node">
<title>36</title>
<text text-anchor="middle" x="901" y="-623.3" font-family="Times,serif" font-size="14.00" fill="#000000">36 (competing)</text>
</g>
<!-- 37&#45;&gt;35 -->
<g id="edge35" class="edge">
<title>37&#45;&gt;35</title>
<path fill="none" stroke="#000000" d="M812.2704,-695.9735C809.8328,-684.1918 806.5988,-668.5607 803.8258,-655.1581"/>
<polygon fill="#000000" stroke="#000000" points="807.1784,-654.0868 801.7248,-645.0034 800.3236,-655.5051 807.1784,-654.0868"/>
<text text-anchor="middle" x="839" y="-666.8" font-family="Times,serif" font-size="14.00" fill="#000000">nmod:poss</text>
</g>
<!-- 37&#45;&gt;36 -->
<g id="edge36" class="edge">
<title>37&#45;&gt;36</title>
<path fill="none" stroke="#000000" d="M850.9806,-695.8281C858.8118,-690.7418 866.665,-684.7352 873,-678 879.3668,-671.231 884.7736,-662.7405 889.0883,-654.6401"/>
<polygon fill="#000000" stroke="#000000" points="892.3444,-655.9516 893.6436,-645.4367 886.0708,-652.8464 892.3444,-655.9516"/>
<text text-anchor="middle" x="899.5" y="-666.8" font-family="Times,serif" font-size="14.00" fill="#000000">amod</text>
</g>
<!-- 41 -->
<g id="node43" class="node">
<title>41</title>
<text text-anchor="middle" x="1010" y="-623.3" font-family="Times,serif" font-size="14.00" fill="#000000">41 (in)</text>
</g>
<!-- 43&#45;&gt;41 -->
<g id="edge42" class="edge">
<title>43&#45;&gt;41</title>
<path fill="none" stroke="#000000" d="M1059.9464,-695.9735C1050.9924,-683.6085 1038.9681,-667.0036 1028.9613,-653.1847"/>
<polygon fill="#000000" stroke="#000000" points="1031.7369,-651.05 1023.0369,-645.0034 1026.0673,-655.1556 1031.7369,-651.05"/>
<text text-anchor="middle" x="1057" y="-666.8" font-family="Times,serif" font-size="14.00" fill="#000000">case</text>
</g>
<!-- 42 -->
<g id="node44" class="node">
<title>42</title>
<text text-anchor="middle" x="1091" y="-623.3" font-family="Times,serif" font-size="14.00" fill="#000000">42 (some)</text>
</g>
<!-- 43&#45;&gt;42 -->
<g id="edge43" class="edge">
<title>43&#45;&gt;42</title>
<path fill="none" stroke="#000000" d="M1076.7296,-695.9735C1079.1672,-684.1918 1082.4012,-668.5607 1085.1742,-655.1581"/>
<polygon fill="#000000" stroke="#000000" points="1088.6764,-655.5051 1087.2752,-645.0034 1081.8216,-654.0868 1088.6764,-655.5051"/>
<text text-anchor="middle" x="1091.5" y="-666.8" font-family="Times,serif" font-size="14.00" fill="#000000">det</text>
</g>
</g>
</svg>
