<?xml version="1.0" encoding="UTF-8" standalone="no"?>
<!DOCTYPE svg PUBLIC "-//W3C//DTD SVG 1.1//EN"
 "http://www.w3.org/Graphics/SVG/1.1/DTD/svg11.dtd">
<!-- Generated by graphviz version 2.40.1 (20161225.0304)
 -->
<!-- Title: G Pages: 1 -->
<svg width="428pt" height="479pt"
 viewBox="0.00 0.00 427.50 479.00" xmlns="http://www.w3.org/2000/svg" xmlns:xlink="http://www.w3.org/1999/xlink">
<g id="graph0" class="graph" transform="scale(1 1) rotate(0) translate(4 475)">
<title>G</title>
<polygon fill="#ffffff" stroke="transparent" points="-4,4 -4,-475 423.5,-475 423.5,4 -4,4"/>
<!-- 0 -->
<g id="node1" class="node">
<title>0</title>
<text text-anchor="middle" x="144.5" y="-449.3" font-family="Times,serif" font-size="14.00" fill="#000000">0 (None)</text>
</g>
<!-- 3 -->
<g id="node2" class="node">
<title>3</title>
<text text-anchor="middle" x="144.5" y="-362.3" font-family="Times,serif" font-size="14.00" fill="#000000">3 (come)</text>
</g>
<!-- 0&#45;&gt;3 -->
<g id="edge1" class="edge">
<title>0&#45;&gt;3</title>
<path fill="none" stroke="#000000" d="M144.5,-434.9735C144.5,-423.1918 144.5,-407.5607 144.5,-394.1581"/>
<polygon fill="#000000" stroke="#000000" points="148.0001,-394.0033 144.5,-384.0034 141.0001,-394.0034 148.0001,-394.0033"/>
<text text-anchor="middle" x="163" y="-405.8" font-family="Times,serif" font-size="14.00" fill="#000000">ROOT</text>
</g>
<!-- 1 -->
<g id="node3" class="node">
<title>1</title>
<text text-anchor="middle" x="29.5" y="-275.3" font-family="Times,serif" font-size="14.00" fill="#000000">1 (You)</text>
</g>
<!-- 3&#45;&gt;1 -->
<g id="edge2" class="edge">
<title>3&#45;&gt;1</title>
<path fill="none" stroke="#000000" d="M112.2316,-347.8341C103.3425,-342.4253 93.8529,-336.2618 85.5,-330 75.0606,-322.174 64.3014,-312.7535 55.0383,-304.1499"/>
<polygon fill="#000000" stroke="#000000" points="57.3215,-301.492 47.6491,-297.168 52.5139,-306.58 57.3215,-301.492"/>
<text text-anchor="middle" x="100.5" y="-318.8" font-family="Times,serif" font-size="14.00" fill="#000000">nsubj</text>
</g>
<!-- 2 -->
<g id="node4" class="node">
<title>2</title>
<text text-anchor="middle" x="105.5" y="-275.3" font-family="Times,serif" font-size="14.00" fill="#000000">2 (will)</text>
</g>
<!-- 3&#45;&gt;2 -->
<g id="edge3" class="edge">
<title>3&#45;&gt;2</title>
<path fill="none" stroke="#000000" d="M133.7822,-347.9615C130.6105,-342.3034 127.2532,-335.9739 124.5,-330 121.0902,-322.6014 117.822,-314.4015 114.9869,-306.7793"/>
<polygon fill="#000000" stroke="#000000" points="118.2197,-305.4266 111.5337,-297.2079 111.6352,-307.8022 118.2197,-305.4266"/>
<text text-anchor="middle" x="134.5" y="-318.8" font-family="Times,serif" font-size="14.00" fill="#000000">aux</text>
</g>
<!-- 6 -->
<g id="node5" class="node">
<title>6</title>
<text text-anchor="middle" x="184.5" y="-275.3" font-family="Times,serif" font-size="14.00" fill="#000000">6 (place)</text>
</g>
<!-- 3&#45;&gt;6 -->
<g id="edge4" class="edge">
<title>3&#45;&gt;6</title>
<path fill="none" stroke="#000000" d="M152.788,-347.9735C158.3122,-335.9585 165.677,-319.9401 171.9186,-306.3646"/>
<polygon fill="#000000" stroke="#000000" points="175.2252,-307.5512 176.2226,-297.0034 168.8652,-304.627 175.2252,-307.5512"/>
<text text-anchor="middle" x="183.5" y="-318.8" font-family="Times,serif" font-size="14.00" fill="#000000">nmod</text>
</g>
<!-- 13 -->
<g id="node6" class="node">
<title>13</title>
<text text-anchor="middle" x="262.5" y="-275.3" font-family="Times,serif" font-size="14.00" fill="#000000">13 (.)</text>
</g>
<!-- 3&#45;&gt;13 -->
<g id="edge5" class="edge">
<title>3&#45;&gt;13</title>
<path fill="none" stroke="#000000" d="M176.357,-347.8783C185.3324,-342.4227 194.9698,-336.2238 203.5,-330 214.4607,-322.0029 225.881,-312.4518 235.7215,-303.7888"/>
<polygon fill="#000000" stroke="#000000" points="238.1084,-306.3498 243.2358,-297.0783 233.4457,-301.1287 238.1084,-306.3498"/>
<text text-anchor="middle" x="238" y="-318.8" font-family="Times,serif" font-size="14.00" fill="#000000">punct</text>
</g>
<!-- 4 -->
<g id="node7" class="node">
<title>4</title>
<text text-anchor="middle" x="112.5" y="-188.3" font-family="Times,serif" font-size="14.00" fill="#000000">4 (to)</text>
</g>
<!-- 6&#45;&gt;4 -->
<g id="edge6" class="edge">
<title>6&#45;&gt;4</title>
<path fill="none" stroke="#000000" d="M169.5816,-260.9735C159.2519,-248.4919 145.3468,-231.6899 133.8471,-217.7944"/>
<polygon fill="#000000" stroke="#000000" points="136.4714,-215.4758 127.3993,-210.0034 131.0787,-219.9388 136.4714,-215.4758"/>
<text text-anchor="middle" x="165.5" y="-231.8" font-family="Times,serif" font-size="14.00" fill="#000000">case</text>
</g>
<!-- 5 -->
<g id="node8" class="node">
<title>5</title>
<text text-anchor="middle" x="184.5" y="-188.3" font-family="Times,serif" font-size="14.00" fill="#000000">5 (a)</text>
</g>
<!-- 6&#45;&gt;5 -->
<g id="edge7" class="edge">
<title>6&#45;&gt;5</title>
<path fill="none" stroke="#000000" d="M184.5,-260.9735C184.5,-249.1918 184.5,-233.5607 184.5,-220.1581"/>
<polygon fill="#000000" stroke="#000000" points="188.0001,-220.0033 184.5,-210.0034 181.0001,-220.0034 188.0001,-220.0033"/>
<text text-anchor="middle" x="193" y="-231.8" font-family="Times,serif" font-size="14.00" fill="#000000">det</text>
</g>
<!-- 12 -->
<g id="node9" class="node">
<title>12</title>
<text text-anchor="middle" x="271.5" y="-188.3" font-family="Times,serif" font-size="14.00" fill="#000000">12 (marked)</text>
</g>
<!-- 6&#45;&gt;12 -->
<g id="edge8" class="edge">
<title>6&#45;&gt;12</title>
<path fill="none" stroke="#000000" d="M202.5265,-260.9735C215.1248,-248.3752 232.1245,-231.3755 246.0945,-217.4055"/>
<polygon fill="#000000" stroke="#000000" points="248.9004,-219.5493 253.4966,-210.0034 243.9507,-214.5996 248.9004,-219.5493"/>
<text text-anchor="middle" x="255.5" y="-231.8" font-family="Times,serif" font-size="14.00" fill="#000000">acl:relcl</text>
</g>
<!-- 7 -->
<g id="node10" class="node">
<title>7</title>
<text text-anchor="middle" x="140.5" y="-101.3" font-family="Times,serif" font-size="14.00" fill="#000000">7 (where)</text>
</g>
<!-- 12&#45;&gt;7 -->
<g id="edge10" class="edge">
<title>12&#45;&gt;7</title>
<path fill="none" stroke="#000000" d="M229.3454,-176.8962C206.8921,-168.635 182.9798,-159.4048 178.5,-156 169.797,-149.3855 162.1423,-140.2598 156.0266,-131.5543"/>
<polygon fill="#000000" stroke="#000000" points="158.8733,-129.5136 150.4421,-123.0975 153.032,-133.371 158.8733,-129.5136"/>
<text text-anchor="middle" x="201" y="-144.8" font-family="Times,serif" font-size="14.00" fill="#000000">advmod</text>
</g>
<!-- 9 -->
<g id="node12" class="node">
<title>9</title>
<text text-anchor="middle" x="228.5" y="-101.3" font-family="Times,serif" font-size="14.00" fill="#000000">9 (streets)</text>
</g>
<!-- 12&#45;&gt;9 -->
<g id="edge11" class="edge">
<title>12&#45;&gt;9</title>
<path fill="none" stroke="#000000" d="M245.3716,-173.9003C239.8613,-168.7769 234.7401,-162.7354 231.5,-156 228.1694,-149.0763 226.7493,-140.9987 226.3281,-133.3409"/>
<polygon fill="#000000" stroke="#000000" points="229.828,-133.2922 226.2873,-123.3066 222.8281,-133.3207 229.828,-133.2922"/>
<text text-anchor="middle" x="258" y="-144.8" font-family="Times,serif" font-size="14.00" fill="#000000">nsubjpass</text>
</g>
<!-- 10 -->
<g id="node13" class="node">
<title>10</title>
<text text-anchor="middle" x="311.5" y="-101.3" font-family="Times,serif" font-size="14.00" fill="#000000">10 (are)</text>
</g>
<!-- 12&#45;&gt;10 -->
<g id="edge12" class="edge">
<title>12&#45;&gt;10</title>
<path fill="none" stroke="#000000" d="M280.2104,-173.7149C282.8901,-168.0468 285.8352,-161.7736 288.5,-156 291.9917,-148.4351 295.7258,-140.2136 299.1478,-132.6249"/>
<polygon fill="#000000" stroke="#000000" points="302.3652,-134.004 303.2738,-123.4482 295.9809,-131.1335 302.3652,-134.004"/>
<text text-anchor="middle" x="317" y="-144.8" font-family="Times,serif" font-size="14.00" fill="#000000">auxpass</text>
</g>
<!-- 11 -->
<g id="node14" class="node">
<title>11</title>
<text text-anchor="middle" x="389.5" y="-101.3" font-family="Times,serif" font-size="14.00" fill="#000000">11 (not)</text>
</g>
<!-- 12&#45;&gt;11 -->
<g id="edge13" class="edge">
<title>12&#45;&gt;11</title>
<path fill="none" stroke="#000000" d="M313.5306,-173.809C323.4432,-168.6884 333.6831,-162.6711 342.5,-156 352.0569,-148.769 361.287,-139.4515 368.9998,-130.7631"/>
<polygon fill="#000000" stroke="#000000" points="371.7707,-132.9085 375.6223,-123.0386 366.4564,-128.3524 371.7707,-132.9085"/>
<text text-anchor="middle" x="368.5" y="-144.8" font-family="Times,serif" font-size="14.00" fill="#000000">neg</text>
</g>
<!-- 8 -->
<g id="node11" class="node">
<title>8</title>
<text text-anchor="middle" x="228.5" y="-14.3" font-family="Times,serif" font-size="14.00" fill="#000000">8 (the)</text>
</g>
<!-- 9&#45;&gt;8 -->
<g id="edge9" class="edge">
<title>9&#45;&gt;8</title>
<path fill="none" stroke="#000000" d="M228.5,-86.9735C228.5,-75.1918 228.5,-59.5607 228.5,-46.1581"/>
<polygon fill="#000000" stroke="#000000" points="232.0001,-46.0033 228.5,-36.0034 225.0001,-46.0034 232.0001,-46.0033"/>
<text text-anchor="middle" x="237" y="-57.8" font-family="Times,serif" font-size="14.00" fill="#000000">det</text>
</g>
</g>
</svg>
