<?xml version="1.0" encoding="UTF-8" standalone="no"?>
<!DOCTYPE svg PUBLIC "-//W3C//DTD SVG 1.1//EN"
 "http://www.w3.org/Graphics/SVG/1.1/DTD/svg11.dtd">
<!-- Generated by graphviz version 2.40.1 (20161225.0304)
 -->
<!-- Title: G Pages: 1 -->
<svg width="190pt" height="305pt"
 viewBox="0.00 0.00 189.50 305.00" xmlns="http://www.w3.org/2000/svg" xmlns:xlink="http://www.w3.org/1999/xlink">
<g id="graph0" class="graph" transform="scale(1 1) rotate(0) translate(4 301)">
<title>G</title>
<polygon fill="#ffffff" stroke="transparent" points="-4,4 -4,-301 185.5,-301 185.5,4 -4,4"/>
<!-- 0 -->
<g id="node1" class="node">
<title>0</title>
<text text-anchor="middle" x="73" y="-275.3" font-family="Times,serif" font-size="14.00" fill="#000000">0 (None)</text>
</g>
<!-- 2 -->
<g id="node2" class="node">
<title>2</title>
<text text-anchor="middle" x="73" y="-188.3" font-family="Times,serif" font-size="14.00" fill="#000000">2 (goes)</text>
</g>
<!-- 0&#45;&gt;2 -->
<g id="edge1" class="edge">
<title>0&#45;&gt;2</title>
<path fill="none" stroke="#000000" d="M73,-260.9735C73,-249.1918 73,-233.5607 73,-220.1581"/>
<polygon fill="#000000" stroke="#000000" points="76.5001,-220.0033 73,-210.0034 69.5001,-220.0034 76.5001,-220.0033"/>
<text text-anchor="middle" x="91.5" y="-231.8" font-family="Times,serif" font-size="14.00" fill="#000000">ROOT</text>
</g>
<!-- 1 -->
<g id="node3" class="node">
<title>1</title>
<text text-anchor="middle" x="47" y="-101.3" font-family="Times,serif" font-size="14.00" fill="#000000">1 (Caterpillar)</text>
</g>
<!-- 2&#45;&gt;1 -->
<g id="edge2" class="edge">
<title>2&#45;&gt;1</title>
<path fill="none" stroke="#000000" d="M67.6128,-173.9735C64.0569,-162.0751 59.3278,-146.2508 55.2963,-132.7606"/>
<polygon fill="#000000" stroke="#000000" points="58.5972,-131.5825 52.3803,-123.0034 51.8903,-133.5869 58.5972,-131.5825"/>
<text text-anchor="middle" x="77" y="-144.8" font-family="Times,serif" font-size="14.00" fill="#000000">nsubj</text>
</g>
<!-- 4 -->
<g id="node4" class="node">
<title>4</title>
<text text-anchor="middle" x="147" y="-101.3" font-family="Times,serif" font-size="14.00" fill="#000000">4 (spider)</text>
</g>
<!-- 2&#45;&gt;4 -->
<g id="edge3" class="edge">
<title>2&#45;&gt;4</title>
<path fill="none" stroke="#000000" d="M88.3328,-173.9735C98.9494,-161.4919 113.2408,-144.6899 125.06,-130.7944"/>
<polygon fill="#000000" stroke="#000000" points="127.8738,-132.8883 131.6868,-123.0034 122.5417,-128.3529 127.8738,-132.8883"/>
<text text-anchor="middle" x="130" y="-144.8" font-family="Times,serif" font-size="14.00" fill="#000000">nmod</text>
</g>
<!-- 3 -->
<g id="node5" class="node">
<title>3</title>
<text text-anchor="middle" x="147" y="-14.3" font-family="Times,serif" font-size="14.00" fill="#000000">3 (to)</text>
</g>
<!-- 4&#45;&gt;3 -->
<g id="edge4" class="edge">
<title>4&#45;&gt;3</title>
<path fill="none" stroke="#000000" d="M147,-86.9735C147,-75.1918 147,-59.5607 147,-46.1581"/>
<polygon fill="#000000" stroke="#000000" points="150.5001,-46.0033 147,-36.0034 143.5001,-46.0034 150.5001,-46.0033"/>
<text text-anchor="middle" x="159" y="-57.8" font-family="Times,serif" font-size="14.00" fill="#000000">case</text>
</g>
</g>
</svg>
