<?xml version="1.0" encoding="UTF-8" standalone="no"?>
<!DOCTYPE svg PUBLIC "-//W3C//DTD SVG 1.1//EN"
 "http://www.w3.org/Graphics/SVG/1.1/DTD/svg11.dtd">
<!-- Generated by graphviz version 2.40.1 (20161225.0304)
 -->
<!-- Title: G Pages: 1 -->
<svg width="695pt" height="566pt"
 viewBox="0.00 0.00 694.50 566.00" xmlns="http://www.w3.org/2000/svg" xmlns:xlink="http://www.w3.org/1999/xlink">
<g id="graph0" class="graph" transform="scale(1 1) rotate(0) translate(4 562)">
<title>G</title>
<polygon fill="#ffffff" stroke="transparent" points="-4,4 -4,-562 690.5,-562 690.5,4 -4,4"/>
<!-- 0 -->
<g id="node1" class="node">
<title>0</title>
<text text-anchor="middle" x="138.5" y="-536.3" font-family="Times,serif" font-size="14.00" fill="#000000">0 (None)</text>
</g>
<!-- 5 -->
<g id="node2" class="node">
<title>5</title>
<text text-anchor="middle" x="138.5" y="-449.3" font-family="Times,serif" font-size="14.00" fill="#000000">5 (feature)</text>
</g>
<!-- 0&#45;&gt;5 -->
<g id="edge1" class="edge">
<title>0&#45;&gt;5</title>
<path fill="none" stroke="#000000" d="M138.5,-521.9735C138.5,-510.1918 138.5,-494.5607 138.5,-481.1581"/>
<polygon fill="#000000" stroke="#000000" points="142.0001,-481.0033 138.5,-471.0034 135.0001,-481.0034 142.0001,-481.0033"/>
<text text-anchor="middle" x="157" y="-492.8" font-family="Times,serif" font-size="14.00" fill="#000000">ROOT</text>
</g>
<!-- 3 -->
<g id="node5" class="node">
<title>3</title>
<text text-anchor="middle" x="54.5" y="-362.3" font-family="Times,serif" font-size="14.00" fill="#000000">3 (books)</text>
</g>
<!-- 5&#45;&gt;3 -->
<g id="edge4" class="edge">
<title>5&#45;&gt;3</title>
<path fill="none" stroke="#000000" d="M121.0951,-434.9735C108.9312,-422.3752 92.5177,-405.3755 79.0295,-391.4055"/>
<polygon fill="#000000" stroke="#000000" points="81.3464,-388.7663 71.8826,-384.0034 76.3106,-393.6285 81.3464,-388.7663"/>
<text text-anchor="middle" x="117.5" y="-405.8" font-family="Times,serif" font-size="14.00" fill="#000000">nsubj</text>
</g>
<!-- 4 -->
<g id="node6" class="node">
<title>4</title>
<text text-anchor="middle" x="138.5" y="-362.3" font-family="Times,serif" font-size="14.00" fill="#000000">4 (often)</text>
</g>
<!-- 5&#45;&gt;4 -->
<g id="edge5" class="edge">
<title>5&#45;&gt;4</title>
<path fill="none" stroke="#000000" d="M138.5,-434.9735C138.5,-423.1918 138.5,-407.5607 138.5,-394.1581"/>
<polygon fill="#000000" stroke="#000000" points="142.0001,-394.0033 138.5,-384.0034 135.0001,-394.0034 142.0001,-394.0033"/>
<text text-anchor="middle" x="161" y="-405.8" font-family="Times,serif" font-size="14.00" fill="#000000">advmod</text>
</g>
<!-- 6 -->
<g id="node7" class="node">
<title>6</title>
<text text-anchor="middle" x="234.5" y="-362.3" font-family="Times,serif" font-size="14.00" fill="#000000">6 (characters)</text>
</g>
<!-- 5&#45;&gt;6 -->
<g id="edge6" class="edge">
<title>5&#45;&gt;6</title>
<path fill="none" stroke="#000000" d="M165.1664,-434.84C172.6239,-429.3838 180.5773,-423.1942 187.5,-417 196.0679,-409.3338 204.783,-400.2913 212.3434,-391.9657"/>
<polygon fill="#000000" stroke="#000000" points="215.1588,-394.067 219.1959,-384.2715 209.9314,-389.4115 215.1588,-394.067"/>
<text text-anchor="middle" x="216" y="-405.8" font-family="Times,serif" font-size="14.00" fill="#000000">dobj</text>
</g>
<!-- 1 -->
<g id="node3" class="node">
<title>1</title>
<text text-anchor="middle" x="54.5" y="-275.3" font-family="Times,serif" font-size="14.00" fill="#000000">1 (Seuss)</text>
</g>
<!-- 2 -->
<g id="node4" class="node">
<title>2</title>
<text text-anchor="middle" x="54.5" y="-188.3" font-family="Times,serif" font-size="14.00" fill="#000000">2 (&#39;s)</text>
</g>
<!-- 1&#45;&gt;2 -->
<g id="edge2" class="edge">
<title>1&#45;&gt;2</title>
<path fill="none" stroke="#000000" d="M54.5,-260.9735C54.5,-249.1918 54.5,-233.5607 54.5,-220.1581"/>
<polygon fill="#000000" stroke="#000000" points="58.0001,-220.0033 54.5,-210.0034 51.0001,-220.0034 58.0001,-220.0033"/>
<text text-anchor="middle" x="66.5" y="-231.8" font-family="Times,serif" font-size="14.00" fill="#000000">case</text>
</g>
<!-- 3&#45;&gt;1 -->
<g id="edge3" class="edge">
<title>3&#45;&gt;1</title>
<path fill="none" stroke="#000000" d="M54.5,-347.9735C54.5,-336.1918 54.5,-320.5607 54.5,-307.1581"/>
<polygon fill="#000000" stroke="#000000" points="58.0001,-307.0033 54.5,-297.0034 51.0001,-307.0034 58.0001,-307.0033"/>
<text text-anchor="middle" x="84.5" y="-318.8" font-family="Times,serif" font-size="14.00" fill="#000000">nmod:poss</text>
</g>
<!-- 12 -->
<g id="node8" class="node">
<title>12</title>
<text text-anchor="middle" x="234.5" y="-275.3" font-family="Times,serif" font-size="14.00" fill="#000000">12 (prevent)</text>
</g>
<!-- 6&#45;&gt;12 -->
<g id="edge7" class="edge">
<title>6&#45;&gt;12</title>
<path fill="none" stroke="#000000" d="M234.5,-347.9735C234.5,-336.1918 234.5,-320.5607 234.5,-307.1581"/>
<polygon fill="#000000" stroke="#000000" points="238.0001,-307.0033 234.5,-297.0034 231.0001,-307.0034 238.0001,-307.0033"/>
<text text-anchor="middle" x="256.5" y="-318.8" font-family="Times,serif" font-size="14.00" fill="#000000">acl:relcl</text>
</g>
<!-- 11 -->
<g id="node13" class="node">
<title>11</title>
<text text-anchor="middle" x="140.5" y="-188.3" font-family="Times,serif" font-size="14.00" fill="#000000">11 (beliefs)</text>
</g>
<!-- 12&#45;&gt;11 -->
<g id="edge12" class="edge">
<title>12&#45;&gt;11</title>
<path fill="none" stroke="#000000" d="M215.0231,-260.9735C201.2851,-248.2586 182.7031,-231.0603 167.5312,-217.0183"/>
<polygon fill="#000000" stroke="#000000" points="169.6684,-214.2272 159.9519,-210.0034 164.9136,-219.3646 169.6684,-214.2272"/>
<text text-anchor="middle" x="208.5" y="-231.8" font-family="Times,serif" font-size="14.00" fill="#000000">nsubj</text>
</g>
<!-- 13 -->
<g id="node14" class="node">
<title>13</title>
<text text-anchor="middle" x="234.5" y="-188.3" font-family="Times,serif" font-size="14.00" fill="#000000">13 (them)</text>
</g>
<!-- 12&#45;&gt;13 -->
<g id="edge13" class="edge">
<title>12&#45;&gt;13</title>
<path fill="none" stroke="#000000" d="M234.5,-260.9735C234.5,-249.1918 234.5,-233.5607 234.5,-220.1581"/>
<polygon fill="#000000" stroke="#000000" points="238.0001,-220.0033 234.5,-210.0034 231.0001,-220.0034 238.0001,-220.0033"/>
<text text-anchor="middle" x="247" y="-231.8" font-family="Times,serif" font-size="14.00" fill="#000000">dobj</text>
</g>
<!-- 16 -->
<g id="node15" class="node">
<title>16</title>
<text text-anchor="middle" x="376.5" y="-188.3" font-family="Times,serif" font-size="14.00" fill="#000000">16 (happy)</text>
</g>
<!-- 12&#45;&gt;16 -->
<g id="edge14" class="edge">
<title>12&#45;&gt;16</title>
<path fill="none" stroke="#000000" d="M263.9225,-260.9735C285.5325,-247.7336 315.0767,-229.6326 338.477,-215.2958"/>
<polygon fill="#000000" stroke="#000000" points="340.4168,-218.212 347.1152,-210.0034 336.7598,-212.2432 340.4168,-218.212"/>
<text text-anchor="middle" x="329.5" y="-231.8" font-family="Times,serif" font-size="14.00" fill="#000000">advcl</text>
</g>
<!-- 7 -->
<g id="node9" class="node">
<title>7</title>
<text text-anchor="middle" x="35.5" y="-101.3" font-family="Times,serif" font-size="14.00" fill="#000000">7 (whose)</text>
</g>
<!-- 8 -->
<g id="node10" class="node">
<title>8</title>
<text text-anchor="middle" x="140.5" y="-101.3" font-family="Times,serif" font-size="14.00" fill="#000000">8 (unexamined)</text>
</g>
<!-- 9 -->
<g id="node11" class="node">
<title>9</title>
<text text-anchor="middle" x="100.5" y="-14.3" font-family="Times,serif" font-size="14.00" fill="#000000">9 (and)</text>
</g>
<!-- 8&#45;&gt;9 -->
<g id="edge8" class="edge">
<title>8&#45;&gt;9</title>
<path fill="none" stroke="#000000" d="M132.212,-86.9735C126.6878,-74.9585 119.323,-58.9401 113.0814,-45.3646"/>
<polygon fill="#000000" stroke="#000000" points="116.1348,-43.627 108.7774,-36.0034 109.7748,-46.5512 116.1348,-43.627"/>
<text text-anchor="middle" x="130" y="-57.8" font-family="Times,serif" font-size="14.00" fill="#000000">cc</text>
</g>
<!-- 10 -->
<g id="node12" class="node">
<title>10</title>
<text text-anchor="middle" x="180.5" y="-14.3" font-family="Times,serif" font-size="14.00" fill="#000000">10 (false)</text>
</g>
<!-- 8&#45;&gt;10 -->
<g id="edge9" class="edge">
<title>8&#45;&gt;10</title>
<path fill="none" stroke="#000000" d="M148.788,-86.9735C154.3122,-74.9585 161.677,-58.9401 167.9186,-45.3646"/>
<polygon fill="#000000" stroke="#000000" points="171.2252,-46.5512 172.2226,-36.0034 164.8652,-43.627 171.2252,-46.5512"/>
<text text-anchor="middle" x="175.5" y="-57.8" font-family="Times,serif" font-size="14.00" fill="#000000">conj</text>
</g>
<!-- 11&#45;&gt;7 -->
<g id="edge10" class="edge">
<title>11&#45;&gt;7</title>
<path fill="none" stroke="#000000" d="M102.7108,-173.8908C93.6775,-168.7316 84.3777,-162.6762 76.5,-156 68.1798,-148.9488 60.3342,-140.0142 53.7771,-131.6002"/>
<polygon fill="#000000" stroke="#000000" points="56.4723,-129.36 47.6798,-123.4488 50.867,-133.5529 56.4723,-129.36"/>
<text text-anchor="middle" x="106.5" y="-144.8" font-family="Times,serif" font-size="14.00" fill="#000000">nmod:poss</text>
</g>
<!-- 11&#45;&gt;8 -->
<g id="edge11" class="edge">
<title>11&#45;&gt;8</title>
<path fill="none" stroke="#000000" d="M140.5,-173.9735C140.5,-162.1918 140.5,-146.5607 140.5,-133.1581"/>
<polygon fill="#000000" stroke="#000000" points="144.0001,-133.0033 140.5,-123.0034 137.0001,-133.0034 144.0001,-133.0033"/>
<text text-anchor="middle" x="156" y="-144.8" font-family="Times,serif" font-size="14.00" fill="#000000">amod</text>
</g>
<!-- 14 -->
<g id="node16" class="node">
<title>14</title>
<text text-anchor="middle" x="245.5" y="-101.3" font-family="Times,serif" font-size="14.00" fill="#000000">14 (from)</text>
</g>
<!-- 16&#45;&gt;14 -->
<g id="edge15" class="edge">
<title>16&#45;&gt;14</title>
<path fill="none" stroke="#000000" d="M348.7615,-173.9324C340.0243,-168.2176 330.3467,-161.8633 321.5,-156 308.1557,-147.1558 293.5435,-137.3738 280.7283,-128.762"/>
<polygon fill="#000000" stroke="#000000" points="282.432,-125.6899 272.1809,-123.0128 278.5251,-131.4982 282.432,-125.6899"/>
<text text-anchor="middle" x="336" y="-144.8" font-family="Times,serif" font-size="14.00" fill="#000000">mark</text>
</g>
<!-- 15 -->
<g id="node17" class="node">
<title>15</title>
<text text-anchor="middle" x="335.5" y="-101.3" font-family="Times,serif" font-size="14.00" fill="#000000">15 (being)</text>
</g>
<!-- 16&#45;&gt;15 -->
<g id="edge16" class="edge">
<title>16&#45;&gt;15</title>
<path fill="none" stroke="#000000" d="M368.0048,-173.9735C362.3425,-161.9585 354.7936,-145.9401 348.3959,-132.3646"/>
<polygon fill="#000000" stroke="#000000" points="351.4134,-130.5571 343.9843,-123.0034 345.0813,-133.5413 351.4134,-130.5571"/>
<text text-anchor="middle" x="368.5" y="-144.8" font-family="Times,serif" font-size="14.00" fill="#000000">cop</text>
</g>
<!-- 17 -->
<g id="node18" class="node">
<title>17</title>
<text text-anchor="middle" x="417.5" y="-101.3" font-family="Times,serif" font-size="14.00" fill="#000000">17 (or)</text>
</g>
<!-- 16&#45;&gt;17 -->
<g id="edge17" class="edge">
<title>16&#45;&gt;17</title>
<path fill="none" stroke="#000000" d="M384.9952,-173.9735C390.6575,-161.9585 398.2064,-145.9401 404.6041,-132.3646"/>
<polygon fill="#000000" stroke="#000000" points="407.9187,-133.5413 409.0157,-123.0034 401.5866,-130.5571 407.9187,-133.5413"/>
<text text-anchor="middle" x="406" y="-144.8" font-family="Times,serif" font-size="14.00" fill="#000000">cc</text>
</g>
<!-- 18 -->
<g id="node19" class="node">
<title>18</title>
<text text-anchor="middle" x="506.5" y="-101.3" font-family="Times,serif" font-size="14.00" fill="#000000">18 (satisfied)</text>
</g>
<!-- 16&#45;&gt;18 -->
<g id="edge18" class="edge">
<title>16&#45;&gt;18</title>
<path fill="none" stroke="#000000" d="M403.4361,-173.9735C423.0455,-160.8503 449.7913,-142.9512 471.1226,-128.6756"/>
<polygon fill="#000000" stroke="#000000" points="473.2344,-131.4739 479.5984,-123.0034 469.3411,-125.6564 473.2344,-131.4739"/>
<text text-anchor="middle" x="461.5" y="-144.8" font-family="Times,serif" font-size="14.00" fill="#000000">conj</text>
</g>
<!-- 21 -->
<g id="node20" class="node">
<title>21</title>
<text text-anchor="middle" x="602.5" y="-101.3" font-family="Times,serif" font-size="14.00" fill="#000000">21 (lives)</text>
</g>
<!-- 16&#45;&gt;21 -->
<g id="edge19" class="edge">
<title>16&#45;&gt;21</title>
<path fill="none" stroke="#000000" d="M414.5216,-178.8539C433.507,-172.1867 456.7874,-163.8555 477.5,-156 511.5057,-143.1029 521.6798,-138.5884 558.7816,-123.2856"/>
<polygon fill="#000000" stroke="#000000" points="560.3357,-126.4309 568.2502,-119.3873 557.6707,-119.958 560.3357,-126.4309"/>
<text text-anchor="middle" x="531.5" y="-144.8" font-family="Times,serif" font-size="14.00" fill="#000000">nmod</text>
</g>
<!-- 19 -->
<g id="node21" class="node">
<title>19</title>
<text text-anchor="middle" x="559.5" y="-14.3" font-family="Times,serif" font-size="14.00" fill="#000000">19 (with)</text>
</g>
<!-- 21&#45;&gt;19 -->
<g id="edge20" class="edge">
<title>21&#45;&gt;19</title>
<path fill="none" stroke="#000000" d="M593.5904,-86.9735C587.5942,-74.8418 579.5808,-58.6287 572.8299,-44.9698"/>
<polygon fill="#000000" stroke="#000000" points="575.9668,-43.4173 568.3982,-36.0034 569.6915,-46.519 575.9668,-43.4173"/>
<text text-anchor="middle" x="596.5" y="-57.8" font-family="Times,serif" font-size="14.00" fill="#000000">case</text>
</g>
<!-- 20 -->
<g id="node22" class="node">
<title>20</title>
<text text-anchor="middle" x="645.5" y="-14.3" font-family="Times,serif" font-size="14.00" fill="#000000">20 (their)</text>
</g>
<!-- 21&#45;&gt;20 -->
<g id="edge21" class="edge">
<title>21&#45;&gt;20</title>
<path fill="none" stroke="#000000" d="M611.4096,-86.9735C617.4058,-74.8418 625.4192,-58.6287 632.1701,-44.9698"/>
<polygon fill="#000000" stroke="#000000" points="635.3085,-46.519 636.6018,-36.0034 629.0332,-43.4173 635.3085,-46.519"/>
<text text-anchor="middle" x="656.5" y="-57.8" font-family="Times,serif" font-size="14.00" fill="#000000">nmod:poss</text>
</g>
</g>
</svg>
