<?xml version="1.0" encoding="UTF-8" standalone="no"?>
<!DOCTYPE svg PUBLIC "-//W3C//DTD SVG 1.1//EN"
 "http://www.w3.org/Graphics/SVG/1.1/DTD/svg11.dtd">
<!-- Generated by graphviz version 2.42.3 (0)
 -->
<!-- Title: G Pages: 1 -->
<svg width="774pt" height="479pt"
 viewBox="0.00 0.00 773.50 479.00" xmlns="http://www.w3.org/2000/svg" xmlns:xlink="http://www.w3.org/1999/xlink">
<g id="graph0" class="graph" transform="scale(1 1) rotate(0) translate(4 475)">
<title>G</title>
<polygon fill="white" stroke="transparent" points="-4,4 -4,-475 769.5,-475 769.5,4 -4,4"/>
<!-- 0 -->
<g id="node1" class="node">
<title>0</title>
<text text-anchor="middle" x="272.5" y="-449.3" font-family="Times,serif" font-size="14.00">0 (None)</text>
</g>
<!-- 4 -->
<g id="node2" class="node">
<title>4</title>
<text text-anchor="middle" x="272.5" y="-362.3" font-family="Times,serif" font-size="14.00">4 (kangaroo)</text>
</g>
<!-- 0&#45;&gt;4 -->
<g id="edge1" class="edge">
<title>0&#45;&gt;4</title>
<path fill="none" stroke="black" d="M272.5,-434.8C272.5,-423.16 272.5,-407.55 272.5,-394.24"/>
<polygon fill="black" stroke="black" points="276,-394.18 272.5,-384.18 269,-394.18 276,-394.18"/>
<text text-anchor="middle" x="292" y="-405.8" font-family="Times,serif" font-size="14.00">ROOT</text>
</g>
<!-- 1 -->
<g id="node3" class="node">
<title>1</title>
<text text-anchor="middle" x="33.5" y="-275.3" font-family="Times,serif" font-size="14.00">1 (Kolin)</text>
</g>
<!-- 4&#45;&gt;1 -->
<g id="edge2" class="edge">
<title>4&#45;&gt;1</title>
<path fill="none" stroke="black" d="M229.4,-355.62C203.32,-349.44 169.58,-340.56 140.5,-330 118.47,-322 94.78,-311.18 75.31,-301.65"/>
<polygon fill="black" stroke="black" points="76.63,-298.4 66.11,-297.09 73.52,-304.67 76.63,-298.4"/>
<text text-anchor="middle" x="155" y="-318.8" font-family="Times,serif" font-size="14.00">nsubj</text>
</g>
<!-- 2 -->
<g id="node4" class="node">
<title>2</title>
<text text-anchor="middle" x="112.5" y="-275.3" font-family="Times,serif" font-size="14.00">2 (is)</text>
</g>
<!-- 4&#45;&gt;2 -->
<g id="edge3" class="edge">
<title>4&#45;&gt;2</title>
<path fill="none" stroke="black" d="M235.47,-347.9C223.86,-342.37 211.07,-336.09 199.5,-330 182.49,-321.05 163.98,-310.53 148.42,-301.45"/>
<polygon fill="black" stroke="black" points="150.03,-298.33 139.64,-296.29 146.49,-304.37 150.03,-298.33"/>
<text text-anchor="middle" x="209.5" y="-318.8" font-family="Times,serif" font-size="14.00">cop</text>
</g>
<!-- 3 -->
<g id="node5" class="node">
<title>3</title>
<text text-anchor="middle" x="184.5" y="-275.3" font-family="Times,serif" font-size="14.00">3 (a)</text>
</g>
<!-- 4&#45;&gt;3 -->
<g id="edge4" class="edge">
<title>4&#45;&gt;3</title>
<path fill="none" stroke="black" d="M254.69,-347.8C241.81,-335.36 224.22,-318.36 209.87,-304.5"/>
<polygon fill="black" stroke="black" points="211.91,-301.61 202.28,-297.18 207.04,-306.64 211.91,-301.61"/>
<text text-anchor="middle" x="243" y="-318.8" font-family="Times,serif" font-size="14.00">det</text>
</g>
<!-- 6 -->
<g id="node6" class="node">
<title>6</title>
<text text-anchor="middle" x="272.5" y="-275.3" font-family="Times,serif" font-size="14.00">6 (Australia)</text>
</g>
<!-- 4&#45;&gt;6 -->
<g id="edge5" class="edge">
<title>4&#45;&gt;6</title>
<path fill="none" stroke="black" d="M272.5,-347.8C272.5,-336.16 272.5,-320.55 272.5,-307.24"/>
<polygon fill="black" stroke="black" points="276,-307.18 272.5,-297.18 269,-307.18 276,-307.18"/>
<text text-anchor="middle" x="288" y="-318.8" font-family="Times,serif" font-size="14.00">nmod</text>
</g>
<!-- 7 -->
<g id="node7" class="node">
<title>7</title>
<text text-anchor="middle" x="360.5" y="-275.3" font-family="Times,serif" font-size="14.00">7 (.)</text>
</g>
<!-- 4&#45;&gt;7 -->
<g id="edge6" class="edge">
<title>4&#45;&gt;7</title>
<path fill="none" stroke="black" d="M290.31,-347.8C303.19,-335.36 320.78,-318.36 335.13,-304.5"/>
<polygon fill="black" stroke="black" points="337.96,-306.64 342.72,-297.18 333.09,-301.61 337.96,-306.64"/>
<text text-anchor="middle" x="338" y="-318.8" font-family="Times,serif" font-size="14.00">punct</text>
</g>
<!-- 17 -->
<g id="node8" class="node">
<title>17</title>
<text text-anchor="middle" x="432.5" y="-275.3" font-family="Times,serif" font-size="14.00">17 (.)</text>
</g>
<!-- 4&#45;&gt;17 -->
<g id="edge7" class="edge">
<title>4&#45;&gt;17</title>
<path fill="none" stroke="black" d="M315.63,-349.16C329.28,-343.64 344.26,-337.05 357.5,-330 372.34,-322.1 387.94,-312.02 401.04,-302.98"/>
<polygon fill="black" stroke="black" points="403.08,-305.83 409.26,-297.23 399.06,-300.1 403.08,-305.83"/>
<text text-anchor="middle" x="397" y="-318.8" font-family="Times,serif" font-size="14.00">punct</text>
</g>
<!-- 9 -->
<g id="node9" class="node">
<title>9</title>
<text text-anchor="middle" x="517.5" y="-275.3" font-family="Times,serif" font-size="14.00">9 (bounces)</text>
</g>
<!-- 4&#45;&gt;9 -->
<g id="edge8" class="edge">
<title>4&#45;&gt;9</title>
<path fill="none" stroke="black" d="M315.77,-357.09C344.75,-351.16 383.5,-342.01 416.5,-330 437.58,-322.33 460.03,-311.5 478.4,-301.88"/>
<polygon fill="black" stroke="black" points="480.15,-304.92 487.33,-297.13 476.86,-298.74 480.15,-304.92"/>
<text text-anchor="middle" x="476" y="-318.8" font-family="Times,serif" font-size="14.00">parataxis</text>
</g>
<!-- 5 -->
<g id="node10" class="node">
<title>5</title>
<text text-anchor="middle" x="272.5" y="-188.3" font-family="Times,serif" font-size="14.00">5 (from)</text>
</g>
<!-- 6&#45;&gt;5 -->
<g id="edge9" class="edge">
<title>6&#45;&gt;5</title>
<path fill="none" stroke="black" d="M272.5,-260.8C272.5,-249.16 272.5,-233.55 272.5,-220.24"/>
<polygon fill="black" stroke="black" points="276,-220.18 272.5,-210.18 269,-220.18 276,-220.18"/>
<text text-anchor="middle" x="284.5" y="-231.8" font-family="Times,serif" font-size="14.00">case</text>
</g>
<!-- 8 -->
<g id="node11" class="node">
<title>8</title>
<text text-anchor="middle" x="395.5" y="-188.3" font-family="Times,serif" font-size="14.00">8 (He)</text>
</g>
<!-- 9&#45;&gt;8 -->
<g id="edge10" class="edge">
<title>9&#45;&gt;8</title>
<path fill="none" stroke="black" d="M487.56,-260.87C478.41,-255.38 468.41,-249.14 459.5,-243 447.56,-234.78 434.89,-225.1 424,-216.46"/>
<polygon fill="black" stroke="black" points="426.06,-213.62 416.06,-210.09 421.68,-219.08 426.06,-213.62"/>
<text text-anchor="middle" x="474" y="-231.8" font-family="Times,serif" font-size="14.00">nsubj</text>
</g>
<!-- 10 -->
<g id="node12" class="node">
<title>10</title>
<text text-anchor="middle" x="471.5" y="-188.3" font-family="Times,serif" font-size="14.00">10 (and)</text>
</g>
<!-- 9&#45;&gt;10 -->
<g id="edge11" class="edge">
<title>9&#45;&gt;10</title>
<path fill="none" stroke="black" d="M508.19,-260.8C501.71,-248.82 492.94,-232.62 485.6,-219.06"/>
<polygon fill="black" stroke="black" points="488.63,-217.3 480.79,-210.18 482.48,-220.64 488.63,-217.3"/>
<text text-anchor="middle" x="504" y="-231.8" font-family="Times,serif" font-size="14.00">cc</text>
</g>
<!-- 11 -->
<g id="node13" class="node">
<title>11</title>
<text text-anchor="middle" x="564.5" y="-188.3" font-family="Times,serif" font-size="14.00">11 (bounces)</text>
</g>
<!-- 9&#45;&gt;11 -->
<g id="edge12" class="edge">
<title>9&#45;&gt;11</title>
<path fill="none" stroke="black" d="M527.01,-260.8C533.64,-248.82 542.59,-232.62 550.09,-219.06"/>
<polygon fill="black" stroke="black" points="553.23,-220.62 555,-210.18 547.1,-217.23 553.23,-220.62"/>
<text text-anchor="middle" x="556.5" y="-231.8" font-family="Times,serif" font-size="14.00">conj</text>
</g>
<!-- 14 -->
<g id="node14" class="node">
<title>14</title>
<text text-anchor="middle" x="663.5" y="-188.3" font-family="Times,serif" font-size="14.00">14 (wants)</text>
</g>
<!-- 9&#45;&gt;14 -->
<g id="edge13" class="edge">
<title>9&#45;&gt;14</title>
<path fill="none" stroke="black" d="M547.05,-260.8C569.61,-247.66 600.87,-229.46 625.33,-215.22"/>
<polygon fill="black" stroke="black" points="627.12,-218.23 634,-210.18 623.6,-212.18 627.12,-218.23"/>
<text text-anchor="middle" x="618" y="-231.8" font-family="Times,serif" font-size="14.00">ccomp</text>
</g>
<!-- 12 -->
<g id="node15" class="node">
<title>12</title>
<text text-anchor="middle" x="570.5" y="-101.3" font-family="Times,serif" font-size="14.00">12 (anywhere)</text>
</g>
<!-- 14&#45;&gt;12 -->
<g id="edge14" class="edge">
<title>14&#45;&gt;12</title>
<path fill="none" stroke="black" d="M637.82,-173.78C630.37,-168.39 622.39,-162.22 615.5,-156 606.96,-148.29 598.33,-139.11 590.94,-130.74"/>
<polygon fill="black" stroke="black" points="593.46,-128.31 584.28,-123.02 588.17,-132.88 593.46,-128.31"/>
<text text-anchor="middle" x="637.5" y="-144.8" font-family="Times,serif" font-size="14.00">advmod</text>
</g>
<!-- 13 -->
<g id="node16" class="node">
<title>13</title>
<text text-anchor="middle" x="663.5" y="-101.3" font-family="Times,serif" font-size="14.00">13 (it)</text>
</g>
<!-- 14&#45;&gt;13 -->
<g id="edge15" class="edge">
<title>14&#45;&gt;13</title>
<path fill="none" stroke="black" d="M663.5,-173.8C663.5,-162.16 663.5,-146.55 663.5,-133.24"/>
<polygon fill="black" stroke="black" points="667,-133.18 663.5,-123.18 660,-133.18 667,-133.18"/>
<text text-anchor="middle" x="678" y="-144.8" font-family="Times,serif" font-size="14.00">nsubj</text>
</g>
<!-- 16 -->
<g id="node17" class="node">
<title>16</title>
<text text-anchor="middle" x="736.5" y="-101.3" font-family="Times,serif" font-size="14.00">16 (go)</text>
</g>
<!-- 14&#45;&gt;16 -->
<g id="edge16" class="edge">
<title>14&#45;&gt;16</title>
<path fill="none" stroke="black" d="M680.23,-173.81C685.53,-168.22 691.35,-161.93 696.5,-156 703.32,-148.15 710.49,-139.37 716.85,-131.37"/>
<polygon fill="black" stroke="black" points="719.69,-133.43 723.14,-123.41 714.2,-129.09 719.69,-133.43"/>
<text text-anchor="middle" x="727" y="-144.8" font-family="Times,serif" font-size="14.00">xcomp</text>
</g>
<!-- 15 -->
<g id="node18" class="node">
<title>15</title>
<text text-anchor="middle" x="736.5" y="-14.3" font-family="Times,serif" font-size="14.00">15 (to)</text>
</g>
<!-- 16&#45;&gt;15 -->
<g id="edge17" class="edge">
<title>16&#45;&gt;15</title>
<path fill="none" stroke="black" d="M736.5,-86.8C736.5,-75.16 736.5,-59.55 736.5,-46.24"/>
<polygon fill="black" stroke="black" points="740,-46.18 736.5,-36.18 733,-46.18 740,-46.18"/>
<text text-anchor="middle" x="751" y="-57.8" font-family="Times,serif" font-size="14.00">mark</text>
</g>
</g>
</svg>
