<?xml version="1.0" encoding="UTF-8" standalone="no"?>
<!DOCTYPE svg PUBLIC "-//W3C//DTD SVG 1.1//EN"
 "http://www.w3.org/Graphics/SVG/1.1/DTD/svg11.dtd">
<!-- Generated by graphviz version 2.42.3 (0)
 -->
<!-- Title: G Pages: 1 -->
<svg width="867pt" height="566pt"
 viewBox="0.00 0.00 866.50 566.00" xmlns="http://www.w3.org/2000/svg" xmlns:xlink="http://www.w3.org/1999/xlink">
<g id="graph0" class="graph" transform="scale(1 1) rotate(0) translate(4 562)">
<title>G</title>
<polygon fill="white" stroke="transparent" points="-4,4 -4,-562 862.5,-562 862.5,4 -4,4"/>
<!-- 0 -->
<g id="node1" class="node">
<title>0</title>
<text text-anchor="middle" x="396.5" y="-536.3" font-family="Times,serif" font-size="14.00">0 (None)</text>
</g>
<!-- 5 -->
<g id="node2" class="node">
<title>5</title>
<text text-anchor="middle" x="396.5" y="-449.3" font-family="Times,serif" font-size="14.00">5 (animals)</text>
</g>
<!-- 0&#45;&gt;5 -->
<g id="edge1" class="edge">
<title>0&#45;&gt;5</title>
<path fill="none" stroke="black" d="M396.5,-521.8C396.5,-510.16 396.5,-494.55 396.5,-481.24"/>
<polygon fill="black" stroke="black" points="400,-481.18 396.5,-471.18 393,-481.18 400,-481.18"/>
<text text-anchor="middle" x="416" y="-492.8" font-family="Times,serif" font-size="14.00">ROOT</text>
</g>
<!-- 1 -->
<g id="node3" class="node">
<title>1</title>
<text text-anchor="middle" x="44.5" y="-362.3" font-family="Times,serif" font-size="14.00">1 (Elephants)</text>
</g>
<!-- 5&#45;&gt;1 -->
<g id="edge3" class="edge">
<title>5&#45;&gt;1</title>
<path fill="none" stroke="black" d="M357.45,-448.23C313.07,-443.38 238.73,-433.55 176.5,-417 148.07,-409.44 117.27,-397.97 92.58,-387.93"/>
<polygon fill="black" stroke="black" points="93.67,-384.59 83.09,-384.01 91,-391.06 93.67,-384.59"/>
<text text-anchor="middle" x="191" y="-405.8" font-family="Times,serif" font-size="14.00">nsubj</text>
</g>
<!-- 2 -->
<g id="node4" class="node">
<title>2</title>
<text text-anchor="middle" x="134.5" y="-362.3" font-family="Times,serif" font-size="14.00">2 (are)</text>
</g>
<!-- 5&#45;&gt;2 -->
<g id="edge4" class="edge">
<title>5&#45;&gt;2</title>
<path fill="none" stroke="black" d="M357.47,-445.04C326.65,-439.04 282.78,-429.4 245.5,-417 213.64,-406.4 204.94,-400.14 170.84,-384.17"/>
<polygon fill="black" stroke="black" points="172.14,-380.91 161.59,-379.89 169.2,-387.26 172.14,-380.91"/>
<text text-anchor="middle" x="255.5" y="-405.8" font-family="Times,serif" font-size="14.00">cop</text>
</g>
<!-- 4 -->
<g id="node6" class="node">
<title>4</title>
<text text-anchor="middle" x="206.5" y="-362.3" font-family="Times,serif" font-size="14.00">4 (big)</text>
</g>
<!-- 5&#45;&gt;4 -->
<g id="edge5" class="edge">
<title>5&#45;&gt;4</title>
<path fill="none" stroke="black" d="M357.44,-440.04C338.71,-433.88 316.13,-425.81 296.5,-417 278.37,-408.86 259.01,-398.36 242.91,-389.09"/>
<polygon fill="black" stroke="black" points="244.25,-385.81 233.84,-383.79 240.72,-391.86 244.25,-385.81"/>
<text text-anchor="middle" x="312" y="-405.8" font-family="Times,serif" font-size="14.00">amod</text>
</g>
<!-- 6 -->
<g id="node7" class="node">
<title>6</title>
<text text-anchor="middle" x="279.5" y="-362.3" font-family="Times,serif" font-size="14.00">6 (and)</text>
</g>
<!-- 5&#45;&gt;6 -->
<g id="edge6" class="edge">
<title>5&#45;&gt;6</title>
<path fill="none" stroke="black" d="M372.82,-434.8C355.14,-421.95 330.78,-404.26 311.39,-390.17"/>
<polygon fill="black" stroke="black" points="313.29,-387.22 303.14,-384.18 309.17,-392.88 313.29,-387.22"/>
<text text-anchor="middle" x="352" y="-405.8" font-family="Times,serif" font-size="14.00">cc</text>
</g>
<!-- 11 -->
<g id="node8" class="node">
<title>11</title>
<text text-anchor="middle" x="356.5" y="-362.3" font-family="Times,serif" font-size="14.00">11 (and)</text>
</g>
<!-- 5&#45;&gt;11 -->
<g id="edge7" class="edge">
<title>5&#45;&gt;11</title>
<path fill="none" stroke="black" d="M388.41,-434.8C382.82,-422.93 375.29,-406.93 368.95,-393.45"/>
<polygon fill="black" stroke="black" points="372.01,-391.73 364.58,-384.18 365.67,-394.71 372.01,-391.73"/>
<text text-anchor="middle" x="386" y="-405.8" font-family="Times,serif" font-size="14.00">cc</text>
</g>
<!-- 7 -->
<g id="node9" class="node">
<title>7</title>
<text text-anchor="middle" x="436.5" y="-362.3" font-family="Times,serif" font-size="14.00">7 (have)</text>
</g>
<!-- 5&#45;&gt;7 -->
<g id="edge8" class="edge">
<title>5&#45;&gt;7</title>
<path fill="none" stroke="black" d="M404.59,-434.8C410.18,-422.93 417.71,-406.93 424.05,-393.45"/>
<polygon fill="black" stroke="black" points="427.33,-394.71 428.42,-384.18 420.99,-391.73 427.33,-394.71"/>
<text text-anchor="middle" x="431.5" y="-405.8" font-family="Times,serif" font-size="14.00">conj</text>
</g>
<!-- 13 -->
<g id="node10" class="node">
<title>13</title>
<text text-anchor="middle" x="519.5" y="-362.3" font-family="Times,serif" font-size="14.00">13 (have)</text>
</g>
<!-- 5&#45;&gt;13 -->
<g id="edge9" class="edge">
<title>5&#45;&gt;13</title>
<path fill="none" stroke="black" d="M421.42,-434.94C429.72,-429.24 439.02,-422.86 447.5,-417 460.2,-408.23 474.13,-398.57 486.33,-390.09"/>
<polygon fill="black" stroke="black" points="488.65,-392.74 494.86,-384.16 484.66,-386.99 488.65,-392.74"/>
<text text-anchor="middle" x="479.5" y="-405.8" font-family="Times,serif" font-size="14.00">conj</text>
</g>
<!-- 21 -->
<g id="node11" class="node">
<title>21</title>
<text text-anchor="middle" x="598.5" y="-362.3" font-family="Times,serif" font-size="14.00">21 (.)</text>
</g>
<!-- 5&#45;&gt;21 -->
<g id="edge10" class="edge">
<title>5&#45;&gt;21</title>
<path fill="none" stroke="black" d="M435.91,-439.2C454.21,-432.97 476.16,-425.08 495.5,-417 518.04,-407.58 542.67,-395.68 562.2,-385.86"/>
<polygon fill="black" stroke="black" points="564.01,-388.86 571.34,-381.22 560.84,-382.62 564.01,-388.86"/>
<text text-anchor="middle" x="543" y="-405.8" font-family="Times,serif" font-size="14.00">punct</text>
</g>
<!-- 27 -->
<g id="node12" class="node">
<title>27</title>
<text text-anchor="middle" x="670.5" y="-362.3" font-family="Times,serif" font-size="14.00">27 (.)</text>
</g>
<!-- 5&#45;&gt;27 -->
<g id="edge11" class="edge">
<title>5&#45;&gt;27</title>
<path fill="none" stroke="black" d="M435.72,-446.26C469.77,-440.68 520.13,-430.98 562.5,-417 593.19,-406.87 601.31,-400.04 634,-384.29"/>
<polygon fill="black" stroke="black" points="635.85,-387.29 643.39,-379.84 632.85,-380.96 635.85,-387.29"/>
<text text-anchor="middle" x="614" y="-405.8" font-family="Times,serif" font-size="14.00">punct</text>
</g>
<!-- 23 -->
<g id="node13" class="node">
<title>23</title>
<text text-anchor="middle" x="751.5" y="-362.3" font-family="Times,serif" font-size="14.00">23 (make)</text>
</g>
<!-- 5&#45;&gt;23 -->
<g id="edge12" class="edge">
<title>5&#45;&gt;23</title>
<path fill="none" stroke="black" d="M435.72,-449.27C483.25,-445.28 565.43,-436.11 633.5,-417 659.18,-409.79 686.68,-398.37 708.67,-388.26"/>
<polygon fill="black" stroke="black" points="710.16,-391.43 717.74,-384.03 707.19,-385.09 710.16,-391.43"/>
<text text-anchor="middle" x="702" y="-405.8" font-family="Times,serif" font-size="14.00">parataxis</text>
</g>
<!-- 3 -->
<g id="node5" class="node">
<title>3</title>
<text text-anchor="middle" x="206.5" y="-275.3" font-family="Times,serif" font-size="14.00">3 (very)</text>
</g>
<!-- 4&#45;&gt;3 -->
<g id="edge2" class="edge">
<title>4&#45;&gt;3</title>
<path fill="none" stroke="black" d="M206.5,-347.8C206.5,-336.16 206.5,-320.55 206.5,-307.24"/>
<polygon fill="black" stroke="black" points="210,-307.18 206.5,-297.18 203,-307.18 210,-307.18"/>
<text text-anchor="middle" x="228.5" y="-318.8" font-family="Times,serif" font-size="14.00">advmod</text>
</g>
<!-- 10 -->
<g id="node14" class="node">
<title>10</title>
<text text-anchor="middle" x="424.5" y="-275.3" font-family="Times,serif" font-size="14.00">10 (memory)</text>
</g>
<!-- 7&#45;&gt;10 -->
<g id="edge13" class="edge">
<title>7&#45;&gt;10</title>
<path fill="none" stroke="black" d="M434.07,-347.8C432.43,-336.16 430.22,-320.55 428.35,-307.24"/>
<polygon fill="black" stroke="black" points="431.79,-306.59 426.92,-297.18 424.86,-307.57 431.79,-306.59"/>
<text text-anchor="middle" x="444" y="-318.8" font-family="Times,serif" font-size="14.00">dobj</text>
</g>
<!-- 12 -->
<g id="node17" class="node">
<title>12</title>
<text text-anchor="middle" x="519.5" y="-275.3" font-family="Times,serif" font-size="14.00">12 (also)</text>
</g>
<!-- 13&#45;&gt;12 -->
<g id="edge16" class="edge">
<title>13&#45;&gt;12</title>
<path fill="none" stroke="black" d="M519.5,-347.8C519.5,-336.16 519.5,-320.55 519.5,-307.24"/>
<polygon fill="black" stroke="black" points="523,-307.18 519.5,-297.18 516,-307.18 523,-307.18"/>
<text text-anchor="middle" x="541.5" y="-318.8" font-family="Times,serif" font-size="14.00">advmod</text>
</g>
<!-- 18 -->
<g id="node18" class="node">
<title>18</title>
<text text-anchor="middle" x="607.5" y="-275.3" font-family="Times,serif" font-size="14.00">18 (called)</text>
</g>
<!-- 13&#45;&gt;18 -->
<g id="edge17" class="edge">
<title>13&#45;&gt;18</title>
<path fill="none" stroke="black" d="M545.91,-347.67C553.22,-342.37 560.94,-336.27 567.5,-330 575.33,-322.51 583,-313.47 589.5,-305.15"/>
<polygon fill="black" stroke="black" points="592.31,-307.24 595.56,-297.16 586.73,-303.01 592.31,-307.24"/>
<text text-anchor="middle" x="600" y="-318.8" font-family="Times,serif" font-size="14.00">ccomp</text>
</g>
<!-- 22 -->
<g id="node25" class="node">
<title>22</title>
<text text-anchor="middle" x="707.5" y="-275.3" font-family="Times,serif" font-size="14.00">22 (They)</text>
</g>
<!-- 23&#45;&gt;22 -->
<g id="edge24" class="edge">
<title>23&#45;&gt;22</title>
<path fill="none" stroke="black" d="M723.26,-347.93C717.34,-342.93 711.88,-336.92 708.5,-330 705.1,-323.03 703.95,-314.83 703.9,-307.11"/>
<polygon fill="black" stroke="black" points="707.4,-307.2 704.39,-297.04 700.4,-306.86 707.4,-307.2"/>
<text text-anchor="middle" x="723" y="-318.8" font-family="Times,serif" font-size="14.00">nsubj</text>
</g>
<!-- 26 -->
<g id="node26" class="node">
<title>26</title>
<text text-anchor="middle" x="798.5" y="-275.3" font-family="Times,serif" font-size="14.00">26 (sound)</text>
</g>
<!-- 23&#45;&gt;26 -->
<g id="edge25" class="edge">
<title>23&#45;&gt;26</title>
<path fill="none" stroke="black" d="M761.01,-347.8C767.64,-335.82 776.59,-319.62 784.09,-306.06"/>
<polygon fill="black" stroke="black" points="787.23,-307.62 789,-297.18 781.1,-304.23 787.23,-307.62"/>
<text text-anchor="middle" x="790" y="-318.8" font-family="Times,serif" font-size="14.00">dobj</text>
</g>
<!-- 8 -->
<g id="node15" class="node">
<title>8</title>
<text text-anchor="middle" x="368.5" y="-188.3" font-family="Times,serif" font-size="14.00">8 (a)</text>
</g>
<!-- 10&#45;&gt;8 -->
<g id="edge14" class="edge">
<title>10&#45;&gt;8</title>
<path fill="none" stroke="black" d="M413.17,-260.8C405.2,-248.7 394.39,-232.3 385.41,-218.67"/>
<polygon fill="black" stroke="black" points="388.24,-216.6 379.82,-210.18 382.39,-220.45 388.24,-216.6"/>
<text text-anchor="middle" x="409" y="-231.8" font-family="Times,serif" font-size="14.00">det</text>
</g>
<!-- 9 -->
<g id="node16" class="node">
<title>9</title>
<text text-anchor="middle" x="443.5" y="-188.3" font-family="Times,serif" font-size="14.00">9 (long)</text>
</g>
<!-- 10&#45;&gt;9 -->
<g id="edge15" class="edge">
<title>10&#45;&gt;9</title>
<path fill="none" stroke="black" d="M428.34,-260.8C430.95,-249.16 434.44,-233.55 437.41,-220.24"/>
<polygon fill="black" stroke="black" points="440.89,-220.7 439.66,-210.18 434.06,-219.17 440.89,-220.7"/>
<text text-anchor="middle" x="451" y="-231.8" font-family="Times,serif" font-size="14.00">amod</text>
</g>
<!-- 17 -->
<g id="node22" class="node">
<title>17</title>
<text text-anchor="middle" x="538.5" y="-188.3" font-family="Times,serif" font-size="14.00">17 (nose)</text>
</g>
<!-- 18&#45;&gt;17 -->
<g id="edge21" class="edge">
<title>18&#45;&gt;17</title>
<path fill="none" stroke="black" d="M593.54,-260.8C583.62,-248.59 570.15,-231.99 559.02,-218.28"/>
<polygon fill="black" stroke="black" points="561.46,-215.73 552.44,-210.18 556.03,-220.15 561.46,-215.73"/>
<text text-anchor="middle" x="592" y="-231.8" font-family="Times,serif" font-size="14.00">nsubj</text>
</g>
<!-- 20 -->
<g id="node23" class="node">
<title>20</title>
<text text-anchor="middle" x="626.5" y="-188.3" font-family="Times,serif" font-size="14.00">20 (trunk)</text>
</g>
<!-- 18&#45;&gt;20 -->
<g id="edge22" class="edge">
<title>18&#45;&gt;20</title>
<path fill="none" stroke="black" d="M611.34,-260.8C613.95,-249.16 617.44,-233.55 620.41,-220.24"/>
<polygon fill="black" stroke="black" points="623.89,-220.7 622.66,-210.18 617.06,-219.17 623.89,-220.7"/>
<text text-anchor="middle" x="631" y="-231.8" font-family="Times,serif" font-size="14.00">dobj</text>
</g>
<!-- 14 -->
<g id="node19" class="node">
<title>14</title>
<text text-anchor="middle" x="464.5" y="-101.3" font-family="Times,serif" font-size="14.00">14 (a)</text>
</g>
<!-- 15 -->
<g id="node20" class="node">
<title>15</title>
<text text-anchor="middle" x="543.5" y="-14.3" font-family="Times,serif" font-size="14.00">15 (very)</text>
</g>
<!-- 16 -->
<g id="node21" class="node">
<title>16</title>
<text text-anchor="middle" x="543.5" y="-101.3" font-family="Times,serif" font-size="14.00">16 (long)</text>
</g>
<!-- 16&#45;&gt;15 -->
<g id="edge18" class="edge">
<title>16&#45;&gt;15</title>
<path fill="none" stroke="black" d="M543.5,-86.8C543.5,-75.16 543.5,-59.55 543.5,-46.24"/>
<polygon fill="black" stroke="black" points="547,-46.18 543.5,-36.18 540,-46.18 547,-46.18"/>
<text text-anchor="middle" x="565.5" y="-57.8" font-family="Times,serif" font-size="14.00">advmod</text>
</g>
<!-- 17&#45;&gt;14 -->
<g id="edge19" class="edge">
<title>17&#45;&gt;14</title>
<path fill="none" stroke="black" d="M523.52,-173.8C512.79,-161.47 498.17,-144.68 486.17,-130.89"/>
<polygon fill="black" stroke="black" points="488.66,-128.42 479.45,-123.18 483.38,-133.02 488.66,-128.42"/>
<text text-anchor="middle" x="515" y="-144.8" font-family="Times,serif" font-size="14.00">det</text>
</g>
<!-- 17&#45;&gt;16 -->
<g id="edge20" class="edge">
<title>17&#45;&gt;16</title>
<path fill="none" stroke="black" d="M539.51,-173.8C540.2,-162.16 541.11,-146.55 541.9,-133.24"/>
<polygon fill="black" stroke="black" points="545.4,-133.36 542.49,-123.18 538.41,-132.95 545.4,-133.36"/>
<text text-anchor="middle" x="557" y="-144.8" font-family="Times,serif" font-size="14.00">amod</text>
</g>
<!-- 19 -->
<g id="node24" class="node">
<title>19</title>
<text text-anchor="middle" x="626.5" y="-101.3" font-family="Times,serif" font-size="14.00">19 (a)</text>
</g>
<!-- 20&#45;&gt;19 -->
<g id="edge23" class="edge">
<title>20&#45;&gt;19</title>
<path fill="none" stroke="black" d="M626.5,-173.8C626.5,-162.16 626.5,-146.55 626.5,-133.24"/>
<polygon fill="black" stroke="black" points="630,-133.18 626.5,-123.18 623,-133.18 630,-133.18"/>
<text text-anchor="middle" x="635" y="-144.8" font-family="Times,serif" font-size="14.00">det</text>
</g>
<!-- 24 -->
<g id="node27" class="node">
<title>24</title>
<text text-anchor="middle" x="714.5" y="-188.3" font-family="Times,serif" font-size="14.00">24 (a)</text>
</g>
<!-- 26&#45;&gt;24 -->
<g id="edge26" class="edge">
<title>26&#45;&gt;24</title>
<path fill="none" stroke="black" d="M781.5,-260.8C769.2,-248.36 752.41,-231.36 738.72,-217.5"/>
<polygon fill="black" stroke="black" points="740.99,-214.83 731.47,-210.18 736.01,-219.75 740.99,-214.83"/>
<text text-anchor="middle" x="770" y="-231.8" font-family="Times,serif" font-size="14.00">det</text>
</g>
<!-- 25 -->
<g id="node28" class="node">
<title>25</title>
<text text-anchor="middle" x="802.5" y="-188.3" font-family="Times,serif" font-size="14.00">25 (trumpet)</text>
</g>
<!-- 26&#45;&gt;25 -->
<g id="edge27" class="edge">
<title>26&#45;&gt;25</title>
<path fill="none" stroke="black" d="M799.31,-260.8C799.86,-249.16 800.59,-233.55 801.22,-220.24"/>
<polygon fill="black" stroke="black" points="804.72,-220.33 801.69,-210.18 797.73,-220 804.72,-220.33"/>
<text text-anchor="middle" x="829.5" y="-231.8" font-family="Times,serif" font-size="14.00">compound</text>
</g>
</g>
</svg>
