<?xml version="1.0" encoding="UTF-8" standalone="no"?>
<!DOCTYPE svg PUBLIC "-//W3C//DTD SVG 1.1//EN"
 "http://www.w3.org/Graphics/SVG/1.1/DTD/svg11.dtd">
<!-- Generated by graphviz version 2.42.3 (0)
 -->
<!-- Title: G Pages: 1 -->
<svg width="1088pt" height="479pt"
 viewBox="0.00 0.00 1088.00 479.00" xmlns="http://www.w3.org/2000/svg" xmlns:xlink="http://www.w3.org/1999/xlink">
<g id="graph0" class="graph" transform="scale(1 1) rotate(0) translate(4 475)">
<title>G</title>
<polygon fill="white" stroke="transparent" points="-4,4 -4,-475 1084,-475 1084,4 -4,4"/>
<!-- 0 -->
<g id="node1" class="node">
<title>0</title>
<text text-anchor="middle" x="358.5" y="-449.3" font-family="Times,serif" font-size="14.00">0 (None)</text>
</g>
<!-- 13 -->
<g id="node2" class="node">
<title>13</title>
<text text-anchor="middle" x="358.5" y="-362.3" font-family="Times,serif" font-size="14.00">13 (were)</text>
</g>
<!-- 0&#45;&gt;13 -->
<g id="edge1" class="edge">
<title>0&#45;&gt;13</title>
<path fill="none" stroke="black" d="M358.5,-434.8C358.5,-423.16 358.5,-407.55 358.5,-394.24"/>
<polygon fill="black" stroke="black" points="362,-394.18 358.5,-384.18 355,-394.18 362,-394.18"/>
<text text-anchor="middle" x="378" y="-405.8" font-family="Times,serif" font-size="14.00">ROOT</text>
</g>
<!-- 8 -->
<g id="node10" class="node">
<title>8</title>
<text text-anchor="middle" x="236.5" y="-275.3" font-family="Times,serif" font-size="14.00">8 (questions)</text>
</g>
<!-- 13&#45;&gt;8 -->
<g id="edge13" class="edge">
<title>13&#45;&gt;8</title>
<path fill="none" stroke="black" d="M333.81,-347.8C315.29,-334.9 289.75,-317.1 269.48,-302.98"/>
<polygon fill="black" stroke="black" points="271.36,-300.02 261.15,-297.18 267.36,-305.76 271.36,-300.02"/>
<text text-anchor="middle" x="321" y="-318.8" font-family="Times,serif" font-size="14.00">nmod</text>
</g>
<!-- 14 -->
<g id="node15" class="node">
<title>14</title>
<text text-anchor="middle" x="358.5" y="-275.3" font-family="Times,serif" font-size="14.00">14 (fundamental)</text>
</g>
<!-- 13&#45;&gt;14 -->
<g id="edge14" class="edge">
<title>13&#45;&gt;14</title>
<path fill="none" stroke="black" d="M358.5,-347.8C358.5,-336.16 358.5,-320.55 358.5,-307.24"/>
<polygon fill="black" stroke="black" points="362,-307.18 358.5,-297.18 355,-307.18 362,-307.18"/>
<text text-anchor="middle" x="373" y="-318.8" font-family="Times,serif" font-size="14.00">nsubj</text>
</g>
<!-- 26 -->
<g id="node16" class="node">
<title>26</title>
<text text-anchor="middle" x="458.5" y="-275.3" font-family="Times,serif" font-size="14.00">26 (.)</text>
</g>
<!-- 13&#45;&gt;26 -->
<g id="edge15" class="edge">
<title>13&#45;&gt;26</title>
<path fill="none" stroke="black" d="M378.74,-347.8C393.65,-335.13 414.11,-317.73 430.57,-303.74"/>
<polygon fill="black" stroke="black" points="432.94,-306.32 438.29,-297.18 428.41,-300.99 432.94,-306.32"/>
<text text-anchor="middle" x="430" y="-318.8" font-family="Times,serif" font-size="14.00">punct</text>
</g>
<!-- 1 -->
<g id="node3" class="node">
<title>1</title>
<text text-anchor="middle" x="112.5" y="-188.3" font-family="Times,serif" font-size="14.00">1 (For)</text>
</g>
<!-- 2 -->
<g id="node4" class="node">
<title>2</title>
<text text-anchor="middle" x="37.5" y="-101.3" font-family="Times,serif" font-size="14.00">2 (ancient)</text>
</g>
<!-- 3 -->
<g id="node5" class="node">
<title>3</title>
<text text-anchor="middle" x="128.5" y="-101.3" font-family="Times,serif" font-size="14.00">3 (Greek)</text>
</g>
<!-- 4 -->
<g id="node6" class="node">
<title>4</title>
<text text-anchor="middle" x="86.5" y="-14.3" font-family="Times,serif" font-size="14.00">4 (and)</text>
</g>
<!-- 3&#45;&gt;4 -->
<g id="edge2" class="edge">
<title>3&#45;&gt;4</title>
<path fill="none" stroke="black" d="M120,-86.8C114.14,-74.93 106.23,-58.93 99.57,-45.45"/>
<polygon fill="black" stroke="black" points="102.55,-43.59 94.99,-36.18 96.28,-46.69 102.55,-43.59"/>
<text text-anchor="middle" x="117" y="-57.8" font-family="Times,serif" font-size="14.00">cc</text>
</g>
<!-- 5 -->
<g id="node7" class="node">
<title>5</title>
<text text-anchor="middle" x="170.5" y="-14.3" font-family="Times,serif" font-size="14.00">5 (Roman)</text>
</g>
<!-- 3&#45;&gt;5 -->
<g id="edge3" class="edge">
<title>3&#45;&gt;5</title>
<path fill="none" stroke="black" d="M137,-86.8C142.86,-74.93 150.77,-58.93 157.43,-45.45"/>
<polygon fill="black" stroke="black" points="160.72,-46.69 162.01,-36.18 154.45,-43.59 160.72,-46.69"/>
<text text-anchor="middle" x="164.5" y="-57.8" font-family="Times,serif" font-size="14.00">conj</text>
</g>
<!-- 6 -->
<g id="node8" class="node">
<title>6</title>
<text text-anchor="middle" x="208.5" y="-188.3" font-family="Times,serif" font-size="14.00">6 (philosopher)</text>
</g>
<!-- 6&#45;&gt;2 -->
<g id="edge4" class="edge">
<title>6&#45;&gt;2</title>
<path fill="none" stroke="black" d="M165.42,-173.96C152.44,-168.53 138.27,-162.29 125.5,-156 108.37,-147.56 89.93,-137.27 74.37,-128.23"/>
<polygon fill="black" stroke="black" points="75.97,-125.12 65.58,-123.08 72.43,-131.15 75.97,-125.12"/>
<text text-anchor="middle" x="141" y="-144.8" font-family="Times,serif" font-size="14.00">amod</text>
</g>
<!-- 6&#45;&gt;3 -->
<g id="edge5" class="edge">
<title>6&#45;&gt;3</title>
<path fill="none" stroke="black" d="M190.87,-173.73C185.26,-168.14 179.06,-161.86 173.5,-156 165.9,-147.99 157.78,-139.09 150.56,-131.03"/>
<polygon fill="black" stroke="black" points="152.96,-128.46 143.69,-123.33 147.74,-133.12 152.96,-128.46"/>
<text text-anchor="middle" x="189" y="-144.8" font-family="Times,serif" font-size="14.00">amod</text>
</g>
<!-- 7 -->
<g id="node9" class="node">
<title>7</title>
<text text-anchor="middle" x="208.5" y="-101.3" font-family="Times,serif" font-size="14.00">7 (&#39;s)</text>
</g>
<!-- 6&#45;&gt;7 -->
<g id="edge6" class="edge">
<title>6&#45;&gt;7</title>
<path fill="none" stroke="black" d="M208.5,-173.8C208.5,-162.16 208.5,-146.55 208.5,-133.24"/>
<polygon fill="black" stroke="black" points="212,-133.18 208.5,-123.18 205,-133.18 212,-133.18"/>
<text text-anchor="middle" x="220.5" y="-144.8" font-family="Times,serif" font-size="14.00">case</text>
</g>
<!-- 8&#45;&gt;1 -->
<g id="edge7" class="edge">
<title>8&#45;&gt;1</title>
<path fill="none" stroke="black" d="M211.41,-260.8C192.58,-247.9 166.62,-230.1 146.02,-215.98"/>
<polygon fill="black" stroke="black" points="147.78,-212.94 137.56,-210.18 143.83,-218.72 147.78,-212.94"/>
<text text-anchor="middle" x="194.5" y="-231.8" font-family="Times,serif" font-size="14.00">case</text>
</g>
<!-- 8&#45;&gt;6 -->
<g id="edge8" class="edge">
<title>8&#45;&gt;6</title>
<path fill="none" stroke="black" d="M230.83,-260.8C226.96,-249.05 221.75,-233.24 217.34,-219.84"/>
<polygon fill="black" stroke="black" points="220.61,-218.58 214.16,-210.18 213.96,-220.77 220.61,-218.58"/>
<text text-anchor="middle" x="254" y="-231.8" font-family="Times,serif" font-size="14.00">nmod:poss</text>
</g>
<!-- 12 -->
<g id="node11" class="node">
<title>12</title>
<text text-anchor="middle" x="357.5" y="-188.3" font-family="Times,serif" font-size="14.00">12 (life)</text>
</g>
<!-- 8&#45;&gt;12 -->
<g id="edge9" class="edge">
<title>8&#45;&gt;12</title>
<path fill="none" stroke="black" d="M261.73,-260.83C269.97,-255.18 279.14,-248.85 287.5,-243 300,-234.25 313.68,-224.51 325.6,-215.98"/>
<polygon fill="black" stroke="black" points="327.84,-218.68 333.93,-210.01 323.76,-212.99 327.84,-218.68"/>
<text text-anchor="middle" x="323" y="-231.8" font-family="Times,serif" font-size="14.00">nmod</text>
</g>
<!-- 9 -->
<g id="node12" class="node">
<title>9</title>
<text text-anchor="middle" x="286.5" y="-101.3" font-family="Times,serif" font-size="14.00">9 (about)</text>
</g>
<!-- 12&#45;&gt;9 -->
<g id="edge10" class="edge">
<title>12&#45;&gt;9</title>
<path fill="none" stroke="black" d="M343.13,-173.8C332.83,-161.47 318.81,-144.68 307.29,-130.89"/>
<polygon fill="black" stroke="black" points="309.94,-128.61 300.85,-123.18 304.57,-133.09 309.94,-128.61"/>
<text text-anchor="middle" x="338.5" y="-144.8" font-family="Times,serif" font-size="14.00">case</text>
</g>
<!-- 10 -->
<g id="node13" class="node">
<title>10</title>
<text text-anchor="middle" x="367.5" y="-101.3" font-family="Times,serif" font-size="14.00">10 (the)</text>
</g>
<!-- 12&#45;&gt;10 -->
<g id="edge11" class="edge">
<title>12&#45;&gt;10</title>
<path fill="none" stroke="black" d="M359.52,-173.8C360.89,-162.16 362.73,-146.55 364.3,-133.24"/>
<polygon fill="black" stroke="black" points="367.79,-133.52 365.48,-123.18 360.83,-132.7 367.79,-133.52"/>
<text text-anchor="middle" x="372" y="-144.8" font-family="Times,serif" font-size="14.00">det</text>
</g>
<!-- 11 -->
<g id="node14" class="node">
<title>11</title>
<text text-anchor="middle" x="450.5" y="-101.3" font-family="Times,serif" font-size="14.00">11 (good)</text>
</g>
<!-- 12&#45;&gt;11 -->
<g id="edge12" class="edge">
<title>12&#45;&gt;11</title>
<path fill="none" stroke="black" d="M376.32,-173.8C390.06,-161.24 408.87,-144.05 424.11,-130.12"/>
<polygon fill="black" stroke="black" points="426.69,-132.51 431.71,-123.18 421.97,-127.34 426.69,-132.51"/>
<text text-anchor="middle" x="426" y="-144.8" font-family="Times,serif" font-size="14.00">amod</text>
</g>
<!-- 19 -->
<g id="node17" class="node">
<title>19</title>
<text text-anchor="middle" x="666.5" y="-188.3" font-family="Times,serif" font-size="14.00">19 (inquiry)</text>
</g>
<!-- 14&#45;&gt;19 -->
<g id="edge16" class="edge">
<title>14&#45;&gt;19</title>
<path fill="none" stroke="black" d="M413.56,-262.8C470.86,-246.99 559.83,-222.44 615.55,-207.06"/>
<polygon fill="black" stroke="black" points="616.51,-210.43 625.21,-204.39 614.64,-203.68 616.51,-210.43"/>
<text text-anchor="middle" x="547" y="-231.8" font-family="Times,serif" font-size="14.00">nmod</text>
</g>
<!-- 16 -->
<g id="node19" class="node">
<title>16</title>
<text text-anchor="middle" x="536.5" y="-101.3" font-family="Times,serif" font-size="14.00">16 (only)</text>
</g>
<!-- 19&#45;&gt;16 -->
<g id="edge18" class="edge">
<title>19&#45;&gt;16</title>
<path fill="none" stroke="black" d="M625.22,-180.02C609.05,-174.48 590.96,-166.62 576.5,-156 567.5,-149.39 559.4,-140.26 552.88,-131.61"/>
<polygon fill="black" stroke="black" points="555.57,-129.35 546.91,-123.24 549.86,-133.41 555.57,-129.35"/>
<text text-anchor="middle" x="605" y="-144.8" font-family="Times,serif" font-size="14.00">cc:preconj</text>
</g>
<!-- 17 -->
<g id="node20" class="node">
<title>17</title>
<text text-anchor="middle" x="614.5" y="-101.3" font-family="Times,serif" font-size="14.00">17 (to)</text>
</g>
<!-- 19&#45;&gt;17 -->
<g id="edge19" class="edge">
<title>19&#45;&gt;17</title>
<path fill="none" stroke="black" d="M655.98,-173.8C648.65,-161.82 638.74,-145.62 630.44,-132.06"/>
<polygon fill="black" stroke="black" points="633.21,-129.88 625.01,-123.18 627.24,-133.53 633.21,-129.88"/>
<text text-anchor="middle" x="656.5" y="-144.8" font-family="Times,serif" font-size="14.00">case</text>
</g>
<!-- 18 -->
<g id="node21" class="node">
<title>18</title>
<text text-anchor="middle" x="717.5" y="-101.3" font-family="Times,serif" font-size="14.00">18 (philosophical)</text>
</g>
<!-- 19&#45;&gt;18 -->
<g id="edge20" class="edge">
<title>19&#45;&gt;18</title>
<path fill="none" stroke="black" d="M676.82,-173.8C684.01,-161.82 693.73,-145.62 701.87,-132.06"/>
<polygon fill="black" stroke="black" points="705.05,-133.55 707.19,-123.18 699.05,-129.95 705.05,-133.55"/>
<text text-anchor="middle" x="711" y="-144.8" font-family="Times,serif" font-size="14.00">amod</text>
</g>
<!-- 20 -->
<g id="node22" class="node">
<title>20</title>
<text text-anchor="middle" x="823.5" y="-101.3" font-family="Times,serif" font-size="14.00">20 (but)</text>
</g>
<!-- 19&#45;&gt;20 -->
<g id="edge21" class="edge">
<title>19&#45;&gt;20</title>
<path fill="none" stroke="black" d="M698.27,-173.8C723.12,-160.35 757.79,-141.58 784.35,-127.2"/>
<polygon fill="black" stroke="black" points="786.25,-130.15 793.37,-122.31 782.91,-123.99 786.25,-130.15"/>
<text text-anchor="middle" x="760" y="-144.8" font-family="Times,serif" font-size="14.00">cc</text>
</g>
<!-- 25 -->
<g id="node23" class="node">
<title>25</title>
<text text-anchor="middle" x="918.5" y="-101.3" font-family="Times,serif" font-size="14.00">25 (ingeneral)</text>
</g>
<!-- 19&#45;&gt;25 -->
<g id="edge22" class="edge">
<title>19&#45;&gt;25</title>
<path fill="none" stroke="black" d="M707.5,-177.21C726.64,-170.77 749.74,-163 770.5,-156 800.85,-145.77 834.68,-134.34 862.34,-124.99"/>
<polygon fill="black" stroke="black" points="863.49,-128.3 871.84,-121.78 861.25,-121.66 863.49,-128.3"/>
<text text-anchor="middle" x="822.5" y="-144.8" font-family="Times,serif" font-size="14.00">conj</text>
</g>
<!-- 15 -->
<g id="node18" class="node">
<title>15</title>
<text text-anchor="middle" x="536.5" y="-14.3" font-family="Times,serif" font-size="14.00">15 (not)</text>
</g>
<!-- 16&#45;&gt;15 -->
<g id="edge17" class="edge">
<title>16&#45;&gt;15</title>
<path fill="none" stroke="black" d="M536.5,-86.8C536.5,-75.16 536.5,-59.55 536.5,-46.24"/>
<polygon fill="black" stroke="black" points="540,-46.18 536.5,-36.18 533,-46.18 540,-46.18"/>
<text text-anchor="middle" x="546.5" y="-57.8" font-family="Times,serif" font-size="14.00">neg</text>
</g>
<!-- 21 -->
<g id="node24" class="node">
<title>21</title>
<text text-anchor="middle" x="797.5" y="-14.3" font-family="Times,serif" font-size="14.00">21 (also)</text>
</g>
<!-- 25&#45;&gt;21 -->
<g id="edge23" class="edge">
<title>25&#45;&gt;21</title>
<path fill="none" stroke="black" d="M876.11,-86.84C865.68,-81.78 854.84,-75.76 845.5,-69 835.65,-61.87 826.09,-52.58 818.14,-43.94"/>
<polygon fill="black" stroke="black" points="820.58,-41.42 811.32,-36.27 815.35,-46.07 820.58,-41.42"/>
<text text-anchor="middle" x="867.5" y="-57.8" font-family="Times,serif" font-size="14.00">advmod</text>
</g>
<!-- 22 -->
<g id="node25" class="node">
<title>22</title>
<text text-anchor="middle" x="875.5" y="-14.3" font-family="Times,serif" font-size="14.00">22 (to)</text>
</g>
<!-- 25&#45;&gt;22 -->
<g id="edge24" class="edge">
<title>25&#45;&gt;22</title>
<path fill="none" stroke="black" d="M909.8,-86.8C903.8,-74.93 895.7,-58.93 888.88,-45.45"/>
<polygon fill="black" stroke="black" points="891.83,-43.52 884.19,-36.18 885.58,-46.68 891.83,-43.52"/>
<text text-anchor="middle" x="911.5" y="-57.8" font-family="Times,serif" font-size="14.00">case</text>
</g>
<!-- 23 -->
<g id="node26" class="node">
<title>23</title>
<text text-anchor="middle" x="960.5" y="-14.3" font-family="Times,serif" font-size="14.00">23 (human)</text>
</g>
<!-- 25&#45;&gt;23 -->
<g id="edge25" class="edge">
<title>25&#45;&gt;23</title>
<path fill="none" stroke="black" d="M927,-86.8C932.86,-74.93 940.77,-58.93 947.43,-45.45"/>
<polygon fill="black" stroke="black" points="950.72,-46.69 952.01,-36.18 944.45,-43.59 950.72,-46.69"/>
<text text-anchor="middle" x="957" y="-57.8" font-family="Times,serif" font-size="14.00">amod</text>
</g>
<!-- 24 -->
<g id="node27" class="node">
<title>24</title>
<text text-anchor="middle" x="1049.5" y="-14.3" font-family="Times,serif" font-size="14.00">24 (life)</text>
</g>
<!-- 25&#45;&gt;24 -->
<g id="edge26" class="edge">
<title>25&#45;&gt;24</title>
<path fill="none" stroke="black" d="M947.61,-86.88C956.91,-81.29 967.2,-74.98 976.5,-69 989.94,-60.36 1004.5,-50.48 1017.06,-41.81"/>
<polygon fill="black" stroke="black" points="1019.18,-44.6 1025.4,-36.02 1015.19,-38.85 1019.18,-44.6"/>
<text text-anchor="middle" x="1027.5" y="-57.8" font-family="Times,serif" font-size="14.00">compound</text>
</g>
</g>
</svg>
