<?xml version="1.0" encoding="UTF-8" standalone="no"?>
<!DOCTYPE svg PUBLIC "-//W3C//DTD SVG 1.1//EN"
 "http://www.w3.org/Graphics/SVG/1.1/DTD/svg11.dtd">
<!-- Generated by graphviz version 2.40.1 (20161225.0304)
 -->
<!-- Title: G Pages: 1 -->
<svg width="209pt" height="305pt"
 viewBox="0.00 0.00 209.00 305.00" xmlns="http://www.w3.org/2000/svg" xmlns:xlink="http://www.w3.org/1999/xlink">
<g id="graph0" class="graph" transform="scale(1 1) rotate(0) translate(4 301)">
<title>G</title>
<polygon fill="#ffffff" stroke="transparent" points="-4,4 -4,-301 205,-301 205,4 -4,4"/>
<!-- 0 -->
<g id="node1" class="node">
<title>0</title>
<text text-anchor="middle" x="66" y="-275.3" font-family="Times,serif" font-size="14.00" fill="#000000">0 (None)</text>
</g>
<!-- 3 -->
<g id="node2" class="node">
<title>3</title>
<text text-anchor="middle" x="66" y="-188.3" font-family="Times,serif" font-size="14.00" fill="#000000">3 (ran)</text>
</g>
<!-- 0&#45;&gt;3 -->
<g id="edge1" class="edge">
<title>0&#45;&gt;3</title>
<path fill="none" stroke="#000000" d="M66,-260.9735C66,-249.1918 66,-233.5607 66,-220.1581"/>
<polygon fill="#000000" stroke="#000000" points="69.5001,-220.0033 66,-210.0034 62.5001,-220.0034 69.5001,-220.0033"/>
<text text-anchor="middle" x="84.5" y="-231.8" font-family="Times,serif" font-size="14.00" fill="#000000">ROOT</text>
</g>
<!-- 2 -->
<g id="node4" class="node">
<title>2</title>
<text text-anchor="middle" x="27" y="-101.3" font-family="Times,serif" font-size="14.00" fill="#000000">2 (cat)</text>
</g>
<!-- 3&#45;&gt;2 -->
<g id="edge3" class="edge">
<title>3&#45;&gt;2</title>
<path fill="none" stroke="#000000" d="M55.9325,-173.8837C52.924,-168.2225 49.7084,-161.9107 47,-156 43.5841,-148.5454 40.2005,-140.3272 37.2149,-132.7054"/>
<polygon fill="#000000" stroke="#000000" points="40.3973,-131.2286 33.5501,-123.1436 33.8609,-133.7339 40.3973,-131.2286"/>
<text text-anchor="middle" x="62" y="-144.8" font-family="Times,serif" font-size="14.00" fill="#000000">nsubj</text>
</g>
<!-- 6 -->
<g id="node5" class="node">
<title>6</title>
<text text-anchor="middle" x="106" y="-101.3" font-family="Times,serif" font-size="14.00" fill="#000000">6 (house)</text>
</g>
<!-- 3&#45;&gt;6 -->
<g id="edge4" class="edge">
<title>3&#45;&gt;6</title>
<path fill="none" stroke="#000000" d="M74.288,-173.9735C79.8122,-161.9585 87.177,-145.9401 93.4186,-132.3646"/>
<polygon fill="#000000" stroke="#000000" points="96.7252,-133.5512 97.7226,-123.0034 90.3652,-130.627 96.7252,-133.5512"/>
<text text-anchor="middle" x="104" y="-144.8" font-family="Times,serif" font-size="14.00" fill="#000000">nmod</text>
</g>
<!-- 1 -->
<g id="node3" class="node">
<title>1</title>
<text text-anchor="middle" x="27" y="-14.3" font-family="Times,serif" font-size="14.00" fill="#000000">1 (the)</text>
</g>
<!-- 2&#45;&gt;1 -->
<g id="edge2" class="edge">
<title>2&#45;&gt;1</title>
<path fill="none" stroke="#000000" d="M27,-86.9735C27,-75.1918 27,-59.5607 27,-46.1581"/>
<polygon fill="#000000" stroke="#000000" points="30.5001,-46.0033 27,-36.0034 23.5001,-46.0034 30.5001,-46.0033"/>
<text text-anchor="middle" x="35.5" y="-57.8" font-family="Times,serif" font-size="14.00" fill="#000000">det</text>
</g>
<!-- 4 -->
<g id="node6" class="node">
<title>4</title>
<text text-anchor="middle" x="102" y="-14.3" font-family="Times,serif" font-size="14.00" fill="#000000">4 (in)</text>
</g>
<!-- 6&#45;&gt;4 -->
<g id="edge5" class="edge">
<title>6&#45;&gt;4</title>
<path fill="none" stroke="#000000" d="M105.1712,-86.9735C104.6295,-75.1918 103.9108,-59.5607 103.2946,-46.1581"/>
<polygon fill="#000000" stroke="#000000" points="106.7834,-45.832 102.8277,-36.0034 99.7908,-46.1536 106.7834,-45.832"/>
<text text-anchor="middle" x="116" y="-57.8" font-family="Times,serif" font-size="14.00" fill="#000000">case</text>
</g>
<!-- 5 -->
<g id="node7" class="node">
<title>5</title>
<text text-anchor="middle" x="174" y="-14.3" font-family="Times,serif" font-size="14.00" fill="#000000">5 (the)</text>
</g>
<!-- 6&#45;&gt;5 -->
<g id="edge6" class="edge">
<title>6&#45;&gt;5</title>
<path fill="none" stroke="#000000" d="M120.0896,-86.9735C129.7543,-74.6085 142.7328,-58.0036 153.5338,-44.1847"/>
<polygon fill="#000000" stroke="#000000" points="156.5278,-46.0376 159.9284,-36.0034 151.0126,-41.7269 156.5278,-46.0376"/>
<text text-anchor="middle" x="152.5" y="-57.8" font-family="Times,serif" font-size="14.00" fill="#000000">det</text>
</g>
</g>
</svg>
