<?xml version="1.0" encoding="UTF-8" standalone="no"?>
<!DOCTYPE svg PUBLIC "-//W3C//DTD SVG 1.1//EN"
 "http://www.w3.org/Graphics/SVG/1.1/DTD/svg11.dtd">
<!-- Generated by graphviz version 2.42.3 (0)
 -->
<!-- Title: G Pages: 1 -->
<svg width="745pt" height="566pt"
 viewBox="0.00 0.00 745.00 566.00" xmlns="http://www.w3.org/2000/svg" xmlns:xlink="http://www.w3.org/1999/xlink">
<g id="graph0" class="graph" transform="scale(1 1) rotate(0) translate(4 562)">
<title>G</title>
<polygon fill="white" stroke="transparent" points="-4,4 -4,-562 741,-562 741,4 -4,4"/>
<!-- 0 -->
<g id="node1" class="node">
<title>0</title>
<text text-anchor="middle" x="240" y="-536.3" font-family="Times,serif" font-size="14.00">0 (None)</text>
</g>
<!-- 6 -->
<g id="node2" class="node">
<title>6</title>
<text text-anchor="middle" x="240" y="-449.3" font-family="Times,serif" font-size="14.00">6 (feature)</text>
</g>
<!-- 0&#45;&gt;6 -->
<g id="edge1" class="edge">
<title>0&#45;&gt;6</title>
<path fill="none" stroke="black" d="M240,-521.8C240,-510.16 240,-494.55 240,-481.24"/>
<polygon fill="black" stroke="black" points="243.5,-481.18 240,-471.18 236.5,-481.18 243.5,-481.18"/>
<text text-anchor="middle" x="259.5" y="-492.8" font-family="Times,serif" font-size="14.00">ROOT</text>
</g>
<!-- 4 -->
<g id="node6" class="node">
<title>4</title>
<text text-anchor="middle" x="108" y="-362.3" font-family="Times,serif" font-size="14.00">4 (books)</text>
</g>
<!-- 6&#45;&gt;4 -->
<g id="edge5" class="edge">
<title>6&#45;&gt;4</title>
<path fill="none" stroke="black" d="M202.64,-435.56C191.52,-430.15 179.51,-423.77 169,-417 157.1,-409.33 144.87,-399.71 134.51,-390.95"/>
<polygon fill="black" stroke="black" points="136.5,-388.05 126.64,-384.17 131.93,-393.35 136.5,-388.05"/>
<text text-anchor="middle" x="183.5" y="-405.8" font-family="Times,serif" font-size="14.00">nsubj</text>
</g>
<!-- 5 -->
<g id="node7" class="node">
<title>5</title>
<text text-anchor="middle" x="192" y="-362.3" font-family="Times,serif" font-size="14.00">5 (often)</text>
</g>
<!-- 6&#45;&gt;5 -->
<g id="edge6" class="edge">
<title>6&#45;&gt;5</title>
<path fill="none" stroke="black" d="M221.44,-434.66C216.55,-429.36 211.63,-423.27 208,-417 203.93,-409.98 200.76,-401.8 198.35,-394.11"/>
<polygon fill="black" stroke="black" points="201.7,-393.1 195.61,-384.43 194.97,-395 201.7,-393.1"/>
<text text-anchor="middle" x="230" y="-405.8" font-family="Times,serif" font-size="14.00">advmod</text>
</g>
<!-- 7 -->
<g id="node8" class="node">
<title>7</title>
<text text-anchor="middle" x="288" y="-362.3" font-family="Times,serif" font-size="14.00">7 (characters)</text>
</g>
<!-- 6&#45;&gt;7 -->
<g id="edge7" class="edge">
<title>6&#45;&gt;7</title>
<path fill="none" stroke="black" d="M249.71,-434.8C256.48,-422.82 265.63,-406.62 273.29,-393.06"/>
<polygon fill="black" stroke="black" points="276.43,-394.6 278.3,-384.18 270.34,-391.16 276.43,-394.6"/>
<text text-anchor="middle" x="279.5" y="-405.8" font-family="Times,serif" font-size="14.00">dobj</text>
</g>
<!-- 23 -->
<g id="node9" class="node">
<title>23</title>
<text text-anchor="middle" x="379" y="-362.3" font-family="Times,serif" font-size="14.00">23 (.)</text>
</g>
<!-- 6&#45;&gt;23 -->
<g id="edge8" class="edge">
<title>6&#45;&gt;23</title>
<path fill="none" stroke="black" d="M268.13,-434.8C289.79,-421.55 319.89,-403.14 343.26,-388.85"/>
<polygon fill="black" stroke="black" points="345.15,-391.8 351.86,-383.6 341.5,-385.83 345.15,-391.8"/>
<text text-anchor="middle" x="333.5" y="-405.8" font-family="Times,serif" font-size="14.00">punct</text>
</g>
<!-- 1 -->
<g id="node3" class="node">
<title>1</title>
<text text-anchor="middle" x="27" y="-188.3" font-family="Times,serif" font-size="14.00">1 (Dr.)</text>
</g>
<!-- 2 -->
<g id="node4" class="node">
<title>2</title>
<text text-anchor="middle" x="108" y="-275.3" font-family="Times,serif" font-size="14.00">2 (Seuss)</text>
</g>
<!-- 2&#45;&gt;1 -->
<g id="edge2" class="edge">
<title>2&#45;&gt;1</title>
<path fill="none" stroke="black" d="M74.36,-264.45C64.17,-259.02 53.65,-251.91 46,-243 40.38,-236.46 36.34,-228.1 33.47,-220.08"/>
<polygon fill="black" stroke="black" points="36.74,-218.8 30.43,-210.29 30.05,-220.87 36.74,-218.8"/>
<text text-anchor="middle" x="75" y="-231.8" font-family="Times,serif" font-size="14.00">compound</text>
</g>
<!-- 3 -->
<g id="node5" class="node">
<title>3</title>
<text text-anchor="middle" x="108" y="-188.3" font-family="Times,serif" font-size="14.00">3 (&#39;s)</text>
</g>
<!-- 2&#45;&gt;3 -->
<g id="edge3" class="edge">
<title>2&#45;&gt;3</title>
<path fill="none" stroke="black" d="M108,-260.8C108,-249.16 108,-233.55 108,-220.24"/>
<polygon fill="black" stroke="black" points="111.5,-220.18 108,-210.18 104.5,-220.18 111.5,-220.18"/>
<text text-anchor="middle" x="120" y="-231.8" font-family="Times,serif" font-size="14.00">case</text>
</g>
<!-- 4&#45;&gt;2 -->
<g id="edge4" class="edge">
<title>4&#45;&gt;2</title>
<path fill="none" stroke="black" d="M108,-347.8C108,-336.16 108,-320.55 108,-307.24"/>
<polygon fill="black" stroke="black" points="111.5,-307.18 108,-297.18 104.5,-307.18 111.5,-307.18"/>
<text text-anchor="middle" x="137.5" y="-318.8" font-family="Times,serif" font-size="14.00">nmod:poss</text>
</g>
<!-- 13 -->
<g id="node10" class="node">
<title>13</title>
<text text-anchor="middle" x="288" y="-275.3" font-family="Times,serif" font-size="14.00">13 (prevent)</text>
</g>
<!-- 7&#45;&gt;13 -->
<g id="edge9" class="edge">
<title>7&#45;&gt;13</title>
<path fill="none" stroke="black" d="M288,-347.8C288,-336.16 288,-320.55 288,-307.24"/>
<polygon fill="black" stroke="black" points="291.5,-307.18 288,-297.18 284.5,-307.18 291.5,-307.18"/>
<text text-anchor="middle" x="310" y="-318.8" font-family="Times,serif" font-size="14.00">acl:relcl</text>
</g>
<!-- 12 -->
<g id="node15" class="node">
<title>12</title>
<text text-anchor="middle" x="194" y="-188.3" font-family="Times,serif" font-size="14.00">12 (beliefs)</text>
</g>
<!-- 13&#45;&gt;12 -->
<g id="edge14" class="edge">
<title>13&#45;&gt;12</title>
<path fill="none" stroke="black" d="M268.98,-260.8C255.09,-248.24 236.08,-231.05 220.67,-217.12"/>
<polygon fill="black" stroke="black" points="222.76,-214.29 212.99,-210.18 218.06,-219.48 222.76,-214.29"/>
<text text-anchor="middle" x="261.5" y="-231.8" font-family="Times,serif" font-size="14.00">nsubj</text>
</g>
<!-- 14 -->
<g id="node16" class="node">
<title>14</title>
<text text-anchor="middle" x="288" y="-188.3" font-family="Times,serif" font-size="14.00">14 (them)</text>
</g>
<!-- 13&#45;&gt;14 -->
<g id="edge15" class="edge">
<title>13&#45;&gt;14</title>
<path fill="none" stroke="black" d="M288,-260.8C288,-249.16 288,-233.55 288,-220.24"/>
<polygon fill="black" stroke="black" points="291.5,-220.18 288,-210.18 284.5,-220.18 291.5,-220.18"/>
<text text-anchor="middle" x="300.5" y="-231.8" font-family="Times,serif" font-size="14.00">dobj</text>
</g>
<!-- 17 -->
<g id="node17" class="node">
<title>17</title>
<text text-anchor="middle" x="430" y="-188.3" font-family="Times,serif" font-size="14.00">17 (happy)</text>
</g>
<!-- 13&#45;&gt;17 -->
<g id="edge16" class="edge">
<title>13&#45;&gt;17</title>
<path fill="none" stroke="black" d="M316.74,-260.8C338.58,-247.72 368.82,-229.62 392.56,-215.41"/>
<polygon fill="black" stroke="black" points="394.52,-218.31 401.31,-210.18 390.93,-212.31 394.52,-218.31"/>
<text text-anchor="middle" x="382.5" y="-231.8" font-family="Times,serif" font-size="14.00">advcl</text>
</g>
<!-- 8 -->
<g id="node11" class="node">
<title>8</title>
<text text-anchor="middle" x="89" y="-101.3" font-family="Times,serif" font-size="14.00">8 (whose)</text>
</g>
<!-- 9 -->
<g id="node12" class="node">
<title>9</title>
<text text-anchor="middle" x="194" y="-101.3" font-family="Times,serif" font-size="14.00">9 (unexamined)</text>
</g>
<!-- 10 -->
<g id="node13" class="node">
<title>10</title>
<text text-anchor="middle" x="152" y="-14.3" font-family="Times,serif" font-size="14.00">10 (and)</text>
</g>
<!-- 9&#45;&gt;10 -->
<g id="edge10" class="edge">
<title>9&#45;&gt;10</title>
<path fill="none" stroke="black" d="M185.5,-86.8C179.64,-74.93 171.73,-58.93 165.07,-45.45"/>
<polygon fill="black" stroke="black" points="168.05,-43.59 160.49,-36.18 161.78,-46.69 168.05,-43.59"/>
<text text-anchor="middle" x="182.5" y="-57.8" font-family="Times,serif" font-size="14.00">cc</text>
</g>
<!-- 11 -->
<g id="node14" class="node">
<title>11</title>
<text text-anchor="middle" x="235" y="-14.3" font-family="Times,serif" font-size="14.00">11 (false)</text>
</g>
<!-- 9&#45;&gt;11 -->
<g id="edge11" class="edge">
<title>9&#45;&gt;11</title>
<path fill="none" stroke="black" d="M202.3,-86.8C208.02,-74.93 215.74,-58.93 222.24,-45.45"/>
<polygon fill="black" stroke="black" points="225.52,-46.7 226.72,-36.18 219.22,-43.66 225.52,-46.7"/>
<text text-anchor="middle" x="229" y="-57.8" font-family="Times,serif" font-size="14.00">conj</text>
</g>
<!-- 12&#45;&gt;8 -->
<g id="edge12" class="edge">
<title>12&#45;&gt;8</title>
<path fill="none" stroke="black" d="M157.88,-173.89C148.68,-168.75 139.11,-162.69 131,-156 122.25,-148.78 113.93,-139.57 107.03,-131.03"/>
<polygon fill="black" stroke="black" points="109.79,-128.88 100.89,-123.13 104.26,-133.17 109.79,-128.88"/>
<text text-anchor="middle" x="160.5" y="-144.8" font-family="Times,serif" font-size="14.00">nmod:poss</text>
</g>
<!-- 12&#45;&gt;9 -->
<g id="edge13" class="edge">
<title>12&#45;&gt;9</title>
<path fill="none" stroke="black" d="M194,-173.8C194,-162.16 194,-146.55 194,-133.24"/>
<polygon fill="black" stroke="black" points="197.5,-133.18 194,-123.18 190.5,-133.18 197.5,-133.18"/>
<text text-anchor="middle" x="209.5" y="-144.8" font-family="Times,serif" font-size="14.00">amod</text>
</g>
<!-- 15 -->
<g id="node18" class="node">
<title>15</title>
<text text-anchor="middle" x="299" y="-101.3" font-family="Times,serif" font-size="14.00">15 (from)</text>
</g>
<!-- 17&#45;&gt;15 -->
<g id="edge17" class="edge">
<title>17&#45;&gt;15</title>
<path fill="none" stroke="black" d="M403.09,-173.99C394.14,-168.3 384.12,-161.9 375,-156 361.43,-147.22 346.55,-137.46 333.59,-128.92"/>
<polygon fill="black" stroke="black" points="335.24,-125.81 324.97,-123.22 331.38,-131.65 335.24,-125.81"/>
<text text-anchor="middle" x="389.5" y="-144.8" font-family="Times,serif" font-size="14.00">mark</text>
</g>
<!-- 16 -->
<g id="node19" class="node">
<title>16</title>
<text text-anchor="middle" x="389" y="-101.3" font-family="Times,serif" font-size="14.00">16 (being)</text>
</g>
<!-- 17&#45;&gt;16 -->
<g id="edge18" class="edge">
<title>17&#45;&gt;16</title>
<path fill="none" stroke="black" d="M421.7,-173.8C415.98,-161.93 408.26,-145.93 401.76,-132.45"/>
<polygon fill="black" stroke="black" points="404.78,-130.66 397.28,-123.18 398.48,-133.7 404.78,-130.66"/>
<text text-anchor="middle" x="422" y="-144.8" font-family="Times,serif" font-size="14.00">cop</text>
</g>
<!-- 18 -->
<g id="node20" class="node">
<title>18</title>
<text text-anchor="middle" x="471" y="-101.3" font-family="Times,serif" font-size="14.00">18 (or)</text>
</g>
<!-- 17&#45;&gt;18 -->
<g id="edge19" class="edge">
<title>17&#45;&gt;18</title>
<path fill="none" stroke="black" d="M438.3,-173.8C444.02,-161.93 451.74,-145.93 458.24,-132.45"/>
<polygon fill="black" stroke="black" points="461.52,-133.7 462.72,-123.18 455.22,-130.66 461.52,-133.7"/>
<text text-anchor="middle" x="459.5" y="-144.8" font-family="Times,serif" font-size="14.00">cc</text>
</g>
<!-- 19 -->
<g id="node21" class="node">
<title>19</title>
<text text-anchor="middle" x="559" y="-101.3" font-family="Times,serif" font-size="14.00">19 (satisfied)</text>
</g>
<!-- 17&#45;&gt;19 -->
<g id="edge20" class="edge">
<title>17&#45;&gt;19</title>
<path fill="none" stroke="black" d="M456.11,-173.8C475.78,-160.84 502.94,-142.94 524.41,-128.79"/>
<polygon fill="black" stroke="black" points="526.51,-131.6 532.93,-123.18 522.66,-125.75 526.51,-131.6"/>
<text text-anchor="middle" x="515" y="-144.8" font-family="Times,serif" font-size="14.00">conj</text>
</g>
<!-- 22 -->
<g id="node22" class="node">
<title>22</title>
<text text-anchor="middle" x="654" y="-101.3" font-family="Times,serif" font-size="14.00">22 (lives)</text>
</g>
<!-- 17&#45;&gt;22 -->
<g id="edge21" class="edge">
<title>17&#45;&gt;22</title>
<path fill="none" stroke="black" d="M468.06,-178.34C487.05,-171.89 510.33,-163.78 531,-156 557.64,-145.98 587.2,-133.99 610.66,-124.26"/>
<polygon fill="black" stroke="black" points="612.1,-127.46 619.99,-120.39 609.41,-120.99 612.1,-127.46"/>
<text text-anchor="middle" x="583.5" y="-144.8" font-family="Times,serif" font-size="14.00">nmod</text>
</g>
<!-- 20 -->
<g id="node23" class="node">
<title>20</title>
<text text-anchor="middle" x="611" y="-14.3" font-family="Times,serif" font-size="14.00">20 (with)</text>
</g>
<!-- 22&#45;&gt;20 -->
<g id="edge22" class="edge">
<title>22&#45;&gt;20</title>
<path fill="none" stroke="black" d="M645.3,-86.8C639.3,-74.93 631.2,-58.93 624.38,-45.45"/>
<polygon fill="black" stroke="black" points="627.33,-43.52 619.69,-36.18 621.08,-46.68 627.33,-43.52"/>
<text text-anchor="middle" x="647" y="-57.8" font-family="Times,serif" font-size="14.00">case</text>
</g>
<!-- 21 -->
<g id="node24" class="node">
<title>21</title>
<text text-anchor="middle" x="697" y="-14.3" font-family="Times,serif" font-size="14.00">21 (their)</text>
</g>
<!-- 22&#45;&gt;21 -->
<g id="edge23" class="edge">
<title>22&#45;&gt;21</title>
<path fill="none" stroke="black" d="M662.7,-86.8C668.7,-74.93 676.8,-58.93 683.62,-45.45"/>
<polygon fill="black" stroke="black" points="686.92,-46.68 688.31,-36.18 680.67,-43.52 686.92,-46.68"/>
<text text-anchor="middle" x="707.5" y="-57.8" font-family="Times,serif" font-size="14.00">nmod:poss</text>
</g>
</g>
</svg>
