<?xml version="1.0" encoding="UTF-8" standalone="no"?>
<!DOCTYPE svg PUBLIC "-//W3C//DTD SVG 1.1//EN"
 "http://www.w3.org/Graphics/SVG/1.1/DTD/svg11.dtd">
<!-- Generated by graphviz version 2.42.3 (0)
 -->
<!-- Title: G Pages: 1 -->
<svg width="1139pt" height="1088pt"
 viewBox="0.00 0.00 1138.50 1088.00" xmlns="http://www.w3.org/2000/svg" xmlns:xlink="http://www.w3.org/1999/xlink">
<g id="graph0" class="graph" transform="scale(1 1) rotate(0) translate(4 1084)">
<title>G</title>
<polygon fill="white" stroke="transparent" points="-4,4 -4,-1084 1134.5,-1084 1134.5,4 -4,4"/>
<!-- 0 -->
<g id="node1" class="node">
<title>0</title>
<text text-anchor="middle" x="212" y="-1058.3" font-family="Times,serif" font-size="14.00">0 (None)</text>
</g>
<!-- 6 -->
<g id="node2" class="node">
<title>6</title>
<text text-anchor="middle" x="212" y="-971.3" font-family="Times,serif" font-size="14.00">6 (recognizes)</text>
</g>
<!-- 0&#45;&gt;6 -->
<g id="edge1" class="edge">
<title>0&#45;&gt;6</title>
<path fill="none" stroke="black" d="M212,-1043.8C212,-1032.16 212,-1016.55 212,-1003.24"/>
<polygon fill="black" stroke="black" points="215.5,-1003.18 212,-993.18 208.5,-1003.18 215.5,-1003.18"/>
<text text-anchor="middle" x="231.5" y="-1014.8" font-family="Times,serif" font-size="14.00">ROOT</text>
</g>
<!-- 1 -->
<g id="node3" class="node">
<title>1</title>
<text text-anchor="middle" x="43" y="-884.3" font-family="Times,serif" font-size="14.00">1 (Basically)</text>
</g>
<!-- 6&#45;&gt;1 -->
<g id="edge4" class="edge">
<title>6&#45;&gt;1</title>
<path fill="none" stroke="black" d="M164.58,-959.66C148.46,-954.07 130.59,-947.05 115,-939 100.39,-931.45 85.28,-921.37 72.7,-912.23"/>
<polygon fill="black" stroke="black" points="74.55,-909.25 64.44,-906.1 70.38,-914.87 74.55,-909.25"/>
<text text-anchor="middle" x="137" y="-927.8" font-family="Times,serif" font-size="14.00">advmod</text>
</g>
<!-- 2 -->
<g id="node4" class="node">
<title>2</title>
<text text-anchor="middle" x="131" y="-884.3" font-family="Times,serif" font-size="14.00">2 (,)</text>
</g>
<!-- 6&#45;&gt;2 -->
<g id="edge5" class="edge">
<title>6&#45;&gt;2</title>
<path fill="none" stroke="black" d="M194.41,-956.69C188.8,-951.1 182.59,-944.83 177,-939 169.28,-930.96 161,-922.04 153.61,-913.99"/>
<polygon fill="black" stroke="black" points="155.91,-911.31 146.58,-906.29 150.74,-916.03 155.91,-911.31"/>
<text text-anchor="middle" x="192.5" y="-927.8" font-family="Times,serif" font-size="14.00">punct</text>
</g>
<!-- 5 -->
<g id="node7" class="node">
<title>5</title>
<text text-anchor="middle" x="212" y="-884.3" font-family="Times,serif" font-size="14.00">5 (theory)</text>
</g>
<!-- 6&#45;&gt;5 -->
<g id="edge7" class="edge">
<title>6&#45;&gt;5</title>
<path fill="none" stroke="black" d="M212,-956.8C212,-945.16 212,-929.55 212,-916.24"/>
<polygon fill="black" stroke="black" points="215.5,-916.18 212,-906.18 208.5,-916.18 215.5,-916.18"/>
<text text-anchor="middle" x="226.5" y="-927.8" font-family="Times,serif" font-size="14.00">nsubj</text>
</g>
<!-- 44 -->
<g id="node8" class="node">
<title>44</title>
<text text-anchor="middle" x="293" y="-884.3" font-family="Times,serif" font-size="14.00">44 (.)</text>
</g>
<!-- 6&#45;&gt;44 -->
<g id="edge6" class="edge">
<title>6&#45;&gt;44</title>
<path fill="none" stroke="black" d="M228.39,-956.8C240.25,-944.36 256.44,-927.36 269.65,-913.5"/>
<polygon fill="black" stroke="black" points="272.27,-915.83 276.63,-906.18 267.2,-911 272.27,-915.83"/>
<text text-anchor="middle" x="273.5" y="-927.8" font-family="Times,serif" font-size="14.00">punct</text>
</g>
<!-- 12 -->
<g id="node9" class="node">
<title>12</title>
<text text-anchor="middle" x="466" y="-884.3" font-family="Times,serif" font-size="14.00">12 (has)</text>
</g>
<!-- 6&#45;&gt;12 -->
<g id="edge8" class="edge">
<title>6&#45;&gt;12</title>
<path fill="none" stroke="black" d="M259.18,-958.21C307.06,-942.19 380.4,-917.64 425.67,-902.5"/>
<polygon fill="black" stroke="black" points="427.06,-905.72 435.43,-899.23 424.84,-899.08 427.06,-905.72"/>
<text text-anchor="middle" x="373.5" y="-927.8" font-family="Times,serif" font-size="14.00">ccomp</text>
</g>
<!-- 3 -->
<g id="node5" class="node">
<title>3</title>
<text text-anchor="middle" x="118" y="-797.3" font-family="Times,serif" font-size="14.00">3 (the)</text>
</g>
<!-- 4 -->
<g id="node6" class="node">
<title>4</title>
<text text-anchor="middle" x="212" y="-797.3" font-family="Times,serif" font-size="14.00">4 (stakeholder)</text>
</g>
<!-- 5&#45;&gt;3 -->
<g id="edge2" class="edge">
<title>5&#45;&gt;3</title>
<path fill="none" stroke="black" d="M192.98,-869.8C179.09,-857.24 160.08,-840.05 144.67,-826.12"/>
<polygon fill="black" stroke="black" points="146.76,-823.29 136.99,-819.18 142.06,-828.48 146.76,-823.29"/>
<text text-anchor="middle" x="179.5" y="-840.8" font-family="Times,serif" font-size="14.00">det</text>
</g>
<!-- 5&#45;&gt;4 -->
<g id="edge3" class="edge">
<title>5&#45;&gt;4</title>
<path fill="none" stroke="black" d="M212,-869.8C212,-858.16 212,-842.55 212,-829.24"/>
<polygon fill="black" stroke="black" points="215.5,-829.18 212,-819.18 208.5,-829.18 215.5,-829.18"/>
<text text-anchor="middle" x="241" y="-840.8" font-family="Times,serif" font-size="14.00">compound</text>
</g>
<!-- 7 -->
<g id="node10" class="node">
<title>7</title>
<text text-anchor="middle" x="307" y="-797.3" font-family="Times,serif" font-size="14.00">7 (that)</text>
</g>
<!-- 12&#45;&gt;7 -->
<g id="edge12" class="edge">
<title>12&#45;&gt;7</title>
<path fill="none" stroke="black" d="M435.26,-871.08C423.85,-865.13 410.81,-858.3 399,-852 380.86,-842.33 360.8,-831.45 344.05,-822.32"/>
<polygon fill="black" stroke="black" points="345.57,-819.16 335.12,-817.44 342.22,-825.3 345.57,-819.16"/>
<text text-anchor="middle" x="413.5" y="-840.8" font-family="Times,serif" font-size="14.00">mark</text>
</g>
<!-- 8 -->
<g id="node11" class="node">
<title>8</title>
<text text-anchor="middle" x="406" y="-797.3" font-family="Times,serif" font-size="14.00">8 (management)</text>
</g>
<!-- 12&#45;&gt;8 -->
<g id="edge13" class="edge">
<title>12&#45;&gt;8</title>
<path fill="none" stroke="black" d="M453.76,-869.93C449.69,-864.24 445.14,-857.85 441,-852 435.4,-844.08 429.33,-835.43 423.84,-827.59"/>
<polygon fill="black" stroke="black" points="426.54,-825.34 417.95,-819.15 420.81,-829.35 426.54,-825.34"/>
<text text-anchor="middle" x="455.5" y="-840.8" font-family="Times,serif" font-size="14.00">nsubj</text>
</g>
<!-- 15 -->
<g id="node15" class="node">
<title>15</title>
<text text-anchor="middle" x="526" y="-797.3" font-family="Times,serif" font-size="14.00">15 (obligation)</text>
</g>
<!-- 12&#45;&gt;15 -->
<g id="edge14" class="edge">
<title>12&#45;&gt;15</title>
<path fill="none" stroke="black" d="M478.14,-869.8C486.68,-857.7 498.26,-841.3 507.88,-827.67"/>
<polygon fill="black" stroke="black" points="510.97,-829.36 513.88,-819.18 505.25,-825.33 510.97,-829.36"/>
<text text-anchor="middle" x="512.5" y="-840.8" font-family="Times,serif" font-size="14.00">dobj</text>
</g>
<!-- 33 -->
<g id="node16" class="node">
<title>33</title>
<text text-anchor="middle" x="624" y="-797.3" font-family="Times,serif" font-size="14.00">33 (and)</text>
</g>
<!-- 12&#45;&gt;33 -->
<g id="edge15" class="edge">
<title>12&#45;&gt;33</title>
<path fill="none" stroke="black" d="M496.84,-870.41C521.77,-857 557.05,-838.02 584.13,-823.45"/>
<polygon fill="black" stroke="black" points="585.82,-826.51 592.97,-818.69 582.5,-820.35 585.82,-826.51"/>
<text text-anchor="middle" x="561.5" y="-840.8" font-family="Times,serif" font-size="14.00">cc</text>
</g>
<!-- 40 -->
<g id="node17" class="node">
<title>40</title>
<text text-anchor="middle" x="868" y="-797.3" font-family="Times,serif" font-size="14.00">40 (negotiated)</text>
</g>
<!-- 12&#45;&gt;40 -->
<g id="edge16" class="edge">
<title>12&#45;&gt;40</title>
<path fill="none" stroke="black" d="M496.55,-880.54C562.9,-866.51 721.24,-833.03 808.23,-814.64"/>
<polygon fill="black" stroke="black" points="809.16,-818.02 818.22,-812.53 807.71,-811.17 809.16,-818.02"/>
<text text-anchor="middle" x="704" y="-840.8" font-family="Times,serif" font-size="14.00">conj</text>
</g>
<!-- 11 -->
<g id="node12" class="node">
<title>11</title>
<text text-anchor="middle" x="347" y="-710.3" font-family="Times,serif" font-size="14.00">11 (company)</text>
</g>
<!-- 8&#45;&gt;11 -->
<g id="edge9" class="edge">
<title>8&#45;&gt;11</title>
<path fill="none" stroke="black" d="M394.06,-782.8C385.66,-770.7 374.28,-754.3 364.82,-740.67"/>
<polygon fill="black" stroke="black" points="367.5,-738.39 358.92,-732.18 361.75,-742.39 367.5,-738.39"/>
<text text-anchor="middle" x="396.5" y="-753.8" font-family="Times,serif" font-size="14.00">nmod</text>
</g>
<!-- 9 -->
<g id="node13" class="node">
<title>9</title>
<text text-anchor="middle" x="311" y="-623.3" font-family="Times,serif" font-size="14.00">9 (of)</text>
</g>
<!-- 11&#45;&gt;9 -->
<g id="edge10" class="edge">
<title>11&#45;&gt;9</title>
<path fill="none" stroke="black" d="M339.71,-695.8C334.69,-683.93 327.91,-667.93 322.2,-654.45"/>
<polygon fill="black" stroke="black" points="325.4,-653.02 318.27,-645.18 318.95,-655.75 325.4,-653.02"/>
<text text-anchor="middle" x="344" y="-666.8" font-family="Times,serif" font-size="14.00">case</text>
</g>
<!-- 10 -->
<g id="node14" class="node">
<title>10</title>
<text text-anchor="middle" x="383" y="-623.3" font-family="Times,serif" font-size="14.00">10 (a)</text>
</g>
<!-- 11&#45;&gt;10 -->
<g id="edge11" class="edge">
<title>11&#45;&gt;10</title>
<path fill="none" stroke="black" d="M354.29,-695.8C359.31,-683.93 366.09,-667.93 371.8,-654.45"/>
<polygon fill="black" stroke="black" points="375.05,-655.75 375.73,-645.18 368.6,-653.02 375.05,-655.75"/>
<text text-anchor="middle" x="376.5" y="-666.8" font-family="Times,serif" font-size="14.00">det</text>
</g>
<!-- 13 -->
<g id="node18" class="node">
<title>13</title>
<text text-anchor="middle" x="441" y="-710.3" font-family="Times,serif" font-size="14.00">13 (the)</text>
</g>
<!-- 15&#45;&gt;13 -->
<g id="edge17" class="edge">
<title>15&#45;&gt;13</title>
<path fill="none" stroke="black" d="M508.8,-782.8C496.36,-770.36 479.36,-753.36 465.5,-739.5"/>
<polygon fill="black" stroke="black" points="467.72,-736.77 458.18,-732.18 462.77,-741.72 467.72,-736.77"/>
<text text-anchor="middle" x="497.5" y="-753.8" font-family="Times,serif" font-size="14.00">det</text>
</g>
<!-- 14 -->
<g id="node19" class="node">
<title>14</title>
<text text-anchor="middle" x="526" y="-710.3" font-family="Times,serif" font-size="14.00">14 (moral)</text>
</g>
<!-- 15&#45;&gt;14 -->
<g id="edge18" class="edge">
<title>15&#45;&gt;14</title>
<path fill="none" stroke="black" d="M526,-782.8C526,-771.16 526,-755.55 526,-742.24"/>
<polygon fill="black" stroke="black" points="529.5,-742.18 526,-732.18 522.5,-742.18 529.5,-742.18"/>
<text text-anchor="middle" x="541.5" y="-753.8" font-family="Times,serif" font-size="14.00">amod</text>
</g>
<!-- 17 -->
<g id="node20" class="node">
<title>17</title>
<text text-anchor="middle" x="626" y="-710.3" font-family="Times,serif" font-size="14.00">17 (consider)</text>
</g>
<!-- 15&#45;&gt;17 -->
<g id="edge19" class="edge">
<title>15&#45;&gt;17</title>
<path fill="none" stroke="black" d="M546.24,-782.8C561.15,-770.13 581.61,-752.73 598.07,-738.74"/>
<polygon fill="black" stroke="black" points="600.44,-741.32 605.79,-732.18 595.91,-735.99 600.44,-741.32"/>
<text text-anchor="middle" x="590" y="-753.8" font-family="Times,serif" font-size="14.00">acl</text>
</g>
<!-- 34 -->
<g id="node37" class="node">
<title>34</title>
<text text-anchor="middle" x="720" y="-710.3" font-family="Times,serif" font-size="14.00">34 (that)</text>
</g>
<!-- 40&#45;&gt;34 -->
<g id="edge38" class="edge">
<title>40&#45;&gt;34</title>
<path fill="none" stroke="black" d="M826.53,-782.86C814.82,-777.56 802.21,-771.42 791,-765 777.08,-757.03 762.46,-747.04 750.13,-738.09"/>
<polygon fill="black" stroke="black" points="752.12,-735.21 741.99,-732.1 747.97,-740.85 752.12,-735.21"/>
<text text-anchor="middle" x="805.5" y="-753.8" font-family="Times,serif" font-size="14.00">mark</text>
</g>
<!-- 37 -->
<g id="node40" class="node">
<title>37</title>
<text text-anchor="middle" x="814" y="-710.3" font-family="Times,serif" font-size="14.00">37 (interests)</text>
</g>
<!-- 40&#45;&gt;37 -->
<g id="edge39" class="edge">
<title>40&#45;&gt;37</title>
<path fill="none" stroke="black" d="M846.15,-782.66C840.63,-777.45 835.11,-771.4 831,-765 826.52,-758.02 823.09,-749.74 820.52,-741.94"/>
<polygon fill="black" stroke="black" points="823.81,-740.72 817.62,-732.12 817.1,-742.71 823.81,-740.72"/>
<text text-anchor="middle" x="857" y="-753.8" font-family="Times,serif" font-size="14.00">nsubjpass</text>
</g>
<!-- 38 -->
<g id="node41" class="node">
<title>38</title>
<text text-anchor="middle" x="911" y="-710.3" font-family="Times,serif" font-size="14.00">38 (must)</text>
</g>
<!-- 40&#45;&gt;38 -->
<g id="edge40" class="edge">
<title>40&#45;&gt;38</title>
<path fill="none" stroke="black" d="M876.7,-782.8C882.7,-770.93 890.8,-754.93 897.62,-741.45"/>
<polygon fill="black" stroke="black" points="900.92,-742.68 902.31,-732.18 894.67,-739.52 900.92,-742.68"/>
<text text-anchor="middle" x="903" y="-753.8" font-family="Times,serif" font-size="14.00">aux</text>
</g>
<!-- 39 -->
<g id="node42" class="node">
<title>39</title>
<text text-anchor="middle" x="992" y="-710.3" font-family="Times,serif" font-size="14.00">39 (be)</text>
</g>
<!-- 40&#45;&gt;39 -->
<g id="edge41" class="edge">
<title>40&#45;&gt;39</title>
<path fill="none" stroke="black" d="M893.09,-782.8C911.92,-769.9 937.88,-752.1 958.48,-737.98"/>
<polygon fill="black" stroke="black" points="960.67,-740.72 966.94,-732.18 956.72,-734.94 960.67,-740.72"/>
<text text-anchor="middle" x="959.5" y="-753.8" font-family="Times,serif" font-size="14.00">auxpass</text>
</g>
<!-- 43 -->
<g id="node43" class="node">
<title>43</title>
<text text-anchor="middle" x="1071" y="-710.3" font-family="Times,serif" font-size="14.00">43 (way)</text>
</g>
<!-- 40&#45;&gt;43 -->
<g id="edge42" class="edge">
<title>40&#45;&gt;43</title>
<path fill="none" stroke="black" d="M917.59,-787.96C938.76,-782.1 963.5,-774.31 985,-765 1002.62,-757.37 1021.16,-746.94 1036.49,-737.57"/>
<polygon fill="black" stroke="black" points="1038.47,-740.46 1045.12,-732.21 1034.77,-734.52 1038.47,-740.46"/>
<text text-anchor="middle" x="1030.5" y="-753.8" font-family="Times,serif" font-size="14.00">nmod</text>
</g>
<!-- 16 -->
<g id="node21" class="node">
<title>16</title>
<text text-anchor="middle" x="568" y="-623.3" font-family="Times,serif" font-size="14.00">16 (to)</text>
</g>
<!-- 17&#45;&gt;16 -->
<g id="edge20" class="edge">
<title>17&#45;&gt;16</title>
<path fill="none" stroke="black" d="M614.26,-695.8C606.01,-683.7 594.82,-667.3 585.51,-653.67"/>
<polygon fill="black" stroke="black" points="588.25,-651.46 579.72,-645.18 582.47,-655.41 588.25,-651.46"/>
<text text-anchor="middle" x="615.5" y="-666.8" font-family="Times,serif" font-size="14.00">mark</text>
</g>
<!-- 19 -->
<g id="node22" class="node">
<title>19</title>
<text text-anchor="middle" x="657" y="-623.3" font-family="Times,serif" font-size="14.00">19 (interests)</text>
</g>
<!-- 17&#45;&gt;19 -->
<g id="edge21" class="edge">
<title>17&#45;&gt;19</title>
<path fill="none" stroke="black" d="M632.27,-695.8C636.56,-684.05 642.32,-668.24 647.21,-654.84"/>
<polygon fill="black" stroke="black" points="650.6,-655.77 650.74,-645.18 644.02,-653.37 650.6,-655.77"/>
<text text-anchor="middle" x="656.5" y="-666.8" font-family="Times,serif" font-size="14.00">dobj</text>
</g>
<!-- 18 -->
<g id="node23" class="node">
<title>18</title>
<text text-anchor="middle" x="628" y="-536.3" font-family="Times,serif" font-size="14.00">18 (the)</text>
</g>
<!-- 19&#45;&gt;18 -->
<g id="edge22" class="edge">
<title>19&#45;&gt;18</title>
<path fill="none" stroke="black" d="M651.13,-608.8C647.12,-597.05 641.73,-581.24 637.16,-567.84"/>
<polygon fill="black" stroke="black" points="640.4,-566.51 633.86,-558.18 633.78,-568.77 640.4,-566.51"/>
<text text-anchor="middle" x="653.5" y="-579.8" font-family="Times,serif" font-size="14.00">det</text>
</g>
<!-- 21 -->
<g id="node24" class="node">
<title>21</title>
<text text-anchor="middle" x="704" y="-536.3" font-family="Times,serif" font-size="14.00">21 (all)</text>
</g>
<!-- 19&#45;&gt;21 -->
<g id="edge23" class="edge">
<title>19&#45;&gt;21</title>
<path fill="none" stroke="black" d="M666.51,-608.8C673.14,-596.82 682.09,-580.62 689.59,-567.06"/>
<polygon fill="black" stroke="black" points="692.73,-568.62 694.5,-558.18 686.6,-565.23 692.73,-568.62"/>
<text text-anchor="middle" x="699.5" y="-579.8" font-family="Times,serif" font-size="14.00">nmod</text>
</g>
<!-- 20 -->
<g id="node25" class="node">
<title>20</title>
<text text-anchor="middle" x="672" y="-449.3" font-family="Times,serif" font-size="14.00">20 (of)</text>
</g>
<!-- 21&#45;&gt;20 -->
<g id="edge24" class="edge">
<title>21&#45;&gt;20</title>
<path fill="none" stroke="black" d="M697.04,-521.96C694.76,-516.26 692.23,-509.87 690,-504 687.13,-496.44 684.12,-488.2 681.39,-480.63"/>
<polygon fill="black" stroke="black" points="684.68,-479.42 678.02,-471.18 678.08,-481.77 684.68,-479.42"/>
<text text-anchor="middle" x="702" y="-492.8" font-family="Times,serif" font-size="14.00">case</text>
</g>
<!-- 23 -->
<g id="node26" class="node">
<title>23</title>
<text text-anchor="middle" x="753" y="-449.3" font-family="Times,serif" font-size="14.00">23 (those)</text>
</g>
<!-- 21&#45;&gt;23 -->
<g id="edge25" class="edge">
<title>21&#45;&gt;23</title>
<path fill="none" stroke="black" d="M713.92,-521.8C720.82,-509.82 730.16,-493.62 737.98,-480.06"/>
<polygon fill="black" stroke="black" points="741.14,-481.59 743.1,-471.18 735.07,-478.09 741.14,-481.59"/>
<text text-anchor="middle" x="747.5" y="-492.8" font-family="Times,serif" font-size="14.00">nmod</text>
</g>
<!-- 22 -->
<g id="node27" class="node">
<title>22</title>
<text text-anchor="middle" x="721" y="-362.3" font-family="Times,serif" font-size="14.00">22 (of)</text>
</g>
<!-- 23&#45;&gt;22 -->
<g id="edge26" class="edge">
<title>23&#45;&gt;22</title>
<path fill="none" stroke="black" d="M745.26,-434.66C742.84,-429.06 740.23,-422.8 738,-417 735.16,-409.58 732.29,-401.46 729.74,-393.96"/>
<polygon fill="black" stroke="black" points="732.98,-392.62 726.5,-384.24 726.34,-394.84 732.98,-392.62"/>
<text text-anchor="middle" x="750" y="-405.8" font-family="Times,serif" font-size="14.00">case</text>
</g>
<!-- 25 -->
<g id="node28" class="node">
<title>25</title>
<text text-anchor="middle" x="801" y="-362.3" font-family="Times,serif" font-size="14.00">25 (have)</text>
</g>
<!-- 23&#45;&gt;25 -->
<g id="edge27" class="edge">
<title>23&#45;&gt;25</title>
<path fill="none" stroke="black" d="M762.71,-434.8C769.48,-422.82 778.63,-406.62 786.29,-393.06"/>
<polygon fill="black" stroke="black" points="789.43,-394.6 791.3,-384.18 783.34,-391.16 789.43,-394.6"/>
<text text-anchor="middle" x="802" y="-405.8" font-family="Times,serif" font-size="14.00">acl:relcl</text>
</g>
<!-- 24 -->
<g id="node29" class="node">
<title>24</title>
<text text-anchor="middle" x="766" y="-275.3" font-family="Times,serif" font-size="14.00">24 (who)</text>
</g>
<!-- 25&#45;&gt;24 -->
<g id="edge28" class="edge">
<title>25&#45;&gt;24</title>
<path fill="none" stroke="black" d="M792.16,-347.72C789.41,-342.12 786.47,-335.85 784,-330 780.86,-322.55 777.76,-314.35 775.04,-306.77"/>
<polygon fill="black" stroke="black" points="778.33,-305.57 771.72,-297.3 771.73,-307.89 778.33,-305.57"/>
<text text-anchor="middle" x="798.5" y="-318.8" font-family="Times,serif" font-size="14.00">nsubj</text>
</g>
<!-- 27 -->
<g id="node30" class="node">
<title>27</title>
<text text-anchor="middle" x="853" y="-275.3" font-family="Times,serif" font-size="14.00">27 (stake)</text>
</g>
<!-- 25&#45;&gt;27 -->
<g id="edge29" class="edge">
<title>25&#45;&gt;27</title>
<path fill="none" stroke="black" d="M811.52,-347.8C818.85,-335.82 828.76,-319.62 837.06,-306.06"/>
<polygon fill="black" stroke="black" points="840.26,-307.53 842.49,-297.18 834.29,-303.88 840.26,-307.53"/>
<text text-anchor="middle" x="843.5" y="-318.8" font-family="Times,serif" font-size="14.00">dobj</text>
</g>
<!-- 26 -->
<g id="node31" class="node">
<title>26</title>
<text text-anchor="middle" x="820" y="-188.3" font-family="Times,serif" font-size="14.00">26 (a)</text>
</g>
<!-- 27&#45;&gt;26 -->
<g id="edge30" class="edge">
<title>27&#45;&gt;26</title>
<path fill="none" stroke="black" d="M846.32,-260.8C841.76,-249.05 835.62,-233.24 830.42,-219.84"/>
<polygon fill="black" stroke="black" points="833.55,-218.23 826.67,-210.18 827.02,-220.76 833.55,-218.23"/>
<text text-anchor="middle" x="847.5" y="-231.8" font-family="Times,serif" font-size="14.00">det</text>
</g>
<!-- 32 -->
<g id="node32" class="node">
<title>32</title>
<text text-anchor="middle" x="911" y="-188.3" font-family="Times,serif" font-size="14.00">32 (activities)</text>
</g>
<!-- 27&#45;&gt;32 -->
<g id="edge31" class="edge">
<title>27&#45;&gt;32</title>
<path fill="none" stroke="black" d="M864.74,-260.8C872.99,-248.7 884.18,-232.3 893.49,-218.67"/>
<polygon fill="black" stroke="black" points="896.53,-220.41 899.28,-210.18 890.75,-216.46 896.53,-220.41"/>
<text text-anchor="middle" x="901.5" y="-231.8" font-family="Times,serif" font-size="14.00">nmod</text>
</g>
<!-- 28 -->
<g id="node33" class="node">
<title>28</title>
<text text-anchor="middle" x="877" y="-101.3" font-family="Times,serif" font-size="14.00">28 (in)</text>
</g>
<!-- 32&#45;&gt;28 -->
<g id="edge34" class="edge">
<title>32&#45;&gt;28</title>
<path fill="none" stroke="black" d="M904.12,-173.8C899.42,-162.05 893.1,-146.24 887.74,-132.84"/>
<polygon fill="black" stroke="black" points="890.83,-131.16 883.87,-123.18 884.33,-133.76 890.83,-131.16"/>
<text text-anchor="middle" x="909" y="-144.8" font-family="Times,serif" font-size="14.00">case</text>
</g>
<!-- 30 -->
<g id="node35" class="node">
<title>30</title>
<text text-anchor="middle" x="969" y="-101.3" font-family="Times,serif" font-size="14.00">30 (company)</text>
</g>
<!-- 32&#45;&gt;30 -->
<g id="edge35" class="edge">
<title>32&#45;&gt;30</title>
<path fill="none" stroke="black" d="M922.74,-173.8C930.99,-161.7 942.18,-145.3 951.49,-131.67"/>
<polygon fill="black" stroke="black" points="954.53,-133.41 957.28,-123.18 948.75,-129.46 954.53,-133.41"/>
<text text-anchor="middle" x="973.5" y="-144.8" font-family="Times,serif" font-size="14.00">nmod:poss</text>
</g>
<!-- 29 -->
<g id="node34" class="node">
<title>29</title>
<text text-anchor="middle" x="932" y="-14.3" font-family="Times,serif" font-size="14.00">29 (the)</text>
</g>
<!-- 30&#45;&gt;29 -->
<g id="edge32" class="edge">
<title>30&#45;&gt;29</title>
<path fill="none" stroke="black" d="M961.51,-86.8C956.35,-74.93 949.38,-58.93 943.51,-45.45"/>
<polygon fill="black" stroke="black" points="946.68,-43.95 939.48,-36.18 940.26,-46.74 946.68,-43.95"/>
<text text-anchor="middle" x="961.5" y="-57.8" font-family="Times,serif" font-size="14.00">det</text>
</g>
<!-- 31 -->
<g id="node36" class="node">
<title>31</title>
<text text-anchor="middle" x="1007" y="-14.3" font-family="Times,serif" font-size="14.00">31 (&#39;s)</text>
</g>
<!-- 30&#45;&gt;31 -->
<g id="edge33" class="edge">
<title>30&#45;&gt;31</title>
<path fill="none" stroke="black" d="M976.69,-86.8C982,-74.93 989.15,-58.93 995.18,-45.45"/>
<polygon fill="black" stroke="black" points="998.44,-46.73 999.32,-36.18 992.04,-43.88 998.44,-46.73"/>
<text text-anchor="middle" x="1003" y="-57.8" font-family="Times,serif" font-size="14.00">case</text>
</g>
<!-- 35 -->
<g id="node38" class="node">
<title>35</title>
<text text-anchor="middle" x="790" y="-623.3" font-family="Times,serif" font-size="14.00">35 (their)</text>
</g>
<!-- 36 -->
<g id="node39" class="node">
<title>36</title>
<text text-anchor="middle" x="893" y="-623.3" font-family="Times,serif" font-size="14.00">36 (competing)</text>
</g>
<!-- 37&#45;&gt;35 -->
<g id="edge36" class="edge">
<title>37&#45;&gt;35</title>
<path fill="none" stroke="black" d="M809.14,-695.8C805.83,-684.05 801.36,-668.24 797.58,-654.84"/>
<polygon fill="black" stroke="black" points="800.94,-653.85 794.85,-645.18 794.2,-655.75 800.94,-653.85"/>
<text text-anchor="middle" x="833.5" y="-666.8" font-family="Times,serif" font-size="14.00">nmod:poss</text>
</g>
<!-- 37&#45;&gt;36 -->
<g id="edge37" class="edge">
<title>37&#45;&gt;36</title>
<path fill="none" stroke="black" d="M845.51,-695.97C853.15,-690.87 860.87,-684.8 867,-678 873.21,-671.1 878.39,-662.45 882.45,-654.29"/>
<polygon fill="black" stroke="black" points="885.69,-655.62 886.69,-645.07 879.33,-652.69 885.69,-655.62"/>
<text text-anchor="middle" x="893.5" y="-666.8" font-family="Times,serif" font-size="14.00">amod</text>
</g>
<!-- 41 -->
<g id="node44" class="node">
<title>41</title>
<text text-anchor="middle" x="1014" y="-623.3" font-family="Times,serif" font-size="14.00">41 (in)</text>
</g>
<!-- 43&#45;&gt;41 -->
<g id="edge43" class="edge">
<title>43&#45;&gt;41</title>
<path fill="none" stroke="black" d="M1059.47,-695.8C1051.35,-683.7 1040.36,-667.3 1031.21,-653.67"/>
<polygon fill="black" stroke="black" points="1033.99,-651.53 1025.52,-645.18 1028.18,-655.43 1033.99,-651.53"/>
<text text-anchor="middle" x="1058" y="-666.8" font-family="Times,serif" font-size="14.00">case</text>
</g>
<!-- 42 -->
<g id="node45" class="node">
<title>42</title>
<text text-anchor="middle" x="1095" y="-623.3" font-family="Times,serif" font-size="14.00">42 (some)</text>
</g>
<!-- 43&#45;&gt;42 -->
<g id="edge44" class="edge">
<title>43&#45;&gt;42</title>
<path fill="none" stroke="black" d="M1075.86,-695.8C1079.17,-684.05 1083.64,-668.24 1087.42,-654.84"/>
<polygon fill="black" stroke="black" points="1090.8,-655.75 1090.15,-645.18 1084.06,-653.85 1090.8,-655.75"/>
<text text-anchor="middle" x="1092.5" y="-666.8" font-family="Times,serif" font-size="14.00">det</text>
</g>
</g>
</svg>
