<?xml version="1.0" encoding="UTF-8" standalone="no"?>
<!DOCTYPE svg PUBLIC "-//W3C//DTD SVG 1.1//EN"
 "http://www.w3.org/Graphics/SVG/1.1/DTD/svg11.dtd">
<!-- Generated by graphviz version 2.42.3 (0)
 -->
<!-- Title: G Pages: 1 -->
<svg width="1545pt" height="479pt"
 viewBox="0.00 0.00 1544.50 479.00" xmlns="http://www.w3.org/2000/svg" xmlns:xlink="http://www.w3.org/1999/xlink">
<g id="graph0" class="graph" transform="scale(1 1) rotate(0) translate(4 475)">
<title>G</title>
<polygon fill="white" stroke="transparent" points="-4,4 -4,-475 1540.5,-475 1540.5,4 -4,4"/>
<!-- 0 -->
<g id="node1" class="node">
<title>0</title>
<text text-anchor="middle" x="578.5" y="-449.3" font-family="Times,serif" font-size="14.00">0 (None)</text>
</g>
<!-- 3 -->
<g id="node2" class="node">
<title>3</title>
<text text-anchor="middle" x="578.5" y="-362.3" font-family="Times,serif" font-size="14.00">3 (lost)</text>
</g>
<!-- 0&#45;&gt;3 -->
<g id="edge1" class="edge">
<title>0&#45;&gt;3</title>
<path fill="none" stroke="black" d="M578.5,-434.8C578.5,-423.16 578.5,-407.55 578.5,-394.24"/>
<polygon fill="black" stroke="black" points="582,-394.18 578.5,-384.18 575,-394.18 582,-394.18"/>
<text text-anchor="middle" x="598" y="-405.8" font-family="Times,serif" font-size="14.00">ROOT</text>
</g>
<!-- 1 -->
<g id="node3" class="node">
<title>1</title>
<text text-anchor="middle" x="47.5" y="-275.3" font-family="Times,serif" font-size="14.00">1 (Caterpillar)</text>
</g>
<!-- 3&#45;&gt;1 -->
<g id="edge2" class="edge">
<title>3&#45;&gt;1</title>
<path fill="none" stroke="black" d="M550.18,-365.1C484.52,-364.77 317.14,-360.69 181.5,-330 151.65,-323.25 119.48,-311.4 94.15,-300.94"/>
<polygon fill="black" stroke="black" points="95.37,-297.66 84.79,-297.01 92.65,-304.11 95.37,-297.66"/>
<text text-anchor="middle" x="196" y="-318.8" font-family="Times,serif" font-size="14.00">nsubj</text>
</g>
<!-- 2 -->
<g id="node4" class="node">
<title>2</title>
<text text-anchor="middle" x="140.5" y="-275.3" font-family="Times,serif" font-size="14.00">2 (has)</text>
</g>
<!-- 3&#45;&gt;2 -->
<g id="edge3" class="edge">
<title>3&#45;&gt;2</title>
<path fill="none" stroke="black" d="M550.46,-364.6C493.96,-363.22 362.75,-357.1 256.5,-330 228.8,-322.93 199.22,-310.1 176.87,-299.2"/>
<polygon fill="black" stroke="black" points="178.27,-295.99 167.76,-294.67 175.16,-302.26 178.27,-295.99"/>
<text text-anchor="middle" x="266.5" y="-318.8" font-family="Times,serif" font-size="14.00">aux</text>
</g>
<!-- 5 -->
<g id="node5" class="node">
<title>5</title>
<text text-anchor="middle" x="215.5" y="-275.3" font-family="Times,serif" font-size="14.00">5 (shoe)</text>
</g>
<!-- 3&#45;&gt;5 -->
<g id="edge4" class="edge">
<title>3&#45;&gt;5</title>
<path fill="none" stroke="black" d="M550.45,-364.18C501.95,-362.13 399.75,-354.95 317.5,-330 295.12,-323.21 271.58,-311.98 252.77,-301.88"/>
<polygon fill="black" stroke="black" points="254.39,-298.78 243.94,-297.04 251.02,-304.92 254.39,-298.78"/>
<text text-anchor="middle" x="330" y="-318.8" font-family="Times,serif" font-size="14.00">dobj</text>
</g>
<!-- 6 -->
<g id="node6" class="node">
<title>6</title>
<text text-anchor="middle" x="290.5" y="-275.3" font-family="Times,serif" font-size="14.00">6 (.)</text>
</g>
<!-- 3&#45;&gt;6 -->
<g id="edge5" class="edge">
<title>3&#45;&gt;6</title>
<path fill="none" stroke="black" d="M550.38,-363.05C511.13,-359.67 438.14,-350.94 379.5,-330 360.21,-323.11 340.19,-312.25 324.04,-302.41"/>
<polygon fill="black" stroke="black" points="325.83,-299.4 315.49,-297.07 322.12,-305.34 325.83,-299.4"/>
<text text-anchor="middle" x="395" y="-318.8" font-family="Times,serif" font-size="14.00">punct</text>
</g>
<!-- 15 -->
<g id="node7" class="node">
<title>15</title>
<text text-anchor="middle" x="362.5" y="-275.3" font-family="Times,serif" font-size="14.00">15 (.)</text>
</g>
<!-- 3&#45;&gt;15 -->
<g id="edge6" class="edge">
<title>3&#45;&gt;15</title>
<path fill="none" stroke="black" d="M550.37,-360.49C522.07,-355.34 477.57,-345.56 441.5,-330 424.84,-322.81 407.66,-312.37 393.6,-302.88"/>
<polygon fill="black" stroke="black" points="395.5,-299.94 385.28,-297.14 391.52,-305.7 395.5,-299.94"/>
<text text-anchor="middle" x="457" y="-318.8" font-family="Times,serif" font-size="14.00">punct</text>
</g>
<!-- 20 -->
<g id="node8" class="node">
<title>20</title>
<text text-anchor="middle" x="434.5" y="-275.3" font-family="Times,serif" font-size="14.00">20 (.)</text>
</g>
<!-- 3&#45;&gt;20 -->
<g id="edge7" class="edge">
<title>3&#45;&gt;20</title>
<path fill="none" stroke="black" d="M550.24,-354.91C534.26,-348.68 514.19,-339.99 497.5,-330 484.9,-322.46 472.01,-312.67 461.21,-303.76"/>
<polygon fill="black" stroke="black" points="463.29,-300.94 453.39,-297.17 458.78,-306.29 463.29,-300.94"/>
<text text-anchor="middle" x="513" y="-318.8" font-family="Times,serif" font-size="14.00">punct</text>
</g>
<!-- 21 -->
<g id="node9" class="node">
<title>21</title>
<text text-anchor="middle" x="506.5" y="-275.3" font-family="Times,serif" font-size="14.00">21 (``)</text>
</g>
<!-- 3&#45;&gt;21 -->
<g id="edge8" class="edge">
<title>3&#45;&gt;21</title>
<path fill="none" stroke="black" d="M560.17,-347.69C554.63,-342.19 548.66,-335.99 543.5,-330 536.87,-322.31 530.13,-313.53 524.24,-305.49"/>
<polygon fill="black" stroke="black" points="526.92,-303.22 518.23,-297.15 521.23,-307.31 526.92,-303.22"/>
<text text-anchor="middle" x="559" y="-318.8" font-family="Times,serif" font-size="14.00">punct</text>
</g>
<!-- 31 -->
<g id="node10" class="node">
<title>31</title>
<text text-anchor="middle" x="578.5" y="-275.3" font-family="Times,serif" font-size="14.00">31 (?)</text>
</g>
<!-- 3&#45;&gt;31 -->
<g id="edge9" class="edge">
<title>3&#45;&gt;31</title>
<path fill="none" stroke="black" d="M578.5,-347.8C578.5,-336.16 578.5,-320.55 578.5,-307.24"/>
<polygon fill="black" stroke="black" points="582,-307.18 578.5,-297.18 575,-307.18 582,-307.18"/>
<text text-anchor="middle" x="594" y="-318.8" font-family="Times,serif" font-size="14.00">punct</text>
</g>
<!-- 32 -->
<g id="node11" class="node">
<title>32</title>
<text text-anchor="middle" x="650.5" y="-275.3" font-family="Times,serif" font-size="14.00">32 (&#39;&#39;)</text>
</g>
<!-- 3&#45;&gt;32 -->
<g id="edge10" class="edge">
<title>3&#45;&gt;32</title>
<path fill="none" stroke="black" d="M596.83,-347.69C602.37,-342.19 608.34,-335.99 613.5,-330 620.13,-322.31 626.87,-313.53 632.76,-305.49"/>
<polygon fill="black" stroke="black" points="635.77,-307.31 638.77,-297.15 630.08,-303.22 635.77,-307.31"/>
<text text-anchor="middle" x="641" y="-318.8" font-family="Times,serif" font-size="14.00">punct</text>
</g>
<!-- 40 -->
<g id="node12" class="node">
<title>40</title>
<text text-anchor="middle" x="722.5" y="-275.3" font-family="Times,serif" font-size="14.00">40 (.)</text>
</g>
<!-- 3&#45;&gt;40 -->
<g id="edge11" class="edge">
<title>3&#45;&gt;40</title>
<path fill="none" stroke="black" d="M606.76,-355.15C623.02,-348.95 643.52,-340.2 660.5,-330 672.97,-322.51 685.66,-312.73 696.28,-303.81"/>
<polygon fill="black" stroke="black" points="698.66,-306.38 703.97,-297.21 694.1,-301.07 698.66,-306.38"/>
<text text-anchor="middle" x="698" y="-318.8" font-family="Times,serif" font-size="14.00">punct</text>
</g>
<!-- 8 -->
<g id="node13" class="node">
<title>8</title>
<text text-anchor="middle" x="799.5" y="-275.3" font-family="Times,serif" font-size="14.00">8 (hurts)</text>
</g>
<!-- 3&#45;&gt;8 -->
<g id="edge12" class="edge">
<title>3&#45;&gt;8</title>
<path fill="none" stroke="black" d="M606.72,-360.47C635.38,-355.28 680.67,-345.45 717.5,-330 734.69,-322.79 752.5,-312.34 767.12,-302.86"/>
<polygon fill="black" stroke="black" points="769.38,-305.56 775.77,-297.12 765.5,-299.73 769.38,-305.56"/>
<text text-anchor="middle" x="771" y="-318.8" font-family="Times,serif" font-size="14.00">parataxis</text>
</g>
<!-- 17 -->
<g id="node14" class="node">
<title>17</title>
<text text-anchor="middle" x="883.5" y="-275.3" font-family="Times,serif" font-size="14.00">17 (goes)</text>
</g>
<!-- 3&#45;&gt;17 -->
<g id="edge13" class="edge">
<title>3&#45;&gt;17</title>
<path fill="none" stroke="black" d="M606.56,-363.94C649.36,-361.59 733.01,-354.04 799.5,-330 817.78,-323.39 836.51,-312.69 851.64,-302.88"/>
<polygon fill="black" stroke="black" points="853.71,-305.7 860.1,-297.24 849.83,-299.87 853.71,-305.7"/>
<text text-anchor="middle" x="856" y="-318.8" font-family="Times,serif" font-size="14.00">parataxis</text>
</g>
<!-- 24 -->
<g id="node15" class="node">
<title>24</title>
<text text-anchor="middle" x="1018.5" y="-275.3" font-family="Times,serif" font-size="14.00">24 (borrow)</text>
</g>
<!-- 3&#45;&gt;24 -->
<g id="edge14" class="edge">
<title>3&#45;&gt;24</title>
<path fill="none" stroke="black" d="M606.74,-364.06C661.19,-361.75 784.15,-354.08 884.5,-330 913.94,-322.94 945.73,-311.26 970.96,-300.97"/>
<polygon fill="black" stroke="black" points="972.39,-304.16 980.29,-297.1 969.71,-297.7 972.39,-304.16"/>
<text text-anchor="middle" x="958" y="-318.8" font-family="Times,serif" font-size="14.00">parataxis</text>
</g>
<!-- 33 -->
<g id="node16" class="node">
<title>33</title>
<text text-anchor="middle" x="1108.5" y="-275.3" font-family="Times,serif" font-size="14.00">33 (But)</text>
</g>
<!-- 3&#45;&gt;33 -->
<g id="edge15" class="edge">
<title>3&#45;&gt;33</title>
<path fill="none" stroke="black" d="M606.66,-365.43C673.54,-365.84 846.81,-363.31 986.5,-330 1014.68,-323.28 1044.82,-310.98 1068.09,-300.27"/>
<polygon fill="black" stroke="black" points="1069.72,-303.36 1077.29,-295.95 1066.75,-297.03 1069.72,-303.36"/>
<text text-anchor="middle" x="1038" y="-318.8" font-family="Times,serif" font-size="14.00">cc</text>
</g>
<!-- 39 -->
<g id="node17" class="node">
<title>39</title>
<text text-anchor="middle" x="1392.5" y="-275.3" font-family="Times,serif" font-size="14.00">39 (small)</text>
</g>
<!-- 3&#45;&gt;39 -->
<g id="edge16" class="edge">
<title>3&#45;&gt;39</title>
<path fill="none" stroke="black" d="M606.64,-363.59C679.7,-359.79 881.36,-348.35 1048.5,-330 1155.84,-318.22 1281.18,-298.48 1346.92,-287.66"/>
<polygon fill="black" stroke="black" points="1347.65,-291.09 1356.95,-286.01 1346.51,-284.18 1347.65,-291.09"/>
<text text-anchor="middle" x="1174.5" y="-318.8" font-family="Times,serif" font-size="14.00">conj</text>
</g>
<!-- 4 -->
<g id="node18" class="node">
<title>4</title>
<text text-anchor="middle" x="215.5" y="-188.3" font-family="Times,serif" font-size="14.00">4 (a)</text>
</g>
<!-- 5&#45;&gt;4 -->
<g id="edge17" class="edge">
<title>5&#45;&gt;4</title>
<path fill="none" stroke="black" d="M215.5,-260.8C215.5,-249.16 215.5,-233.55 215.5,-220.24"/>
<polygon fill="black" stroke="black" points="219,-220.18 215.5,-210.18 212,-220.18 219,-220.18"/>
<text text-anchor="middle" x="224" y="-231.8" font-family="Times,serif" font-size="14.00">det</text>
</g>
<!-- 7 -->
<g id="node19" class="node">
<title>7</title>
<text text-anchor="middle" x="534.5" y="-188.3" font-family="Times,serif" font-size="14.00">7 (It)</text>
</g>
<!-- 8&#45;&gt;7 -->
<g id="edge18" class="edge">
<title>8&#45;&gt;7</title>
<path fill="none" stroke="black" d="M767.97,-264.09C764.81,-262.95 761.61,-261.89 758.5,-261 711.72,-247.59 697.29,-256.36 650.5,-243 616.26,-233.22 607,-226.59 570.81,-210.12"/>
<polygon fill="black" stroke="black" points="572.12,-206.86 561.56,-205.96 569.25,-213.25 572.12,-206.86"/>
<text text-anchor="middle" x="665" y="-231.8" font-family="Times,serif" font-size="14.00">nsubj</text>
</g>
<!-- 10 -->
<g id="node20" class="node">
<title>10</title>
<text text-anchor="middle" x="612.5" y="-188.3" font-family="Times,serif" font-size="14.00">10 (foot)</text>
</g>
<!-- 8&#45;&gt;10 -->
<g id="edge19" class="edge">
<title>8&#45;&gt;10</title>
<path fill="none" stroke="black" d="M767.73,-264.78C764.61,-263.5 761.5,-262.22 758.5,-261 738.55,-252.87 733.17,-251.79 713.5,-243 693.88,-234.23 672.5,-223.78 654.48,-214.71"/>
<polygon fill="black" stroke="black" points="655.9,-211.5 645.39,-210.11 652.73,-217.75 655.9,-211.5"/>
<text text-anchor="middle" x="726" y="-231.8" font-family="Times,serif" font-size="14.00">dobj</text>
</g>
<!-- 12 -->
<g id="node21" class="node">
<title>12</title>
<text text-anchor="middle" x="697.5" y="-188.3" font-family="Times,serif" font-size="14.00">12 (walk)</text>
</g>
<!-- 8&#45;&gt;12 -->
<g id="edge20" class="edge">
<title>8&#45;&gt;12</title>
<path fill="none" stroke="black" d="M778.86,-260.8C763.65,-248.13 742.78,-230.73 725.99,-216.74"/>
<polygon fill="black" stroke="black" points="728.03,-213.89 718.11,-210.18 723.55,-219.27 728.03,-213.89"/>
<text text-anchor="middle" x="770" y="-231.8" font-family="Times,serif" font-size="14.00">advcl</text>
</g>
<!-- 16 -->
<g id="node26" class="node">
<title>16</title>
<text text-anchor="middle" x="800.5" y="-188.3" font-family="Times,serif" font-size="14.00">16 (Caterpillar)</text>
</g>
<!-- 17&#45;&gt;16 -->
<g id="edge25" class="edge">
<title>17&#45;&gt;16</title>
<path fill="none" stroke="black" d="M866.7,-260.8C854.55,-248.36 837.96,-231.36 824.43,-217.5"/>
<polygon fill="black" stroke="black" points="826.76,-214.88 817.27,-210.18 821.75,-219.78 826.76,-214.88"/>
<text text-anchor="middle" x="862" y="-231.8" font-family="Times,serif" font-size="14.00">nsubj</text>
</g>
<!-- 19 -->
<g id="node27" class="node">
<title>19</title>
<text text-anchor="middle" x="906.5" y="-188.3" font-family="Times,serif" font-size="14.00">19 (spider)</text>
</g>
<!-- 17&#45;&gt;19 -->
<g id="edge26" class="edge">
<title>17&#45;&gt;19</title>
<path fill="none" stroke="black" d="M888.15,-260.8C891.33,-249.05 895.61,-233.24 899.24,-219.84"/>
<polygon fill="black" stroke="black" points="902.62,-220.74 901.85,-210.18 895.86,-218.91 902.62,-220.74"/>
<text text-anchor="middle" x="912" y="-231.8" font-family="Times,serif" font-size="14.00">nmod</text>
</g>
<!-- 22 -->
<g id="node29" class="node">
<title>22</title>
<text text-anchor="middle" x="996.5" y="-188.3" font-family="Times,serif" font-size="14.00">22 (May)</text>
</g>
<!-- 24&#45;&gt;22 -->
<g id="edge28" class="edge">
<title>24&#45;&gt;22</title>
<path fill="none" stroke="black" d="M1003.79,-260.93C1000.01,-255.54 996.46,-249.33 994.5,-243 992.26,-235.78 991.78,-227.69 992.11,-220.16"/>
<polygon fill="black" stroke="black" points="995.61,-220.31 993.03,-210.03 988.64,-219.68 995.61,-220.31"/>
<text text-anchor="middle" x="1026" y="-231.8" font-family="Times,serif" font-size="14.00">nmod:tmod</text>
</g>
<!-- 23 -->
<g id="node30" class="node">
<title>23</title>
<text text-anchor="middle" x="1075.5" y="-188.3" font-family="Times,serif" font-size="14.00">23 (I)</text>
</g>
<!-- 24&#45;&gt;23 -->
<g id="edge29" class="edge">
<title>24&#45;&gt;23</title>
<path fill="none" stroke="black" d="M1041.47,-260.78C1047.3,-255.57 1053.13,-249.49 1057.5,-243 1062.21,-236 1065.85,-227.63 1068.59,-219.75"/>
<polygon fill="black" stroke="black" points="1071.93,-220.77 1071.58,-210.18 1065.25,-218.68 1071.93,-220.77"/>
<text text-anchor="middle" x="1080" y="-231.8" font-family="Times,serif" font-size="14.00">nsubj</text>
</g>
<!-- 26 -->
<g id="node31" class="node">
<title>26</title>
<text text-anchor="middle" x="1151.5" y="-188.3" font-family="Times,serif" font-size="14.00">26 (hoe)</text>
</g>
<!-- 24&#45;&gt;26 -->
<g id="edge30" class="edge">
<title>24&#45;&gt;26</title>
<path fill="none" stroke="black" d="M1059.78,-263.14C1072.67,-257.67 1086.61,-250.86 1098.5,-243 1109.38,-235.8 1120.1,-226.29 1129.01,-217.5"/>
<polygon fill="black" stroke="black" points="1131.53,-219.93 1136.04,-210.35 1126.54,-215.02 1131.53,-219.93"/>
<text text-anchor="middle" x="1130" y="-231.8" font-family="Times,serif" font-size="14.00">dobj</text>
</g>
<!-- 28 -->
<g id="node32" class="node">
<title>28</title>
<text text-anchor="middle" x="1231.5" y="-188.3" font-family="Times,serif" font-size="14.00">28 (you)</text>
</g>
<!-- 24&#45;&gt;28 -->
<g id="edge31" class="edge">
<title>24&#45;&gt;28</title>
<path fill="none" stroke="black" d="M1059.6,-263.66C1062.6,-262.73 1065.59,-261.83 1068.5,-261 1102.72,-251.26 1113.45,-256.17 1146.5,-243 1164.45,-235.85 1183.09,-225.28 1198.33,-215.71"/>
<polygon fill="black" stroke="black" points="1200.35,-218.57 1206.87,-210.22 1196.57,-212.68 1200.35,-218.57"/>
<text text-anchor="middle" x="1192" y="-231.8" font-family="Times,serif" font-size="14.00">nmod</text>
</g>
<!-- 36 -->
<g id="node39" class="node">
<title>36</title>
<text text-anchor="middle" x="1352.5" y="-188.3" font-family="Times,serif" font-size="14.00">36 (shoe)</text>
</g>
<!-- 39&#45;&gt;36 -->
<g id="edge38" class="edge">
<title>39&#45;&gt;36</title>
<path fill="none" stroke="black" d="M1384.41,-260.8C1378.82,-248.93 1371.29,-232.93 1364.95,-219.45"/>
<polygon fill="black" stroke="black" points="1368.01,-217.73 1360.58,-210.18 1361.67,-220.71 1368.01,-217.73"/>
<text text-anchor="middle" x="1390" y="-231.8" font-family="Times,serif" font-size="14.00">nsubj</text>
</g>
<!-- 37 -->
<g id="node40" class="node">
<title>37</title>
<text text-anchor="middle" x="1431.5" y="-188.3" font-family="Times,serif" font-size="14.00">37 (is)</text>
</g>
<!-- 39&#45;&gt;37 -->
<g id="edge39" class="edge">
<title>39&#45;&gt;37</title>
<path fill="none" stroke="black" d="M1400.39,-260.8C1405.84,-248.93 1413.18,-232.93 1419.36,-219.45"/>
<polygon fill="black" stroke="black" points="1422.63,-220.72 1423.62,-210.18 1416.27,-217.8 1422.63,-220.72"/>
<text text-anchor="middle" x="1424.5" y="-231.8" font-family="Times,serif" font-size="14.00">cop</text>
</g>
<!-- 38 -->
<g id="node41" class="node">
<title>38</title>
<text text-anchor="middle" x="1506.5" y="-188.3" font-family="Times,serif" font-size="14.00">38 (too)</text>
</g>
<!-- 39&#45;&gt;38 -->
<g id="edge40" class="edge">
<title>39&#45;&gt;38</title>
<path fill="none" stroke="black" d="M1415.57,-260.8C1432.8,-247.95 1456.53,-230.26 1475.43,-216.17"/>
<polygon fill="black" stroke="black" points="1477.54,-218.96 1483.46,-210.18 1473.36,-213.35 1477.54,-218.96"/>
<text text-anchor="middle" x="1478.5" y="-231.8" font-family="Times,serif" font-size="14.00">advmod</text>
</g>
<!-- 9 -->
<g id="node22" class="node">
<title>9</title>
<text text-anchor="middle" x="612.5" y="-101.3" font-family="Times,serif" font-size="14.00">9 (her)</text>
</g>
<!-- 10&#45;&gt;9 -->
<g id="edge21" class="edge">
<title>10&#45;&gt;9</title>
<path fill="none" stroke="black" d="M612.5,-173.8C612.5,-162.16 612.5,-146.55 612.5,-133.24"/>
<polygon fill="black" stroke="black" points="616,-133.18 612.5,-123.18 609,-133.18 616,-133.18"/>
<text text-anchor="middle" x="642" y="-144.8" font-family="Times,serif" font-size="14.00">nmod:poss</text>
</g>
<!-- 11 -->
<g id="node23" class="node">
<title>11</title>
<text text-anchor="middle" x="696.5" y="-101.3" font-family="Times,serif" font-size="14.00">11 (to)</text>
</g>
<!-- 12&#45;&gt;11 -->
<g id="edge22" class="edge">
<title>12&#45;&gt;11</title>
<path fill="none" stroke="black" d="M697.3,-173.8C697.16,-162.16 696.98,-146.55 696.82,-133.24"/>
<polygon fill="black" stroke="black" points="700.32,-133.13 696.7,-123.18 693.32,-133.22 700.32,-133.13"/>
<text text-anchor="middle" x="712" y="-144.8" font-family="Times,serif" font-size="14.00">mark</text>
</g>
<!-- 14 -->
<g id="node24" class="node">
<title>14</title>
<text text-anchor="middle" x="768.5" y="-101.3" font-family="Times,serif" font-size="14.00">14 (it)</text>
</g>
<!-- 12&#45;&gt;14 -->
<g id="edge23" class="edge">
<title>12&#45;&gt;14</title>
<path fill="none" stroke="black" d="M714.32,-173.89C719.63,-168.3 725.43,-161.99 730.5,-156 737.2,-148.1 744.16,-139.17 750.26,-131.08"/>
<polygon fill="black" stroke="black" points="753.1,-133.12 756.27,-123.01 747.49,-128.94 753.1,-133.12"/>
<text text-anchor="middle" x="758" y="-144.8" font-family="Times,serif" font-size="14.00">nmod</text>
</g>
<!-- 13 -->
<g id="node25" class="node">
<title>13</title>
<text text-anchor="middle" x="768.5" y="-14.3" font-family="Times,serif" font-size="14.00">13 (without)</text>
</g>
<!-- 14&#45;&gt;13 -->
<g id="edge24" class="edge">
<title>14&#45;&gt;13</title>
<path fill="none" stroke="black" d="M768.5,-86.8C768.5,-75.16 768.5,-59.55 768.5,-46.24"/>
<polygon fill="black" stroke="black" points="772,-46.18 768.5,-36.18 765,-46.18 772,-46.18"/>
<text text-anchor="middle" x="780.5" y="-57.8" font-family="Times,serif" font-size="14.00">case</text>
</g>
<!-- 18 -->
<g id="node28" class="node">
<title>18</title>
<text text-anchor="middle" x="906.5" y="-101.3" font-family="Times,serif" font-size="14.00">18 (to)</text>
</g>
<!-- 19&#45;&gt;18 -->
<g id="edge27" class="edge">
<title>19&#45;&gt;18</title>
<path fill="none" stroke="black" d="M906.5,-173.8C906.5,-162.16 906.5,-146.55 906.5,-133.24"/>
<polygon fill="black" stroke="black" points="910,-133.18 906.5,-123.18 903,-133.18 910,-133.18"/>
<text text-anchor="middle" x="918.5" y="-144.8" font-family="Times,serif" font-size="14.00">case</text>
</g>
<!-- 25 -->
<g id="node33" class="node">
<title>25</title>
<text text-anchor="middle" x="1071.5" y="-101.3" font-family="Times,serif" font-size="14.00">25 (a)</text>
</g>
<!-- 26&#45;&gt;25 -->
<g id="edge32" class="edge">
<title>26&#45;&gt;25</title>
<path fill="none" stroke="black" d="M1131.11,-173.76C1124.95,-168.27 1118.28,-162.05 1112.5,-156 1105.05,-148.21 1097.42,-139.23 1090.8,-131.05"/>
<polygon fill="black" stroke="black" points="1093.52,-128.85 1084.55,-123.21 1088.05,-133.21 1093.52,-128.85"/>
<text text-anchor="middle" x="1121" y="-144.8" font-family="Times,serif" font-size="14.00">det</text>
</g>
<!-- 27 -->
<g id="node34" class="node">
<title>27</title>
<text text-anchor="middle" x="1151.5" y="-101.3" font-family="Times,serif" font-size="14.00">27 (from)</text>
</g>
<!-- 28&#45;&gt;27 -->
<g id="edge33" class="edge">
<title>28&#45;&gt;27</title>
<path fill="none" stroke="black" d="M1215.31,-173.8C1203.6,-161.36 1187.61,-144.36 1174.56,-130.5"/>
<polygon fill="black" stroke="black" points="1177.07,-128.06 1167.67,-123.18 1171.97,-132.86 1177.07,-128.06"/>
<text text-anchor="middle" x="1208.5" y="-144.8" font-family="Times,serif" font-size="14.00">case</text>
</g>
<!-- 29 -->
<g id="node35" class="node">
<title>29</title>
<text text-anchor="middle" x="1231.5" y="-101.3" font-family="Times,serif" font-size="14.00">29 (,)</text>
</g>
<!-- 28&#45;&gt;29 -->
<g id="edge34" class="edge">
<title>28&#45;&gt;29</title>
<path fill="none" stroke="black" d="M1231.5,-173.8C1231.5,-162.16 1231.5,-146.55 1231.5,-133.24"/>
<polygon fill="black" stroke="black" points="1235,-133.18 1231.5,-123.18 1228,-133.18 1235,-133.18"/>
<text text-anchor="middle" x="1247" y="-144.8" font-family="Times,serif" font-size="14.00">punct</text>
</g>
<!-- 30 -->
<g id="node36" class="node">
<title>30</title>
<text text-anchor="middle" x="1315.5" y="-101.3" font-family="Times,serif" font-size="14.00">30 (Spider)</text>
</g>
<!-- 28&#45;&gt;30 -->
<g id="edge35" class="edge">
<title>28&#45;&gt;30</title>
<path fill="none" stroke="black" d="M1248.62,-173.94C1254.32,-168.25 1260.7,-161.86 1266.5,-156 1274.75,-147.67 1283.74,-138.51 1291.74,-130.34"/>
<polygon fill="black" stroke="black" points="1294.27,-132.76 1298.76,-123.17 1289.27,-127.87 1294.27,-132.76"/>
<text text-anchor="middle" x="1296.5" y="-144.8" font-family="Times,serif" font-size="14.00">appos</text>
</g>
<!-- 34 -->
<g id="node37" class="node">
<title>34</title>
<text text-anchor="middle" x="1411.5" y="-101.3" font-family="Times,serif" font-size="14.00">34 (Spider)</text>
</g>
<!-- 35 -->
<g id="node38" class="node">
<title>35</title>
<text text-anchor="middle" x="1411.5" y="-14.3" font-family="Times,serif" font-size="14.00">35 (&#39;s)</text>
</g>
<!-- 34&#45;&gt;35 -->
<g id="edge36" class="edge">
<title>34&#45;&gt;35</title>
<path fill="none" stroke="black" d="M1411.5,-86.8C1411.5,-75.16 1411.5,-59.55 1411.5,-46.24"/>
<polygon fill="black" stroke="black" points="1415,-46.18 1411.5,-36.18 1408,-46.18 1415,-46.18"/>
<text text-anchor="middle" x="1423.5" y="-57.8" font-family="Times,serif" font-size="14.00">case</text>
</g>
<!-- 36&#45;&gt;34 -->
<g id="edge37" class="edge">
<title>36&#45;&gt;34</title>
<path fill="none" stroke="black" d="M1364.44,-173.8C1372.84,-161.7 1384.22,-145.3 1393.68,-131.67"/>
<polygon fill="black" stroke="black" points="1396.75,-133.39 1399.58,-123.18 1391,-129.39 1396.75,-133.39"/>
<text text-anchor="middle" x="1416" y="-144.8" font-family="Times,serif" font-size="14.00">nmod:poss</text>
</g>
</g>
</svg>
