<?xml version="1.0" encoding="UTF-8" standalone="no"?>
<!DOCTYPE svg PUBLIC "-//W3C//DTD SVG 1.1//EN"
 "http://www.w3.org/Graphics/SVG/1.1/DTD/svg11.dtd">
<!-- Generated by graphviz version 2.42.3 (0)
 -->
<!-- Title: G Pages: 1 -->
<svg width="427pt" height="479pt"
 viewBox="0.00 0.00 426.50 479.00" xmlns="http://www.w3.org/2000/svg" xmlns:xlink="http://www.w3.org/1999/xlink">
<g id="graph0" class="graph" transform="scale(1 1) rotate(0) translate(4 475)">
<title>G</title>
<polygon fill="white" stroke="transparent" points="-4,4 -4,-475 422.5,-475 422.5,4 -4,4"/>
<!-- 0 -->
<g id="node1" class="node">
<title>0</title>
<text text-anchor="middle" x="144.5" y="-449.3" font-family="Times,serif" font-size="14.00">0 (None)</text>
</g>
<!-- 3 -->
<g id="node2" class="node">
<title>3</title>
<text text-anchor="middle" x="144.5" y="-362.3" font-family="Times,serif" font-size="14.00">3 (come)</text>
</g>
<!-- 0&#45;&gt;3 -->
<g id="edge1" class="edge">
<title>0&#45;&gt;3</title>
<path fill="none" stroke="black" d="M144.5,-434.8C144.5,-423.16 144.5,-407.55 144.5,-394.24"/>
<polygon fill="black" stroke="black" points="148,-394.18 144.5,-384.18 141,-394.18 148,-394.18"/>
<text text-anchor="middle" x="164" y="-405.8" font-family="Times,serif" font-size="14.00">ROOT</text>
</g>
<!-- 1 -->
<g id="node3" class="node">
<title>1</title>
<text text-anchor="middle" x="29.5" y="-275.3" font-family="Times,serif" font-size="14.00">1 (You)</text>
</g>
<!-- 3&#45;&gt;1 -->
<g id="edge2" class="edge">
<title>3&#45;&gt;1</title>
<path fill="none" stroke="black" d="M113.16,-347.93C104.01,-342.54 94.15,-336.33 85.5,-330 74.82,-322.18 63.8,-312.69 54.39,-304.1"/>
<polygon fill="black" stroke="black" points="56.62,-301.38 46.91,-297.14 51.85,-306.51 56.62,-301.38"/>
<text text-anchor="middle" x="100" y="-318.8" font-family="Times,serif" font-size="14.00">nsubj</text>
</g>
<!-- 2 -->
<g id="node4" class="node">
<title>2</title>
<text text-anchor="middle" x="105.5" y="-275.3" font-family="Times,serif" font-size="14.00">2 (will)</text>
</g>
<!-- 3&#45;&gt;2 -->
<g id="edge3" class="edge">
<title>3&#45;&gt;2</title>
<path fill="none" stroke="black" d="M133.98,-347.84C130.75,-342.25 127.31,-335.95 124.5,-330 121.03,-322.64 117.7,-314.47 114.84,-306.89"/>
<polygon fill="black" stroke="black" points="118.09,-305.58 111.36,-297.4 111.52,-307.99 118.09,-305.58"/>
<text text-anchor="middle" x="134.5" y="-318.8" font-family="Times,serif" font-size="14.00">aux</text>
</g>
<!-- 6 -->
<g id="node5" class="node">
<title>6</title>
<text text-anchor="middle" x="184.5" y="-275.3" font-family="Times,serif" font-size="14.00">6 (place)</text>
</g>
<!-- 3&#45;&gt;6 -->
<g id="edge4" class="edge">
<title>3&#45;&gt;6</title>
<path fill="none" stroke="black" d="M152.59,-347.8C158.18,-335.93 165.71,-319.93 172.05,-306.45"/>
<polygon fill="black" stroke="black" points="175.33,-307.71 176.42,-297.18 168.99,-304.73 175.33,-307.71"/>
<text text-anchor="middle" x="183" y="-318.8" font-family="Times,serif" font-size="14.00">nmod</text>
</g>
<!-- 13 -->
<g id="node6" class="node">
<title>13</title>
<text text-anchor="middle" x="262.5" y="-275.3" font-family="Times,serif" font-size="14.00">13 (.)</text>
</g>
<!-- 3&#45;&gt;13 -->
<g id="edge5" class="edge">
<title>3&#45;&gt;13</title>
<path fill="none" stroke="black" d="M174.86,-347.86C183.93,-342.43 193.78,-336.21 202.5,-330 213.74,-321.99 225.53,-312.45 235.65,-303.86"/>
<polygon fill="black" stroke="black" points="238.07,-306.39 243.37,-297.22 233.51,-301.08 238.07,-306.39"/>
<text text-anchor="middle" x="237" y="-318.8" font-family="Times,serif" font-size="14.00">punct</text>
</g>
<!-- 4 -->
<g id="node7" class="node">
<title>4</title>
<text text-anchor="middle" x="112.5" y="-188.3" font-family="Times,serif" font-size="14.00">4 (to)</text>
</g>
<!-- 6&#45;&gt;4 -->
<g id="edge6" class="edge">
<title>6&#45;&gt;4</title>
<path fill="none" stroke="black" d="M169.93,-260.8C159.49,-248.47 145.26,-231.68 133.58,-217.89"/>
<polygon fill="black" stroke="black" points="136.18,-215.54 127.05,-210.18 130.84,-220.07 136.18,-215.54"/>
<text text-anchor="middle" x="165.5" y="-231.8" font-family="Times,serif" font-size="14.00">case</text>
</g>
<!-- 5 -->
<g id="node8" class="node">
<title>5</title>
<text text-anchor="middle" x="184.5" y="-188.3" font-family="Times,serif" font-size="14.00">5 (a)</text>
</g>
<!-- 6&#45;&gt;5 -->
<g id="edge7" class="edge">
<title>6&#45;&gt;5</title>
<path fill="none" stroke="black" d="M184.5,-260.8C184.5,-249.16 184.5,-233.55 184.5,-220.24"/>
<polygon fill="black" stroke="black" points="188,-220.18 184.5,-210.18 181,-220.18 188,-220.18"/>
<text text-anchor="middle" x="193" y="-231.8" font-family="Times,serif" font-size="14.00">det</text>
</g>
<!-- 12 -->
<g id="node9" class="node">
<title>12</title>
<text text-anchor="middle" x="271.5" y="-188.3" font-family="Times,serif" font-size="14.00">12 (marked)</text>
</g>
<!-- 6&#45;&gt;12 -->
<g id="edge8" class="edge">
<title>6&#45;&gt;12</title>
<path fill="none" stroke="black" d="M202.11,-260.8C214.84,-248.36 232.23,-231.36 246.42,-217.5"/>
<polygon fill="black" stroke="black" points="249.21,-219.67 253.92,-210.18 244.32,-214.66 249.21,-219.67"/>
<text text-anchor="middle" x="255.5" y="-231.8" font-family="Times,serif" font-size="14.00">acl:relcl</text>
</g>
<!-- 7 -->
<g id="node10" class="node">
<title>7</title>
<text text-anchor="middle" x="139.5" y="-101.3" font-family="Times,serif" font-size="14.00">7 (where)</text>
</g>
<!-- 12&#45;&gt;7 -->
<g id="edge10" class="edge">
<title>12&#45;&gt;7</title>
<path fill="none" stroke="black" d="M229.69,-176.99C210.3,-170.05 189.75,-161.91 181.5,-156 172.14,-149.3 163.6,-140.04 156.7,-131.32"/>
<polygon fill="black" stroke="black" points="159.41,-129.11 150.61,-123.22 153.82,-133.31 159.41,-129.11"/>
<text text-anchor="middle" x="203.5" y="-144.8" font-family="Times,serif" font-size="14.00">advmod</text>
</g>
<!-- 9 -->
<g id="node12" class="node">
<title>9</title>
<text text-anchor="middle" x="227.5" y="-101.3" font-family="Times,serif" font-size="14.00">9 (streets)</text>
</g>
<!-- 12&#45;&gt;9 -->
<g id="edge11" class="edge">
<title>12&#45;&gt;9</title>
<path fill="none" stroke="black" d="M247.74,-173.92C242.2,-168.78 236.93,-162.71 233.5,-156 229.94,-149.04 228.14,-140.85 227.29,-133.13"/>
<polygon fill="black" stroke="black" points="230.78,-132.82 226.67,-123.06 223.79,-133.26 230.78,-132.82"/>
<text text-anchor="middle" x="259.5" y="-144.8" font-family="Times,serif" font-size="14.00">nsubjpass</text>
</g>
<!-- 10 -->
<g id="node13" class="node">
<title>10</title>
<text text-anchor="middle" x="310.5" y="-101.3" font-family="Times,serif" font-size="14.00">10 (are)</text>
</g>
<!-- 12&#45;&gt;10 -->
<g id="edge12" class="edge">
<title>12&#45;&gt;10</title>
<path fill="none" stroke="black" d="M279.39,-173.8C284.84,-161.93 292.18,-145.93 298.36,-132.45"/>
<polygon fill="black" stroke="black" points="301.63,-133.72 302.62,-123.18 295.27,-130.8 301.63,-133.72"/>
<text text-anchor="middle" x="315" y="-144.8" font-family="Times,serif" font-size="14.00">auxpass</text>
</g>
<!-- 11 -->
<g id="node14" class="node">
<title>11</title>
<text text-anchor="middle" x="388.5" y="-101.3" font-family="Times,serif" font-size="14.00">11 (not)</text>
</g>
<!-- 12&#45;&gt;11 -->
<g id="edge13" class="edge">
<title>12&#45;&gt;11</title>
<path fill="none" stroke="black" d="M310.81,-173.93C320.89,-168.79 331.43,-162.72 340.5,-156 350.27,-148.76 359.81,-139.44 367.77,-130.82"/>
<polygon fill="black" stroke="black" points="370.55,-132.96 374.61,-123.17 365.33,-128.3 370.55,-132.96"/>
<text text-anchor="middle" x="368.5" y="-144.8" font-family="Times,serif" font-size="14.00">neg</text>
</g>
<!-- 8 -->
<g id="node11" class="node">
<title>8</title>
<text text-anchor="middle" x="227.5" y="-14.3" font-family="Times,serif" font-size="14.00">8 (the)</text>
</g>
<!-- 9&#45;&gt;8 -->
<g id="edge9" class="edge">
<title>9&#45;&gt;8</title>
<path fill="none" stroke="black" d="M227.5,-86.8C227.5,-75.16 227.5,-59.55 227.5,-46.24"/>
<polygon fill="black" stroke="black" points="231,-46.18 227.5,-36.18 224,-46.18 231,-46.18"/>
<text text-anchor="middle" x="236" y="-57.8" font-family="Times,serif" font-size="14.00">det</text>
</g>
</g>
</svg>
